<svg fill="none" height="50" viewBox="0 0 50 50" width="50" xmlns="http://www.w3.org/2000/svg" xmlns:xlink="http://www.w3.org/1999/xlink"><linearGradient id="a" gradientUnits="userSpaceOnUse" x1="25" x2="25" y1="50" y2="0"><stop offset="0" stop-color="#ff8a15"/><stop offset="1" stop-color="#f9aa3a"/></linearGradient><rect fill="url(#a)" height="50" rx="25" width="50"/><g fill="#443e3d"><path d="m11.5597 30.6946c1.8638-.2743 2.9806-1.3856 2.9782-2.9493 0-1.5612-1.1359-2.6966-3.0116-2.9468 0-1.8475-.043-3.7046.019-5.5593.0287-.8684.7828-1.5299 1.6968-1.6863.3102-.0529.6324-.0481.9474-.0505 7.1975-.0024 14.3949-.0024 21.5924-.0024 2.0069 0 2.7181.6856 2.7181 2.6197v4.6523c-1.9497.344-3.0379 1.4602-3.0141 3.0359.0239 1.5131 1.1312 2.6004 2.9998 2.8963 0 1.8258.0406 3.6613-.0167 5.4943-.031.9719-.9021 1.6983-1.9593 1.7825-.3937.0313-.7923.0145-1.1908.0145h-20.8788c-2.2982 0-2.9401-.611-2.9401-2.8001 0-1.4313.0024-2.8602.0072-4.2916.0047-.0481.0262-.0986.0525-.2092zm13.4164-4.7871c1.9545 0 3.909.0048 5.8635-.0024.9235-.0024 1.3674-.3945 1.3865-1.198.0239-.9189-.4272-1.4025-1.3627-1.4049-3.8827-.0072-7.7654-.0072-11.6505 0-.9736.0024-1.439.4571-1.4342 1.3399.0048.8636.4319 1.2558 1.408 1.2606 1.933.0096 3.8612.0048 5.7894.0048zm-.0549 3.6805c-1.8757 0-3.7514-.0024-5.6295 0-1.019.0024-1.5202.4474-1.5106 1.3279.0095.8756.4653 1.2749 1.4891 1.2749 3.8326.0048 7.6628.0048 11.4954 0 1.0166-.0024 1.4724-.4185 1.4629-1.2942-.012-.9213-.4272-1.3062-1.4414-1.3086-1.9545-.0048-3.909 0-5.8659 0z"/><path d="m15 15.5h13.5l-7.5373-3.6729c-.6814-.332-1.4618-.4145-2.2-.2326s-1.3854.6163-1.8245 1.2244z"/></g></svg>