<svg fill="none" height="50" viewBox="0 0 51 50" width="51" xmlns="http://www.w3.org/2000/svg" xmlns:xlink="http://www.w3.org/1999/xlink"><linearGradient id="a" gradientUnits="userSpaceOnUse" x1="25.5" x2="25.5" y1="50" y2="0"><stop offset="0" stop-color="#ff8a15"/><stop offset="1" stop-color="#f9aa3a"/></linearGradient><rect fill="url(#a)" height="50" rx="25" width="50" x=".5"/><path d="m38.5997 14.5076c-.0434-1.6987-1.4514-3.0417-3.1502-3.0069l-9.9799.2061c-1.011.0217-1.9742.4339-2.6837 1.152l-10.1621 10.2706c-1.4926 1.5078-1.4991 3.9355-.0152 5.4542l8.5567 8.7475c1.4991 1.5317 3.9551 1.5621 5.4911.0673l11.0104-10.7175c.3841-.3744.6867-.8242.8887-1.3211.202-.497.299-1.0303.285-1.5666zm-14.4101 15.9895 1.3169-5.2676-3.7967-.7745 6.9729-6.4696-.7485 4.4801 3.6926.7875z" fill="#443e3d"/></svg>