<svg fill="none" height="50" viewBox="0 0 50 50" width="50" xmlns="http://www.w3.org/2000/svg" xmlns:xlink="http://www.w3.org/1999/xlink"><linearGradient id="a" gradientUnits="userSpaceOnUse" x1="25" x2="25" y1="50" y2="0"><stop offset="0" stop-color="#ff8a15"/><stop offset="1" stop-color="#f9aa3a"/></linearGradient><rect fill="url(#a)" height="50" rx="25" width="50"/><path clip-rule="evenodd" d="m16.9663 12h15.6315c2.1887 0 3.9662 1.7753 3.964 3.9663v18.955c0 1.1214-1.2157 1.818-2.1843 1.254l-3.3033-1.9281c-.2644-.1546-.571-.2215-.8757-.1913-.3048.0303-.5922.1563-.821.3598l-3.6202 3.218c-.5506.4899-1.382.4876-1.9326-.0022l-3.5843-3.2c-.2275-.2031-.5132-.3292-.8166-.3607-.3033-.0315-.6088.0334-.8732.1854l-3.3753 1.9393c-.9686.5573-2.1753-.1416-2.1753-1.2584v-18.9708c0-2.191 1.7753-3.9663 3.9663-3.9663zm11.6538 13.3018 2.1506-2.0966c.427-.4157.191-1.1393-.3977-1.2247l-2.9731-.4315c-.2337-.0337-.4359-.182-.5416-.3932l-1.328-2.6922c-.263-.5348-1.0248-.5348-1.2877 0l-1.3281 2.6922c-.1056.2112-.3078.3595-.5415.3932l-2.9731.4315c-.5887.0854-.8247.809-.3977 1.2247l2.1505 2.0966c.1686.1663.2472.4023.2068.636l-.5079 2.9595c-.0989.5865.5169 1.0337 1.0427.7573l2.6584-1.3977c.209-.1101.4585-.1101.6674 0l2.6585 1.3977c.5281.2764 1.1438-.1708 1.0427-.7573l-.5079-2.9595c-.0404-.2337.0382-.4719.2067-.636z" fill="#443e3d" fill-rule="evenodd"/></svg>