<svg fill="none" height="50" viewBox="0 0 50 50" width="50" xmlns="http://www.w3.org/2000/svg" xmlns:xlink="http://www.w3.org/1999/xlink"><linearGradient id="a" gradientUnits="userSpaceOnUse" x1="25" x2="25" y1="50" y2="0"><stop offset="0" stop-color="#ff8a15"/><stop offset="1" stop-color="#f9aa3a"/></linearGradient><rect fill="url(#a)" height="50" rx="25" width="50"/><path d="m39.9771 21.2042-5.5941-7.2972c-.4385-.5724-1.1193-.907-1.8393-.907h-15.2592c-.7131 0-1.387.3277-1.8255.8908l-5.46716 6.988c-.69695.8931-.64849 2.1578.11536 2.9932l13.1637 14.3753c.9116.997 2.4809 1.0039 3.404.0185l13.1545-14.0684c.7731-.8261.8354-2.0931.1477-2.9932zm-7.1311 3.3994-6.8657 7.5419c-.1076.1176-.2384.2116-.3842.2759-.1458.0644-.3034.0977-.4628.098h-.0069c-.161-.0014-.3199-.0364-.4665-.1027-.1467-.0664-.2778-.1627-.3851-.2827l-6.6418-7.4842c-.2016-.2274-.3047-.5256-.2865-.829.0182-.3033.1561-.5871.3834-.7888.2274-.2016.5256-.3046.8289-.2865.3034.0182.5871.1561.7889.3834l5.7949 6.5311 6.0072-6.598c.1013-.1114.2236-.2018.3599-.2659.1363-.0642.2839-.1009.4343-.1079.1505-.0071.3008.0156.4425.0666.1417.0511.272.1296.3833.2311.1115.101.2019.2231.266.3592.0642.1361.1009.2835.108.4338.007.1503-.0156.3005-.0667.4421-.0511.1415-.1296.2715-.2311.3826z" fill="#443e3d"/></svg>