<svg fill="none" height="24" viewBox="0 0 165 24" width="165" xmlns="http://www.w3.org/2000/svg" xmlns:xlink="http://www.w3.org/1999/xlink"><linearGradient id="a" gradientUnits="userSpaceOnUse" x1="35.3491" x2="68.9914" y1="33.8499" y2="-40.3682"><stop offset="0" stop-color="#c49890"/><stop offset=".9986" stop-color="#f9eccc"/></linearGradient><g fill="url(#a)"><path d="m15.052 2.91006c-.12-.6-.36-1.872-.552-2.471998h-4.272c.12.360001.432 1.703998.624 2.471998h-8.42398v7.72804c0 4.584-.792 7.32-2.303997 10.416l3.647997 1.704c1.464-3.648 2.328-6.6 2.328-12.648v-3.48004h16.03198v-3.72z"/><path d="m38.4576 7.78206 5.904-2.856v-3.768h-11.808v3.624h5.592l-6.528 3.528v2.85604h1.848c-.48 1.92-1.32 3.528-3.144 5.088-.12.024-.288.072-.48.096v-6.168h1.56v-4.12804h-1.56v-5.495998l-3.6-.095999v5.591997h-1.512v4.12804h1.512v6.768l-2.232.312.48 4.224c1.512-.192 5.496-.888 7.128-1.272l-.096-2.784 1.392 1.032c1.752-1.824 2.952-4.248 3.72-7.296h1.1281c-1.0801 4.68-2.4481 6.936-5.4481 9.624l3.36 2.136c1.224-1.32 2.16-2.544 2.9281-3.96l1.2239 3.648 1.992-.192c2.592-.264 3.4081-.768 3.528-3.72.0961-1.848.168-8.424.264-10.92004zm3.384 9.14404c-.096 1.416-.672 1.728-1.848 1.824l-1.32.12c1.152-2.184 1.848-4.56 2.256-7.704h1.104c-.072 1.536-.12 4.8-.192 5.76z"/><path d="m65.6793 18.3181 2.664-2.904c-1.272-1.176-2.736-2.544-4.272-3.912 1.32-1.344 2.496-2.71204 3.624-4.17604l-3.24-2.4h4.68v-3.888h-20.04v21.24004h20.256v-3.96zm-12.624-13.39204h11.352c-1.056 1.344-2.16 2.616-3.408 3.84-1.56-1.416-3.048-2.688-4.32-3.744l-2.832 2.664c1.248 1.128 2.664 2.40004 4.128 3.76804-1.464 1.224-3.072 2.352-4.872 3.48l2.736 3.312c1.92-1.272 3.624-2.568 5.184-3.912 1.368 1.344 2.736 2.664 4.056 3.984h-12.024z"/><path d="m87.5489 7.90206 4.704-2.856v-3.792h-9.696v3.624h4.416l-4.824 3.528v2.88004h.936c-.456 1.608-1.152 3.312-2.088 4.848v-12.55204h-2.592v-3.047998l-3.48-.096v3.143998h-2.592v15.36004h2.592v3.816h3.48v-3.816h2.088l1.344 1.008c1.8-2.184 3-5.208 3.744-8.664h.96c-.96 4.416-2.112 7.248-4.416 9.816l2.784 1.896c.888-1.2 1.632-2.52 2.232-3.936l1.08 3.6.864-.12c2.856-.384 3.648-.624 3.768-3.744.096-1.824.216-8.4.216-10.89604zm-11.976-.312v2.232h-1.008v-2.232zm3.192 2.232h-.984v-2.232h.984zm10.944 7.22404c0 1.44-.48 1.656-1.512 1.776l-.984.12c.864-2.184 1.44-4.656 1.8-7.656h.84c0 1.536-.144 4.728-.144 5.76zm-15.144-4.056h1.008v1.968h-1.008zm3.216 1.968v-1.968h.984v1.968z"/><path d="m116.955 1.83006h-8.136c-.168-.576-.336-1.271998-.36-1.367997l-4.824.048c.168.359999.288.839997.456 1.319997h-8.2325v3h21.0965zm-2.4 8.56804v-4.84804h-16.2245v4.84804zm-12.504-2.88004h8.784v.96h-8.784zm15.024 7.87204h-7.608l5.808-1.656v-2.544h-17.7605v2.712h10.9685l-3.648 1.008v.48h-9.0245v2.784h9.0245v.336c0 1.032-.36 1.2-1.344 1.272l-2.016.144.96 3.072 2.568-.216c3.072-.264 3.864-.744 3.864-2.904v-1.704h8.208z"/><path d="m122.192 1.11006v9.14404c0 5.472-.912 7.704-3.288 10.656l4.128 2.112c1.56-2.208 2.448-4.08 2.832-6.744h9.072v1.128c0 .84-.264 1.104-1.32 1.224l-2.568.264 1.296 3.96 2.568-.264c3-.312 3.864-.984 3.864-3.96v-17.52004zm12.744 3.864v2.136h-8.784v-2.136zm-8.784 7.68004v-.768-1.296h8.784v2.064z"/><path d="m164.702 12.3181v-3.93604h-10.104v-2.112h7.752v-3.72h-7.752v-2.039997l-4.08-.096001v7.967998h-7.296v3.93604h7.296v10.392h4.08v-6.768c1.896 1.272 4.896 3.408 6.744 4.8l1.944-3.36c-1.296-.96-5.232-3.552-6.936-4.56l-1.752 2.496v-3z"/></g></svg>