<svg fill="none" height="19" viewBox="0 0 56 19" width="56" xmlns="http://www.w3.org/2000/svg"><path d="m56 0h-46.5c-5.2467 0-9.5 4.2533-9.5 9.5 0 5.2467 4.25329 9.5 9.5 9.5h46.5z" fill="#2d2444"/><path d="m8.84 5.73v8.78h.7v-8.09h1.65c-.26.83-.63 1.77-1.1 2.81.7.84 1.05 1.61 1.05 2.29 0 .21-.07.36-.19.45-.13.08-.38.13-.75.15-.1 0-.23-.02-.39-.04l.24.73c.72-.01 1.22-.13 1.5-.36.2-.19.31-.5.31-.93-.04-.72-.39-1.52-1.03-2.4.42-.98.78-1.91 1.08-2.81v-.58zm4.25 2.5h2.95v1.13h-2.95zm2.95-.66h-2.95v-1.15h2.95zm-1.8 2.45c.34 1.87 1.35 3.34 3.01 4.4l.4-.63c-.76-.45-1.36-.99-1.82-1.62.57-.29 1.08-.71 1.54-1.25l-.47-.47c-.45.54-.92.94-1.4 1.21-.29-.5-.49-1.05-.61-1.64h1.85v-4.28h-4.36v7.74c0 .1-.08.18-.22.23l.17.62c1.09-.29 1.99-.59 2.71-.9l-.16-.67c-.59.27-1.19.5-1.79.68v-3.42zm7.46-3.94h-2.88v7.61h.7v-.91h1.48v.67h.7zm-2.18 6.03v-2.41h1.48v2.41zm0-3.08v-2.29h1.48v2.29zm3.62.03-.59.37c.6.92 1.07 1.76 1.42 2.51l.6-.42c-.33-.7-.81-1.52-1.43-2.46zm2.28 5.34c.62 0 .93-.32.93-.95v-5.59h1.23v-.69h-1.23v-1.76h-.73v1.76h-3.46v.69h3.46v5.41c0 .31-.15.47-.44.47-.53 0-1.08-.02-1.66-.04l.15.7zm10.29-5.59h-2.34v-3.49h-.74v3.49h-2.34v-2.73h-.72v3.43h3.06v3.67h-2.82v-2.73h-.73v3.98h.73v-.56h6.38v.56h.73v-3.98h-.73v2.73h-2.82v-3.67h3.06v-3.43h-.72zm10.82 2.81h-6.72v2.92h.71v-.49h5.3v.49h.71zm-6.01 1.79v-1.17h5.3v1.17zm-.71-5.48v2.91h7.36v-.61h-3.2v-.75h2.62v-.57h-2.62v-.7h2.6v-.57h-2.6v-.73h3.04v-.6h-2.91c-.14-.38-.29-.73-.45-1.04l-.74.12c.18.28.34.58.49.92h-2.48c.15-.29.28-.58.4-.88l-.7-.14c-.43 1.12-1.17 2.16-2.21 3.11l.22.71c.43-.37.82-.76 1.18-1.18zm3.45 2.3h-2.76v-.75h2.76zm0-1.32h-2.76v-.7h2.76zm0-1.27h-2.76v-.62c.02-.04.04-.07.07-.11h2.69z" fill="#fff"/></svg>