<?xml version="1.0" encoding="UTF-8"?>
<svg width="16px" height="16px" viewBox="0 0 16 16" version="1.1" xmlns="http://www.w3.org/2000/svg" xmlns:xlink="http://www.w3.org/1999/xlink">
    <title>Cancel</title>
    <g id="Symbols" stroke="none" stroke-width="1" fill="none" fill-rule="evenodd">
        <g id="rwd-header/ic/ic_header_close/modal" transform="translate(-4.000000, -4.000000)" fill="#404040" fill-rule="nonzero">
            <path d="M6.2437239,4.87171118 L6.33583774,4.95305115 L12,10.6164444 L17.6641623,4.95305115 C18.0460082,4.57120517 18.6651029,4.57120517 19.0469489,4.95305115 C19.3994221,5.30552435 19.4265354,5.86015028 19.1282888,6.2437239 L19.0469489,6.33583774 L13.3825778,12 L19.0469489,17.6641623 C19.4287948,18.0460082 19.4287948,18.6651029 19.0469489,19.0469489 C18.6944756,19.3994221 18.1398497,19.4265354 17.7562761,19.1282888 L17.6641623,19.0469489 L12,13.3825778 L6.33583774,19.0469489 C5.95399177,19.4287948 5.33489712,19.4287948 4.95305115,19.0469489 C4.60057794,18.6944756 4.57346462,18.1398497 4.87171118,17.7562761 L4.95305115,17.6641623 L10.6164444,12 L4.95305115,6.33583774 C4.57120517,5.95399177 4.57120517,5.33489712 4.95305115,4.95305115 C5.27615159,4.62995071 5.76911646,4.58024295 6.14448288,4.80392787 L6.2437239,4.87171118 Z" id="Cancel"></path>
        </g>
    </g>
</svg>