<svg width="15" height="16" viewBox="0 0 15 16" fill="none" xmlns="http://www.w3.org/2000/svg">
    <g clip-path="url(#7hlcocf7ma)">
        <path d="M5.093 12.825a4.875 4.875 0 0 0 6.094-7.13l1.076-1.077a6.375 6.375 0 0 1-7.895 9.524l.107.401a.75.75 0 0 1-1.449.389l-.582-2.173a.75.75 0 0 1 .53-.919l2.173-.582a.75.75 0 0 1 .389 1.449l-.443.119v-.001zM8.632 2.197l-.308-.534a.75.75 0 1 1 1.299-.75l1.125 1.949a.75.75 0 0 1-.275 1.024L8.525 5.011a.75.75 0 1 1-.75-1.3l.206-.118a4.875 4.875 0 0 0-5.429 6.494l-1.14 1.139a6.375 6.375 0 0 1 7.22-9.029z" fill="#fff"/>
    </g>
    <defs>
        <clipPath id="7hlcocf7ma">
            <path fill="#fff" transform="translate(0 .5)" d="M0 0h15v15H0z"/>
        </clipPath>
    </defs>
</svg>
