<svg fill="none" height="9" viewBox="0 0 13 9" width="13" xmlns="http://www.w3.org/2000/svg"><g fill="#fff"><path d="m0 .311328c.112916-.2498818.321376-.311328.590638-.311328.781722.00819283 1.563452.00409642 2.345182 0 .19543 0 .34743.0614463.47772.200724 1.25945 1.323146 2.52324 2.646286 3.78269 3.965336.22149.23349.22149.43012 0 .66362-1.25945 1.32314-2.52324 2.64218-3.78269 3.96533-.13029.13927-.28229.20072-.47772.20072-.78173 0-1.56346-.00819-2.345182 0-.269262 0-.477722-.06145-.590638-.31133v-.19253c.0477722-.09831.108573-.18434.186746-.26627 1.155214-1.20844 2.306094-2.41688 3.465654-3.62532.08252-.08603.08252-.13109 0-.21711-1.15956-1.20025-2.31044-2.4087-3.465654-3.61714-.078173-.081928-.1346309-.167953-.186746-.266267v-.192532z" fill-opacity=".3"/><path d="m7.36559 8.99572c-.41258 0-.8295 0-1.24208 0-.30834 0-.50812-.18434-.49075-.44242.00869-.11879.07818-.20891.15635-.29084 1.12916-1.18387 2.25832-2.36363 3.38748-3.5475.20412-.21301.20412-.21301 0-.42603-1.1335-1.18386-2.26266-2.37182-3.39182-3.555686-.23887-.249881-.17806-.573498.12594-.6881975.07383-.028675.15635-.03686779.23452-.03686779h2.44941c.1824 0 .32137.06144629.44298.18843529 1.26378 1.327236 2.52758 2.650386 3.79138 3.973526.2302.23759.2258.43012 0 .67181-1.2595 1.32314-2.5232 2.64219-3.7827 3.96533-.12594.13109-.26926.19663-.456.19253-.4039-.00409-.81213 0-1.21602 0z" fill-opacity=".64"/></g></svg>