<svg fill="none" height="12" viewBox="0 0 10 12" width="10" xmlns="http://www.w3.org/2000/svg" xmlns:xlink="http://www.w3.org/1999/xlink"><linearGradient id="a" gradientUnits="userSpaceOnUse" x1="5.01231" x2="5.0123" y1="-.000015" y2="12"><stop offset="0" stop-color="#fff"/><stop offset="1" stop-color="#d0d0d0"/></linearGradient><clipPath id="b"><path d="m0 0h10v12h-10z"/></clipPath><g clip-path="url(#b)"><path d="m5.57695 7.14286c0 .31514-.25353.57143-.56467.57143-.31142 0-.56467-.25629-.56467-.57143 0-.31515.25325-.57143.56467-.57143.31114 0 .56467.25628.56467.57143zm4.23533 0c0 2.67828-2.15338 4.85714-4.8 4.85714-2.6469 0-4.8-2.17886-4.8-4.85714 0-2.67829 2.1531-4.85715 4.8-4.85715 2.64662 0 4.8 2.17886 4.8 4.85715zm-3.67065 0c0-.53086-.36111-.97429-.84701-1.10229v-2.32628c0-.07578-.02975-.14845-.0827-.20204-.05295-.05358-.12476-.08368-.19964-.08368s-.14669.0301-.19964.08368c-.05295.05359-.0827.12626-.0827.20204v2.32628c-.4859.128-.847.57143-.847 1.10229 0 .63028.50651 1.14285 1.12934 1.14285s1.12935-.51257 1.12935-1.14285zm-1.97636-6.571431h.28234v.857141c0 .31514.25325.57143.56467.57143.31114 0 .56467-.25629.56467-.57143v-.857141h.28234c.03708 0 .07379-.007391.10804-.021749.03426-.014359.06538-.035404.0916-.061935s.04702-.058028.0612-.092693c.01419-.034664.0215-.071817.0215-.109338 0-.03752-.00731-.074673-.0215-.109338-.01418-.034664-.03498-.066161-.0612-.0926922-.02622-.026531-.05734-.0475766-.0916-.0619351-.03425-.01435848-.07096-.0217487-.10804-.0217487h-1.69402c-.03708 0-.07379.00739022-.10804.0217487-.03426.0143585-.06538.0354041-.0916.0619351-.02622.0265312-.04701.0580282-.0612.0926922-.01419.034665-.02149.071818-.02149.109338 0 .037521.0073.074674.02149.109338.01419.034665.03498.066162.0612.092693s.05734.047576.0916.061935c.03425.014358.07096.021749.10804.021749zm4.8 2.857141c.03709.0001.07383-.00724.1081-.02161.03426-.01437.06537-.03548.09151-.0621l.56468-.57143c.05143-.05389.07988-.12606.07924-.20097-.00064-.07492-.03034-.14658-.08268-.19955-.05235-.05297-.12316-.08302-.19719-.08367-.07403-.00066-.14535.02814-.1986.08019l-.56467.57143c-.03961.0399-.06661.09082-.07758.14628s-.00541.11297.01598.16522c.02139.05226.05764.09691.10414.12828.04651.03137.10118.04806.15707.04793z" fill="url(#a)"/></g></svg>