<svg width="90" height="90" viewBox="0 0 90 90" fill="none" xmlns="http://www.w3.org/2000/svg">
<g clip-path="url(#clip0_459_19084)">
<rect width="90" height="90" rx="45" fill="url(#paint0_linear_459_19084)"/>
<path d="M24.8802 37.7151C24.8802 33.6995 21.9114 30.436 18.2245 30.3635C18.319 29.8621 18.3698 29.3434 18.3698 28.8121C18.3698 24.5868 15.2106 21.1609 11.3143 21.1609C8.69444 21.1609 6.41044 22.7107 5.19356 25.0094C4.44337 24.653 3.61613 24.4544 2.74527 24.4544C0.150139 24.4544 -2.06408 26.2076 -2.95238 28.6812C-3.34638 28.6198 -3.74764 28.5866 -4.15763 28.5866C-8.8056 28.5866 -12.574 32.6732 -12.574 37.7135C-12.574 42.7539 -8.8056 46.8404 -4.15763 46.8404C-2.26907 46.8404 -0.5259 46.1657 0.878523 45.0274H17.371C17.6095 45.0542 17.8508 45.0699 18.0965 45.0699C18.3422 45.0699 18.5836 45.0557 18.822 45.0274C22.2284 44.6364 24.8802 41.5116 24.8802 37.7151Z" fill="url(#paint1_linear_459_19084)"/>
<path d="M24.8802 37.7151C24.8802 33.6995 21.9114 30.436 18.2245 30.3635C18.319 29.8621 18.3698 29.3434 18.3698 28.8121C18.3698 24.5868 15.2106 21.1609 11.3143 21.1609C8.69444 21.1609 6.41044 22.7107 5.19356 25.0094C4.44337 24.653 3.61613 24.4544 2.74527 24.4544C0.150139 24.4544 -2.06408 26.2076 -2.95238 28.6812C-3.34638 28.6198 -3.74764 28.5866 -4.15763 28.5866C-8.8056 28.5866 -12.574 32.6732 -12.574 37.7135C-12.574 42.7539 -8.8056 46.8404 -4.15763 46.8404C-2.26907 46.8404 -0.5259 46.1657 0.878523 45.0274H17.371C17.6095 45.0542 17.8508 45.0699 18.0965 45.0699C18.3422 45.0699 18.5836 45.0557 18.822 45.0274C22.2284 44.6364 24.8802 41.5116 24.8802 37.7151Z" fill="url(#paint2_linear_459_19084)"/>
<path d="M24.8802 37.7151C24.8802 33.6995 21.9114 30.436 18.2245 30.3635C18.319 29.8621 18.3698 29.3434 18.3698 28.8121C18.3698 24.5868 15.2106 21.1609 11.3143 21.1609C8.69444 21.1609 6.41044 22.7107 5.19356 25.0094C4.44337 24.653 3.61613 24.4544 2.74527 24.4544C0.150139 24.4544 -2.06408 26.2076 -2.95238 28.6812C-3.34638 28.6198 -3.74764 28.5866 -4.15763 28.5866C-8.8056 28.5866 -12.574 32.6732 -12.574 37.7135C-12.574 42.7539 -8.8056 46.8404 -4.15763 46.8404C-2.26907 46.8404 -0.5259 46.1657 0.878523 45.0274H17.371C17.6095 45.0542 17.8508 45.0699 18.0965 45.0699C18.3422 45.0699 18.5836 45.0557 18.822 45.0274C22.2284 44.6364 24.8802 41.5116 24.8802 37.7151Z" fill="url(#paint3_linear_459_19084)" fill-opacity="0.2"/>
<path d="M65.8201 23.7069C65.8201 21.2515 67.7249 19.2608 70.0744 19.2608C70.3769 19.2608 70.672 19.2944 70.9564 19.3568C71.4514 16.3952 73.9223 14.1431 76.8982 14.1431C79.0572 14.1431 80.95 15.3291 82.0164 17.1109C82.221 17.0808 82.4296 17.064 82.6422 17.064C84.4035 17.064 85.9253 18.135 86.6443 19.6876C86.7899 19.6729 86.9368 19.6645 87.0857 19.6645C89.5599 19.6645 91.566 21.7611 91.566 24.3469C91.566 26.9327 89.5599 29.0293 87.0857 29.0293C86.0917 29.0293 85.1741 28.6907 84.431 28.1181H70.5989C70.4272 28.1405 70.2521 28.1524 70.0744 28.1524C69.8987 28.1524 69.7256 28.1398 69.5553 28.1181H69.5338V28.1152C67.4398 27.8384 65.8201 25.971 65.8201 23.7069V23.7069Z" fill="url(#paint4_linear_459_19084)"/>
<path d="M91.8125 80.8992C83.2556 66.5167 64.5414 58.4084 46.39 58.4084C28.2386 58.4084 8.29655 66.5168 -0.2603 80.8995L91.8125 80.8992Z" fill="url(#paint5_linear_459_19084)"/>
<path d="M77.8847 60.9276C77.8196 60.4917 77.4158 60.2011 76.9859 60.2672C76.556 60.3332 76.2694 60.7427 76.3346 61.1785C76.4518 61.9182 76.5951 64.2296 75.8005 65.1673C75.6311 65.3654 75.4227 65.4843 75.1622 65.5371L75.2403 61.1257C75.2533 60.4785 74.7453 59.9502 74.107 59.9502C73.4687 59.9502 72.9606 60.4785 72.9737 61.1257L73.1821 69.4995C72.9085 69.4599 72.7001 69.3278 72.5177 69.1297C71.7231 68.1919 71.8664 65.8805 71.9836 65.1409C72.0488 64.705 71.7622 64.2956 71.3323 64.2296C70.9024 64.1635 70.4986 64.4541 70.4335 64.89C70.3814 65.2598 69.9384 68.4957 71.3323 70.1599C71.8143 70.7278 72.4656 71.058 73.2212 71.0977L73.3124 74.7431H75.0189L75.1491 67.1353C75.8916 67.0825 76.53 66.7523 76.9989 66.1975C78.3928 64.5333 77.9499 61.2842 77.8847 60.9276Z" fill="url(#paint6_linear_459_19084)"/>
<path d="M21.8427 54.1777C21.758 53.6271 21.233 53.2601 20.6742 53.3435C20.1153 53.4269 19.7428 53.9441 19.8274 54.4947C19.9799 55.429 20.1661 58.3486 19.1331 59.5332C18.913 59.7834 18.642 59.9336 18.3033 60.0003L18.4049 54.428C18.4219 53.6105 17.7614 52.9431 16.9316 52.9431C16.1018 52.9431 15.4414 53.6105 15.4583 54.428L15.7292 65.0054C15.3736 64.9554 15.1027 64.7885 14.8656 64.5383C13.8326 63.3537 14.0188 60.4341 14.1713 59.4998C14.2559 58.9492 13.8834 58.432 13.3245 58.3486C12.7657 58.2652 12.2407 58.6322 12.156 59.1828C12.0883 59.65 11.5125 63.7375 13.3245 65.8396C13.9511 66.557 14.7978 66.9741 15.7801 67.0241L15.8986 71.6288H18.117L18.2864 62.019C19.2517 61.9523 20.0815 61.5352 20.6911 60.8345C22.5031 58.7324 21.9274 54.6282 21.8427 54.1777Z" fill="url(#paint7_linear_459_19084)"/>
<path d="M33.4059 66.9506C33.3538 66.6065 33.0307 66.3771 32.6868 66.4292C32.3429 66.4813 32.1136 66.8046 32.1657 67.1487C32.2595 67.7326 32.3742 69.5574 31.7385 70.2977C31.603 70.4541 31.4362 70.548 31.2278 70.5897L31.2903 67.107C31.3008 66.596 30.8943 66.179 30.3837 66.179C29.873 66.179 29.4666 66.596 29.477 67.107L29.6438 73.7179C29.4249 73.6866 29.2582 73.5823 29.1123 73.4259C28.4766 72.6856 28.5912 70.8608 28.685 70.2769C28.7371 69.9328 28.5078 69.6095 28.1639 69.5574C27.82 69.5053 27.497 69.7347 27.4449 70.0788C27.4032 70.3707 27.0488 72.9254 28.1639 74.2393C28.5495 74.6876 29.0706 74.9483 29.675 74.9796L29.748 77.8575H31.1132L31.2174 71.8514C31.8114 71.8097 32.3221 71.549 32.6972 71.1111C33.8123 69.7972 33.458 67.2321 33.4059 66.9506Z" fill="url(#paint8_linear_459_19084)"/>
<path d="M49.3054 37.1457C55.9671 37.1457 61.3674 31.6659 61.3674 24.9061C61.3674 18.1464 55.9671 12.6665 49.3054 12.6665C42.6438 12.6665 37.2435 18.1464 37.2435 24.9061C37.2435 31.6659 42.6438 37.1457 49.3054 37.1457Z" fill="url(#paint9_linear_459_19084)"/>
<path fill-rule="evenodd" clip-rule="evenodd" d="M51.3366 12.8398C57.0311 13.8197 61.3674 18.8493 61.3674 24.9067C61.3674 30.964 57.0311 35.9936 51.3366 36.9735C47.2828 35.9943 44.1958 30.9644 44.1958 24.9067C44.1958 18.8877 47.2434 13.8835 51.2589 12.8589L51.3366 12.8398Z" fill="url(#paint10_linear_459_19084)"/>
<path d="M44.3617 41.9643C55.3012 45.1473 65.6579 42.4601 67.4941 35.9622C69.3303 29.4643 61.9507 21.6164 51.0112 18.4333C40.0717 15.2503 29.715 17.9375 27.8788 24.4354C26.0426 30.9333 33.4222 38.7812 44.3617 41.9643Z" fill="url(#paint11_linear_459_19084)"/>
<path d="M44.881 40.778C52.1142 43.022 58.9255 41.696 60.0944 37.8164C61.2633 33.9368 56.3472 28.9726 49.1139 26.7286C41.8807 24.4846 35.0694 25.8106 33.9005 29.6902C32.7316 33.5698 37.6477 38.534 44.881 40.778Z" fill="#CA4F28"/>
<path d="M45.1712 39.2505C49.7058 40.6573 53.941 39.9417 54.6308 37.6522C55.3206 35.3628 52.2038 32.3663 47.6692 30.9596C43.1346 29.5528 38.8994 30.2683 38.2096 32.5578C37.5198 34.8473 40.6366 37.8437 45.1712 39.2505Z" fill="url(#paint12_radial_459_19084)"/>
<path fill-rule="evenodd" clip-rule="evenodd" d="M38.3729 32.1486C39.3906 30.1567 43.4035 29.594 47.683 30.9217C51.5879 32.1331 54.4415 34.5233 54.7182 36.6258L54.7594 36.6373L60.1777 73.4354L14.8188 61.0109L38.3729 32.1486Z" fill="url(#paint13_linear_459_19084)"/>
<path fill-rule="evenodd" clip-rule="evenodd" d="M64.3834 29.1391C65.0435 29.1508 65.5692 29.7032 65.5577 30.3731C65.5462 31.0429 65.0017 31.5764 64.3416 31.5647C63.6815 31.553 63.1557 31.0006 63.1673 30.3307C63.1788 29.6609 63.7232 29.1274 64.3834 29.1391V29.1391ZM58.3167 23.5311C58.9768 23.5428 59.5026 24.0953 59.491 24.7651C59.4795 25.4349 58.9351 25.9685 58.2749 25.9568C57.6148 25.9451 57.089 25.3926 57.1006 24.7228C57.1121 24.0529 57.6566 23.5194 58.3167 23.5311V23.5311ZM32.7455 20.3164C33.4056 20.3281 33.9314 20.8806 33.9198 21.5504C33.9083 22.2202 33.3638 22.7538 32.7037 22.7421C32.0436 22.7304 31.5178 22.1779 31.5294 21.5081C31.5409 20.8382 32.0854 20.3047 32.7455 20.3164V20.3164ZM49.7267 19.404C50.3868 19.4157 50.9126 19.9681 50.9011 20.638C50.8895 21.3078 50.3451 21.8413 49.685 21.8296C49.0249 21.8179 48.4991 21.2655 48.5106 20.5956C48.5221 19.9258 49.0666 19.3923 49.7267 19.404V19.404ZM40.7087 18.3881C41.3688 18.3998 41.8946 18.9523 41.883 19.6221C41.8715 20.292 41.3271 20.8255 40.6669 20.8138C40.0068 20.8021 39.4811 20.2496 39.4926 19.5798C39.5041 18.91 40.0486 18.3764 40.7087 18.3881Z" fill="white"/>
<ellipse cx="51.4136" cy="46.1639" rx="1.22423" ry="1.24223" fill="url(#paint14_linear_459_19084)"/>
<ellipse cx="32.4932" cy="54.8597" rx="1.22423" ry="1.24223" fill="url(#paint15_linear_459_19084)"/>
<path d="M47.6603 46.2085C47.8025 45.8331 47.6023 45.4104 47.2208 45.2568C46.8393 45.1032 46.4211 45.2893 46.2789 45.6648C46.0431 46.305 45.1236 48.1991 44.0525 48.5594C43.825 48.6348 43.6011 48.6289 43.3642 48.5459L45.4069 45.0993C45.7079 44.5944 45.529 43.934 45.0065 43.6284C44.4841 43.3229 43.8312 43.497 43.5516 44.0144L39.9661 50.7276C39.76 50.5654 39.6486 50.3613 39.5882 50.1175C39.3584 48.9966 40.5125 47.2397 40.9402 46.7116C41.189 46.3986 41.1381 45.938 40.8159 45.6801C40.4936 45.4222 40.0328 45.4584 39.7839 45.7714C39.5754 46.0386 37.7614 48.3823 38.1558 50.3638C38.2956 51.043 38.6806 51.6156 39.2813 52.0085L37.7207 54.9312L39.1175 55.748L42.6366 49.8019C43.2681 50.1156 43.9387 50.1603 44.5714 49.9467C46.4588 49.2995 47.5536 46.5214 47.6603 46.2085Z" fill="url(#paint16_linear_459_19084)"/>
</g>
<defs>
<linearGradient id="paint0_linear_459_19084" x1="45" y1="0" x2="45" y2="90" gradientUnits="userSpaceOnUse">
<stop stop-color="#FFA927"/>
<stop offset="1" stop-color="white"/>
</linearGradient>
<linearGradient id="paint1_linear_459_19084" x1="6.53812" y1="42.9269" x2="5.98079" y2="21.1653" gradientUnits="userSpaceOnUse">
<stop stop-color="white" stop-opacity="0.2"/>
<stop offset="1" stop-color="white"/>
</linearGradient>
<linearGradient id="paint2_linear_459_19084" x1="6.1531" y1="21.1609" x2="6.1531" y2="46.8404" gradientUnits="userSpaceOnUse">
<stop stop-color="white"/>
<stop offset="1" stop-color="white" stop-opacity="0"/>
</linearGradient>
<linearGradient id="paint3_linear_459_19084" x1="6.1531" y1="21.1609" x2="6.1531" y2="46.8404" gradientUnits="userSpaceOnUse">
<stop stop-color="white"/>
<stop offset="1" stop-color="white" stop-opacity="0"/>
</linearGradient>
<linearGradient id="paint4_linear_459_19084" x1="78.4284" y1="26.7607" x2="78.7009" y2="14.1432" gradientUnits="userSpaceOnUse">
<stop stop-color="white" stop-opacity="0.2"/>
<stop offset="1" stop-color="white"/>
</linearGradient>
<linearGradient id="paint5_linear_459_19084" x1="45.7761" y1="77.6152" x2="46.5528" y2="58.4399" gradientUnits="userSpaceOnUse">
<stop stop-color="white" stop-opacity="0.2"/>
<stop offset="1" stop-color="white"/>
<stop offset="1" stop-color="white"/>
</linearGradient>
<linearGradient id="paint6_linear_459_19084" x1="74.1655" y1="74.3538" x2="74.0289" y2="59.9515" gradientUnits="userSpaceOnUse">
<stop stop-color="#FFA14A" stop-opacity="0"/>
<stop offset="0.307292" stop-color="#FFA800" stop-opacity="0.98"/>
<stop offset="1" stop-color="#FF4E27"/>
</linearGradient>
<linearGradient id="paint7_linear_459_19084" x1="17.0077" y1="71.1371" x2="16.8401" y2="52.9447" gradientUnits="userSpaceOnUse">
<stop stop-color="#FFA14A" stop-opacity="0"/>
<stop offset="0.307292" stop-color="#FFA800" stop-opacity="0.98"/>
<stop offset="1" stop-color="#FF4E27"/>
</linearGradient>
<linearGradient id="paint8_linear_459_19084" x1="30.4305" y1="77.5502" x2="30.3241" y2="66.18" gradientUnits="userSpaceOnUse">
<stop stop-color="#FFA14A" stop-opacity="0"/>
<stop offset="0.307292" stop-color="#FFA800" stop-opacity="0.98"/>
<stop offset="1" stop-color="#FF4E27"/>
</linearGradient>
<linearGradient id="paint9_linear_459_19084" x1="49.3054" y1="12.6665" x2="48.62" y2="22.9852" gradientUnits="userSpaceOnUse">
<stop offset="0.0001" stop-color="white"/>
<stop offset="1" stop-color="white"/>
</linearGradient>
<linearGradient id="paint10_linear_459_19084" x1="61.7453" y1="18.8044" x2="44.8681" y2="16.0324" gradientUnits="userSpaceOnUse">
<stop stop-color="white"/>
<stop offset="1" stop-color="#FFD43E"/>
</linearGradient>
<linearGradient id="paint11_linear_459_19084" x1="44.5432" y1="41.3469" x2="51.1282" y2="18.467" gradientUnits="userSpaceOnUse">
<stop stop-color="#FF5A5A"/>
<stop offset="1" stop-color="#FF8A00"/>
</linearGradient>
<radialGradient id="paint12_radial_459_19084" cx="0" cy="0" r="1" gradientUnits="userSpaceOnUse" gradientTransform="translate(47.2548 31.0902) rotate(107.07) scale(4.04918 8.0404)">
<stop stop-color="#F9A251"/>
<stop offset="1" stop-color="white"/>
</radialGradient>
<linearGradient id="paint13_linear_459_19084" x1="45.9506" y1="36.1752" x2="35.4634" y2="65.5512" gradientUnits="userSpaceOnUse">
<stop stop-color="#FFB800" stop-opacity="0.86"/>
<stop offset="1" stop-color="#FFC123" stop-opacity="0"/>
</linearGradient>
<linearGradient id="paint14_linear_459_19084" x1="51.414" y1="47.3407" x2="51.4019" y2="44.9217" gradientUnits="userSpaceOnUse">
<stop stop-color="#FFA14A" stop-opacity="0"/>
<stop offset="0.307292" stop-color="#FF9534"/>
<stop offset="1" stop-color="#FF1F00" stop-opacity="0.87"/>
</linearGradient>
<linearGradient id="paint15_linear_459_19084" x1="32.4936" y1="56.0365" x2="32.4815" y2="53.6175" gradientUnits="userSpaceOnUse">
<stop stop-color="#FFA14A" stop-opacity="0"/>
<stop offset="0.307292" stop-color="#FF9534"/>
<stop offset="1" stop-color="#FF1F00" stop-opacity="0.87"/>
</linearGradient>
<linearGradient id="paint16_linear_459_19084" x1="40.7326" y1="50.5363" x2="38.3578" y2="55.309" gradientUnits="userSpaceOnUse">
<stop stop-color="white"/>
<stop offset="1" stop-color="white" stop-opacity="0"/>
</linearGradient>
<clipPath id="clip0_459_19084">
<rect width="90" height="90" rx="45" fill="white"/>
</clipPath>
</defs>
</svg>
