<svg fill="none" height="7" viewBox="0 0 9 7" width="9" xmlns="http://www.w3.org/2000/svg" xmlns:xlink="http://www.w3.org/1999/xlink"><clipPath id="a"><path d="m.498901.672852h8.50105v5.65453h-8.50105z"/></clipPath><g clip-path="url(#a)"><path clip-rule="evenodd" d="m8.65978 1.4594c-.16926-.13482-.37194-.19634-.56816-.18004-.19622.01629-.39383.11106-.53003.27908l-2.6921 2.68724-2.6917-2.68684c-.1362-.16803-.33381-.26279-.53003-.27909s-.3989.04522-.56816.18004c-.331307.27807-.371381.76054-.098333 1.0888l3.187423 3.18167c.17859.21087.44623.30409.70252.2706.25537.03235.52159-.06096.69948-.27099l3.18742-3.18167c.27305-.32826.23298-.81074-.09833-1.0888z" fill="#2a2a2a" fill-rule="evenodd"/></g></svg>