<svg fill="none" height="14" viewBox="0 0 14 14" width="14" xmlns="http://www.w3.org/2000/svg" xmlns:xlink="http://www.w3.org/1999/xlink"><clipPath id="a"><path d="m3 2.99927h8v8h-8z"/></clipPath><ellipse cx="7" cy="6.99928" fill="#57cb9e" rx="7" ry="7.00001"/><g clip-path="url(#a)"><path d="m6.91771 2.99927h.16953c.07789.05085.16495.09322.23826.15678.23826.21186.46277.44068.71019.64407.43986.35593.89805.69915 1.3425 1.05084.44444.3517.86141.72458 1.17751 1.18644.3987.58475.5407 1.2161.3712 1.89831-.2658 1.06779-1.31503 1.60169-2.39178 1.49152-.38946-.03813-.72394-.2161-1.04009-.42372-.01833-.01272-.03208-.02119-.0504-.02967l-.02291.01272c.13287.34322.252.69067.4032 1.02544.15121.3347.33448.661.50401.983-.87972-.1398-1.77319-.144-2.68499.0043.43528-.6356.70561-1.32207.93471-2.0424-.03666.02542-.05499.03813-.07331.05084-.54983.3856-1.15922.5339-1.83735.38136-.56815-.12288-1.03092-.39407-1.32875-.86441-.42611-.67373-.42611-1.37712-.11455-2.08474.19244-.43645.49943-.80509.86598-1.12289.41238-.35593.84766-.69491 1.27836-1.03389.43528-.34322.87972-.67797 1.2646-1.07204.07789-.09322.16495-.17373.28408-.21186z" fill="#fff"/></g></svg>