<svg fill="none" height="90" viewBox="0 0 130 90" width="130" xmlns="http://www.w3.org/2000/svg" xmlns:xlink="http://www.w3.org/1999/xlink"><linearGradient id="a"><stop offset="0" stop-color="#c1c1c1" stop-opacity="0"/><stop offset="1" stop-color="#fff" stop-opacity=".44"/></linearGradient><linearGradient id="b" gradientUnits="userSpaceOnUse" x1="27.889" x2="27.889" xlink:href="#a" y1="40.5196" y2="26.1323"/><linearGradient id="c" gradientUnits="userSpaceOnUse" x1="105.424" x2="105.424" xlink:href="#a" y1="26.0521" y2=".101074"/><linearGradient id="d" gradientUnits="userSpaceOnUse" x1="65" x2="65" xlink:href="#a" y1="89.4829" y2="58.2847"/><linearGradient id="e"><stop offset="0" stop-color="#c4c4c4"/><stop offset="1" stop-color="#717171"/></linearGradient><linearGradient id="f" gradientUnits="userSpaceOnUse" x1="24.4881" x2="15.869" xlink:href="#e" y1="62.8922" y2="62.8922"/><linearGradient id="g" gradientUnits="userSpaceOnUse" x1="36.3739" x2="32.1078" xlink:href="#e" y1="81.5903" y2="81.5903"/><linearGradient id="h" gradientUnits="userSpaceOnUse" x1="107.062" x2="101.577" xlink:href="#e" y1="71.5579" y2="71.5579"/><linearGradient id="i" gradientUnits="userSpaceOnUse" x1="70.4164" x2="59.3802" y1="33.1336" y2="76.155"><stop offset="0" stop-color="#fff"/><stop offset="1" stop-color="#fff" stop-opacity="0"/></linearGradient><path d="m38.5685 35.4357c0-2.2567-1.693-4.0908-3.7956-4.1316.0539-.2817.0829-.5732.0829-.8718 0-2.3746-1.8016-4.3-4.0235-4.3-1.4941 0-2.7966.871-3.4905 2.1628-.4278-.2002-.8996-.3118-1.3962-.3118-1.4799 0-2.7426.9852-3.2492 2.3754-.2247-.0345-.4535-.0531-.6873-.0531-2.6506 0-4.7996 2.2966-4.7996 5.1292 0 2.8327 2.149 5.1293 4.7996 5.1293 1.077 0 2.071-.3792 2.8719-1.0189h9.4052c.136.015.2736.0239.4138.0239.1401 0 .2777-.008.4137-.0239 1.9425-.2198 3.4548-1.9759 3.4548-4.1095z" fill="url(#b)"/><path d="m82.5815 16.8253c0-4.2939 3.38-7.775 7.5491-7.775.5367 0 1.0604.05884 1.565.16793.8783-5.17881 5.2628-9.117156 10.5434-9.117156 3.831 0 7.19 2.073976 9.082 5.189846.363-.05271.733-.08213 1.11-.08213 3.126 0 5.826 1.87295 7.102 4.588.258-.02574.519-.04045.783-.04045 4.39 0 7.95 3.66626 7.95 8.18806s-3.56 8.188-7.95 8.188c-1.764 0-3.392-.592-4.711-1.5935h-24.5437c-.3047.0393-.6153.0601-.9307.0601-.3118 0-.6189-.0221-.9212-.0601h-.0381v-.0049c-3.7156-.4841-6.5898-3.7496-6.5898-7.7087z" fill="url(#c)"/><path d="m130 89.5792c-12.082-20.0124-38.5048-31.2945-64.1332-31.2945-25.6285 0-53.7852 11.2823-65.8668 31.2948z" fill="url(#d)"/><path d="m20.4286 78.4395h2.2286v-16.7173h-2.2286z" fill="#c1c1c1"/><path d="m28.0429 65.568c0 4.7692-2.7439 6.0006-6.1286 6.0006-3.3848 0-6.1285-1.2314-6.1285-6.0006s2.7437-14.0602 6.1285-14.0602c3.3847 0 6.1286 9.291 6.1286 14.0602z" fill="url(#f)"/><path d="m34.6666 89.5792h.8667v-8.693h-.8667z" fill="#c1c1c1"/><path d="m38.1333 82.9817c0 2.48-1.3581 3.1203-3.0334 3.1203-1.6752 0-3.0332-.6403-3.0332-3.1203s1.358-7.3113 3.0332-7.3113c1.6753 0 3.0334 4.8313 3.0334 7.3113z" fill="url(#g)"/><path d="m104.867 85.1439h1.114v-11.1449h-1.114z" fill="#c1c1c1"/><path d="m109.324 73.3417c0 3.1795-1.746 4.0004-3.9 4.0004s-3.9-.8209-3.9-4.0004c0-3.1794 1.746-9.3734 3.9-9.3734s3.9 6.194 3.9 9.3734z" fill="url(#h)"/><path d="m73.6323 38.8161c8.8033 0 15.9398-7.1365 15.9398-15.9398s-7.1365-15.93978-15.9398-15.93978-15.9398 7.13648-15.9398 15.93978 7.1365 15.9398 15.9398 15.9398z" fill="#b5b5b5"/><path clip-rule="evenodd" d="m76.3165 7.16162c7.5252 1.27613 13.2556 7.82628 13.2556 15.71478s-5.7304 14.4386-13.2556 15.7147c-5.357-1.2752-9.4365-7.8257-9.4365-15.7147 0-7.8386 4.0274-14.35565 9.3338-15.68991z" fill="#c7c7c7" fill-rule="evenodd"/><path d="m67.0989 45.0913c14.4563 4.1453 28.1426.6457 30.5692-7.8166 2.4269-8.4623-7.3257-18.6827-21.782-22.828-14.4564-4.1454-28.1427-.6458-30.5693 7.8165-2.4265 8.4623 7.3257 18.6828 21.7821 22.8281z" fill="#a2a2a2"/><path d="m67.7856 43.546c9.5586 2.9224 18.5597 1.1956 20.1044-3.8568 1.5446-5.0525-4.952-11.5174-14.5106-14.4398-9.5587-2.9223-18.5597-1.1956-20.1044 3.8569s4.9519 11.5173 14.5106 14.4397z" fill="#8c8c8c"/><path d="m68.1686 41.557c5.9924 1.832 11.5892.9002 12.5008-2.0814.9115-2.9816-3.2073-6.8839-9.1998-8.716-5.9924-1.832-11.5892-.9002-12.5008 2.0814-.9115 2.9816 3.2073 6.8839 9.1998 8.716z" fill="#c1c1c1"/><g clip-rule="evenodd" fill-rule="evenodd"><path d="m59.1664 32.3578c1.3449-2.5942 6.6479-3.3269 12.3033-1.5979 5.1603 1.5777 8.9312 4.6905 9.2969 7.4285l.0544.015 7.1603 47.9226-59.9413-16.1806z" fill="url(#i)" opacity=".330373"/><path d="m93.5578 28.389c.8723.0152 1.5671.7347 1.5519 1.607-.0153.8724-.7348 1.5672-1.6071 1.552-.8723-.0153-1.5671-.7348-1.5519-1.6071s.7347-1.5671 1.6071-1.5519zm-8.0171-7.3033c.8723.0152 1.5671.7347 1.5519 1.6071-.0152.8723-.7347 1.5671-1.607 1.5519-.8724-.0153-1.5672-.7348-1.552-1.6071.0153-.8723.7348-1.5671 1.6071-1.5519zm-33.792-4.1866c.8723.0153 1.5671.7348 1.5519 1.6071s-.7348 1.5671-1.6071 1.5519-1.5671-.7347-1.5519-1.607c.0152-.8724.7347-1.5672 1.6071-1.552zm22.4405-1.1882c.8723.0152 1.5671.7347 1.5519 1.607-.0152.8724-.7347 1.5672-1.6071 1.552-.8723-.0153-1.5671-.7348-1.5519-1.6071s.7347-1.5671 1.6071-1.5519zm-11.9173-1.323c.8724.0153 1.5672.7348 1.552 1.6071-.0153.8723-.7348 1.5671-1.6071 1.5519s-1.5671-.7347-1.5519-1.607c.0152-.8724.7347-1.5672 1.607-1.552z" fill="#c4c4c4"/></g></svg>