<svg fill="none" height="41" viewBox="0 0 41 41" width="41" xmlns="http://www.w3.org/2000/svg"><rect fill="#767ff1" height="40" rx="20" width="40" x=".25" y=".5"/><path d="m21.581 9.47213.1595.14437 3.5072 3.5076h2.2211c.9829 0 1.9271.3828 2.6327 1.0672.7055.6844 1.1168 1.6166 1.1467 2.599l.0018.1155v10.3125c.0001.983-.3825 1.9273-1.0668 2.6329s-1.6165 1.117-2.5989 1.147l-.1155.0018h-14.4376c-.9828 0-1.927-.3827-2.6325-1.067-.7055-.6842-1.11685-1.6163-1.14687-2.5987l-.00183-.1155v-10.313c-.0001-.9829.38254-1.9272 1.0668-2.6328.6843-.7056 1.6165-1.117 2.599-1.147l.1154-.0019h2.2207l3.5062-3.50622h.0014c.369-.36901.8616-.58815 1.3827-.61507.5212-.02692 1.0338.14029 1.4388.46932zm3.1378 13.62167h-8.9376c-.2662.0007-.5218.1044-.7133.2893-.1916.1849-.3042.4367-.3143.7027s.083.5257.26.7246c.1769.1989.4239.3217.6893.3427l.0783.0032h8.9376c.2735 0 .5358-.1087.7292-.3021.1934-.1933.302-.4557.302-.7292s-.1086-.5358-.302-.7292-.4557-.302-.7292-.302zm-2.75-4.1255h-6.1876c-.659 0-1.0019.3158-1.0294.947l-.0018.0847.0018.0844c.0262.6036.3415.9189.9451.9451l.0843.0018h6.1876c.659 0 1.0019-.3158 1.0294-.9469l.0018-.0844-.0018-.0843c-.0275-.6311-.3704-.9469-1.0294-.9469zm-1.7312-7.9053-.0206.0124-2.0487 2.0487h4.1635l-2.0488-2.0487c-.0058-.0059-.013-.0102-.021-.0123-.008-.0022-.0164-.0022-.0244-.0001z" fill="#fff"/></svg>