<svg fill="none" height="41" viewBox="0 0 41 41" width="41" xmlns="http://www.w3.org/2000/svg" xmlns:xlink="http://www.w3.org/1999/xlink"><linearGradient id="a" gradientUnits="userSpaceOnUse" x1="40.25" x2="-1.625" y1="20.5" y2="20.5"><stop offset="0" stop-color="#ff8a15"/><stop offset="1" stop-color="#f29106"/></linearGradient><rect fill="url(#a)" height="40" rx="20" width="40" x=".25" y=".5"/><path d="m29.337 10.5c.5073 0 .9939.2044 1.3527.5682.3587.3638.5603.8573.5603 1.3718v14.4928c0 .5146-.2016 1.008-.5603 1.3718-.3588.3638-.8454.5682-1.3527.5682h-4.4373l-3.0155 3.059c-.1776.1801-.3885.323-.6206.4205s-.4809.1477-.7321.1477c-.2513 0-.5-.0502-.7322-.1477-.2321-.0975-.443-.2404-.6206-.4205l-3.0164-3.059h-4.9993c-.5073 0-.9939-.2044-1.35268-.5682-.35877-.3638-.56032-.8572-.56032-1.3718v-14.4928c0-.5145.20155-1.008.56032-1.3718.35878-.3638.84538-.5682 1.35268-.5682zm-1.871 10.3276h-14.432c-.3171 0-.6212.1278-.8455.3552-.2242.2274-.3502.5358-.3502.8573 0 .3216.126.63.3502.8574.2243.2274.5284.3551.8455.3551h14.432c.3171 0 .6212-.1277.8455-.3551.2242-.2274.3502-.5358.3502-.8574 0-.3215-.126-.6299-.3502-.8573-.2243-.2274-.5284-.3552-.8455-.3552zm-8.2146-5.2491h-6.2174c-.3171 0-.6212.1277-.8455.3551-.2242.2274-.3502.5358-.3502.8574 0 .3215.126.6299.3502.8573.2243.2274.5284.3552.8455.3552h6.2174c.3171 0 .6212-.1278.8454-.3552.2243-.2274.3502-.5358.3502-.8573 0-.3216-.1259-.63-.3502-.8574-.2242-.2274-.5283-.3551-.8454-.3551z" fill="#fff"/></svg>