<svg fill="none" height="25" viewBox="0 0 25 25" width="25" xmlns="http://www.w3.org/2000/svg"><path d="m16.4318 2.5c.2196-.00003.4317.07941.5973.22364l.0782.07727 4.0909 4.54545c.1248.13827.2041.31154.2273.49637l.0063.11182v4.09095c-.0002.2317-.089.4545-.248.623-.1591.1685-.3765.2699-.6078.2835s-.4591-.0617-.6368-.2104c-.1776-.1487-.2918-.3597-.3192-.5898l-.0064-.1063v-3.74186l-3.5863-3.98546h-10.95912v16.36362h7.27272c.2317.0003.4546.089.6231.2481.1685.159.2699.3764.2834.6077.0136.2313-.0616.4591-.2104.6368-.1487.1777-.3596.2919-.5897.3192l-.1064.0064h-7.27272c-.4587.0001-.90051-.1731-1.23686-.485s-.54237-.7394-.57677-1.1968l-.00455-.1364v-16.36362c-.00015-.4587.1731-.90051.485-1.23686s.7394-.54237 1.19682-.57677l.13636-.00455zm4.5455 15.9091c.2317.0002.4545.089.623.248.1685.1591.2699.3765.2835.6078s-.0617.4591-.2104.6368c-.1487.1776-.3597.2918-.5898.3192l-.1063.0064h-4.1682l.72.7209c.163.1636.2577.3831.2647.614.0071.2308-.074.4557-.2268.629-.1527.1732-.3657.2818-.5956.3037s-.4596-.0445-.6423-.1858l-.0855-.0755-2.2727-2.2727-.0664-.0745c-.0021-.0024-.0042-.0049-.0063-.0073l.0727.0818c-.1657-.1666-.261-.3905-.2664-.6254 0-.0058 0-.0116 0-.0173v-.0164c0-.0218.0019-.0436.0037-.0645l-.0037.0809c.0006-.2033.0687-.4006.1937-.5609.0454-.0573.0973-.1091.1545-.1546l-.0818.0728c.1448-.1441.3336-.2356.5364-.26l.0254-.0028.0637-.0036zm-1.7155-4.8091.0855.0755 2.2727 2.2727c.0264.0254.05.0536.0727.0818l-.0727-.0818c.1626.1638.2574.3829.2655.6136l.0009.0291v.03l-.0037.0473.0037-.0773c-.0006.2033-.0687.4006-.1937.5609-.0454.0573-.0972.1091-.1545.1546l.0818-.0728c-.1448.1441-.3336.2356-.5364.26l-.0291.0028c-.0157.0013-.0314.0022-.0472.0027l-.03.0009h-6.3637c-.2317-.0003-.4545-.089-.623-.248-.1685-.1591-.2699-.3765-.2835-.6078s.0617-.4591.2104-.6368.3597-.2919.5898-.3192l.1063-.0064h4.1682l-.72-.7209c-.163-.1636-.2577-.3831-.2647-.614-.0071-.2308.074-.4557.2268-.629.1527-.1732.3657-.2818.5956-.3037.23-.0219.4596.0445.6423.1858zm-5.1027-3.82727c.2411.00003.4723.09583.6427.26627.1705.1705.2662.4017.2662.6428s-.0957.4723-.2662.6428c-.1704.1705-.4016.2663-.6427.2663h-6.36365c-.24108 0-.47227-.0958-.64273-.2663s-.26622-.4017-.26622-.6428.09576-.4723.26622-.6428c.17046-.17044.40165-.26624.64273-.26627zm0-3.63637c.2411 0 .4723.09578.6428.26627s.2663.40172.2663.64282c0 .24111-.0958.47234-.2663.64283s-.4017.26627-.6428.26627h-6.36365c-.2411 0-.47233-.09578-.64282-.26627s-.26627-.40172-.26627-.64283c0-.2411.09578-.47233.26627-.64282s.40172-.26627.64282-.26627z" fill="#d5d5d5" fill-opacity=".2"/></svg>