<svg fill="none" height="25" viewBox="0 0 25 25" width="25" xmlns="http://www.w3.org/2000/svg"><path clip-rule="evenodd" d="m21.1624 2.1384c-.2316-.09137-.4799-.1384-.7306-.1384h-15.27271c-.2507 0-.49895.04703-.73058.1384-.23162.09137-.44207.2253-.61935.39413-.17728.16884-.3179.36927-.41384.58986-.09594.2206-.14532.45702-.14532.69579v16.36362c0 .2388.04938.4752.14532.6958s.23656.421.41384.5899c.17728.1688.38773.3027.61935.3941.23163.0914.47988.1384.73058.1384h15.27271c.2507 0 .499-.047.7306-.1384s.4421-.2253.6193-.3941c.1773-.1689.3179-.3693.4139-.5899.0959-.2206.1453-.457.1453-.6958v-16.36362c0-.23877-.0494-.47519-.1453-.69579-.096-.22059-.2366-.42102-.4139-.58986-.1772-.16883-.3877-.30276-.6193-.39413zm-16.00331 1.67978h15.27271v16.36362h-15.27271zm8.31131 4.81172c-.179-.17048-.4218-.26626-.6749-.26626h-4.77277c-.25316 0-.49596.09578-.67497.26626-.17901.17049-.27958.40172-.27958.64283 0 .2411.10057.47233.27958.64282.17901.17045.42181.26625.67497.26625h4.77277c.2531 0 .4959-.0958.6749-.26625.179-.17049.2796-.40172.2796-.64282 0-.24111-.1006-.47234-.2796-.64283zm4.7727-2.72727c-.179-.17049-.4218-.26627-.6749-.26627h-9.54547c-.25316 0-.49596.09578-.67497.26627s-.27958.40172-.27958.64282c0 .24111.10057.47234.27958.64283s.42181.26627.67497.26627h9.54547c.2531 0 .4959-.09578.6749-.26627.1791-.17049.2796-.40172.2796-.64283 0-.2411-.1005-.47233-.2796-.64282zm-7.0173 8.24827c-.2335.0131-.4538.1074-.6192.265-.1789.1704-.2795.4016-.2795.6427 0 .241.1006.4722.2795.6427l2.7004 2.5709.0831.0709c.1834.1379.4135.207.6468.1941s.4535-.1069.6189-.2641l4.725-4.5.0745-.0791c.1449-.1748.2174-.3942.2037-.6166-.0138-.2224-.1127-.4323-.2782-.5897l-.083-.0709c-.1836-.1381-.414-.2071-.6475-.194-.2335.013-.4539.1073-.6192.2649l-4.0492 3.8563-2.0255-1.9281-.0831-.071c-.1836-.138-.414-.207-.6475-.194z" fill="#d5d5d5" fill-opacity=".2" fill-rule="evenodd"/></svg>