<svg fill="none" height="25" viewBox="0 0 25 25" width="25" xmlns="http://www.w3.org/2000/svg"><path d="m12.75 2c5.7989 0 10.5 4.70114 10.5 10.5 0 5.7989-4.7011 10.5-10.5 10.5-5.79886 0-10.5-4.7011-10.5-10.5 0-5.79886 4.70114-10.5 10.5-10.5zm0 1.90909c-1.1282 0-2.2453.22221-3.2876.65394-1.0423.43174-1.98935 1.06454-2.78709 1.86228s-1.43054 1.74479-1.86228 2.78709c-.43173 1.0423-.65394 2.1594-.65394 3.2876s.22221 2.2453.65394 3.2876c.43174 1.0423 1.06454 1.9894 1.86228 2.7871s1.74479 1.4305 2.78709 1.8623c1.0423.4317 2.1594.6539 3.2876.6539 2.2785 0 4.4636-.9051 6.0747-2.5162s2.5162-3.7962 2.5162-6.0747-.9051-4.46358-2.5162-6.07469-3.7962-2.51622-6.0747-2.51622zm-2.2785 3.54136.0897.07923 2.1888 2.18782 2.1888-2.18782c.1643-.16435.383-.26308.615-.27766.232-.01459.4613.05597.645.19843l.0897.07923c.1644.16437.2631.38305.2777.61503s-.056.46131-.1985.64497l-.0792.08973-1.7115 1.71149h1.0366c.2433.0003.4773.0934.6543.2605.1769.167.2833.3952.2976.6381.0142.2429-.0648.482-.2209.6686-.1562.1866-.3777.3065-.6193.3352l-.1117.0067h-1.9052v.9545h1.9052c.2433.0003.4773.0935.6543.2605.1769.167.2833.3953.2976.6381.0142.2429-.0648.4821-.2209.6686-.1562.1866-.3777.3065-.6193.3353l-.1117.0066h-1.9052v1.9091c-.0003.2433-.0935.4773-.2605.6542-.167.177-.3953.2834-.6381.2977-.2429.0142-.4821-.0648-.6686-.2209-.1866-.1562-.3065-.3777-.3352-.6193l-.0067-.1117v-1.9091h-1.91294c-.24329-.0002-.4773-.0934-.65421-.2604s-.28337-.3953-.29763-.6382c-.01426-.2428.06476-.482.22092-.6686.15615-.1865.37765-.3064.61924-.3352l.11168-.0067h1.91294v-.9545h-1.91294c-.24329-.0003-.4773-.0934-.65421-.2604-.17691-.1671-.28337-.3953-.29763-.6382s.06476-.482.22092-.6686c.15615-.1866.37765-.3065.61924-.3352l.11168-.0067h1.03564l-1.7105-1.71149c-.1712-.17178-.27059-.40228-.27799-.64468-.0074-.24241.07774-.47855.23814-.66045.16039-.1819.38401-.29593.62544-.31893.24141-.023.48251.04676.67441.1951z" fill="#d5d5d5" fill-opacity=".2"/></svg>