<?xml version="1.0" encoding="UTF-8"?>
<svg width="15px" height="4px" viewBox="0 0 15 4" version="1.1" xmlns="http://www.w3.org/2000/svg" xmlns:xlink="http://www.w3.org/1999/xlink">
    <title>ic_page_more copy</title>
    <g id="Symbols" stroke="none" stroke-width="1" fill="none" fill-rule="evenodd">
        <path d="M1.5,0.5 C2.32842712,0.5 3,1.17157288 3,2 C3,2.82842712 2.32842712,3.5 1.5,3.5 C0.671572875,3.5 0,2.82842712 0,2 C0,1.17157288 0.671572875,0.5 1.5,0.5 Z M7.5,0.5 C8.32842712,0.5 9,1.17157288 9,2 C9,2.82842712 8.32842712,3.5 7.5,3.5 C6.67157288,3.5 6,2.82842712 6,2 C6,1.17157288 6.67157288,0.5 7.5,0.5 Z M13.5,0.5 C14.3284271,0.5 15,1.17157288 15,2 C15,2.82842712 14.3284271,3.5 13.5,3.5 C12.6715729,3.5 12,2.82842712 12,2 C12,1.17157288 12.6715729,0.5 13.5,0.5 Z" id="ic_page_more-copy" fill="#FFFFFF"></path>
    </g>
</svg>