<svg width="22" height="22" viewBox="0 0 22 22" fill="none" xmlns="http://www.w3.org/2000/svg">
<path d="M20.0704 2H1.92964C1.41638 2 1 2.41638 1 2.92964C1 3.4429 1.41638 3.85928 1.92964 3.85928H2.60775V13.5942C2.60775 14.8773 3.64786 15.9174 4.931 15.9174H7.39361L4.74405 18.4684C4.6561 18.553 4.58567 18.654 4.53678 18.7658C4.4879 18.8776 4.46152 18.998 4.45915 19.12C4.45679 19.242 4.47848 19.3632 4.52299 19.4769C4.5675 19.5905 4.63395 19.6942 4.71856 19.7821C4.80527 19.8723 4.90926 19.944 5.0243 19.993C5.13935 20.0421 5.2631 20.0675 5.38817 20.0676C5.62101 20.0676 5.85214 19.981 6.03229 19.8076L10.0721 15.9174H12.1319L16.0595 19.7991C16.2351 19.9721 16.4721 20.0685 16.7186 20.0672C16.9651 20.066 17.2011 19.9671 17.3749 19.7923C17.5479 19.6167 17.6443 19.3797 17.643 19.1332C17.6418 18.8867 17.5429 18.6507 17.3681 18.4769L14.778 15.9174H16.9347C18.2179 15.9174 19.258 14.8773 19.258 13.5942V3.85928H20.0704C20.5836 3.85928 21 3.4429 21 2.92964C21 2.41638 20.5853 2 20.0704 2ZM12.2186 7.06628C12.2186 7.57954 11.8022 7.99592 11.2889 7.99592H6.40619C5.89293 7.99592 5.47655 7.57954 5.47655 7.06628C5.47655 6.55303 5.89293 6.13664 6.40619 6.13664H11.2889C11.8022 6.13664 12.2186 6.55303 12.2186 7.06628ZM15.3576 12.1326H6.40619C5.89293 12.1326 5.47655 11.7162 5.47655 11.2029C5.47655 10.6897 5.89293 10.2733 6.40619 10.2733H15.3576C15.8708 10.2733 16.2872 10.6897 16.2872 11.2029C16.2872 11.7162 15.8708 12.1326 15.3576 12.1326Z" fill="#D8FFF9"/>
</svg>
