<svg width="18" height="18" viewBox="0 0 18 18" fill="none" xmlns="http://www.w3.org/2000/svg">
<path d="M9.01231 1.82812C5.04492 1.82812 1.82812 5.04492 1.82812 9.0123C1.82812 12.9797 5.04492 16.1982 9.01406 16.1982C12.9832 16.1982 16.2 12.9814 16.2 9.0123C16.2 5.04316 12.9814 1.82812 9.01231 1.82812ZM13.7285 8.98945C13.7285 9.4377 13.3611 9.80684 12.9111 9.80684H9.05274C8.60449 9.80684 8.23535 9.43945 8.23535 8.98945V4.23633C8.23535 3.78809 8.60274 3.41895 9.05274 3.41895C9.50098 3.41895 9.87012 3.78633 9.87012 4.23633V7.56738C9.87012 7.90137 10.1408 8.17383 10.4766 8.17383H12.9129C13.3611 8.17383 13.7285 8.54121 13.7285 8.98945Z" fill="#FEEBCA"/>
</svg>
