<svg width="18" height="18" viewBox="0 0 18 18" fill="none" xmlns="http://www.w3.org/2000/svg">
<path d="M8.70285 12.2662C8.70285 9.88118 10.6379 7.94618 13.0229 7.94618C13.6619 7.94618 14.2649 8.08118 14.8049 8.33318V2.71718C14.8049 2.41118 14.5529 2.15918 14.2469 2.15918H1.90785C1.60185 2.15918 1.34985 2.41118 1.34985 2.71718V12.2482C1.34985 12.5542 1.60185 12.8062 1.90785 12.8062H8.73885C8.72085 12.6262 8.70285 12.4462 8.70285 12.2662ZM7.57785 9.68318C7.43385 9.68318 7.28985 9.62918 7.18185 9.52118L5.04885 7.38818L5.83185 6.60518L7.61385 8.36918L10.9259 5.63318L11.6369 6.48818L7.93785 9.54818C7.82985 9.63818 7.70385 9.68318 7.57785 9.68318ZM3.79785 13.5262V14.6422H9.41385C9.18885 14.3002 9.00885 13.9312 8.89185 13.5262H3.79785Z" fill="#FEEBCA"/>
<path d="M13.023 8.63965C11.016 8.63965 9.396 10.2596 9.396 12.2666C9.396 14.2736 11.034 15.8846 13.023 15.8846C15.03 15.8846 16.65 14.2646 16.65 12.2576C16.65 10.2596 15.012 8.63965 13.023 8.63965ZM15.39 13.3646C15.336 13.4816 15.237 13.5356 15.129 13.5356C15.093 13.5356 15.057 13.5356 15.012 13.5176L12.879 12.5456C12.789 12.5096 12.708 12.3926 12.708 12.2846V10.2776C12.708 10.1246 12.834 9.99865 12.987 9.99865C13.14 9.99865 13.266 10.1246 13.266 10.2776V12.1136L15.237 13.0046C15.39 13.0586 15.444 13.2116 15.39 13.3646Z" fill="#FEEBCA"/>
</svg>
