<svg width="12" height="12" viewBox="0 0 12 12" fill="none" xmlns="http://www.w3.org/2000/svg">
<path d="M11.9983 9.50048C11.9288 10.8891 10.7222 12 9.25 12H2.75174C1.27951 12 0.0729166 10.8908 0.00347217 9.50048H0V2.50117H0.00347217C0.0729166 1.1109 1.27951 0 2.75174 0H8.22396L7.03819 0.95385H2.75174C1.78819 0.957157 1.00174 1.70767 1.00174 2.62846V9.37319C1.00174 10.294 1.78819 11.0445 2.75174 11.0445H9.25C10.2153 11.0445 11 10.294 11 9.37319V4.65353L12 3.71456V9.50048H11.9983ZM8.5434 5.30652L7.81771 6.03554C7.57639 6.27028 6.96875 6.85714 6.77604 7.05221C6.58333 7.24728 6.42188 7.40763 6.29688 7.53492C6.17014 7.66056 6.09375 7.7333 6.07118 7.75148C6.01042 7.80438 5.94097 7.86224 5.86285 7.92175C5.78472 7.98126 5.70312 8.02921 5.61806 8.06557C5.53299 8.10856 5.40972 8.15815 5.24653 8.21931C5.08333 8.27883 4.91319 8.33669 4.73438 8.39454C4.55556 8.4524 4.38715 8.50034 4.22743 8.54332C4.06771 8.58465 3.94792 8.61276 3.86979 8.62433C3.7066 8.64251 3.59896 8.61772 3.5434 8.55159C3.48958 8.48547 3.47396 8.37305 3.49826 8.21931C3.51042 8.13501 3.53993 8.01267 3.58507 7.85397C3.63021 7.69527 3.67882 7.52996 3.72917 7.35804C3.78125 7.18777 3.82986 7.02907 3.87847 6.88525C3.92708 6.74142 3.96528 6.64224 3.99653 6.58768C4.03299 6.50503 4.07292 6.42733 4.11979 6.3579C4.16493 6.28847 4.22917 6.21243 4.31424 6.12812C4.35069 6.09175 4.43576 6.00579 4.56771 5.87188C4.69965 5.73633 5.25694 5.19741 5.4566 4.99904L6.11806 4.34109L6.85243 3.61207L8.72743 1.74735L10.4358 3.39716L8.5434 5.30652ZM11.6076 2.23171C11.5174 2.32098 11.4375 2.40033 11.3646 2.46646C11.2934 2.53423 11.2309 2.59375 11.1788 2.64499C11.1181 2.7045 11.0625 2.7574 11.0104 2.80204L9.31076 1.15222C9.40104 1.06957 9.50868 0.970382 9.63194 0.854663C9.75521 0.738945 9.85937 0.648023 9.94271 0.580245C10.0486 0.497589 10.158 0.43973 10.2708 0.406668C10.375 0.375258 10.4757 0.36038 10.5764 0.362033H10.6042C10.6597 0.363686 10.7135 0.368646 10.7674 0.378564C10.9965 0.419892 11.2361 0.537264 11.4392 0.724067C11.5521 0.828213 11.6441 0.945585 11.7101 1.06461C11.809 1.24149 11.8559 1.42664 11.8455 1.59526C11.8455 1.6151 11.8472 1.63659 11.8472 1.65808C11.8472 1.75561 11.8281 1.85315 11.7899 1.95068C11.7517 2.04822 11.691 2.14244 11.6076 2.23171Z" fill="#FEEBCA"/>
</svg>
