<svg width="36" height="36" viewBox="0 0 36 36" fill="none" xmlns="http://www.w3.org/2000/svg">
<path fill-rule="evenodd" clip-rule="evenodd" d="M4.47892 3H31.5247C33.7218 3 35.5036 4.79998 35.5 7.01906V24.1127C35.5 26.3335 33.7183 28.1344 31.5211 28.1344H21.4932C21.2664 28.1353 21.0436 28.1937 20.8463 28.3041C20.6491 28.4144 20.4839 28.5729 20.3668 28.7644L18.2816 32.1226C18.2471 32.1804 18.1979 32.2283 18.1389 32.2617C18.0798 32.295 18.013 32.3125 17.9449 32.3125C17.8769 32.3125 17.81 32.295 17.751 32.2617C17.6919 32.2283 17.6427 32.1804 17.6083 32.1226L15.6009 28.7847C15.4848 28.589 15.3189 28.4266 15.1197 28.3134C14.9204 28.2001 14.6947 28.1399 14.4647 28.1388H4.47892C2.28174 28.1388 0.5 26.3379 0.5 24.1171V7.02171C0.5 4.79998 2.28174 3 4.47892 3ZM25.1185 9.88058C25.0914 9.75023 25.0561 9.63617 25.0127 9.53841C24.8607 9.21253 24.6463 8.90024 24.3694 8.60152C24.0926 8.3028 23.8402 8.0937 23.6122 7.97421C23.5036 7.9199 23.3761 7.87102 23.2295 7.82757C23.0829 7.78412 22.9309 7.75968 22.7735 7.75425C22.6161 7.74882 22.456 7.77054 22.2931 7.81942C22.1303 7.8683 21.9728 7.95249 21.8208 8.07198C21.7014 8.16974 21.5521 8.3028 21.373 8.47117C21.1939 8.63954 21.0392 8.78347 20.9089 8.90295L23.9542 11.9499C24.0302 11.8847 24.1116 11.8087 24.1984 11.7218C24.2744 11.6457 24.364 11.5588 24.4671 11.4611C24.5703 11.3633 24.687 11.2492 24.8173 11.1189C24.9367 10.9885 25.0235 10.8528 25.0778 10.7116C25.1321 10.5703 25.1592 10.4291 25.1592 10.2879C25.1592 10.1467 25.1457 10.0109 25.1185 9.88058ZM12.7827 17.0254C12.5439 17.2698 12.3919 17.4246 12.3267 17.4897C12.1748 17.6418 12.058 17.7803 11.9766 17.9052C11.8952 18.0301 11.8219 18.1686 11.7568 18.3207C11.7025 18.4185 11.6319 18.5977 11.5451 18.8584C11.4582 19.1191 11.3687 19.4042 11.2764 19.7138C11.1841 20.0234 11.0972 20.3221 11.0158 20.61C10.9344 20.8978 10.8828 21.1178 10.8611 21.2699C10.8177 21.5523 10.8448 21.7533 10.9425 21.8727C11.0402 21.9922 11.2357 22.0357 11.5288 22.0031C11.6699 21.9814 11.8843 21.9325 12.172 21.8565C12.4597 21.7804 12.7637 21.6908 13.084 21.5876C13.4043 21.4844 13.711 21.3785 14.0041 21.2699C14.2972 21.1613 14.5198 21.0689 14.6718 20.9929C14.8238 20.9277 14.9703 20.8408 15.1115 20.7322C15.2526 20.6236 15.3775 20.5204 15.486 20.4226C15.5294 20.39 15.6652 20.2597 15.8931 20.0316C16.1211 19.8034 16.4088 19.5129 16.7562 19.1598C17.1037 18.8068 17.4945 18.4185 17.9288 17.9948L19.2315 16.6751L22.7328 13.1719L19.6875 10.1087L16.1863 13.6118L14.8672 14.9316L13.6784 16.1211C13.3201 16.4795 13.0216 16.781 12.7827 17.0254Z" fill="#FBEDDA"/>
</svg>
