<svg fill="none" height="12" viewBox="0 0 13 12" width="13" xmlns="http://www.w3.org/2000/svg"><path clip-rule="evenodd" d="m2.50085 5.23364c0-2.33677 1.89004-4.2268 4.19244-4.2268 2.30241 0 4.19241 1.89003 4.08931 4.2268 0 .51546-.1374 1.06529-.4467 1.68385-.2749.61856-.72164 1.30584-1.27147 1.95876-.37801.44674-.75602.89347-1.16839 1.30585l-.378.378-.13746.1375c-.37801.4123-1.06529.4123-1.47766 0 0-.0213-.02626-.0425-.06254-.0719-.02242-.0181-.04867-.0393-.07492-.0656l-.37801-.378c-.02891-.0315-.05802-.0633-.0873-.0952-.35358-.38551-.73199-.79808-1.08108-1.21065-.51547-.68728-.9622-1.3402-1.27148-1.95876-.27491-.61856-.44674-1.16839-.44674-1.68385zm6.21994 3.29897c.54982-.65292.9622-1.27148 1.23711-1.85567.2749-.54983.4124-1.03093.4124-1.4433 0-2.06186-1.64951-3.71134-3.67701-3.71134-2.02749 0-3.67697 1.64948-3.67697 3.71134 0 .41237.13746.89347.41237 1.4433.30928.58419.72165 1.20275 1.23711 1.85567.25638.33329.55101.64745.84108.95675.09874.10528.19695.21001.29294.31473l.37801.37801.13746.1375c.20618.2061.54983.2061.75601 0l.13746-.1375.378-.37801c.37801-.37801.75602-.82475 1.13403-1.27148zm-3.8491-3.36603c0-1.03092.79038-1.85567 1.82131-1.85567 1.03092 0 1.8213.82475 1.8213 1.85567 0 1.03093-.82474 1.85567-1.8213 1.85567-.99657 0-1.82131-.82474-1.82131-1.85567zm.51546-.03436c0 .75601.5842 1.3402 1.30585 1.3402.72164 0 1.30584-.58419 1.30584-1.3402s-.5842-1.34021-1.30584-1.34021c-.72165 0-1.30585.5842-1.30585 1.34021z" fill="#fff" fill-opacity=".5" fill-rule="evenodd"/></svg>