<svg fill="none" height="15" viewBox="0 0 14 15" width="14" xmlns="http://www.w3.org/2000/svg"><path d="m9.0451 12.2883c-.85449 0-3.75997-.1403-5.58207-1.9554-3.4199262-3.40642-2.29741-7.33888-2.24794-7.50489l.09086-.30407.31824-.01997c.18728-.0111 4.60716-.14425 7.64601 2.69976 1.8114 1.69432 2.7298 4.11401 2.7298 7.29627h-.9126c0-3.18225-.82-5.11321-2.43711-6.62909-2.29115-2.1489-5.58111-2.40459-6.63317-2.41125-.17768.93928-.43975 3.73626 2.0911 6.25712 1.43496 1.42932 3.76149 1.64062 4.70993 1.67082-.04701-.9117-.54383-3.21111-4.15782-4.8269l.3735-.83276c5.16377 2.30825 4.70232 6.01036 4.67993 6.16656l-.0528.3724-.37736.0173c-.02058.0005-.10423.0041-.2385.0041z" fill="#feebca"/></svg>