<svg width="40" height="40" viewBox="0 0 40 40" fill="none" xmlns="http://www.w3.org/2000/svg">
<path fill-rule="evenodd" clip-rule="evenodd" d="M4.19617e-05 40H39.9999V0.000164032L4.19617e-05 40Z" fill="#302F2F"/>
<path fill-rule="evenodd" clip-rule="evenodd" d="M24.7214 33.2216L18.3752 26.837C18.1445 26.6062 18.1445 26.2216 18.3752 25.9908L19.2214 25.1447C19.4521 24.9139 19.8368 24.9139 20.0675 25.1447L24.8368 29.9524C24.9906 30.1062 25.2598 30.1062 25.4137 29.9524L34.7598 20.5293C34.9906 20.2985 35.3752 20.2985 35.606 20.5293L36.4521 21.3754C36.6829 21.6062 36.6829 21.9908 36.4521 22.2216L25.5675 33.2216C25.3368 33.4908 24.9521 33.4908 24.7214 33.2216Z" fill="#F57E5B"/>
</svg>
