<svg fill="none" height="12" viewBox="0 0 12 12" width="12" xmlns="http://www.w3.org/2000/svg"><path clip-rule="evenodd" d="m2 5.2268c0-2.33677 1.89003-4.2268 4.19244-4.2268s4.19246 1.89003 4.08936 4.2268c0 .51547-.1375 1.0653-.44675 1.68385-.27491.61856-.72165 1.30584-1.27148 1.95877-.378.44673-.75601.89347-1.16838 1.30588l-.37801.378-.13745.1374c-.37801.4124-1.0653.4124-1.47767 0 0-.0212-.02625-.0425-.06253-.0718-.02242-.0181-.04867-.0394-.07493-.0656l-.378-.378c-.02891-.0316-.05802-.0633-.0873-.0952-.35358-.38555-.73199-.79812-1.08109-1.21068-.51546-.68729-.9622-1.34021-1.27147-1.95877-.27492-.61855-.44674-1.16838-.44674-1.68385zm6.21993 3.29897c.54983-.65292.9622-1.27147 1.23712-1.85567.27491-.54983.41237-1.03093.41237-1.4433 0-2.06185-1.64949-3.71134-3.67698-3.71134s-3.67698 1.64949-3.67698 3.71134c0 .41237.13746.89347.41237 1.4433.30928.5842.72165 1.20275 1.23712 1.85567.25637.33329.551.64745.84108.95675.09873.10529.19694.21001.29294.31473l.37801.37805.13745.1374c.20619.2062.54983.2062.75602 0l.13745-.1374.37801-.37805c.37801-.37801.75601-.82474 1.13402-1.27148zm-3.84884-3.36737c0-1.03092.79038-1.85567 1.82131-1.85567s1.82131.82475 1.82131 1.85567c0 1.03093-.82475 1.85567-1.82131 1.85567s-1.82131-.82474-1.82131-1.85567zm.51547-.03436c0 .75601.58419 1.34021 1.30584 1.34021s1.30584-.5842 1.30584-1.34021-.58419-1.34021-1.30584-1.34021-1.30584.5842-1.30584 1.34021z" fill="#d4d4d4" fill-rule="evenodd"/></svg>