<svg width="12" height="12" viewBox="0 0 12 12" fill="none" xmlns="http://www.w3.org/2000/svg">
<rect x="0.4" y="0.4" width="11.2" height="11.2" rx="0.6" stroke="white" stroke-width="0.8"/>
<path fill-rule="evenodd" clip-rule="evenodd" d="M1 0C0.447715 0 0 0.447715 0 1V11C0 11.5523 0.447715 12 1 12H11C11.5523 12 12 11.5523 12 11V1C12 0.447715 11.5523 0 11 0H1ZM10.2621 3.07367C10.6239 3.43752 10.6239 4.02744 10.2621 4.39129L5.75168 8.92789C5.52479 9.15609 5.20949 9.24117 4.91669 9.18313C4.73391 9.1519 4.55865 9.06534 4.41757 8.92345L1.73811 6.22847C1.37636 5.86462 1.37636 5.2747 1.73811 4.91085C2.09987 4.547 2.68639 4.547 3.04814 4.91085L5.08683 6.96136L8.95212 3.07367C9.31388 2.70982 9.9004 2.70982 10.2621 3.07367Z" fill="#FF8A15"/>
<path fill-rule="evenodd" clip-rule="evenodd" d="M1 0C0.447715 0 0 0.447715 0 1V11C0 11.5523 0.447715 12 1 12H11C11.5523 12 12 11.5523 12 11V1C12 0.447715 11.5523 0 11 0H1ZM10.2621 3.07367C10.6239 3.43752 10.6239 4.02744 10.2621 4.39129L5.75168 8.92789C5.52479 9.15609 5.20949 9.24117 4.91669 9.18313C4.73391 9.1519 4.55865 9.06534 4.41757 8.92345L1.73811 6.22847C1.37636 5.86462 1.37636 5.2747 1.73811 4.91085C2.09987 4.547 2.68639 4.547 3.04814 4.91085L5.08683 6.96136L8.95212 3.07367C9.31388 2.70982 9.9004 2.70982 10.2621 3.07367Z" fill="white"/>
</svg>
