<svg width="11" height="12" viewBox="0 0 11 12" fill="none" xmlns="http://www.w3.org/2000/svg">
<g clip-path="url(#clip0_631_62466)">
<path d="M7.29136 8.35712C7.36527 8.35816 7.43866 8.3445 7.50725 8.31693C7.57584 8.28936 7.63827 8.24844 7.69091 8.19653C7.74354 8.14463 7.78534 8.08278 7.81386 8.01458C7.84239 7.94638 7.85707 7.87319 7.85706 7.79927V1.05791C7.85707 0.983983 7.84239 0.910795 7.81386 0.842596C7.78534 0.774397 7.74354 0.712548 7.69091 0.660642C7.63827 0.608737 7.57584 0.567811 7.50725 0.540243C7.43866 0.512675 7.36527 0.499014 7.29136 0.500055H0.557852C0.4099 0.500055 0.268008 0.558829 0.163391 0.663446C0.0587735 0.768064 0 0.909955 0 1.05791L0 7.79927C0 7.94722 0.0587735 8.08911 0.163391 8.19373C0.268008 8.29835 0.4099 8.35712 0.557852 8.35712H7.29136Z" fill="#DABB7E"/>
<path d="M10.4339 3.64459H8.64252V8.52382C8.64252 8.60534 8.62647 8.68605 8.59527 8.76136C8.56408 8.83667 8.51836 8.90509 8.46072 8.96273C8.40308 9.02037 8.33466 9.06609 8.25935 9.09728C8.18404 9.12848 8.10333 9.14453 8.02182 9.14453H3.14258V10.9438C3.14257 11.0177 3.15726 11.0909 3.18578 11.1591C3.21431 11.2273 3.2561 11.2892 3.30874 11.3411C3.36137 11.393 3.4238 11.4339 3.49239 11.4615C3.56098 11.489 3.63437 11.5027 3.70829 11.5017H10.4418C10.5897 11.5017 10.7316 11.4429 10.8363 11.3383C10.9409 11.2336 10.9996 11.0918 10.9996 10.9438V4.20244C10.9996 4.12851 10.985 4.05533 10.9564 3.98713C10.9279 3.91893 10.8861 3.85708 10.8335 3.80517C10.7808 3.75327 10.7184 3.71234 10.6498 3.68477C10.5812 3.65721 10.5079 3.64355 10.4339 3.64459Z" fill="#DABB7E"/>
</g>
<defs>
<clipPath id="clip0_631_62466">
<rect width="11" height="11" fill="white" transform="translate(0 0.5)"/>
</clipPath>
</defs>
</svg>
