<svg fill="none" height="12" viewBox="0 0 12 12" width="12" xmlns="http://www.w3.org/2000/svg"><path d="m6.0004 2.27832c-3.68144 0-5.571567 3.7217-5.571567 3.7217s1.426317 3.72217 5.571567 3.72217c3.75392 0 5.5713-3.70766 5.5713-3.70766s-1.83187-3.73621-5.5713-3.73621zm.00837 6.04797c-1.34608 0-2.31911-1.01781-2.31911-2.32631 0-1.30861.97311-2.32616 2.31911-2.32616 1.34601 0 2.319 1.01746 2.319 2.32616.00002 1.3085-.97298 2.32631-2.319 2.32631zm0-3.72219c-.76933.00177-1.39143.6482-1.39143 1.39589 0 .74729.62211 1.39582 1.39143 1.39582.76929 0 1.39135-.64857 1.39135-1.39582.00005-.74795-.62205-1.39733-1.39135-1.39589z" fill="#fff" fill-opacity=".2"/></svg>