<svg width="15" height="15" viewBox="0 0 15 15" fill="none" xmlns="http://www.w3.org/2000/svg">
<path d="M11.3979 14.878C11.218 14.878 11.0381 14.833 10.8432 14.7281L7.81466 13.1388C7.73969 13.0939 7.63474 13.0639 7.51482 13.0639C7.40987 13.0639 7.28993 13.0939 7.21496 13.1238L4.20144 14.7281C4.02153 14.833 3.84162 14.878 3.63172 14.878C3.2719 14.878 2.92707 14.7131 2.68717 14.4432C2.44729 14.1733 2.35734 13.8135 2.4173 13.4537L3.00203 10.0953C3.03201 9.88543 2.95705 9.67553 2.80711 9.52561L0.378314 7.17175C0.0334832 6.84192 -0.086458 6.36214 0.0634685 5.91236C0.21338 5.46257 0.588211 5.14772 1.05298 5.07276L4.41134 4.578C4.62124 4.54802 4.81613 4.41308 4.90608 4.23317L6.40535 1.17467C6.61524 0.754875 7.03504 0.5 7.49981 0.5C7.96458 0.5 8.38438 0.754875 8.59427 1.17467L10.0935 4.23317C10.1985 4.42809 10.3784 4.54802 10.5883 4.578L13.9467 5.07277C14.4114 5.14774 14.7863 5.46258 14.9362 5.89737C15.0861 6.34715 14.9662 6.82691 14.6363 7.15677L12.2225 9.52559C12.0576 9.67552 11.9976 9.88542 12.0276 10.0953L12.5973 13.4387C12.6573 13.7985 12.5673 14.1583 12.3274 14.4282C12.1026 14.7131 11.7577 14.878 11.3979 14.878Z" fill="#515153"/>
</svg>
