<svg width="22" height="22" viewBox="0 0 22 22" fill="none" xmlns="http://www.w3.org/2000/svg">
<path d="M11.2775 6.10211C11.7333 5.52208 12.2304 5.01455 12.769 4.57953C13.2248 4.20665 13.7323 3.86485 14.2916 3.55411C14.8509 3.24338 15.431 3.10873 16.0317 3.15016C16.9018 3.21231 17.6268 3.41946 18.2068 3.77163C18.7869 4.12379 19.2478 4.55881 19.5896 5.0767C19.9314 5.59458 20.1644 6.18497 20.2887 6.84786C20.413 7.51076 20.4544 8.18401 20.413 8.86762C20.3716 9.55122 20.2369 10.2038 20.0091 10.8252C19.7812 11.4467 19.5067 12.0319 19.1856 12.5809C18.8645 13.1298 18.5176 13.6322 18.1447 14.0879C17.7718 14.5436 17.3989 14.9579 17.026 15.3308C16.4667 15.9109 15.8763 16.465 15.2549 16.9932C14.6334 17.5215 14.043 17.9876 13.4837 18.3915C12.9244 18.7955 12.422 19.1166 11.9767 19.3548C11.5313 19.593 11.205 19.7121 10.9979 19.7121C10.7493 19.7121 10.423 19.5878 10.0191 19.3393C9.61511 19.0907 9.16455 18.7644 8.66738 18.3605C8.17021 17.9565 7.64197 17.4904 7.08265 16.9622C6.52334 16.4339 5.96402 15.9005 5.4047 15.3619C5.05254 15.0097 4.65895 14.611 4.22393 14.1656C3.7889 13.7202 3.37977 13.2334 2.99654 12.7051C2.6133 12.1769 2.28703 11.5969 2.01773 10.9651C1.74843 10.3332 1.60343 9.6548 1.58271 8.92976C1.54128 8.22544 1.61378 7.55737 1.80022 6.92555C1.98666 6.29373 2.26114 5.72923 2.62366 5.23206C2.98618 4.73489 3.43156 4.31541 3.9598 3.9736C4.48805 3.6318 5.08361 3.38839 5.74651 3.24338C6.4094 3.09838 7.06712 3.1657 7.71965 3.44536C8.37219 3.72502 8.96775 4.06164 9.50635 4.45524C10.1278 4.91097 10.7182 5.45993 11.2775 6.10211Z" fill="#FEEBCA"/>
</svg>
