<svg width="20" height="20" viewBox="0 0 20 20" fill="none" xmlns="http://www.w3.org/2000/svg">
<g clip-path="url(#clip0_653_31795)">
<path d="M6.01445 10.7575L6.01398 10.7568C5.33817 9.66507 4.97217 8.46496 4.97217 7.18757C4.97217 4.4076 7.21998 2.15979 9.99995 2.15979C12.7799 2.15979 15.0277 4.4076 15.0277 7.18757C15.0277 8.4648 14.6618 9.66398 13.9794 10.7544L13.9794 10.7544L13.9766 10.7589C13.6153 11.3484 13.1942 11.8986 12.7519 12.4723C12.7379 12.4905 12.7238 12.5087 12.7098 12.527C12.286 13.0765 11.8437 13.6501 11.4561 14.2678L11.4559 14.268C11.0594 14.9008 10.7829 15.489 10.4866 16.1379L10.4861 16.1388C10.4456 16.2281 10.4028 16.3368 10.3656 16.4314C10.3511 16.4682 10.3375 16.5029 10.3251 16.5335C10.2741 16.66 10.2276 16.7633 10.1776 16.8473C10.0823 17.0073 10.0337 17.0071 10.0023 17.007C10.0015 17.007 10.0007 17.007 9.99995 17.007C9.99916 17.007 9.99837 17.007 9.99756 17.007C9.96613 17.0071 9.9173 17.0073 9.82044 16.8459C9.76963 16.7612 9.72243 16.6573 9.66985 16.5297C9.65833 16.5018 9.64584 16.4708 9.63264 16.4381C9.59397 16.3422 9.54923 16.2313 9.50521 16.1375C9.21382 15.4822 8.93052 14.8977 8.53633 14.2686C8.14228 13.6366 7.69191 13.0525 7.26145 12.4942L7.23999 12.4663C6.79717 11.892 6.37596 11.3436 6.01445 10.7575ZM7.44092 7.38722C7.44092 8.79996 8.5872 9.94625 9.99995 9.94625C11.4127 9.94625 12.559 8.79996 12.559 7.38722C12.559 5.97448 11.4127 4.82819 9.99995 4.82819C8.5872 4.82819 7.44092 5.97448 7.44092 7.38722Z" stroke="#FEEBCA" stroke-width="1.125"/>
</g>
<defs>
<clipPath id="clip0_653_31795">
<rect width="20" height="20" fill="white"/>
</clipPath>
</defs>
</svg>
