<svg width="16" height="16" viewBox="0 0 16 16" fill="none" xmlns="http://www.w3.org/2000/svg">
<path d="M10.28 7.52188C10.28 7.78438 10.0709 7.99719 9.81125 7.99719C9.6861 7.9962 9.56645 7.94559 9.47857 7.85648C9.39069 7.76737 9.34175 7.64703 9.3425 7.52188V7.02781C9.3425 6.69406 9.45875 6.37156 9.66875 6.11469L13.4984 1.45156H2.375L6.20469 6.11469C6.41469 6.37156 6.53 6.69406 6.53 7.02781V15.0247C6.53 15.2872 6.32094 15.5 6.06125 15.5C5.9361 15.499 5.81645 15.4484 5.72857 15.3593C5.64069 15.2702 5.59175 15.1498 5.5925 15.0247V7.02781C5.59265 6.91716 5.55456 6.80986 5.48469 6.72406L1.655 2.06C1.51417 1.88816 1.4373 1.6728 1.4375 1.45063C1.4375 0.926563 1.8575 0.5 2.375 0.5H13.4984C13.7178 0.5 13.9297 0.577812 14.0984 0.720312C14.4959 1.05688 14.5503 1.65688 14.2184 2.06094L10.3888 6.72406C10.3185 6.80973 10.2801 6.91705 10.28 7.02781V7.52188V7.52188ZM9.40625 9.5375H14.0938C14.3525 9.5375 14.5625 9.75125 14.5625 10.0138C14.5625 10.2763 14.3525 10.4891 14.0938 10.4891H9.40625C9.2811 10.4881 9.16145 10.4375 9.07357 10.3484C8.98569 10.2592 8.93675 10.1389 8.9375 10.0138C8.9375 9.75125 9.1475 9.5375 9.40625 9.5375ZM9.40625 11.4406H14.0938C14.3525 11.4406 14.5625 11.6534 14.5625 11.9159C14.5625 12.1784 14.3525 12.3922 14.0938 12.3922H9.40625C9.3442 12.3917 9.28285 12.379 9.22572 12.3548C9.16858 12.3306 9.11676 12.2954 9.07324 12.2511C9.02971 12.2069 8.99532 12.1546 8.97203 12.097C8.94874 12.0395 8.93701 11.978 8.9375 11.9159C8.9375 11.6534 9.1475 11.4406 9.40625 11.4406ZM9.40625 13.3438H14.0938C14.3525 13.3438 14.5625 13.5566 14.5625 13.8191C14.5625 14.0816 14.3525 14.2944 14.0938 14.2944H9.40625C9.2811 14.2934 9.16145 14.2428 9.07357 14.1537C8.98569 14.0646 8.93675 13.9442 8.9375 13.8191C8.9375 13.5566 9.1475 13.3428 9.40625 13.3428V13.3438Z" fill="white" fill-opacity="0.7"/>
</svg>
