<svg width="24" height="24" viewBox="0 0 24 24" fill="none" xmlns="http://www.w3.org/2000/svg">
<path d="M8.26668 20.7538C7.50909 21.2366 6.5184 20.9869 6.05827 20.2009C5.84014 19.8277 5.77235 19.3821 5.86927 18.9585L6.84983 14.6697C6.86151 14.6198 6.85979 14.5675 6.84486 14.5185C6.82992 14.4695 6.80233 14.4256 6.76501 14.3914L3.55534 11.523C2.88865 10.9276 2.8117 9.88639 3.38164 9.19225C3.51725 9.02664 3.68351 8.89023 3.87081 8.79089C4.05811 8.69155 4.26275 8.63126 4.4729 8.61349L8.68518 8.26157C8.77698 8.25372 8.85911 8.19165 8.89668 8.09726L10.5196 4.02633C10.8578 3.17827 11.7983 2.77327 12.6189 3.12935C13.0103 3.29992 13.3199 3.62239 13.4802 4.02633L15.1032 8.09703C15.1407 8.19165 15.2229 8.25395 15.3147 8.26157L19.5274 8.61372C20.4108 8.68756 21.0648 9.48901 20.9949 10.3989C20.962 10.8331 20.7645 11.2369 20.4447 11.5234L17.2351 14.3919C17.1604 14.4585 17.1266 14.5665 17.1502 14.6699L18.1308 18.9587C18.3338 19.846 17.8068 20.74 16.9466 20.9539C16.7416 21.0049 16.5286 21.0136 16.3203 20.9792C16.1119 20.9449 15.9123 20.8684 15.7332 20.7541L12.1266 18.4556C12.0886 18.4312 12.0447 18.4182 11.9999 18.4182C11.9551 18.4182 11.9112 18.4312 11.8732 18.4556L8.26645 20.7541L8.26668 20.7538ZM12.8394 17.2794L16.446 19.5778C16.5013 19.6129 16.5666 19.6238 16.6285 19.6083C16.7637 19.5746 16.8512 19.426 16.8168 19.2746L15.8362 14.9858C15.7685 14.6908 15.7803 14.3824 15.8705 14.0937C15.9608 13.8051 16.1259 13.5471 16.3483 13.3474L19.558 10.4792C19.6104 10.4324 19.6435 10.3643 19.6494 10.29C19.6613 10.1356 19.5546 10.005 19.4178 9.9937L15.2051 9.64132C14.9099 9.6159 14.6273 9.50709 14.3888 9.32696C14.1503 9.14683 13.965 8.90242 13.8537 8.62087L12.2308 4.55017C12.2054 4.48477 12.1558 4.43233 12.0929 4.40432C11.9684 4.35033 11.8244 4.4124 11.7695 4.55017L10.1464 8.62087C10.035 8.90242 9.84982 9.14683 9.61128 9.32696C9.37273 9.50709 9.09018 9.6159 8.79498 9.64132L4.58248 9.9937C4.54998 9.9966 4.51837 10.0061 4.48948 10.0216C4.46059 10.0371 4.43499 10.0584 4.41417 10.0842C4.36827 10.141 4.34557 10.2139 4.35081 10.2875C4.35605 10.3611 4.38883 10.4298 4.4423 10.4792L7.65197 13.3476C7.87436 13.5473 8.03954 13.8053 8.12976 14.094C8.21998 14.3826 8.23184 14.691 8.16407 14.9861L7.18351 19.2746C7.16675 19.3474 7.17821 19.424 7.21546 19.4883C7.28904 19.6136 7.43866 19.6512 7.55432 19.5776L11.1611 17.2794C11.413 17.1187 11.7036 17.0335 12.0003 17.0335C12.2969 17.0335 12.5876 17.1187 12.8394 17.2794Z" fill="white"/>
</svg>
