<svg width="20" height="20" viewBox="0 0 20 20" fill="none" xmlns="http://www.w3.org/2000/svg">
<path d="M11.7408 15.3008C11.7408 15.7586 11.4405 16.3588 11.0579 16.5914L9.99997 17.2742C9.01702 17.882 7.65138 17.1992 7.65138 15.9837V11.9693C7.65138 11.4366 7.35124 10.7538 7.0436 10.3786L4.16228 7.34721C3.77961 6.96453 3.47949 6.28923 3.47949 5.83152V4.09072C3.47949 3.1828 4.16232 2.5 4.99519 2.5H15.0047C15.8375 2.5 16.5204 3.1828 16.5204 4.01569V5.68145C16.5204 6.28922 16.1377 7.04708 15.7626 7.42225" stroke="#FEEBCA" stroke-width="1.12551" stroke-miterlimit="10" stroke-linecap="round" stroke-linejoin="round"/>
<path d="M13.0538 13.3875C14.3799 13.3875 15.4549 12.3125 15.4549 10.9864C15.4549 9.66034 14.3799 8.58533 13.0538 8.58533C11.7277 8.58533 10.6527 9.66034 10.6527 10.9864C10.6527 12.3125 11.7277 13.3875 13.0538 13.3875Z" stroke="#FEEBCA" stroke-width="1.12551" stroke-linecap="round" stroke-linejoin="round"/>
<path d="M15.905 13.8377L15.1547 13.0874" stroke="#FEEBCA" stroke-width="1.12551" stroke-linecap="round" stroke-linejoin="round"/>
</svg>
