<svg fill="none" height="14" viewBox="0 0 14 14" width="14" xmlns="http://www.w3.org/2000/svg" xmlns:xlink="http://www.w3.org/1999/xlink"><linearGradient id="a" gradientUnits="userSpaceOnUse" x1="7" x2="7" y1="13" y2="1"><stop offset="0" stop-color="#ff8a15"/><stop offset="1" stop-color="#f9aa3a"/></linearGradient><path d="m7 13c3.3136 0 6-2.6864 6-6 0-3.31365-2.6864-6-6-6-3.31365 0-6 2.68635-6 6 0 3.3136 2.68635 6 6 6zm-2.56815-4.06815 2.11815-2.1183v-2.51355c0-.11935.04741-.23381.1318-.3182s.19885-.1318.3182-.1318.23381.04741.3182.1318.1318.19885.1318.3182v2.7c-.00003.11934-.04745.23378-.13185.31815l-2.25 2.25c-.04151.04298-.09117.07726-.14607.10085-.0549.02358-.11395.03599-.1737.03651s-.11901-.01086-.17431-.03349-.10555-.05604-.1478-.09829-.07566-.0925-.09829-.1478-.03401-.11456-.03349-.17431.01293-.1188.03651-.1737c.02359-.0549.05787-.10456.10085-.14607z" fill="url(#a)"/></svg>