<svg width="14" height="14" viewBox="0 0 14 14" fill="none" xmlns="http://www.w3.org/2000/svg">
<g clip-path="url(#clip0_687_74433)">
<path d="M12.1449 1.96004C10.2549 1.96004 8.4699 1.29504 7.2799 0.140039C7.1049 -0.0349609 6.8599 -0.0349609 6.6849 0.140039C5.4949 1.29504 3.7099 1.96004 1.8199 1.96004C1.5749 1.96004 1.3999 2.13504 1.3999 2.38004V7.70004C1.3999 9.38004 2.2749 10.99 3.7449 11.935L6.7549 13.93C6.8249 13.965 6.8949 14 6.9999 14C7.0699 14 7.1749 13.965 7.2449 13.93L10.2549 11.935C11.7249 10.955 12.5999 9.38004 12.5999 7.70004V2.38004C12.5649 2.13504 12.3549 1.96004 12.1449 1.96004ZM8.7499 7.45504C8.9949 7.45504 9.1699 7.66504 9.1699 7.87504C9.1699 8.08504 8.9599 8.29504 8.7499 8.29504H7.4199V9.62504C7.4199 9.87004 7.2099 10.045 6.9999 10.045C6.7549 10.045 6.5799 9.83504 6.5799 9.62504V8.29504H5.2499C5.0049 8.29504 4.8299 8.08504 4.8299 7.87504C4.8299 7.66504 5.0399 7.45504 5.2499 7.45504H6.5799V6.54504H5.2499C5.0049 6.54504 4.8299 6.33504 4.8299 6.12504C4.8299 5.88004 5.0399 5.70504 5.2499 5.70504H6.0899L5.2499 4.65504C5.1099 4.48004 5.1449 4.20004 5.3199 4.02504C5.4949 3.88504 5.7749 3.88504 5.9149 4.09504L6.9649 5.42504L8.0149 4.09504C8.1549 3.92004 8.4349 3.88504 8.6099 4.02504C8.7849 4.16504 8.8199 4.44504 8.6799 4.65504L7.8399 5.70504H8.7499C8.9949 5.70504 9.1699 5.91504 9.1699 6.12504C9.1699 6.37004 8.9599 6.54504 8.7499 6.54504H7.4199V7.45504H8.7499Z" fill="url(#paint0_linear_687_74433)"/>
</g>
<defs>
<linearGradient id="paint0_linear_687_74433" x1="6.9999" y1="14" x2="6.9999" y2="0.00878906" gradientUnits="userSpaceOnUse">
<stop stop-color="#FF8A15"/>
<stop offset="1" stop-color="#F9AA3A"/>
</linearGradient>
<clipPath id="clip0_687_74433">
<rect width="14" height="14" fill="white"/>
</clipPath>
</defs>
</svg>
