<svg width="14" height="14" viewBox="0 0 14 14" fill="none" xmlns="http://www.w3.org/2000/svg">
<g clip-path="url(#clip0_687_74430)">
<path d="M4.47999 1.96012V2.80012C4.47934 2.94543 4.5352 3.08531 4.63578 3.1902C4.73635 3.29509 4.87376 3.35678 5.01897 3.36223C5.16419 3.36768 5.30583 3.31647 5.41399 3.21942C5.52215 3.12237 5.58834 2.98707 5.59859 2.84212L5.59999 2.80012V1.96012H8.39999V2.80012C8.39995 2.9414 8.4533 3.07748 8.54937 3.18107C8.64543 3.28467 8.77711 3.34812 8.91799 3.35872L8.95999 3.36012C9.10127 3.36016 9.23735 3.3068 9.34094 3.21074C9.44454 3.11467 9.50799 2.983 9.51859 2.84212L9.51999 2.80012V1.96012H10.36C10.7208 1.96014 11.0676 2.09943 11.3282 2.34894C11.5887 2.59846 11.7429 2.93893 11.7586 3.29936L11.76 3.36012L11.7603 7.99552C11.5979 7.21992 10.9869 6.67616 10.08 6.67616C8.96335 6.6672 8.34791 7.50188 8.34791 8.19544C8.34791 9.08164 8.77631 9.48848 8.94767 9.51312L8.96335 9.51424V9.80152H8.15835C7.70363 9.82672 7.30715 10.3596 7.28139 10.823L7.27999 10.8706V12.0401C7.27999 12.2554 7.33991 12.4517 7.43847 12.6001H3.63999C3.27922 12.6001 2.93239 12.4608 2.67181 12.2113C2.41124 11.9618 2.25705 11.6213 2.24139 11.2609L2.23999 11.2001V3.36012C2.24001 2.99935 2.3793 2.65251 2.62882 2.39194C2.87833 2.13137 3.2188 1.97717 3.57923 1.96152L3.63999 1.96012H4.47999ZM12.6 12.0401C12.6 12.1886 12.541 12.3311 12.436 12.4361C12.3309 12.5411 12.1885 12.6001 12.04 12.6001H8.11999C7.97147 12.6001 7.82903 12.5411 7.72401 12.4361C7.61899 12.3311 7.55999 12.1886 7.55999 12.0401H12.6ZM10.08 7.00012C10.3739 7 10.6603 7.09237 10.8988 7.26413C11.1373 7.4359 11.3156 7.67835 11.4086 7.95713C11.5016 8.23592 11.5045 8.53689 11.4169 8.81742C11.3293 9.09794 11.1557 9.34379 10.9206 9.52012L10.92 10.0801H11.76C11.9742 10.0801 12.1804 10.162 12.3363 10.309C12.4922 10.4559 12.586 10.6569 12.5986 10.8708L12.6 10.9201V11.7601H7.55999V10.9201C7.55998 10.7059 7.64184 10.4997 7.78883 10.3438C7.93582 10.1879 8.13682 10.0941 8.35071 10.0815L8.39999 10.0801H9.23999V9.52012C9.00492 9.34382 8.83128 9.09802 8.74367 8.81755C8.65606 8.53708 8.65891 8.23615 8.75183 7.9574C8.84475 7.67864 9.02302 7.43619 9.2614 7.26438C9.49977 7.09257 9.78616 7.00012 10.08 7.00012ZM6.43999 8.96012H4.75999C4.68862 8.9602 4.61998 8.98752 4.56809 9.03651C4.51619 9.08551 4.48496 9.15246 4.48078 9.22371C4.4766 9.29495 4.49978 9.3651 4.54558 9.41983C4.59139 9.47456 4.65636 9.50973 4.72723 9.51816L4.75999 9.52012H6.43999C6.51425 9.52012 6.58547 9.49062 6.63798 9.43811C6.69049 9.3856 6.71999 9.31438 6.71999 9.24012C6.71999 9.16586 6.69049 9.09464 6.63798 9.04213C6.58547 8.98962 6.51425 8.96012 6.43999 8.96012ZM7.83999 6.72012H4.75999C4.68862 6.7202 4.61998 6.74752 4.56809 6.79651C4.51619 6.84551 4.48496 6.91246 4.48078 6.98371C4.4766 7.05495 4.49978 7.1251 4.54558 7.17983C4.59139 7.23456 4.65636 7.26973 4.72723 7.27816L4.75999 7.28012H7.83999C7.91425 7.28012 7.98547 7.25062 8.03798 7.19811C8.09049 7.1456 8.11999 7.07438 8.11999 7.00012C8.11999 6.92586 8.09049 6.85464 8.03798 6.80213C7.98547 6.74962 7.91425 6.72012 7.83999 6.72012ZM9.23999 4.48012H4.75999C4.68862 4.4802 4.61998 4.50752 4.56809 4.55651C4.51619 4.60551 4.48496 4.67246 4.48078 4.74371C4.4766 4.81495 4.49978 4.8851 4.54558 4.93983C4.59139 4.99456 4.65636 5.02973 4.72723 5.03816L4.75999 5.04012H9.23999C9.31425 5.04012 9.38547 5.01062 9.43798 4.95811C9.49049 4.9056 9.51999 4.83438 9.51999 4.76012C9.51999 4.68586 9.49049 4.61464 9.43798 4.56213C9.38547 4.50962 9.31425 4.48012 9.23999 4.48012ZM8.95999 1.12012C9.03425 1.12012 9.10547 1.14962 9.15798 1.20213C9.21049 1.25464 9.23999 1.32586 9.23999 1.40012V2.80012C9.23999 2.87438 9.21049 2.9456 9.15798 2.99811C9.10547 3.05062 9.03425 3.08012 8.95999 3.08012C8.88573 3.08012 8.81451 3.05062 8.762 2.99811C8.70949 2.9456 8.67999 2.87438 8.67999 2.80012V1.40012C8.67999 1.32586 8.70949 1.25464 8.762 1.20213C8.81451 1.14962 8.88573 1.12012 8.95999 1.12012ZM5.03999 1.12012C5.11425 1.12012 5.18547 1.14962 5.23798 1.20213C5.29049 1.25464 5.31999 1.32586 5.31999 1.40012V2.80012C5.31999 2.87438 5.29049 2.9456 5.23798 2.99811C5.18547 3.05062 5.11425 3.08012 5.03999 3.08012C4.96573 3.08012 4.89451 3.05062 4.842 2.99811C4.78949 2.9456 4.75999 2.87438 4.75999 2.80012V1.40012C4.75999 1.36335 4.76723 1.32694 4.7813 1.29297C4.79537 1.25899 4.816 1.22813 4.842 1.20213C4.868 1.17613 4.89887 1.1555 4.93284 1.14143C4.96681 1.12736 5.00322 1.12012 5.03999 1.12012Z" fill="url(#paint0_linear_687_74430)"/>
</g>
<defs>
<linearGradient id="paint0_linear_687_74430" x1="7.41999" y1="12.6001" x2="7.41999" y2="1.12012" gradientUnits="userSpaceOnUse">
<stop stop-color="#FF8A15"/>
<stop offset="1" stop-color="#F9AA3A"/>
</linearGradient>
<clipPath id="clip0_687_74430">
<rect width="14" height="14" fill="white"/>
</clipPath>
</defs>
</svg>
