<svg width="14" height="14" viewBox="0 0 14 14" fill="none" xmlns="http://www.w3.org/2000/svg">
<g clip-path="url(#clip0_687_74436)">
<path d="M1.32796 5.11506C1.71398 5.08789 2.04946 5.3753 2.08279 5.759L2.0837 5.77065C2.2455 8.06538 3.45934 9.5503 5.83259 10.3248L5.90486 10.348C6.19485 10.44 6.39309 10.7066 6.39833 11.0096L6.39844 11.0219V12.7598C6.39844 13.1502 6.08157 13.4668 5.69069 13.4668C5.30372 13.4668 4.98929 13.1566 4.98303 12.7715L4.98295 12.7598L4.98294 11.5249L4.95783 11.5155C2.35197 10.5268 0.895797 8.64648 0.678291 5.95705L0.671701 5.87002C0.644234 5.48051 0.938056 5.1425 1.32796 5.11506ZM12.6994 5.12873C12.3134 5.10156 11.9779 5.38897 11.9446 5.77268L11.9436 5.78432C11.7818 8.07905 10.568 9.56397 8.19476 10.3384L8.12249 10.3617C7.8325 10.4537 7.63425 10.7203 7.62902 11.0233L7.62891 11.0356V12.7734C7.62891 13.1639 7.94578 13.4805 8.33666 13.4805C8.72363 13.4805 9.03805 13.1702 9.04432 12.7851L9.0444 12.7734L9.04441 11.5386L9.06951 11.5292C11.6754 10.5404 13.1315 8.66015 13.3491 5.97073L13.3556 5.88369C13.3831 5.49418 13.0893 5.15617 12.6994 5.12873ZM8.7189 1.98242C9.90795 1.98242 10.8281 2.88758 10.8281 4.05694C10.8281 5.2466 9.93003 6.24133 8.49531 7.55881L8.39066 7.65462L8.28419 7.7516L8.23026 7.80054L8.12108 7.89935L8.01013 7.99943L7.84047 8.15206L7.54931 8.41341L7.32564 8.61064C7.13854 8.77565 6.85945 8.77818 6.66951 8.61826L6.66068 8.61064L6.43701 8.41341L6.08888 8.10085L5.9762 7.99944L5.81044 7.84979C5.79231 7.83338 5.77418 7.81697 5.75607 7.80054L5.64867 7.70297C5.63093 7.68681 5.61326 7.67069 5.59565 7.65462L5.49101 7.55881C4.05631 6.24135 3.1582 5.2466 3.1582 4.05694C3.1582 2.88758 4.07838 1.98242 5.26743 1.98242C5.93856 1.98242 6.57109 2.28413 6.99317 2.77456C7.41522 2.28415 8.04779 1.98242 8.7189 1.98242Z" fill="url(#paint0_linear_687_74436)"/>
</g>
<defs>
<linearGradient id="paint0_linear_687_74436" x1="7.01367" y1="13.4805" x2="7.01367" y2="1.98242" gradientUnits="userSpaceOnUse">
<stop stop-color="#FF8A15"/>
<stop offset="1" stop-color="#F9AA3A"/>
</linearGradient>
<clipPath id="clip0_687_74436">
<rect width="14" height="14" fill="white"/>
</clipPath>
</defs>
</svg>
