<svg fill="none" height="14" viewBox="0 0 14 14" width="14" xmlns="http://www.w3.org/2000/svg" xmlns:xlink="http://www.w3.org/1999/xlink"><linearGradient id="a" gradientUnits="userSpaceOnUse" x1="7.13963" x2="7.13963" y1="13" y2="1"><stop offset="0" stop-color="#ff8a15"/><stop offset="1" stop-color="#f9aa3a"/></linearGradient><path clip-rule="evenodd" d="m11.9983 1.281c-.18-.17992-.424-.281-.6784-.281h-8.3605c-.25445 0-.49848.10108-.6784.281s-.281.42395-.281.6784v10.0814c.00003.1499.0352.2978.10269.4316.06749.1339.16542.2501.28594.3393.12052.0893.26027.149.40803.1744.14777.0254.29944.0159.44285-.0279l3.62001-1.105c.18258-.0558.37764-.0558.56022 0l3.61996 1.105c.1435.0438.2951.0533.4429.0279s.2875-.0851.408-.1744c.1205-.0892.2185-.2054.286-.3393.0675-.1338.1026-.2817.1027-.4316v-10.0814c0-.25445-.1011-.49848-.281-.6784zm-7.76271 2.70728h5.91061c.3546 0 .591.30104.591.60207 0 .30104-.2364.60207-.591.60207h-5.91061c-.29553 0-.59106-.30103-.59106-.60207 0-.30103.29553-.60207.59106-.60207zm0 3.01035h5.91061c.3546 0 .591.30104.591.60208 0 .30103-.2364.60207-.591.60207h-5.91061c-.29553 0-.59106-.30104-.59106-.60207 0-.30104.29553-.60208.59106-.60208z" fill="url(#a)" fill-rule="evenodd"/></svg>