<svg fill="none" height="14" viewBox="0 0 14 14" width="14" xmlns="http://www.w3.org/2000/svg" xmlns:xlink="http://www.w3.org/1999/xlink"><linearGradient id="a" gradientUnits="userSpaceOnUse" x1="7.10001" x2="7.10001" y1="13" y2="1"><stop offset="0" stop-color="#ff8a15"/><stop offset="1" stop-color="#f9aa3a"/></linearGradient><path d="m3.50003 9.20301c.67794 0 1.27448-.29801 1.636-.75154.43395.45354 1.15047.75154 1.96398.75154.8135 0 1.5295-.29801 1.96352-.75154.36197.45354.95897.75154 1.63647.75154 1.104 0 2-.787 2-1.75799 0-.86499-.7125-1.58003-1.6485-1.72651-.1145-.02003-.2315-.03152-.3515-.03152h-2.80001v-1.56201h-1.59998v1.56252h-2.79998c-.12005 0-.23753.01099-.35151.03153-.93653.14596-1.64852.861-1.64852 1.72646 0 .97052.895 1.75752 2.00003 1.75752zm3.59998-5.4685c.44151 0 .8005-.35002.8005-.78152 0-.43149-.8005-1.95299-.8005-1.95299s-.8 1.52148-.8 1.95299c0 .4315.35848.78152.8.78152zm1.94653 5.432c-.43552.49346-1.14252.81803-1.94653.81803-.80402 0-1.51102-.32404-1.94647-.81803-.39052.48998-1.07254.81803-1.85399.81803-.74554 0-1.40151-.29801-1.79954-.75103v1.81349c0 1.0785.89499 1.953 2.00003 1.953h7.20006c1.1039 0 1.9999-.8745 1.9999-1.953v-1.81452c-.398.45353-1.0545.75205-1.8005.75205-.781 0-1.46301-.32805-1.85296-.81802z" fill="url(#a)"/></svg>