<svg width="16" height="16" viewBox="0 0 16 16" fill="none" xmlns="http://www.w3.org/2000/svg">
<path fill-rule="evenodd" clip-rule="evenodd" d="M7.99917 0C11.304 0 13.9927 2.64059 13.9927 5.88665C13.9927 8.43303 10.3011 13.562 8.71438 15.649C8.54669 15.8692 8.27867 16 7.99915 16C7.71903 16 7.45162 15.8692 7.28447 15.649C5.69718 13.562 2.00732 8.4324 2.00732 5.88665C2.00732 2.64059 4.69491 0 7.99917 0ZM7.99917 14.8836L8.09368 14.758C11.0913 10.7765 12.953 7.3774 12.9524 5.88665C12.9524 3.2034 10.7306 1.02042 7.99917 1.02042C5.26723 1.02042 3.04535 3.2034 3.04535 5.88665C3.04535 7.37683 4.90816 10.7765 7.90464 14.758L7.99917 14.8836ZM5.43848 5.5136C5.43848 4.12746 6.58715 2.99951 7.99924 2.99951C9.4113 2.99951 10.5594 4.12744 10.5594 5.5136C10.5594 6.89944 9.4113 8.02624 7.99924 8.02624C6.58715 8.02624 5.43848 6.89944 5.43848 5.5136ZM6.57562 5.51301C6.57562 6.28504 7.21424 6.91301 7.99924 6.91301C8.78366 6.91301 9.42224 6.28504 9.42224 5.51301C9.42224 4.74126 8.78366 4.11304 7.99924 4.11304C7.21422 4.11304 6.57562 4.74126 6.57562 5.51301Z" fill="white" fill-opacity="0.7"/>
</svg>
