<svg fill="none" height="21" viewBox="0 0 21 21" width="21" xmlns="http://www.w3.org/2000/svg" xmlns:xlink="http://www.w3.org/1999/xlink"><filter id="a" color-interpolation-filters="sRGB" filterUnits="userSpaceOnUse" height="22" width="22.9473" x="-.049805" y=".400391"><feFlood flood-opacity="0" result="BackgroundImageFix"/><feBlend in="SourceGraphic" in2="BackgroundImageFix" mode="normal" result="shape"/><feGaussianBlur result="effect1_foregroundBlur_67_89961" stdDeviation="1"/></filter><linearGradient id="b" gradientUnits="userSpaceOnUse" x1="10.5" x2="10.5" y1="2.40039" y2="19.5004"><stop offset="0" stop-color="#0a878f"/><stop offset="1" stop-color="#035d63"/></linearGradient><linearGradient id="c" gradientUnits="userSpaceOnUse" x1="10.5" x2="10.5" y1="1.5" y2="18.6"><stop offset="0" stop-color="#28cdd8"/><stop offset="1" stop-color="#077f87"/></linearGradient><linearGradient id="d" gradientUnits="userSpaceOnUse" x1="11.4239" x2="11.4239" y1="2.40039" y2="20.4004"><stop offset="0" stop-color="#15a2ab"/><stop offset="1" stop-color="#077f87"/></linearGradient><mask id="e" height="18" maskUnits="userSpaceOnUse" width="19" x="1" y="1"><path d="m3.3 10.5h2.7c.47739 0 .93523.1896 1.27279.5272.33757.3376.52721.7954.52721 1.2728v4.5c0 .4774-.18964.9352-.52721 1.2728-.33756.3376-.7954.5272-1.27279.5272h-2.7c-.23638 0-.47044-.0466-.68883-.137-.21839-.0905-.41682-.2231-.58396-.3902-.16715-.1672-.29973-.3656-.39019-.584s-.13702-.4524-.13702-.6888v-6.3c0-4.9707 4.0293-9 9-9s9 4.0293 9 9v6.3c0 .2364-.0466.4704-.137.6888-.0905.2184-.2231.4168-.3902.584-.1672.1671-.3656.2997-.584.3902-.2184.0904-.4524.137-.6888.137h-2.7c-.4774 0-.9352-.1896-1.2728-.5272s-.5272-.7954-.5272-1.2728v-4.5c0-.4774.1896-.9352.5272-1.2728s.7954-.5272 1.2728-.5272h2.7c0-1.90956-.7586-3.74091-2.1088-5.09117-1.3503-1.35026-3.1816-2.10883-5.0912-2.10883-1.90956 0-3.74091.75857-5.09117 2.10883s-2.10883 3.18161-2.10883 5.09117z" fill="url(#c)"/></mask><path d="m3.3 11.4004h2.7c.47739 0 .93523.1896 1.27279.5272.33757.3376.52721.7954.52721 1.2728v4.5c0 .4774-.18964.9352-.52721 1.2728-.33756.3375-.7954.5272-1.27279.5272h-2.7c-.23638 0-.47044-.0466-.68883-.137-.21839-.0905-.41682-.2231-.58396-.3902-.16715-.1672-.29973-.3656-.39019-.584s-.13702-.4524-.13702-.6888v-6.3c0-4.97071 4.0293-9.00001 9-9.00001s9 4.0293 9 9.00001v6.3c0 .2364-.0466.4704-.137.6888-.0905.2184-.2231.4168-.3902.584-.1672.1671-.3656.2997-.584.3902-.2184.0904-.4524.137-.6888.137h-2.7c-.4774 0-.9352-.1897-1.2728-.5272-.3376-.3376-.5272-.7954-.5272-1.2728v-4.5c0-.4774.1896-.9352.5272-1.2728s.7954-.5272 1.2728-.5272h2.7c0-1.90957-.7586-3.74092-2.1088-5.09118-1.3503-1.35026-3.1816-2.10883-5.0912-2.10883-1.90956 0-3.74091.75857-5.09117 2.10883s-2.10883 3.18161-2.10883 5.09118z" fill="url(#b)"/><path d="m3.3 10.5h2.7c.47739 0 .93523.1896 1.27279.5272.33757.3376.52721.7954.52721 1.2728v4.5c0 .4774-.18964.9352-.52721 1.2728-.33756.3376-.7954.5272-1.27279.5272h-2.7c-.23638 0-.47044-.0466-.68883-.137-.21839-.0905-.41682-.2231-.58396-.3902-.16715-.1672-.29973-.3656-.39019-.584s-.13702-.4524-.13702-.6888v-6.3c0-4.9707 4.0293-9 9-9s9 4.0293 9 9v6.3c0 .2364-.0466.4704-.137.6888-.0905.2184-.2231.4168-.3902.584-.1672.1671-.3656.2997-.584.3902-.2184.0904-.4524.137-.6888.137h-2.7c-.4774 0-.9352-.1896-1.2728-.5272s-.5272-.7954-.5272-1.2728v-4.5c0-.4774.1896-.9352.5272-1.2728s.7954-.5272 1.2728-.5272h2.7c0-1.90956-.7586-3.74091-2.1088-5.09117-1.3503-1.35026-3.1816-2.10883-5.0912-2.10883-1.90956 0-3.74091.75857-5.09117 2.10883s-2.10883 3.18161-2.10883 5.09117z" fill="url(#c)"/><g mask="url(#e)"><g filter="url(#a)"><path d="m3.84493 11.8741h2.84211c.50251 0 .98445.1996 1.33978.5549.35533.3554.55495.8373.55495 1.3398v4.7369c0 .5025-.19962.9844-.55495 1.3397-.35533.3554-.83727.555-1.33978.555h-2.84211c-.24882 0-.4952-.049-.72508-.1442-.22988-.0953-.43876-.2348-.6147-.4108-.17594-.1759-.31551-.3848-.41073-.6147-.09522-.2298-.14422-.4762-.14422-.725v-6.6316c0-5.23234 4.24136-9.47371 9.4737-9.47371 5.2323 0 9.4737 4.24137 9.4737 9.47371v6.6316c0 .2488-.049.4952-.1443.725-.0952.2299-.2347.4388-.4107.6147-.1759.176-.3848.3155-.6147.4108-.2299.0952-.4763.1442-.7251.1442h-2.8421c-.5025 0-.9844-.1996-1.3398-.555-.3553-.3553-.5549-.8372-.5549-1.3397v-4.7369c0-.5025.1996-.9844.5549-1.3398.3554-.3553.8373-.5549 1.3398-.5549h2.8421c0-2.01009-.7985-3.93782-2.2198-5.35915s-3.3491-2.21982-5.3591-2.21982c-2.01008 0-3.93782.79849-5.35915 2.21982-1.42132 1.42133-2.21982 3.34906-2.21982 5.35915z" fill="url(#d)"/></g></g></svg>