<svg width="22" height="22" viewBox="0 0 22 22" fill="none" xmlns="http://www.w3.org/2000/svg">
<path d="M18.0844 1.43018H3.82665C2.84633 1.43018 2.04443 2.2323 2.04443 3.2124V19.5199C2.04443 20.5 2.66824 20.8564 3.55924 20.3218L9.52971 16.4008C10.3316 15.8662 11.6683 15.8662 12.4702 16.4008L18.4407 20.3218C19.2428 20.8564 19.9555 20.5 19.9555 19.5199V3.2124C19.8666 2.2323 19.0646 1.43018 18.0844 1.43018ZM15.5002 8.55917L14.1636 9.89578C13.8072 10.2522 13.6291 10.876 13.7181 11.4107L14.0745 13.282C14.1636 13.7276 13.8962 13.9948 13.4506 13.7276L11.8468 12.8365C11.4009 12.5691 10.6881 12.5691 10.2426 12.8365L8.63871 13.7276C8.19299 13.9949 7.9258 13.7276 8.0149 13.282L8.3713 11.4107C8.4604 10.965 8.19299 10.2522 7.92558 9.89578L6.41088 8.55917C6.05437 8.20277 6.14347 7.84626 6.67829 7.84626L8.54961 7.57885C8.99533 7.48964 9.61892 7.13324 9.79723 6.68774L10.5992 4.99451C10.7776 4.5489 11.1341 4.5489 11.4014 4.99451L12.2034 6.68774C12.3815 7.13335 13.0054 7.57885 13.4508 7.57885L15.3223 7.84626C15.7677 7.93536 15.8567 8.20277 15.5002 8.55917Z" stroke="url(#paint0_linear_735_39661)"/>
<defs>
<linearGradient id="paint0_linear_735_39661" x1="17.4647" y1="19.4824" x2="2.71674" y2="17.1134" gradientUnits="userSpaceOnUse">
<stop stop-color="#DAB07E"/>
<stop offset="0.552083" stop-color="#EBC9A0"/>
<stop offset="1" stop-color="#F9DDBC"/>
</linearGradient>
</defs>
</svg>
