<svg fill="none" height="11" viewBox="0 0 11 11" width="11" xmlns="http://www.w3.org/2000/svg" xmlns:xlink="http://www.w3.org/1999/xlink"><clipPath id="a"><path d="m0 0h11v11h-11z"/></clipPath><g clip-path="url(#a)" fill="#d9d9d9"><path d="m7.29136 7.85712c.07391.00104.1473-.01262.21589-.04019s.13102-.06849.18366-.1204c.05263-.0519.09443-.11375.12295-.18195.02853-.0682.04321-.14139.0432-.21531v-6.741363c.00001-.073924-.01467-.147112-.0432-.215311-.02852-.068199-.07032-.130048-.12295-.181954-.05264-.051905-.11507-.0928311-.18366-.1203993-.06859-.0275681-.14198-.04122854-.21589-.04018736h-6.733508c-.147952 0-.289844.05877346-.394461.16339066-.1046175.104618-.163391.246509-.163391.394461v6.741363c0 .14795.0587735.28984.163391.39446.104617.10462.246509.16339.394461.16339z"/><path d="m10.4342 3.14459h-1.79143v4.87923c0 .08152-.01606.16223-.04725.23754s-.07692.14373-.13455.20137c-.05764.05764-.12607.10336-.20138.13455-.0753.0312-.15602.04725-.23753.04725h-4.87924v1.79927c-.00001.0739.01468.1471.04321.2153.02852.0682.07031.1301.12295.182s.11507.0928.18366.1204c.06859.0275.14197.0412.21589.0402h6.73347c.148 0 .2899-.0588.3945-.1634.1046-.1047.1634-.2465.1634-.3945v-6.74136c0-.07393-.0147-.14711-.0432-.21531s-.0703-.13005-.123-.18196c-.0526-.0519-.115-.09283-.1836-.1204-.0686-.02756-.142-.04122-.2159-.04018z"/></g></svg>