<svg width="12" height="12" viewBox="0 0 12 12" fill="none" xmlns="http://www.w3.org/2000/svg">
<path d="M9.66851 9.12783H7.74694C7.10064 9.75451 6.10895 10.8788 6.10895 10.8788C6.04888 10.9414 5.95109 10.9414 5.89121 10.8788C5.89121 10.8788 4.53643 9.4765 4.20914 9.12783H2.33167C1.6355 9.12783 1.07141 8.47722 1.07141 7.77132V2.97845C1.07141 2.27257 1.62318 1.7002 2.30355 1.7002H9.69642C10.377 1.7002 10.9286 2.27257 10.9286 2.97845V7.77132C10.9286 8.47711 10.3645 9.12783 9.66851 9.12783ZM3.5357 4.88424C3.19551 4.88424 2.91963 5.17043 2.91963 5.52342C2.91963 5.87631 3.1955 6.1625 3.5357 6.1625C3.8759 6.1625 4.15177 5.87631 4.15177 5.52342C4.15177 5.17043 3.87589 4.88424 3.5357 4.88424ZM5.99999 4.88424C5.6598 4.88424 5.38391 5.17043 5.38391 5.52342C5.38391 5.87631 5.65999 6.1625 5.99999 6.1625C6.34018 6.1625 6.61606 5.87631 6.61606 5.52342C6.61606 5.17043 6.34018 4.88424 5.99999 4.88424ZM8.46428 4.88424C8.12428 4.88424 7.8482 5.17043 7.8482 5.52342C7.8482 5.87631 8.12428 6.1625 8.46428 6.1625C8.80467 6.1625 9.08035 5.87631 9.08035 5.52342C9.08035 5.17043 8.80467 4.88424 8.46428 4.88424Z" fill="white" fill-opacity="0.2"/>
</svg>
