<svg width="16" height="16" viewBox="0 0 16 16" fill="none" xmlns="http://www.w3.org/2000/svg">
<g clip-path="url(#clip0_726_39554)">
<path d="M12.1125 11.1223L14.6157 13.6249C14.8893 13.8985 14.8894 14.342 14.6158 14.6156V14.6156V14.6156C14.3422 14.8891 13.8987 14.8891 13.6252 14.6155L11.1226 12.1123C10.0071 13.0065 8.61963 13.4929 7.18999 13.4908C3.7118 13.4908 0.888916 10.6679 0.888916 7.18974C0.888916 3.71155 3.7118 0.888672 7.18999 0.888672C10.6682 0.888672 13.4911 3.71155 13.4911 7.18974C13.4931 8.61939 13.0067 10.0068 12.1125 11.1223ZM10.7081 10.6028C11.5966 9.68909 12.0928 8.46426 12.0908 7.18974C12.0908 4.48168 9.89735 2.28891 7.18999 2.28891C4.48193 2.28891 2.28915 4.48168 2.28915 7.18974C2.28915 9.89711 4.48193 12.0906 7.18999 12.0906C8.46451 12.0926 9.68933 11.5964 10.6031 10.7078L10.7081 10.6028Z" fill="#024D54" stroke="#024D54" stroke-width="0.444444"/>
</g>
<defs>
<clipPath id="clip0_726_39554">
<rect width="16" height="16" fill="white"/>
</clipPath>
</defs>
</svg>
