<svg width="20" height="20" viewBox="0 0 20 20" fill="none" xmlns="http://www.w3.org/2000/svg">
<g clip-path="url(#clip0_643_9349)">
<path d="M5.82049 11.2381L5.82002 11.2373C5.11261 10.0946 4.72925 8.83789 4.72925 7.50008C4.72925 4.58574 7.08574 2.22925 10.0001 2.22925C12.9144 2.22925 15.2709 4.58574 15.2709 7.50008C15.2709 8.83773 14.8877 10.0935 14.1733 11.235L14.1732 11.235L14.1705 11.2395C13.7927 11.8559 13.3525 12.431 12.8911 13.0295C12.8765 13.0484 12.8619 13.0673 12.8473 13.0862C12.405 13.6599 11.9441 14.2576 11.5403 14.9011L11.5401 14.9014C11.1273 15.5602 10.8393 16.1727 10.5301 16.8497L10.5297 16.8506C10.4876 16.9432 10.4435 17.0555 10.4047 17.1541C10.3895 17.1926 10.3752 17.2291 10.3621 17.2615C10.3087 17.3937 10.2597 17.503 10.2065 17.5923C10.1023 17.7671 10.0451 17.7709 10.0001 17.7709C9.95502 17.7709 9.89752 17.7671 9.7918 17.5909C9.7378 17.5009 9.68799 17.3911 9.63302 17.2577C9.62085 17.2282 9.60771 17.1956 9.59387 17.1613C9.55353 17.0613 9.50723 16.9466 9.4616 16.8493C9.15771 16.1659 8.8626 15.5571 8.4521 14.902C8.04155 14.2435 7.57224 13.6348 7.12285 13.0519L7.10076 13.0233C6.6388 12.4241 6.1985 11.8509 5.82049 11.2381ZM7.35425 7.70841C7.35425 9.16907 8.53942 10.3542 10.0001 10.3542C11.4607 10.3542 12.6459 9.16907 12.6459 7.70841C12.6459 6.24775 11.4607 5.06258 10.0001 5.06258C8.53942 5.06258 7.35425 6.24775 7.35425 7.70841Z" stroke="#011F15" stroke-width="1.125"/>
</g>
<defs>
<clipPath id="clip0_643_9349">
<rect width="20" height="20" fill="white"/>
</clipPath>
</defs>
</svg>
