<svg fill="none" height="36" viewBox="0 0 36 36" width="36" xmlns="http://www.w3.org/2000/svg"><path clip-rule="evenodd" d="m4.47892 3h27.04578c2.1971 0 3.9789 1.79998 3.9753 4.01906v17.09364c0 2.2208-1.7817 4.0217-3.9789 4.0217h-10.0279c-.2268.0009-.4496.0593-.6469.1697-.1972.1103-.3624.2688-.4795.4603l-2.0852 3.3582c-.0345.0578-.0837.1057-.1427.1391-.0591.0333-.1259.0508-.194.0508-.068 0-.1349-.0175-.1939-.0508-.0591-.0334-.1083-.0813-.1427-.1391l-2.0074-3.3379c-.1161-.1957-.282-.3581-.4812-.4713-.1993-.1133-.425-.1735-.655-.1746h-9.98578c-2.19718 0-3.97892-1.8009-3.97892-4.0217v-17.09539c0-2.22173 1.78174-4.02171 3.97892-4.02171zm20.63958 6.88058c-.0271-.13035-.0624-.24441-.1058-.34217-.152-.32588-.3664-.63817-.6433-.93689-.2768-.29872-.5292-.50782-.7572-.62731-.1086-.05431-.2361-.10319-.3827-.14664s-.2986-.06789-.456-.07332-.3175.01629-.4804.06517c-.1628.04888-.3203.13307-.4723.25256-.1194.09776-.2687.23082-.4478.39919s-.3338.3123-.4641.43178l3.0453 3.04695c.076-.0652.1574-.1412.2442-.2281.076-.0761.1656-.163.2687-.2607.1032-.0978.2199-.2119.3502-.3422.1194-.1304.2062-.2661.2605-.4073.0543-.1413.0814-.2825.0814-.4237s-.0135-.277-.0407-.40732zm-12.3358 7.14482c-.2388.2444-.3908.3992-.456.4643-.1519.1521-.2687.2906-.3501.4155s-.1547.2634-.2198.4155c-.0543.0978-.1249.277-.2117.5377-.0869.2607-.1764.5458-.2687.8554s-.1792.6083-.2606.8962c-.0814.2878-.133.5078-.1547.6599-.0434.2824-.0163.4834.0814.6028.0977.1195.2932.163.5863.1304.1411-.0217.3555-.0706.6432-.1466.2877-.0761.5917-.1657.912-.2689s.627-.2091.9201-.3177.5157-.201.6677-.277c.152-.0652.2985-.1521.4397-.2607.1411-.1086.266-.2118.3745-.3096.0434-.0326.1792-.1629.4071-.391.228-.2282.5157-.5187.8631-.8718.3475-.353.7383-.7413 1.1726-1.165l1.3027-1.3197 3.5013-3.5032-3.0453-3.0632-3.5012 3.5031-1.3191 1.3198-1.1888 1.1895c-.3583.3584-.6568.6599-.8957.9043z" fill="#fbedda" fill-rule="evenodd"/></svg>