<svg width="12" height="12" viewBox="0 0 12 12" fill="none" xmlns="http://www.w3.org/2000/svg">
<path d="M4.625 1.25H9.875C10.1071 1.25 10.3296 1.34219 10.4937 1.50628C10.6578 1.67038 10.75 1.89294 10.75 2.125V7.375C10.75 7.60706 10.6578 7.82962 10.4937 7.99372C10.3296 8.15781 10.1071 8.25 9.875 8.25H4.625C4.39294 8.25 4.17038 8.15781 4.00628 7.99372C3.84219 7.82962 3.75 7.60706 3.75 7.375V2.125C3.75 1.89294 3.84219 1.67038 4.00628 1.50628C4.17038 1.34219 4.39294 1.25 4.625 1.25ZM4.625 2C4.59185 2 4.56005 2.01317 4.53661 2.03661C4.51317 2.06005 4.5 2.09185 4.5 2.125V7.375C4.5 7.39142 4.50323 7.40767 4.50952 7.42284C4.5158 7.438 4.525 7.45178 4.53661 7.46339C4.54822 7.475 4.562 7.4842 4.57717 7.49049C4.59233 7.49677 4.60859 7.5 4.625 7.5H9.875C9.90815 7.5 9.93995 7.48683 9.96339 7.46339C9.98683 7.43995 10 7.40815 10 7.375V2.125C10 2.09185 9.98683 2.06005 9.96339 2.03661C9.93995 2.01317 9.90815 2 9.875 2H4.625ZM7.5 9C7.5 8.90054 7.53951 8.80516 7.60983 8.73484C7.68016 8.66451 7.77554 8.625 7.875 8.625C7.97446 8.625 8.06984 8.66451 8.14017 8.73484C8.21049 8.80516 8.25 8.90054 8.25 9V9.875C8.25 10.1071 8.15781 10.3296 7.99372 10.4937C7.82962 10.6578 7.60706 10.75 7.375 10.75H2.125C1.89294 10.75 1.67038 10.6578 1.50628 10.4937C1.34219 10.3296 1.25 10.1071 1.25 9.875V4.625C1.25 4.39294 1.34219 4.17038 1.50628 4.00628C1.67038 3.84219 1.89294 3.75 2.125 3.75H3C3.09946 3.75 3.19484 3.78951 3.26517 3.85984C3.33549 3.93016 3.375 4.02554 3.375 4.125C3.375 4.22446 3.33549 4.31984 3.26517 4.39017C3.19484 4.46049 3.09946 4.5 3 4.5H2.125C2.09185 4.5 2.06005 4.51317 2.03661 4.53661C2.01317 4.56005 2 4.59185 2 4.625V9.875C2 9.90815 2.01317 9.93995 2.03661 9.96339C2.06005 9.98683 2.09185 10 2.125 10H7.375C7.40815 10 7.43995 9.98683 7.46339 9.96339C7.48683 9.93995 7.5 9.90815 7.5 9.875V9Z" fill="#B9B9B9"/>
</svg>
