<svg width="11" height="12" viewBox="0 0 11 12" fill="none" xmlns="http://www.w3.org/2000/svg">
<g opacity="0.7">
<g clip-path="url(#clip0_643_9380)">
<path d="M7.29136 8.35712C7.36527 8.35816 7.43866 8.3445 7.50725 8.31693C7.57584 8.28936 7.63827 8.24844 7.69091 8.19653C7.74354 8.14463 7.78534 8.08278 7.81386 8.01458C7.84239 7.94638 7.85707 7.87319 7.85706 7.79927V1.05791C7.85707 0.983983 7.84239 0.910795 7.81386 0.842596C7.78534 0.774397 7.74354 0.712548 7.69091 0.660642C7.63827 0.608737 7.57584 0.567811 7.50725 0.540243C7.43866 0.512675 7.36527 0.499014 7.29136 0.500055H0.557852C0.4099 0.500055 0.268008 0.558829 0.163391 0.663446C0.0587735 0.768064 0 0.909955 0 1.05791L0 7.79927C0 7.94722 0.0587735 8.08911 0.163391 8.19373C0.268008 8.29835 0.4099 8.35712 0.557852 8.35712H7.29136Z" fill="#011F15"/>
<path d="M10.4342 3.64459H8.64277V8.52382C8.64277 8.60534 8.62671 8.68605 8.59552 8.76136C8.56433 8.83667 8.5186 8.90509 8.46097 8.96273C8.40333 9.02037 8.3349 9.06609 8.25959 9.09728C8.18429 9.12848 8.10357 9.14453 8.02206 9.14453H3.14282V10.9438C3.14281 11.0177 3.1575 11.0909 3.18603 11.1591C3.21455 11.2273 3.25634 11.2892 3.30898 11.3411C3.36162 11.393 3.42405 11.4339 3.49264 11.4615C3.56123 11.489 3.63461 11.5027 3.70853 11.5017H10.442C10.59 11.5017 10.7319 11.4429 10.8365 11.3383C10.9411 11.2336 10.9999 11.0918 10.9999 10.9438V4.20244C10.9999 4.12851 10.9852 4.05533 10.9567 3.98713C10.9282 3.91893 10.8864 3.85708 10.8337 3.80517C10.7811 3.75327 10.7187 3.71234 10.6501 3.68477C10.5815 3.65721 10.5081 3.64355 10.4342 3.64459Z" fill="#011F15"/>
</g>
</g>
<defs>
<clipPath id="clip0_643_9380">
<rect width="11" height="11" fill="white" transform="translate(0 0.5)"/>
</clipPath>
</defs>
</svg>
