<svg fill="none" height="25" viewBox="0 0 25 25" width="25" xmlns="http://www.w3.org/2000/svg"><path clip-rule="evenodd" d="m20.8094 2.6384c-.2206-.09137-.457-.1384-.6958-.1384h-14.54542c-.23877 0-.47519.04703-.69579.1384-.22059.09137-.42102.2253-.58986.39413-.16883.16884-.30276.36927-.39413.58986-.09137.2206-.1384.45702-.1384.69579v16.36362c0 .2388.04703.4752.1384.6958s.2253.421.39413.5899c.16884.1688.36927.3027.58986.3941.2206.0914.45702.1384.69579.1384h14.54542c.2388 0 .4752-.047.6958-.1384s.4211-.2253.5899-.3941c.1688-.1689.3027-.3693.3941-.5899s.1384-.457.1384-.6958v-16.36362c0-.23877-.047-.47519-.1384-.69579-.0914-.22059-.2253-.42102-.3941-.58986-.1688-.16883-.3693-.30276-.5899-.39413zm-15.24122 1.67978h14.54542v16.36362h-14.54542zm11.81832 2.72723h-9.09093c-.60607 0-.9091.30303-.9091.90909s.30303.90909.9091.90909h9.09093c.606 0 .9091-.30303.9091-.90909s-.3031-.90909-.9091-.90909zm-9.09093 3.63629h9.09093c.606 0 .9091.3031.9091.9091 0 .6061-.3031.9091-.9091.9091h-9.09093c-.60607 0-.9091-.303-.9091-.9091 0-.606.30303-.9091.9091-.9091zm5.45453 3.6366h-5.45453c-.60607 0-.9091.303-.9091.9091 0 .606.30303.909.9091.909h5.45453c.6061 0 .9091-.303.9091-.909 0-.6061-.303-.9091-.9091-.9091z" fill="#d5d5d5" fill-opacity=".2" fill-rule="evenodd"/></svg>