<svg fill="none" height="11" viewBox="0 0 10 11" width="10" xmlns="http://www.w3.org/2000/svg"><g fill="#fff"><path d="m5.39532 10.8399 3.65481-3.66778c.17325-.17324.17325-.45395 0-.62812-.17324-.17325-.45303-.17325-.62627 0l-3.42321 3.43617-3.42413-3.43617c-.17324-.17325-.45303-.17325-.626274 0-.173245.17417-.173245.45488 0 .62812l3.654814 3.66778c.18251.1788.5466.2437.79026 0z"/><path d="m4.60468.16009-3.654812 3.66779c-.173245.17324-.173245.45395 0 .62812.173242.17325.453032.17325.626272 0l3.42321-3.43617 3.42413 3.43617c.17324.17325.45303.17325.62627 0 .17325-.17417.17325-.45488 0-.62812l-3.65481-3.66779c-.18251-.1788029-.5466-.2436539-.79026 0z"/></g></svg>