<svg fill="none" height="48" viewBox="0 0 48 48" width="48" xmlns="http://www.w3.org/2000/svg" xmlns:xlink="http://www.w3.org/1999/xlink"><clipPath id="a"><path d="m0 0h48v48h-48z"/></clipPath><g clip-path="url(#a)"><path d="m24 0c-13.2583 0-24 10.7495-24 24s10.7495 24 24 24 24-10.7495 24-24-10.7417-24-24-24z" fill="#141414" fill-opacity=".5"/><path clip-rule="evenodd" d="m30 16.3636h5.1818c.4364 0 .8182.3819.8182.8182 0 .4364-.3818.8182-.8182.8182h-22.3636c-.4364 0-.8182-.3818-.8182-.8182 0-.4363.3818-.8182.8182-.8182h5.1818v-1.9091c0-1.3636 1.0909-2.4545 2.4545-2.4545h7.091c1.3636 0 2.4545 1.0909 2.4545 2.4545zm-10.3636-1.9091v1.9091h8.7272v-1.9091c0-.4363-.3818-.8181-.8181-.8181h-7.091c-.4363 0-.8181.3818-.8181.8181zm11.9454 6c0-.4363.3818-.8181.8182-.8181s.8182.3818.8727.8181v12.3819c0 1.7454-1.4182 3.1636-3.1636 3.1636h-12.2182c-1.7454 0-3.1636-1.4182-3.1636-3.1636v-12.3819c0-.4363.3818-.8181.8182-.8181.4363 0 .8181.3818.8181.8181v12.3819c0 .8727.7091 1.5272 1.5273 1.5272h12.1636c.8728 0 1.5273-.7091 1.5273-1.5272zm-9.8724-.0004v11.4546c0 .4363-.3818.8181-.8182.8181-.4363 0-.8182-.3818-.8182-.8181v-11.4546c0-.4363.3819-.8182.8182-.8182.4364 0 .8182.3819.8182.8182zm6.2182 0v11.4546c0 .4363-.3818.8181-.8182.8181s-.8182-.3818-.8182-.8181v-11.4546c0-.4363.3818-.8182.8182-.8182s.8182.3819.8182.8182z" fill="#cbced8" fill-rule="evenodd"/></g></svg>