<svg width="32" height="32" viewBox="0 0 32 32" fill="none" xmlns="http://www.w3.org/2000/svg">
<path d="M15.9961 0C7.16243 0 0 7.16243 0 15.9961C0 24.8297 7.16243 31.9961 16 31.9961C24.8376 31.9961 32 24.8337 32 15.9961C32 7.15851 24.8337 0 15.9961 0ZM26.4971 15.9452C26.4971 16.9432 25.6791 17.7652 24.6771 17.7652H16.0861C15.0881 17.7652 14.2661 16.9472 14.2661 15.9452V5.36203C14.2661 4.36399 15.0841 3.54207 16.0861 3.54207C17.0841 3.54207 17.9061 4.36008 17.9061 5.36203V12.7789C17.9061 13.5225 18.5088 14.1292 19.2564 14.1292H24.681C25.6791 14.1292 26.4971 14.9472 26.4971 15.9452Z" fill="url(#paint0_linear_672_73163)"/>
<path d="M15.9961 0C7.16243 0 0 7.16243 0 15.9961C0 24.8297 7.16243 31.9961 16 31.9961C24.8376 31.9961 32 24.8337 32 15.9961C32 7.15851 24.8337 0 15.9961 0ZM26.4971 15.9452C26.4971 16.9432 25.6791 17.7652 24.6771 17.7652H16.0861C15.0881 17.7652 14.2661 16.9472 14.2661 15.9452V5.36203C14.2661 4.36399 15.0841 3.54207 16.0861 3.54207C17.0841 3.54207 17.9061 4.36008 17.9061 5.36203V12.7789C17.9061 13.5225 18.5088 14.1292 19.2564 14.1292H24.681C25.6791 14.1292 26.4971 14.9472 26.4971 15.9452Z" fill="url(#paint1_linear_672_73163)"/>
<defs>
<linearGradient id="paint0_linear_672_73163" x1="16" y1="0" x2="16" y2="31.9961" gradientUnits="userSpaceOnUse">
<stop stop-color="#C9A899"/>
<stop offset="0.515625" stop-color="#F4DEC6"/>
<stop offset="1" stop-color="#E4B89C"/>
</linearGradient>
<linearGradient id="paint1_linear_672_73163" x1="27.55" y1="30.1777" x2="1.29506" y2="25.6704" gradientUnits="userSpaceOnUse">
<stop stop-color="#DAB07E"/>
<stop offset="0.552083" stop-color="#EBC9A0"/>
<stop offset="1" stop-color="#F9DDBC"/>
</linearGradient>
</defs>
</svg>
