<svg fill="none" height="50" viewBox="0 0 51 50" width="51" xmlns="http://www.w3.org/2000/svg" xmlns:xlink="http://www.w3.org/1999/xlink"><linearGradient id="a" gradientUnits="userSpaceOnUse" x1="25.5" x2="25.5" y1="50" y2="0"><stop offset="0" stop-color="#ff8a15"/><stop offset="1" stop-color="#f9aa3a"/></linearGradient><rect fill="url(#a)" height="50" rx="25" width="50" x=".5"/><path d="m38.1114 14.8319h-9.9161l3.1289-3.0367c.1379-.1339.2481-.2936.3243-.4701.0762-.1764.1169-.3662.1198-.5584.0028-.1922-.0322-.383-.1032-.5617-.0709-.1787-.1763-.34158-.3102-.47948-.1339-.13794-.2936-.24816-.4701-.32437-.1765-.0762-.3662-.11689-.5584-.11974s-.3831.03219-.5618.10313c-.1786.07093-.3415.17637-.4794.31029l-4.3338 4.20847-3.904-4.15987c-.2654-.28277-.6322-.44862-1.0198-.46109-.3876-.01248-.7643.12945-1.0473.39458-.1402.13142-.253.28918-.332.46428-.0791.1751-.1228.364-.1288.556-.0059.192.0261.3833.0941.5629.0681.1797.171.3441.3027.4839l2.8935 3.0879h-9.6347c-.9849 0-1.7806.7982-1.7806 1.7806v4.1624c0 .985.7982 1.7806 1.7806 1.7806h1.361v11.9295c0 2.2538 1.8292 4.083 4.0831 4.083h15.0506c2.2539 0 4.0831-1.8292 4.0831-4.083v-11.9269h1.361c.985 0 1.7806-.7982 1.7806-1.7806v-4.1624c0-.4729-.1878-.9265-.5222-1.2609s-.788-.5223-1.2609-.5223zm-11.5048 17.0922c0 .8084-.6549 1.4633-1.4633 1.4633-.8085 0-1.4634-.6549-1.4634-1.4633v-4.8839c0-.8084.6549-1.4633 1.4634-1.4633.8084 0 1.4633.6549 1.4633 1.4633z" fill="#443e3d"/></svg>