<svg fill="none" height="14" viewBox="0 0 14 14" width="14" xmlns="http://www.w3.org/2000/svg"><path d="m11.5299 10.6656h-2.24178c-.75403.7311-1.91099 2.0428-1.91099 2.0428-.07008.073-.18418.073-.25403 0 0 0-1.58058-1.6361-1.96241-2.0428h-2.19039c-.8122 0-1.4703-.75909-1.4703-1.58263v-5.59168c0-.82352.64373-1.49129 1.4375-1.49129h8.625c.794 0 1.4375.66777 1.4375 1.49129v5.59168c0 .82342-.6581 1.58263-1.4701 1.58263zm-7.1549-4.95088c-.39688 0-.71875.33389-.71875.7457 0 .4117.32186.74559.71875.74559.3969 0 .71876-.33389.71876-.74559 0-.41181-.32187-.7457-.71876-.7457zm2.87501 0c-.39689 0-.71876.33389-.71876.7457 0 .4117.32209.74559.71876.74559.39688 0 .71875-.33389.71875-.74559 0-.41181-.32187-.7457-.71875-.7457zm2.87499 0c-.39665 0-.71874.33389-.71874.7457 0 .4117.32209.74559.71874.74559.3971 0 .7188-.33389.7188-.74559 0-.41181-.3217-.7457-.7188-.7457z" fill="#8a898d"/></svg>