<svg width="84" height="28" viewBox="0 0 84 28" fill="none" xmlns="http://www.w3.org/2000/svg">
<g clip-path="url(#clip0_643_9331)">
<rect width="84" height="28" rx="14" fill="url(#paint0_linear_643_9331)"/>
<g filter="url(#filter0_d_643_9331)">
<path fill-rule="evenodd" clip-rule="evenodd" d="M22.0001 19.1114C25.7563 19.1114 28.8012 16.0665 28.8012 12.3103C28.8012 8.5542 25.7563 5.50926 22.0001 5.50926C18.244 5.50926 15.1991 8.5542 15.1991 12.3103C15.1991 16.0665 18.244 19.1114 22.0001 19.1114ZM29.4771 12.3103C29.4771 15.4963 27.4844 18.2168 24.6775 19.2937C24.8971 19.4416 25.0416 19.6926 25.0416 19.9774C25.0416 20.0344 25.0358 20.09 25.0248 20.1437C26.4134 20.3041 27.4916 21.4839 27.4916 22.9155C27.4916 23.0542 27.3791 23.1667 27.2404 23.1667H16.9286C16.7899 23.1667 16.6774 23.0542 16.6774 22.9155C16.6774 21.5122 17.7134 20.3508 19.0622 20.1544C19.0497 20.0974 19.0432 20.0382 19.0432 19.9774C19.0432 19.7056 19.1748 19.4645 19.3778 19.3145C16.5419 18.2523 14.5232 15.517 14.5232 12.3103C14.5232 8.18092 17.8707 4.83337 22.0001 4.83337C26.1296 4.83337 29.4771 8.18092 29.4771 12.3103ZM19.4678 20.8433H24.7012C25.6851 20.8433 26.5088 21.529 26.7206 22.4485H17.4484C17.6602 21.529 18.4839 20.8433 19.4678 20.8433ZM26.1398 12.3103C26.1398 14.585 24.2958 16.429 22.0212 16.429C19.7465 16.429 17.9025 14.585 17.9025 12.3103C17.9025 10.0357 19.7465 8.19168 22.0212 8.19168C24.2958 8.19168 26.1398 10.0357 26.1398 12.3103ZM26.7735 12.3103C26.7735 14.935 24.6458 17.0627 22.0212 17.0627C19.3965 17.0627 17.2689 14.935 17.2689 12.3103C17.2689 9.68572 19.3965 7.55804 22.0212 7.55804C24.6458 7.55804 26.7735 9.68572 26.7735 12.3103ZM22.0213 15.7108C23.8994 15.7108 25.4219 14.1883 25.4219 12.3103C25.4219 10.4322 23.8994 8.90974 22.0213 8.90974C20.1433 8.90974 18.6208 10.4322 18.6208 12.3103C18.6208 14.1883 20.1433 15.7108 22.0213 15.7108ZM24.0912 12.965C24.4528 12.965 24.7459 12.6719 24.7459 12.3103C24.7459 11.9486 24.4528 11.6555 24.0912 11.6555C23.7295 11.6555 23.4364 11.9486 23.4364 12.3103C23.4364 12.6719 23.7295 12.965 24.0912 12.965ZM22.0212 6.94548C22.2078 6.94548 22.3591 6.79417 22.3591 6.60753C22.3591 6.42089 22.2078 6.26959 22.0212 6.26959C21.8345 6.26959 21.6832 6.42089 21.6832 6.60753C21.6832 6.79417 21.8345 6.94548 22.0212 6.94548Z" fill="url(#paint1_linear_643_9331)"/>
</g>
<path d="M46.02 14.132H38.484V17.672C38.484 18.2 38.76 18.476 39.312 18.476H45.336C45.624 18.476 45.864 18.404 46.044 18.26C46.284 18.044 46.44 17.276 46.512 15.956L47.352 16.22C47.232 17.708 47.028 18.596 46.74 18.908C46.476 19.16 46.08 19.292 45.576 19.316H39.072C38.1 19.316 37.62 18.812 37.62 17.828V11.528H38.484V13.304H45.144V10.172H37.14V9.332H46.02V14.132ZM55.524 8.756H56.412C56.412 9.764 56.376 10.712 56.304 11.576C56.94 14.648 58.044 17.096 59.616 18.896L58.992 19.616C57.708 17.984 56.736 15.968 56.064 13.592C56.004 13.928 55.944 14.24 55.884 14.552C55.428 16.616 54.408 18.32 52.812 19.64L52.224 18.932C53.616 17.756 54.552 16.28 55.008 14.492C55.344 12.992 55.524 11.084 55.524 8.756ZM49.944 8.816C50.76 9.428 51.444 10.04 51.996 10.664L51.408 11.264C50.904 10.676 50.208 10.052 49.344 9.404L49.944 8.816ZM48.54 12.368H51.132V17.612C51.564 17.252 52.032 16.844 52.524 16.376L52.74 17.264C51.996 17.972 51.204 18.608 50.364 19.16L50.028 18.392C50.208 18.248 50.304 18.068 50.304 17.876V13.196H48.54V12.368ZM67.968 10.112H64.596V9.26H71.328V10.112H68.844V13.484H71.16V14.288H68.844V18.44H71.568V19.292H64.224V18.44H65.448V12.092H66.288V18.44H67.968V10.112ZM61.992 8.816C62.772 9.44 63.432 10.052 63.972 10.664L63.384 11.264C62.892 10.664 62.232 10.04 61.392 9.38L61.992 8.816ZM60.528 12.368H63.096V17.552C63.48 17.216 63.888 16.832 64.332 16.4L64.56 17.324C63.864 17.996 63.132 18.608 62.352 19.148L62.016 18.368C62.184 18.224 62.268 18.056 62.268 17.864V13.196H60.528V12.368Z" fill="#FEEBCA"/>
</g>
<rect x="0.25" y="0.25" width="83.5" height="27.5" rx="13.75" stroke="url(#paint2_linear_643_9331)" stroke-width="0.5"/>
<defs>
<filter id="filter0_d_643_9331" x="8.66667" y="4" width="26.6667" height="26.6667" filterUnits="userSpaceOnUse" color-interpolation-filters="sRGB">
<feFlood flood-opacity="0" result="BackgroundImageFix"/>
<feColorMatrix in="SourceAlpha" type="matrix" values="0 0 0 0 0 0 0 0 0 0 0 0 0 0 0 0 0 0 127 0" result="hardAlpha"/>
<feOffset dy="3.33333"/>
<feGaussianBlur stdDeviation="1.66667"/>
<feComposite in2="hardAlpha" operator="out"/>
<feColorMatrix type="matrix" values="0 0 0 0 0 0 0 0 0 0 0 0 0 0 0 0 0 0 0.5 0"/>
<feBlend mode="normal" in2="BackgroundImageFix" result="effect1_dropShadow_643_9331"/>
<feBlend mode="normal" in="SourceGraphic" in2="effect1_dropShadow_643_9331" result="shape"/>
</filter>
<linearGradient id="paint0_linear_643_9331" x1="72.45" y1="28" x2="19.9429" y2="-21.2583" gradientUnits="userSpaceOnUse">
<stop offset="0.328814" stop-color="#014C53"/>
<stop offset="1" stop-color="#027276"/>
</linearGradient>
<linearGradient id="paint1_linear_643_9331" x1="24.6897" y1="8.94257" x2="26.5468" y2="22.9345" gradientUnits="userSpaceOnUse">
<stop stop-color="#FFF9EA"/>
<stop offset="0.258111" stop-color="#F4E2B3"/>
<stop offset="1" stop-color="#DABB7E"/>
</linearGradient>
<linearGradient id="paint2_linear_643_9331" x1="72.3187" y1="26.4087" x2="16.2396" y2="-2.46976" gradientUnits="userSpaceOnUse">
<stop stop-color="#DAB07E"/>
<stop offset="0.552083" stop-color="#EBC9A0"/>
<stop offset="1" stop-color="#F9DDBC"/>
</linearGradient>
<clipPath id="clip0_643_9331">
<rect width="84" height="28" rx="14" fill="white"/>
</clipPath>
</defs>
</svg>
