<svg width="25" height="24" viewBox="0 0 25 24" fill="none" xmlns="http://www.w3.org/2000/svg">
<path d="M16.1818 2.00012C16.4014 2.00009 16.6135 2.07953 16.7791 2.22376L16.8573 2.30103L20.9482 6.84649C21.073 6.98475 21.1523 7.15802 21.1755 7.34285L21.1818 7.45467V11.5456C21.1816 11.7773 21.0928 12.0002 20.9338 12.1686C20.7747 12.3371 20.5573 12.4385 20.326 12.4521C20.0947 12.4657 19.8669 12.3904 19.6892 12.2417C19.5116 12.093 19.3974 11.882 19.37 11.6519L19.3636 11.5456V7.80376L15.7773 3.8183H4.81818V20.1819H12.0909C12.3226 20.1822 12.5455 20.2709 12.714 20.43C12.8825 20.589 12.9839 20.8064 12.9974 21.0378C13.011 21.2691 12.9358 21.4968 12.787 21.6745C12.6383 21.8522 12.4274 21.9664 12.1973 21.9938L12.0909 22.0001H4.81818C4.35948 22.0003 3.91767 21.827 3.58132 21.5151C3.24497 21.2032 3.03895 20.7757 3.00455 20.3183L3 20.1819V3.8183C2.99985 3.3596 3.1731 2.91779 3.485 2.58144C3.7969 2.2451 4.2244 2.03907 4.68182 2.00467L4.81818 2.00012H16.1818ZM20.7273 17.9092C20.959 17.9095 21.1818 17.9982 21.3503 18.1573C21.5188 18.3163 21.6202 18.5337 21.6338 18.765C21.6474 18.9963 21.5721 19.2241 21.4234 19.4018C21.2747 19.5795 21.0637 19.6937 20.8336 19.721L20.7273 19.7274H16.5591L17.2791 20.4483C17.4421 20.6119 17.5368 20.8314 17.5438 21.0623C17.5509 21.2932 17.4698 21.518 17.317 21.6913C17.1643 21.8645 16.9513 21.9731 16.7214 21.995C16.4915 22.0169 16.2618 21.9505 16.0791 21.8092L15.9936 21.7338L13.7209 19.461L13.6545 19.3865C13.6524 19.3841 13.6503 19.3816 13.6482 19.3792L13.7209 19.461C13.5552 19.2944 13.4599 19.0705 13.4545 18.8356C13.4545 18.8298 13.4545 18.8241 13.4545 18.8183V18.8019C13.4545 18.7801 13.4564 18.7583 13.4582 18.7374L13.4545 18.8183C13.4551 18.615 13.5232 18.4177 13.6482 18.2574C13.6936 18.2001 13.7455 18.1483 13.8027 18.1028L13.7209 18.1756C13.8657 18.0316 14.0545 17.94 14.2573 17.9156L14.2827 17.9128L14.3464 17.9092H20.7273ZM19.0118 13.1001L19.0973 13.1756L21.37 15.4483C21.3964 15.4738 21.42 15.5019 21.4427 15.5301L21.37 15.4483C21.5326 15.6121 21.6274 15.8313 21.6355 16.0619L21.6364 16.091V16.121L21.6327 16.1683L21.6364 16.091C21.6358 16.2943 21.5677 16.4916 21.4427 16.6519C21.3973 16.7092 21.3455 16.761 21.2882 16.8065L21.37 16.7338C21.2252 16.8778 21.0364 16.9693 20.8336 16.9938L20.8045 16.9965C20.7888 16.9978 20.7731 16.9987 20.7573 16.9992L20.7273 17.0001H14.3636C14.1319 16.9999 13.9091 16.9111 13.7406 16.7521C13.5721 16.593 13.4707 16.3756 13.4571 16.1443C13.4435 15.913 13.5188 15.6852 13.6675 15.5075C13.8162 15.3299 14.0272 15.2157 14.2573 15.1883L14.3636 15.1819H18.5318L17.8118 14.461C17.6488 14.2974 17.5541 14.0779 17.5471 13.847C17.54 13.6162 17.6211 13.3913 17.7739 13.2181C17.9266 13.0448 18.1396 12.9362 18.3695 12.9143C18.5995 12.8924 18.8291 12.9588 19.0118 13.1001ZM13.9091 9.27285C14.1502 9.27289 14.3814 9.36868 14.5518 9.53917C14.7223 9.70965 14.818 9.94086 14.818 10.1819C14.818 10.423 14.7223 10.6542 14.5518 10.8247C14.3814 10.9952 14.1502 11.091 13.9091 11.091H7.54545C7.30437 11.091 7.07318 10.9952 6.90272 10.8247C6.73226 10.6542 6.6365 10.423 6.6365 10.1819C6.6365 9.94086 6.73226 9.70965 6.90272 9.53917C7.07318 9.36868 7.30437 9.27289 7.54545 9.27285H13.9091ZM13.9091 5.63649C14.1502 5.63649 14.3814 5.73226 14.5519 5.90275C14.7224 6.07324 14.8182 6.30447 14.8182 6.54558C14.8182 6.78668 14.7224 7.01791 14.5519 7.1884C14.3814 7.35889 14.1502 7.45467 13.9091 7.45467H7.54545C7.30435 7.45467 7.07312 7.35889 6.90263 7.1884C6.73214 7.01791 6.63636 6.78668 6.63636 6.54558C6.63636 6.30447 6.73214 6.07324 6.90263 5.90275C7.07312 5.73226 7.30435 5.63649 7.54545 5.63649H13.9091Z" fill="#D9D9D9"/>
</svg>
