<svg width="25" height="24" viewBox="0 0 25 24" fill="none" xmlns="http://www.w3.org/2000/svg">
<path fill-rule="evenodd" clip-rule="evenodd" d="M20.5594 2.13852C20.3388 2.04715 20.1024 2.00012 19.8636 2.00012H5.31818C5.07941 2.00012 4.84299 2.04715 4.62239 2.13852C4.4018 2.2299 4.20137 2.36382 4.03253 2.53266C3.8637 2.70149 3.72977 2.90192 3.6384 3.12252C3.54703 3.34311 3.5 3.57954 3.5 3.8183V20.1819C3.5 20.4207 3.54703 20.6571 3.6384 20.8777C3.72977 21.0983 3.8637 21.2988 4.03253 21.4676C4.20137 21.6364 4.4018 21.7703 4.62239 21.8617C4.84299 21.9531 5.07941 22.0001 5.31818 22.0001H19.8636C20.1024 22.0001 20.3388 21.9531 20.5594 21.8617C20.78 21.7703 20.9805 21.6364 21.1493 21.4676C21.3181 21.2988 21.452 21.0983 21.5434 20.8777C21.6348 20.6571 21.6818 20.4207 21.6818 20.1819V3.8183C21.6818 3.57954 21.6348 3.34311 21.5434 3.12252C21.452 2.90192 21.3181 2.70149 21.1493 2.53266C20.9805 2.36382 20.78 2.2299 20.5594 2.13852ZM5.31818 3.8183H19.8636V20.1819H5.31818V3.8183ZM17.1365 6.54532H8.04557C7.4395 6.54532 7.13647 6.84835 7.13647 7.45441C7.13647 8.06047 7.4395 8.3635 8.04557 8.3635H17.1365C17.7425 8.3635 18.0456 8.06047 18.0456 7.45441C18.0456 6.84835 17.7425 6.54532 17.1365 6.54532ZM8.04557 10.1819H17.1365C17.7425 10.1819 18.0456 10.4849 18.0456 11.0909C18.0456 11.697 17.7425 12 17.1365 12H8.04557C7.4395 12 7.13647 11.697 7.13647 11.0909C7.13647 10.4849 7.4395 10.1819 8.04557 10.1819ZM13.5001 13.8184H8.04557C7.4395 13.8184 7.13647 14.1214 7.13647 14.7275C7.13647 15.3335 7.4395 15.6366 8.04557 15.6366H13.5001C14.1062 15.6366 14.4092 15.3335 14.4092 14.7275C14.4092 14.1214 14.1062 13.8184 13.5001 13.8184Z" fill="#D9D9D9"/>
</svg>
