<svg width="25" height="24" viewBox="0 0 25 24" fill="none" xmlns="http://www.w3.org/2000/svg">
<path fill-rule="evenodd" clip-rule="evenodd" d="M20.9124 1.63852C20.6808 1.54715 20.4325 1.50012 20.1818 1.50012H4.90909C4.65839 1.50012 4.41014 1.54715 4.17851 1.63852C3.94689 1.7299 3.73644 1.86382 3.55916 2.03266C3.38188 2.20149 3.24126 2.40192 3.14532 2.62252C3.04938 2.84311 3 3.07954 3 3.3183V19.6819C3 19.9207 3.04938 20.1571 3.14532 20.3777C3.24126 20.5983 3.38188 20.7988 3.55916 20.9676C3.73644 21.1364 3.94689 21.2703 4.17851 21.3617C4.41014 21.4531 4.65839 21.5001 4.90909 21.5001H20.1818C20.4325 21.5001 20.6808 21.4531 20.9124 21.3617C21.144 21.2703 21.3545 21.1364 21.5317 20.9676C21.709 20.7988 21.8496 20.5983 21.9456 20.3777C22.0415 20.1571 22.0909 19.9207 22.0909 19.6819V3.3183C22.0909 3.07954 22.0415 2.84311 21.9456 2.62252C21.8496 2.40192 21.709 2.20149 21.5317 2.03266C21.3545 1.86382 21.144 1.7299 20.9124 1.63852ZM4.90909 3.3183H20.1818V19.6819H4.90909V3.3183ZM13.2204 8.13003C13.0414 7.95954 12.7986 7.86376 12.5455 7.86376H7.77273C7.51957 7.86376 7.27677 7.95954 7.09776 8.13003C6.91875 8.30051 6.81818 8.53174 6.81818 8.77285C6.81818 9.01396 6.91875 9.24519 7.09776 9.41567C7.27677 9.58616 7.51957 9.68194 7.77273 9.68194H12.5455C12.7986 9.68194 13.0414 9.58616 13.2204 9.41567C13.3994 9.24519 13.5 9.01396 13.5 8.77285C13.5 8.53174 13.3994 8.30051 13.2204 8.13003ZM17.9931 5.40275C17.8141 5.23226 17.5713 5.13649 17.3182 5.13649H7.77273C7.51957 5.13649 7.27677 5.23226 7.09776 5.40275C6.91875 5.57324 6.81818 5.80447 6.81818 6.04558C6.81818 6.28668 6.91875 6.51791 7.09776 6.6884C7.27677 6.85889 7.51957 6.95467 7.77273 6.95467H17.3182C17.5713 6.95467 17.8141 6.85889 17.9931 6.6884C18.1722 6.51791 18.2727 6.28668 18.2727 6.04558C18.2727 5.80447 18.1722 5.57324 17.9931 5.40275ZM10.9758 13.6512C10.7423 13.6643 10.522 13.7586 10.3566 13.9161C10.1777 14.0866 10.0771 14.3178 10.0771 14.5589C10.0771 14.7999 10.1777 15.0311 10.3566 15.2016L13.057 17.7725L13.1401 17.8434C13.3235 17.9813 13.5536 18.0504 13.7869 18.0375C14.0202 18.0246 14.2404 17.9306 14.4058 17.7734L19.1308 13.2734L19.2053 13.1943C19.3502 13.0195 19.4227 12.8 19.409 12.5777C19.3952 12.3553 19.2963 12.1454 19.1308 11.988L19.0478 11.9171C18.8642 11.779 18.6338 11.71 18.4003 11.723C18.1668 11.7361 17.9464 11.8304 17.7811 11.988L13.7319 15.8443L11.7064 13.9161L11.6233 13.8452C11.4397 13.7072 11.2093 13.6382 10.9758 13.6512Z" fill="#D9D9D9"/>
</svg>
