<svg width="40" height="41" viewBox="0 0 40 41" fill="none" xmlns="http://www.w3.org/2000/svg">
<rect y="0.5" width="40" height="40" rx="20" fill="#DABB7E"/>
<path d="M29.087 10.5C29.5943 10.5 30.0809 10.7044 30.4397 11.0682C30.7984 11.432 31 11.9255 31 12.44V26.9328C31 27.4474 30.7984 27.9408 30.4397 28.3046C30.0809 28.6684 29.5943 28.8728 29.087 28.8728H24.6497L21.6342 31.9318C21.4566 32.1119 21.2457 32.2548 21.0136 32.3523C20.7815 32.4498 20.5327 32.5 20.2815 32.5C20.0302 32.5 19.7815 32.4498 19.5493 32.3523C19.3172 32.2548 19.1063 32.1119 18.9287 31.9318L15.9123 28.8728H10.913C10.4057 28.8728 9.91908 28.6684 9.56032 28.3046C9.20155 27.9408 9 27.4474 9 26.9328V12.44C9 11.9255 9.20155 11.432 9.56032 11.0682C9.91908 10.7044 10.4057 10.5 10.913 10.5H29.087ZM27.216 20.8276H12.784C12.4669 20.8276 12.1628 20.9554 11.9385 21.1828C11.7143 21.4102 11.5883 21.7186 11.5883 22.0401C11.5883 22.3617 11.7143 22.6701 11.9385 22.8975C12.1628 23.1249 12.4669 23.2526 12.784 23.2526H27.216C27.5331 23.2526 27.8372 23.1249 28.0615 22.8975C28.2857 22.6701 28.4117 22.3617 28.4117 22.0401C28.4117 21.7186 28.2857 21.4102 28.0615 21.1828C27.8372 20.9554 27.5331 20.8276 27.216 20.8276ZM19.0014 15.5785H12.784C12.4669 15.5785 12.1628 15.7062 11.9385 15.9336C11.7143 16.161 11.5883 16.4694 11.5883 16.791C11.5883 17.1125 11.7143 17.4209 11.9385 17.6483C12.1628 17.8757 12.4669 18.0035 12.784 18.0035H19.0014C19.3185 18.0035 19.6226 17.8757 19.8468 17.6483C20.0711 17.4209 20.197 17.1125 20.197 16.791C20.197 16.4694 20.0711 16.161 19.8468 15.9336C19.6226 15.7062 19.3185 15.5785 19.0014 15.5785Z" fill="white"/>
</svg>
