<svg width="25" height="24" viewBox="0 0 25 24" fill="none" xmlns="http://www.w3.org/2000/svg">
<path d="M12.5 1.50012C18.2989 1.50012 23 6.20126 23 12.0001C23 17.799 18.2989 22.5001 12.5 22.5001C6.70114 22.5001 2 17.799 2 12.0001C2 6.20126 6.70114 1.50012 12.5 1.50012ZM12.5 3.40921C11.3718 3.40921 10.2547 3.63142 9.2124 4.06316C8.1701 4.49489 7.22305 5.12769 6.42531 5.92543C5.62757 6.72317 4.99477 7.67023 4.56303 8.71252C4.1313 9.75482 3.90909 10.8719 3.90909 12.0001C3.90909 13.1283 4.1313 14.2454 4.56303 15.2877C4.99477 16.33 5.62757 17.2771 6.42531 18.0748C7.22305 18.8726 8.1701 19.5054 9.2124 19.9371C10.2547 20.3688 11.3718 20.591 12.5 20.591C14.7785 20.591 16.9636 19.6859 18.5747 18.0748C20.1858 16.4637 21.0909 14.2786 21.0909 12.0001C21.0909 9.72167 20.1858 7.53654 18.5747 5.92543C16.9636 4.31432 14.7785 3.40921 12.5 3.40921ZM10.2215 6.95058L10.3112 7.0298L12.5 9.21762L14.6888 7.0298C14.8531 6.86545 15.0718 6.76672 15.3038 6.75214C15.5358 6.73755 15.7651 6.80811 15.9488 6.95058L16.0385 7.0298C16.2029 7.19417 16.3016 7.41286 16.3162 7.64484C16.3308 7.87682 16.2602 8.10615 16.1177 8.2898L16.0385 8.37953L14.327 10.091H15.3636C15.6069 10.0913 15.8409 10.1845 16.0179 10.3515C16.1948 10.5185 16.3012 10.7468 16.3155 10.9896C16.3297 11.2325 16.2507 11.4717 16.0946 11.6582C15.9384 11.8448 15.7169 11.9647 15.4753 11.9934L15.3636 12.0001H13.4584V12.9547H15.3636C15.6069 12.9549 15.8409 13.0481 16.0179 13.2151C16.1948 13.3821 16.3012 13.6104 16.3155 13.8533C16.3297 14.0961 16.2507 14.3353 16.0946 14.5219C15.9384 14.7084 15.7169 14.8283 15.4753 14.8571L15.3636 14.8638H13.4584V16.7728C13.4581 17.0161 13.3649 17.2502 13.1979 17.4271C13.0309 17.604 12.8026 17.7104 12.5598 17.7247C12.3169 17.739 12.0777 17.6599 11.8912 17.5038C11.7046 17.3476 11.5847 17.1261 11.556 16.8845L11.5493 16.7728V14.8638H9.63636C9.39307 14.8635 9.15906 14.7703 8.98215 14.6033C8.80524 14.4363 8.69878 14.208 8.68452 13.9652C8.67026 13.7223 8.74928 13.4831 8.90544 13.2966C9.06159 13.11 9.28309 12.9901 9.52468 12.9613L9.63636 12.9547H11.5493V12.0001H9.63636C9.39307 11.9999 9.15906 11.9067 8.98215 11.7397C8.80524 11.5727 8.69878 11.3444 8.68452 11.1015C8.67026 10.8586 8.74928 10.6195 8.90544 10.4329C9.06159 10.2464 9.28309 10.1264 9.52468 10.0977L9.63636 10.091H10.672L8.9615 8.37953C8.7903 8.20775 8.69091 7.97725 8.68351 7.73485C8.67611 7.49244 8.76125 7.25631 8.92165 7.0744C9.08204 6.8925 9.30566 6.77847 9.54709 6.75547C9.78852 6.73247 10.0296 6.80223 10.2215 6.95058Z" fill="#D9D9D9"/>
</svg>
