<svg fill="none" height="22" viewBox="0 0 22 22" width="22" xmlns="http://www.w3.org/2000/svg" xmlns:xlink="http://www.w3.org/1999/xlink"><clipPath id="a"><path d="m0 0h22v22h-22z"/></clipPath><g clip-path="url(#a)"><rect fill="#17ab4c" height="22" rx="2.5" width="22"/><g fill="#fff"><path d="m14.3669 8.51556c-1.6049.08351-2.9998.57022-4.1331 1.66934-1.14521 1.1102-1.66771 2.4709-1.52456 4.1577-.62748-.0779-1.19849-.163-1.77269-.2115-.19882-.0167-.43422.0071-.60203.1018-.55749.3149-1.09272.6704-1.72656 1.0665.11611-.5265.19166-.987.32527-1.43.09782-.326.05249-.5066-.24734-.7189-1.92618-1.3599-2.73816-3.39508-2.13057-5.49067.56148-1.93811 1.94209-3.11435 3.81817-3.72672 2.56082-.83664 5.43821.0167 6.99531 2.04946.5615.73405.9066 1.55876.9981 2.53299zm-7.38581-.65293c.01511-.38333-.31732-.72848-.71178-.74041-.40401-.01193-.73564.29664-.74757.69508-.01193.40321.29664.72689.70303.73723.40321.01034.74121-.29903.75632-.6919zm3.85311-.74041c-.396.00716-.73.34436-.7237.72928.0072.39844.3356.71098.7428.70621.408-.00477.7182-.3205.7142-.72769-.0032-.39923-.33-.71496-.7333-.7078z"/><path d="m17.9719 18.5196c-.5081-.2258-.9742-.5654-1.4704-.6171-.4947-.0517-1.014.2338-1.531.2863-1.5754.1614-2.9871-.2776-4.1506-1.3544-2.21324-2.0471-1.89671-5.1861.6633-6.86413 2.2761-1.49116 5.6139-.99411 7.218 1.07523 1.4005 1.8053 1.2359 4.2015-.474 5.7181-.4946.439-.6728.8001-.3555 1.3791.0597.1073.0661.2425.1002.3769zm-5.7841-5.5996c.3237 0 .5901-.2529.6021-.5726.0127-.338-.2593-.6219-.5981-.6235-.3356-.0016-.6163.2863-.6044.6195.0111.3189.2791.5758.6004.5766zm3.7283-1.1945c-.3141-.0024-.5805.2545-.5932.5718-.0136.3388.2497.6179.5853.6187.3245.0008.5813-.2441.5925-.567.0135-.3404-.2505-.6211-.5846-.6235z"/></g></g></svg>