<svg fill="none" height="12" viewBox="0 0 11 12" width="11" xmlns="http://www.w3.org/2000/svg" xmlns:xlink="http://www.w3.org/1999/xlink"><clipPath id="a"><path d="m0 .5h11v11h-11z"/></clipPath><g clip-path="url(#a)" fill="#dabb7e"><path d="m7.29136 8.35712c.07391.00104.1473-.01262.21589-.04019s.13102-.06849.18366-.1204c.05263-.0519.09443-.11375.12295-.18195.02853-.0682.04321-.14139.0432-.21531v-6.74136c.00001-.073927-.01467-.147115-.0432-.215314-.02852-.068199-.07032-.130048-.12295-.181954-.05264-.051905-.11507-.092831-.18366-.120399s-.14198-.041229-.21589-.040188h-6.733508c-.147952 0-.289844.058774-.394461.163391-.1046175.104618-.163391.246509-.163391.394464v6.74136c0 .14795.0587735.28984.163391.39446.104617.10462.246509.16339.394461.16339z"/><path d="m10.4339 3.64459h-1.79138v4.87923c0 .08152-.01605.16223-.04725.23754-.03119.07531-.07691.14373-.13455.20137s-.12606.10336-.20137.13455c-.07531.0312-.15602.04725-.23753.04725h-4.87924v1.79927c-.00001.0739.01468.1471.0432.2153.02853.0682.07032.1301.12296.182.05263.0519.11506.0928.18365.1204.06859.0275.14198.0412.2159.0402h6.73351c.1479 0 .2898-.0588.3945-.1634.1046-.1047.1633-.2465.1633-.3945v-6.74136c0-.07393-.0146-.14711-.0432-.21531-.0285-.0682-.0703-.13005-.1229-.18196-.0527-.0519-.1151-.09283-.1837-.1204-.0686-.02756-.1419-.04122-.2159-.04018z"/></g></svg>