<svg fill="none" height="23" viewBox="0 0 23 23" width="23" xmlns="http://www.w3.org/2000/svg" xmlns:xlink="http://www.w3.org/1999/xlink"><filter id="a" color-interpolation-filters="sRGB" filterUnits="userSpaceOnUse" height="22.0957" width="22.0957" x=".5" y=".5"><feFlood flood-opacity="0" result="BackgroundImageFix"/><feBlend in="SourceGraphic" in2="BackgroundImageFix" mode="normal" result="shape"/><feGaussianBlur result="effect1_foregroundBlur_67_89969" stdDeviation="1"/></filter><linearGradient id="b" gradientUnits="userSpaceOnUse" x1="11.5476" x2="11.5476" y1="3.4043" y2="21.4995"><stop offset="0" stop-color="#570787"/><stop offset="1" stop-color="#5a0091"/></linearGradient><linearGradient id="c" gradientUnits="userSpaceOnUse" x1="11.5476" x2="11.5476" y1="2.5" y2="20.5952"><stop offset="0" stop-color="#8013c0"/><stop offset="1" stop-color="#9410e3"/></linearGradient><linearGradient id="d" gradientUnits="userSpaceOnUse" x1="24.2143" x2="11.5476" y1="16.9762" y2="17.4286"><stop offset="0" stop-color="#5f0b91"/><stop offset="1" stop-color="#6f04af"/></linearGradient><path d="m18.9616 17.6399c1.07-1.5259 1.6336-3.3138 1.6336-5.188 0-4.99054-4.057-9.0476-9.0476-9.0476-4.99053 0-9.0476 4.05706-9.0476 9.0476 0 4.9906 4.05707 9.0476 9.0476 9.0476 1.4326 0 2.8507-.341 4.1181-.9909l3.7663.973c.0466.0108.0969.0179.1436.0179.1616 0 .3195-.0682.4308-.1903.1436-.1615.1867-.3877.1113-.5888zm-10.1175-4.2725c-.32672.1903-.73242.1903-1.05914 0-.32672-.1902-.52778-.5385-.52778-.9155s.20106-.7288.52778-.9155c.32672-.1903.73242-.1903 1.05914 0s.52778.5385.52778.9155c.00359.377-.20106.7289-.52778.9155zm3.2313 0c-.3267.1903-.7324.1903-1.0591 0-.3268-.1902-.5278-.5385-.5278-.9155s.201-.7288.5278-.9155c.3267-.1903.7324-.1903 1.0591 0s.5278.5385.5278.9155c.0036.377-.1975.7289-.5278.9155zm3.2349 0c-.3267.1903-.7324.1903-1.0592 0-.3267-.1902-.5277-.5385-.5277-.9155s.201-.7288.5277-.9155c.3268-.1903.7325-.1903 1.0592 0s.5278.5385.5278.9155-.2011.7289-.5278.9155z" fill="url(#b)"/><path d="m18.9616 16.7356c1.07-1.5258 1.6336-3.3138 1.6336-5.188 0-4.99053-4.057-9.0476-9.0476-9.0476-4.99053 0-9.0476 4.05707-9.0476 9.0476 0 4.9906 4.05707 9.0476 9.0476 9.0476 1.4326 0 2.8507-.341 4.1181-.9909l3.7663.973c.0466.0108.0969.0179.1436.0179.1616 0 .3195-.0682.4308-.1902.1436-.1616.1867-.3878.1113-.5889zm-10.1175-4.2724c-.32672.1902-.73242.1902-1.05914 0-.32672-.1903-.52778-.5386-.52778-.9156s.20106-.7288.52778-.9155c.32672-.1903.73242-.1903 1.05914 0s.52778.5385.52778.9155c.00359.377-.20106.7289-.52778.9156zm3.2313 0c-.3267.1902-.7324.1902-1.0591 0-.3268-.1903-.5278-.5386-.5278-.9156s.201-.7288.5278-.9155c.3267-.1903.7324-.1903 1.0591 0s.5278.5385.5278.9155c.0036.377-.1975.7289-.5278.9156zm3.2349 0c-.3267.1902-.7324.1902-1.0592 0-.3267-.1903-.5277-.5386-.5277-.9156s.201-.7288.5277-.9155c.3268-.1903.7325-.1903 1.0592 0s.5278.5385.5278.9155-.2011.7289-.5278.9156z" fill="url(#c)"/><g filter="url(#a)"><path d="m18.9616 16.7356c1.07-1.5258 1.6336-3.3138 1.6336-5.188 0-4.99053-4.057-9.0476-9.0476-9.0476-4.99053 0-9.0476 4.05707-9.0476 9.0476 0 4.9906 4.05707 9.0476 9.0476 9.0476 1.4326 0 2.8507-.341 4.1181-.9909l3.7663.973c.0466.0108.0969.0179.1436.0179.1616 0 .3195-.0682.4308-.1902.1436-.1616.1867-.3878.1113-.5889zm-10.1175-4.2724c-.32672.1902-.73242.1902-1.05914 0-.32672-.1903-.52778-.5386-.52778-.9156s.20106-.7288.52778-.9155c.32672-.1903.73242-.1903 1.05914 0s.52778.5385.52778.9155c.00359.377-.20106.7289-.52778.9156zm3.2313 0c-.3267.1902-.7324.1902-1.0591 0-.3268-.1903-.5278-.5386-.5278-.9156s.201-.7288.5278-.9155c.3267-.1903.7324-.1903 1.0591 0s.5278.5385.5278.9155c.0036.377-.1975.7289-.5278.9156zm3.2349 0c-.3267.1902-.7324.1902-1.0592 0-.3267-.1903-.5277-.5386-.5277-.9156s.201-.7288.5277-.9155c.3268-.1903.7325-.1903 1.0592 0s.5278.5385.5278.9155-.2011.7289-.5278.9156z" fill="url(#d)" fill-opacity=".3"/></g></svg>