<svg fill="none" height="20" viewBox="0 0 20 20" width="20" xmlns="http://www.w3.org/2000/svg" xmlns:xlink="http://www.w3.org/1999/xlink"><filter id="a" color-interpolation-filters="sRGB" filterUnits="userSpaceOnUse" height="28.5" width="29" x="-4.5" y="-4.5"><feFlood flood-opacity="0" result="BackgroundImageFix"/><feBlend in="SourceGraphic" in2="BackgroundImageFix" mode="normal" result="shape"/><feGaussianBlur result="effect1_foregroundBlur_67_89946" stdDeviation="2.5"/></filter><linearGradient id="b" gradientUnits="userSpaceOnUse" x1="12.375" x2="13.0085" y1="21.1725" y2="-.391596"><stop offset="0" stop-color="#d28f00"/><stop offset="1" stop-color="#fbc759"/></linearGradient><linearGradient id="c" gradientUnits="userSpaceOnUse" x1="12.7038" x2="13.2455" y1="16.1913" y2="-4.727"><stop offset="0" stop-color="#faad08"/><stop offset="1" stop-color="#ffebbf"/></linearGradient><linearGradient id="d" gradientUnits="userSpaceOnUse" x1="37.7083" x2="13.7588" y1="9.67067" y2="-4.50215"><stop offset="0" stop-color="#fff" stop-opacity=".47"/><stop offset=".473958" stop-color="#fff" stop-opacity=".49"/><stop offset="1" stop-color="#fff" stop-opacity=".01"/></linearGradient><linearGradient id="e" gradientUnits="userSpaceOnUse" x1="10" x2="10" y1=".5" y2="19"><stop offset="0" stop-color="#ee5c19"/><stop offset="1" stop-color="#ee5c19"/></linearGradient><mask id="f" height="19" maskUnits="userSpaceOnUse" width="20" x="0" y="0"><path d="m6.05915 18.7471c.00002 0 0 0-.00002 0-.79966.496-1.84529.2394-2.33095-.5684-.23025-.3835-.30181-.8416-.19951-1.2769l1.03504-4.4079c.01233-.0514.01051-.105-.00525-.1554-.01577-.0504-.04489-.0955-.08429-.1307l-3.38798-2.94807c-.703722-.61192-.784948-1.68205-.183352-2.39548.143142-.1702.318642-.3104.516352-.4125s.41371-.16407.63554-.18233l4.4463-.3617c.0969-.00806.18359-.07186.22325-.16886l1.71311-4.18402c.35697-.87162 1.34973-1.287863 2.21591-.921902.4131.175316.7399.506742.9092.921902l1.7131 4.18378c.0396.09724.1263.16128.2232.1691l4.4468.36193c.9324.0759 1.6228.89961 1.549 1.83479-.0347.44629-.2432.86121-.5807 1.15576l-3.388 2.9481c-.0788.0685-.1145.1795-.0895.2858l1.035 4.4079c.2142.9119-.342 1.8308-1.25 2.0506-.2164.0525-.4412.0613-.6611.0261-.2199-.0353-.4306-.114-.6197-.2315l-3.807-2.3622c-.04-.0252-.0864-.0385-.13368-.0385-.0473 0-.09365.0133-.13371.0385l-3.80704 2.3621c-.00002 0-.00004 0-.00002 0z" fill="url(#d)"/></mask><path d="m6.05927 19.497c-.79967.4962-1.8454.2395-2.33109-.5683-.23025-.3835-.30181-.8416-.19951-1.2769l1.03504-4.4079c.01233-.0514.01051-.105-.00525-.1554-.01577-.0504-.04489-.0955-.08429-.1307l-3.38798-2.9481c-.703722-.61189-.784948-1.68202-.183352-2.39545.143142-.1702.318642-.3104.516352-.4125s.41371-.16407.63554-.18233l4.4463-.3617c.0969-.00806.18359-.07186.22325-.16886l1.71311-4.18402c.35697-.87162 1.34973-1.28786 2.21591-.9219.4131.17531.7399.50674.9092.9219l1.7131 4.18378c.0396.09724.1263.16128.2232.1691l4.4468.36193c.9324.0759 1.6228.89961 1.549 1.83479-.0347.44629-.2432.86121-.5807 1.15576l-3.388 2.9481c-.0788.0685-.1145.1795-.0895.2858l1.035 4.4079c.2142.9119-.342 1.8308-1.25 2.0506-.2164.0525-.4412.0613-.6611.0261-.2199-.0353-.4306-.114-.6197-.2315l-3.807-2.3622c-.04-.0252-.0864-.0385-.13368-.0385-.0473 0-.09365.0133-.13371.0385l-3.80718 2.3622z" fill="url(#b)"/><path d="m6.05927 18.747c-.79967.4962-1.8454.2395-2.33109-.5683-.23025-.3835-.30181-.8416-.19951-1.2769l1.03504-4.4079c.01233-.0514.01051-.105-.00525-.1554-.01577-.0504-.04489-.0955-.08429-.1307l-3.38798-2.94807c-.703722-.61192-.784948-1.68205-.183352-2.39548.143142-.1702.318642-.3104.516352-.4125s.41371-.16407.63554-.18233l4.4463-.3617c.0969-.00806.18359-.07186.22325-.16886l1.71311-4.18402c.35697-.87162 1.34973-1.287863 2.21591-.921902.4131.175316.7399.506742.9092.921902l1.7131 4.18378c.0396.09724.1263.16128.2232.1691l4.4468.36193c.9324.0759 1.6228.89961 1.549 1.83479-.0347.44629-.2432.86121-.5807 1.15576l-3.388 2.9481c-.0788.0685-.1145.1795-.0895.2858l1.035 4.4079c.2142.9119-.342 1.8308-1.25 2.0506-.2164.0525-.4412.0613-.6611.0261-.2199-.0353-.4306-.114-.6197-.2315l-3.807-2.3622c-.04-.0252-.0864-.0385-.13368-.0385-.0473 0-.09365.0133-.13371.0385l-3.80718 2.3622z" fill="url(#c)"/><g mask="url(#f)"><g filter="url(#a)"><path d="m6.05927 18.747c-.79967.4962-1.8454.2395-2.33109-.5683-.23025-.3835-.30181-.8416-.19951-1.2769l1.03504-4.4079c.01233-.0514.01051-.105-.00525-.1554-.01577-.0504-.04489-.0955-.08429-.1307l-3.38798-2.94807c-.703722-.61192-.784948-1.68205-.183352-2.39548.143142-.1702.318642-.3104.516352-.4125s.41371-.16407.63554-.18233l4.4463-.3617c.0969-.00806.18359-.07186.22325-.16886l1.71311-4.18402c.35697-.87162 1.34973-1.287863 2.21591-.921902.4131.175316.7399.506742.9092.921902l1.7131 4.18378c.0396.09724.1263.16128.2232.1691l4.4468.36193c.9324.0759 1.6228.89961 1.549 1.83479-.0347.44629-.2432.86121-.5807 1.15576l-3.388 2.9481c-.0788.0685-.1145.1795-.0895.2858l1.035 4.4079c.2142.9119-.342 1.8308-1.25 2.0506-.2164.0525-.4412.0613-.6611.0261-.2199-.0353-.4306-.114-.6197-.2315l-3.807-2.3622c-.04-.0252-.0864-.0385-.13368-.0385-.0473 0-.09365.0133-.13371.0385l-3.80718 2.3622z" fill="url(#e)"/></g></g></svg>