<svg fill="none" height="22" viewBox="0 0 22 22" width="22" xmlns="http://www.w3.org/2000/svg" xmlns:xlink="http://www.w3.org/1999/xlink"><linearGradient id="a" gradientUnits="userSpaceOnUse" x1="17.4647" x2="2.71674" y1="19.4824" y2="17.1134"><stop offset="0" stop-color="#dab07e"/><stop offset=".552083" stop-color="#ebc9a0"/><stop offset="1" stop-color="#f9ddbc"/></linearGradient><path d="m18.0844 1.43018h-14.25775c-.98032 0-1.78222.80212-1.78222 1.78222v16.3075c0 .9801.62381 1.3365 1.51481.8019l5.97047-3.921c.80189-.5346 2.13859-.5346 2.94049 0l5.9705 3.921c.8021.5346 1.5148.1782 1.5148-.8019v-16.3075c-.0889-.9801-.8909-1.78222-1.8711-1.78222zm-2.5842 7.12899-1.3366 1.33661c-.3564.35642-.5345.98022-.4455 1.51492l.3564 1.8713c.0891.4456-.1783.7128-.6239.4456l-1.6038-.8911c-.4459-.2674-1.1587-.2674-1.6042 0l-1.60389.8911c-.44572.2673-.71291 0-.62381-.4456l.3564-1.8713c.0891-.4457-.17831-1.1585-.44572-1.51492l-1.5147-1.33661c-.35651-.3564-.26741-.71291.26741-.71291l1.87132-.26741c.44572-.08921 1.06931-.44561 1.24762-.89111l.80197-1.69323c.1784-.44561.5349-.44561.8022 0l.802 1.69323c.1781.44561.802.89111 1.2474.89111l1.8715.26741c.4454.0891.5344.35651.1779.71291z" stroke="url(#a)"/></svg>