<svg fill="none" height="32" viewBox="0 0 32 32" width="32" xmlns="http://www.w3.org/2000/svg" xmlns:xlink="http://www.w3.org/1999/xlink"><linearGradient id="a" gradientUnits="userSpaceOnUse" x1="24.9834" x2="4.56279" y1="27.0299" y2="23.5247"><stop offset="0" stop-color="#dab07e"/><stop offset=".552083" stop-color="#ebc9a0"/><stop offset="1" stop-color="#f9ddbc"/></linearGradient><path d="m16.4441 15.5556v-.95l-.8445.95z" fill="#000"/><path d="m25.3334 19.1111v-6.2222c1.7112 0 3.1112 1.4 3.1112 3.1111 0-6.84446-5.6-12.44446-12.4445-12.44446-6.84444 0-12.44444 5.6-12.44444 12.44446 0-1.7111 1.4-3.1111 3.11112-3.1111v6.2222c-1.71112 0-3.11112-1.4-3.11112-3.1111 0 6.8444 5.6 12.4444 12.44444 12.4444 6.8445 0 12.4445-5.6 12.4445-12.4444 0 1.7111-1.4 3.1111-3.1112 3.1111zm-12.4444-1.5556v1.5556h-3.73334v-1.5556s2.17774-1.7111 2.33334-1.8666c1.0889-1.5556-1.0889-2.3334-2.02222-1.0889v-1.2445c.46666-.3111 1.08892-.4666 1.71112-.4666s1.0889.1555 1.4.4666c.3111.3112.4667.7778.4667 1.2445 0 1.5555-1.7112 2.9555-1.7112 2.9555zm4.9778-1.5555v1.5555h-.3111v1.5556h-1.5556v-1.5556h-2.6444v-1.4l2.6444-3.2666h1.5556v3.1111zm6.2222 6.2222c-1.5556 2.1778-3.7333 3.5778-6.3778 4.0445-.1555.3111-.6222.6222-1.2444.6222-.7778 0-1.5556-.4667-1.5556-1.2445 0-.7777.6222-1.2444 1.5556-1.2444.4666 0 .7778.1555 1.0889.3111 2.1777-.3111 4.2-1.5556 5.4444-3.4222.1556-.3111.6222-.3111.9333-.1556.3112.4667.4667.7778.1556 1.0889zm-1.8667-10.4222c.9334.1555 1.5556.6222 1.5556 1.7111v2.4889h-1.5556v-2.3333c0-.4667-.4666-.7778-.6222-.7778-.4667 0-.9333.1555-.9333.7778v2.3333h-1.5556v-6.22224h1.5556v2.48894c.3111-.4667 1.2444-.6223 1.5555-.4667zm1.8667-1.2445c-.1556 0-.3111.1556-.3111.1556-.1556 0-.4667-.1556-.6222-.3111-1.5556-2.33335-4.2-3.8889-7-3.8889s-5.4445 1.4-7.00004 3.8889c-.31111.1555-.77777.3111-1.08888.1555-.31112-.3111-.46667-.62218-.15556-.93329 1.71111-2.8 4.82218-4.51111 8.08888-4.51111s6.3778 1.71111 8.2445 4.51111c.1555.31111.1555.62219-.1556.93329z" fill="url(#a)"/><path d="m25.3334 19.1111v-6.2222c1.7112 0 3.1112 1.4 3.1112 3.1111 0-6.84446-5.6-12.44446-12.4445-12.44446-6.84444 0-12.44444 5.6-12.44444 12.44446 0-1.7111 1.4-3.1111 3.11112-3.1111v6.2222c-1.71112 0-3.11112-1.4-3.11112-3.1111 0 6.8444 5.6 12.4444 12.44444 12.4444 6.8445 0 12.4445-5.6 12.4445-12.4444 0 1.7111-1.4 3.1111-3.1112 3.1111zm-12.4444-1.5556v1.5556h-3.73334v-1.5556s2.17774-1.7111 2.33334-1.8666c1.0889-1.5556-1.0889-2.3334-2.02222-1.0889v-1.2445c.46666-.3111 1.08892-.4666 1.71112-.4666s1.0889.1555 1.4.4666c.3111.3112.4667.7778.4667 1.2445 0 1.5555-1.7112 2.9555-1.7112 2.9555zm4.9778-1.5555v1.5555h-.3111v1.5556h-1.5556v-1.5556h-2.6444v-1.4l2.6444-3.2666h1.5556v3.1111zm6.2222 6.2222c-1.5556 2.1778-3.7333 3.5778-6.3778 4.0445-.1555.3111-.6222.6222-1.2444.6222-.7778 0-1.5556-.4667-1.5556-1.2445 0-.7777.6222-1.2444 1.5556-1.2444.4666 0 .7778.1555 1.0889.3111 2.1777-.3111 4.2-1.5556 5.4444-3.4222.1556-.3111.6222-.3111.9333-.1556.3112.4667.4667.7778.1556 1.0889zm-1.8667-10.4222c.9334.1555 1.5556.6222 1.5556 1.7111v2.4889h-1.5556v-2.3333c0-.4667-.4666-.7778-.6222-.7778-.4667 0-.9333.1555-.9333.7778v2.3333h-1.5556v-6.22224h1.5556v2.48894c.3111-.4667 1.2444-.6223 1.5555-.4667zm1.8667-1.2445c-.1556 0-.3111.1556-.3111.1556-.1556 0-.4667-.1556-.6222-.3111-1.5556-2.33335-4.2-3.8889-7-3.8889s-5.4445 1.4-7.00004 3.8889c-.31111.1555-.77777.3111-1.08888.1555-.31112-.3111-.46667-.62218-.15556-.93329 1.71111-2.8 4.82218-4.51111 8.08888-4.51111s6.3778 1.71111 8.2445 4.51111c.1555.31111.1555.62219-.1556.93329z" fill="#e2c497"/></svg>