<svg fill="none" height="32" viewBox="0 0 32 32" width="32" xmlns="http://www.w3.org/2000/svg"><path d="m7.61361 12.5295.17303-1.315h1.15932l-.17303 1.315h2.30137l.173-1.315h1.142l-.0692.5018-.9344.8132h1.9553c.3277.0027.6439-.1213.8824-.346.2476-.219.4074-.5202.4499-.8479l.7787-5.55433h-1.142l.9343-.81325.2769-1.97257h-8.54781l-.22494 1.64381h5.58895l-1.2977 1.14201h-.7614l-.29415-.81325h-2.95885l.29416.81325h-1.0728l-.93438 6.74823zm-2.23212-7.56148-.70943-1.97257h-2.63009l.70943 1.97257zm-2.04178 9.86288.27685-.5018 1.69572.5018h9.20532l.2249-1.6438h-8.04596l-2.37054-.7095.96898-6.85206h-3.61638l-.24224 1.64381h.65752l-.83056 5.91775-.882461 1.6438zm6.07344-6.90403h-1.17662l.10382-.65752h1.15931zm3.42605 0h-1.1247l.0865-.65752h1.142zm-3.7029 1.97257h-1.15932l.08652-.65753h1.15931zm3.426 0h-1.1247l.0865-.65753h1.1421zm6.5407 5.22556 1.1766-2.6647.6229 2.6647h2.9588l-1.2285-5.22556h-1.2285l.2941-.65753h2.6647l.2423-1.6438h-2.1802l1.0036-2.30133h1.1593l.2422-1.64381h-3.9797l.5018-.98628h-3.2876l.4152.48449-1.5919 3.13188h2.6301l.5018-.98628h.2942l-1.0209 2.30133h-2.5782l-.2422 1.6438h2.0937l-2.5955 5.88309zm11.0048 0 1.6611-11.80079h-6.5752l.571.65752-1.5746 11.14327zm-2.3878-1.6092h-.6576l1.194-8.54778h.6575z" fill="#e22427"/><path d="m3.28761 23.2337 4.06626-5.5889h-3.94513l.36336.4152-3.7721 5.1737zm11.17789 0-2.8377-5.5889h-3.28764l2.83774 5.5889zm-1.4189 6.5406-2.2494-4.8968h-2.95884l1.15932 2.5436-4.58536.2422 4.61997-6.7309h-3.11459l-4.91411 6.904-.276854 1.9379 9.153414-.4498.20765.4498zm17.1648-6.108.2423-1.6784h-5.0526l.1904-1.4189h4.4296l.2423-1.713h-4.4297l.2077-1.5227h-4.2566l.571.6575-.1211.8652h-1.54l.4845-1.1766h-3.8068l.4672.5364-1.315 3.1492h3.1492l.3287-.796h1.9899l-.1903 1.4189h-5.7274l-.2422 1.6784zm-1.7303 5.8139.6922-5.0007h-12.4584l-.6921 5.0007zm-3.2357-1.6092h-5.537l.2422-1.7823h5.5371z" fill="#e2c497"/></svg>