<svg fill="none" height="22" viewBox="0 0 22 22" width="22" xmlns="http://www.w3.org/2000/svg" xmlns:xlink="http://www.w3.org/1999/xlink"><linearGradient id="a" gradientUnits="userSpaceOnUse" x1="17.4203" x2="2.6723" y1="19.0522" y2="16.6832"><stop offset="0" stop-color="#dab07e"/><stop offset=".552083" stop-color="#ebc9a0"/><stop offset="1" stop-color="#f9ddbc"/></linearGradient><path d="m18.04 1h-14.25778c-.98032 0-1.78222.80212-1.78222 1.78222v16.30748c0 .9801.62381 1.3365 1.51481.8019l5.97047-3.9209c.80192-.5346 2.13862-.5346 2.94052 0l5.9705 3.9209c.8021.5346 1.5148.1782 1.5148-.8019v-16.30748c-.0889-.9801-.8909-1.78222-1.8711-1.78222zm-2.5843 7.12899-1.3366 1.33661c-.3564.3564-.5345.9802-.4455 1.5149l.3564 1.8713c.0891.4457-.1783.7128-.6239.4456l-1.6038-.8911c-.4458-.2674-1.1586-.2674-1.6041 0l-1.60392.8911c-.44572.2673-.71291.0001-.62381-.4456l.3564-1.8713c.0891-.4457-.17831-1.1585-.44572-1.5149l-1.5147-1.33661c-.35651-.3564-.26741-.71291.26741-.71291l1.87132-.26741c.44572-.08921 1.06931-.44561 1.24762-.89111l.802-1.69323c.1783-.44561.5348-.44561.8021 0l.802 1.69323c.1781.44561.802.89111 1.2474.89111l1.8716.26741c.4454.0891.5344.35651.1778.71291z" fill="url(#a)"/></svg>