<svg fill="none" height="13" viewBox="0 0 12 13" width="12" xmlns="http://www.w3.org/2000/svg"><path clip-rule="evenodd" d="m9.97303 1.5h-6.84931c-.20548 0-.34247.13699-.34247.34247 0 .20547.13699.34246.34247.34246h6.84931c.20547 0 .34247.13699.34247.34247v6.8767h-.41097v.0002c-.04482.00005-.0892.00891-.13062.02607-.04155.01721-.0793.04243-.1111.07423s-.05703.06956-.07424.11111-.02607.08608-.02607.13105c0 .04498.00886.08951.02607.13106s.04244.0793.07424.1111c.0318.03178.06955.05698.1111.07428.04155.0172.08608.026.13106.026l.01151-.0002h1.08392v-7.5616c0-.58219-.4794-1.0274-1.02737-1.0274zm-.75386 10.4592h-7.19177c-.58219 0-1.0274-.4453-1.0274-1.0274v-7.56168h7.19178c.58219 0 1.02739.4452 1.02739 1.02739zm-7.53424-7.90415v6.87675c0 .2054.13699.3424.34247.3424h6.50684v-6.87669c0-.20548-.13699-.34246-.34246-.34246zm5.47806 2.79394h-4.10959c-.17123 0-.34246-.13698-.34246-.34246 0-.17123.13698-.34247.34246-.34247h4.10959c.17123 0 .34246.13699.34246.34247 0 .17123-.17123.34246-.34246.34246zm0 2.21233h-4.10959c-.17123 0-.34246-.13699-.34246-.34246 0-.17124.13698-.34247.34246-.34247h4.10959c.17123 0 .34246.13699.34246.34247 0 .17123-.17123.34246-.34246.34246z" fill="#fff" fill-rule="evenodd"/></svg>