<svg fill="none" height="21" viewBox="0 0 20 21" width="20" xmlns="http://www.w3.org/2000/svg"><g fill="#fff"><path d="m11.4375 18.1875c.5-.625.75-.875.8125-.875 4.0625-.75 6.75-3.875 6.75-7.75.0625-4.4375-4-7.9375-9-7.9375s-9.0625 3.5-9.0625 7.9375c0 3.875 2.75 7 6.75 7.75.0625 0 .3125.25.8125.875.625.8125 1 1.25 1.4375 1.25s.8125-.4375 1.5-1.25zm.6875-2c-.375.0625-.625.375-1.3125 1.25-.4375.5-.8125.875-.8125.875l-.1875-.1875c-.125-.125-.3125-.375-.5-.625-.75-.9375-1-1.25-1.375-1.3125-3.625-.625-6-3.375-6-6.75 0-3.75 3.625-6.875 8.125-6.875s8.125 3.125 8.125 6.875c-.0625 3.4375-2.4375 6.125-6.0625 6.75z"/><path d="m5.5 9.6875c0 .24864.09219.4871.25628.6629.1641.1758.38666.2746.61872.2746s.45462-.0988.61872-.2746c.16409-.1758.25628-.41426.25628-.6629s-.09219-.4871-.25628-.66291c-.1641-.17582-.38666-.27459-.61872-.27459s-.45462.09877-.61872.27459c-.16409.17581-.25628.41427-.25628.66291z"/><path d="m9.125 9.6875c0 .24864.09219.4871.25628.6629.1641.1758.38666.2746.61872.2746.2321 0 .4546-.0988.6187-.2746s.2563-.41426.2563-.6629-.0922-.4871-.2563-.66291c-.1641-.17582-.3866-.27459-.6187-.27459-.23206 0-.45462.09877-.61872.27459-.16409.17581-.25628.41427-.25628.66291z"/><path d="m12.75 9.6875c0 .24864.0922.4871.2563.6629s.3866.2746.6187.2746.4546-.0988.6187-.2746.2563-.41426.2563-.6629-.0922-.4871-.2563-.66291c-.1641-.17582-.3866-.27459-.6187-.27459s-.4546.09877-.6187.27459c-.1641.17581-.2563.41427-.2563.66291z"/></g></svg>