<svg fill="none" height="18" viewBox="0 0 18 18" width="18" xmlns="http://www.w3.org/2000/svg"><g fill="#feebca"><path d="m8.70285 12.2662c0-2.38502 1.93505-4.32002 4.32005-4.32002.639 0 1.242.135 1.782.387v-5.616c0-.306-.252-.558-.558-.558h-12.33905c-.306 0-.558.252-.558.558v9.53102c0 .306.252.558.558.558h6.831c-.018-.18-.036-.36-.036-.54zm-1.125-2.58302c-.144 0-.288-.054-.396-.162l-2.133-2.133.783-.783 1.782 1.764 3.31205-2.736.711.855-3.69905 3.06c-.108.09-.234.135-.36.135zm-3.78 3.84302v1.116h5.616c-.225-.342-.405-.711-.522-1.116z"/><path d="m13.023 8.63965c-2.007 0-3.627 1.61995-3.627 3.62695s1.638 3.618 3.627 3.618c2.007 0 3.627-1.62 3.627-3.627 0-1.998-1.638-3.61795-3.627-3.61795zm2.367 4.72495c-.054.117-.153.171-.261.171-.036 0-.072 0-.117-.018l-2.133-.972c-.09-.036-.171-.153-.171-.261v-2.007c0-.153.126-.27895.279-.27895s.279.12595.279.27895v1.836l1.971.891c.153.054.207.207.153.36z"/></g></svg>