<svg fill="none" height="18" viewBox="0 0 18 18" width="18" xmlns="http://www.w3.org/2000/svg"><path d="m9.01231 1.82812c-3.96739 0-7.18419 3.2168-7.18419 7.18418 0 3.9674 3.2168 7.1859 7.18594 7.1859s7.18594-3.2168 7.18594-7.1859c0-3.96914-3.2186-7.18418-7.18769-7.18418zm4.71619 7.16133c0 .44825-.3674.81739-.8174.81739h-3.85836c-.44825 0-.81739-.36739-.81739-.81739v-4.75312c0-.44824.36739-.81738.81739-.81738.44824 0 .81738.36738.81738.81738v3.33105c0 .33399.27068.60645.60648.60645h2.4363c.4482 0 .8156.36738.8156.81562z" fill="#feebca"/></svg>