<svg fill="none" height="15" viewBox="0 0 15 15" width="15" xmlns="http://www.w3.org/2000/svg" xmlns:xlink="http://www.w3.org/1999/xlink"><linearGradient id="a" gradientUnits="userSpaceOnUse" x1="7.5" x2="7.5" y1=".5" y2="14.878"><stop offset="0" stop-color="#ff8a15"/><stop offset="1" stop-color="#f29106"/></linearGradient><path d="m11.3979 14.878c-.1799 0-.3598-.045-.5547-.1499l-3.02854-1.5893c-.07497-.0449-.17992-.0749-.29984-.0749-.10495 0-.22489.03-.29986.0599l-3.01352 1.6043c-.17991.1049-.35982.1499-.56972.1499-.35982 0-.70465-.1649-.94455-.4348-.23988-.2699-.32983-.6297-.26987-.9895l.58473-3.3584c.02998-.20987-.04498-.41977-.19492-.56969l-2.428796-2.35386c-.3448308-.32983-.464772-.80961-.3148455-1.25939.1499115-.44979.5247425-.76464.9895115-.8396l3.35836-.49476c.2099-.02998.40479-.16492.49474-.34483l1.49927-3.0585c.20989-.419795.62969-.67467 1.09446-.67467s.88457.254875 1.09446.67467l1.49923 3.0585c.105.19492.2849.31485.4948.34483l3.3584.49477c.4647.07497.8396.38981.9895.8246.1499.44978.03.92954-.2999 1.2594l-2.4138 2.36882c-.1649.14993-.2249.35983-.1949.56971l.5697 3.3434c.06.3598-.03.7196-.2699.9895-.2248.2849-.5697.4498-.9295.4498z" fill="url(#a)"/></svg>