<svg fill="none" height="22" viewBox="0 0 22 22" width="22" xmlns="http://www.w3.org/2000/svg"><path d="m11.2775 6.10211c.4558-.58003.9529-1.08756 1.4915-1.52258.4558-.37288.9633-.71468 1.5226-1.02542.5593-.31073 1.1394-.44538 1.7401-.40395.8701.06215 1.5951.2693 2.1751.62147.5801.35216 1.041.78718 1.3828 1.30507.3418.51788.5748 1.10827.6991 1.77116.1243.6629.1657 1.33615.1243 2.01976-.0414.6836-.1761 1.33618-.4039 1.95758-.2279.6215-.5024 1.2067-.8235 1.7557-.3211.5489-.668 1.0513-1.0409 1.507s-.7458.87-1.1187 1.2429c-.5593.5801-1.1497 1.1342-1.7711 1.6624-.6215.5283-1.2119.9944-1.7712 1.3983-.5593.404-1.0617.7251-1.507.9633-.4454.2382-.7717.3573-.9788.3573-.2486 0-.5749-.1243-.9788-.3728-.40399-.2486-.85455-.5749-1.35172-.9788-.49717-.404-1.02541-.8701-1.58473-1.3983-.55931-.5283-1.11863-1.0617-1.67795-1.6003-.35216-.3522-.74575-.7509-1.18077-1.1963-.43503-.4454-.84416-.9322-1.22739-1.4605-.38324-.5282-.70951-1.1082-.97881-1.74-.2693-.6319-.4143-1.3103-.43502-2.03534-.04143-.70432.03107-1.37239.21751-2.00421s.46092-1.19632.82344-1.69349.8079-.91665 1.33614-1.25846c.52825-.3418 1.12381-.58521 1.78671-.73022.66289-.145 1.32061-.07768 1.97314.20198.65254.27966 1.2481.61628 1.7867 1.00988.62145.45573 1.21185 1.00469 1.77115 1.64687z" fill="#c72a29"/></svg>