<svg fill="none" height="24" viewBox="0 0 24 24" width="24" xmlns="http://www.w3.org/2000/svg"><path d="m8.26668 20.7538c-.75759.4828-1.74828.2331-2.20841-.5529-.21813-.3732-.28592-.8188-.189-1.2424l.98056-4.2888c.01168-.0499.00996-.1022-.00497-.1512-.01494-.049-.04253-.0929-.07985-.1271l-3.20967-2.8684c-.66669-.5954-.74364-1.63661-.1737-2.33075.13561-.16561.30187-.30202.48917-.40136s.39194-.15963.60209-.1774l4.21228-.35192c.0918-.00785.17393-.06992.2115-.16431l1.62292-4.07093c.3382-.84806 1.2787-1.25306 2.0993-.89698.3914.17057.701.49304.8613.89698l1.623 4.0707c.0375.09462.1197.15692.2115.16454l4.2127.35215c.8834.07384 1.5374.87529 1.4675 1.78518-.0329.4342-.2304.838-.5502 1.1245l-3.2096 2.8685c-.0747.0666-.1085.1746-.0849.278l.9806 4.2888c.203.8873-.324 1.7813-1.1842 1.9952-.205.051-.418.0597-.6263.0253-.2084-.0343-.408-.1108-.5871-.2251l-3.6066-2.2985c-.038-.0244-.0819-.0374-.1267-.0374s-.0887.013-.1267.0374l-3.60675 2.2985zm4.57272-3.4744 3.6066 2.2984c.0553.0351.1206.046.1825.0305.1352-.0337.2227-.1823.1883-.3337l-.9806-4.2888c-.0677-.295-.0559-.6034.0343-.8921.0903-.2886.2554-.5466.4778-.7463l3.2097-2.8682c.0524-.0468.0855-.1149.0914-.1892.0119-.1544-.0948-.285-.2316-.2963l-4.2127-.35238c-.2952-.02542-.5778-.13423-.8163-.31436s-.4238-.42454-.5351-.70609l-1.6229-4.0707c-.0254-.0654-.075-.11784-.1379-.14585-.1245-.05399-.2685.00808-.3234.14585l-1.6231 4.0707c-.1114.28155-.29658.52596-.53512.70609-.23855.18013-.5211.28894-.8163.31436l-4.2125.35238c-.0325.0029-.06411.0124-.093.0279s-.05449.0368-.07531.0626c-.0459.0568-.0686.1297-.06336.2033s.03802.1423.09149.1917l3.20967 2.8684c.22239.1997.38757.4577.47779.7464.09022.2886.10208.597.03431.8921l-.98056 4.2885c-.01676.0728-.0053.1494.03195.2137.07358.1253.2232.1629.33886.0893l3.60678-2.2982c.2519-.1607.5425-.2459.8392-.2459.2966 0 .5873.0852.8391.2459z" fill="#fff"/></svg>