<svg fill="none" height="81" viewBox="0 0 81 81" width="81" xmlns="http://www.w3.org/2000/svg"><path d="m68.7915 12.2077c-3.7128-3.71773-8.1232-6.66575-12.978-8.67485-4.8549-2.0091-10.0587-3.039733-15.3129-3.032766-5.2547-.010816-10.4596 1.018066-15.315 3.027386-4.8553 2.00932-9.2652 4.95938-12.9756 8.68023-15.61074 15.6-15.61074 40.983 0 56.5829 3.7106 3.7206 8.1205 6.6706 12.9758 8.6799s10.0602 3.0383 15.3148 3.0277c5.2554.0153 10.4617-1.0115 15.3177-3.0211s9.2654-4.962 12.9732-8.6865c15.6122-15.6 15.6122-40.983 0-56.5829zm-4.6232 17.8399-26.8706 28.5877c-.126.1414-.2836.2511-.46.32-.1369.0922-.2277.1846-.4123.2276-.3319.1459-.6898.2234-1.0524.2278-.3428-.0112-.6821-.0718-1.0076-.1801l-.32-.1846c-.1918-.0901-.3751-.1972-.5477-.32l-15.383-15.1399c-.2655-.2535-.4758-.5591-.6177-.8977-.142-.3386-.2124-.7029-.207-1.07 0-.7323.28-1.4646.78-1.9677.5297-.5069 1.2346-.7898 1.9677-.7898.7332 0 1.438.2829 1.9677.7898l13.28 13.08 24.8553-26.4323c.518-.5146 1.2113-.8146 1.9411-.8397.7297-.0251 1.442.2265 1.9942.7043.276.2479.4964.5514.6468.8905.1503.3392.2272.7063.2255 1.0773-.0025.7166-.282 1.4046-.78 1.92z" fill="#ff8b15"/></svg>