<svg fill="none" height="24" viewBox="0 0 24 24" width="24" xmlns="http://www.w3.org/2000/svg" xmlns:xlink="http://www.w3.org/1999/xlink"><linearGradient id="a" gradientUnits="userSpaceOnUse" x1="12" x2="12" y1="3" y2="21"><stop offset="0" stop-color="#ff8a15"/><stop offset="1" stop-color="#f29106"/></linearGradient><path d="m8.26668 20.7538c-.75759.4828-1.74828.2331-2.20841-.5529-.21813-.3732-.28592-.8188-.189-1.2424l.98056-4.2888c.01168-.0499.00996-.1022-.00497-.1512-.01494-.049-.04253-.0929-.07985-.1271l-3.20967-2.8684c-.66669-.5954-.74364-1.63661-.1737-2.33075.13561-.16561.30187-.30202.48917-.40136s.39194-.15963.60209-.1774l4.21228-.35192c.0918-.00785.17393-.06992.2115-.16431l1.62292-4.07093c.3382-.84806 1.2787-1.25306 2.0993-.89698.3914.17057.701.49304.8613.89698l1.623 4.0707c.0375.09462.1197.15692.2115.16454l4.2127.35215c.8834.07384 1.5374.87529 1.4675 1.78518-.0329.4342-.2304.838-.5502 1.1245l-3.2096 2.8685c-.0747.0666-.1085.1746-.0849.278l.9806 4.2888c.203.8873-.324 1.7813-1.1842 1.9952-.205.051-.418.0597-.6263.0253-.2084-.0343-.408-.1108-.5871-.2251l-3.6066-2.2985c-.038-.0244-.0819-.0374-.1267-.0374s-.0887.013-.1266.0374z" fill="url(#a)"/></svg>