<svg fill="none" height="40" viewBox="0 0 40 40" width="40" xmlns="http://www.w3.org/2000/svg" xmlns:xlink="http://www.w3.org/1999/xlink"><linearGradient id="a" gradientUnits="userSpaceOnUse" x1="19.9961" x2="19.9961" y1="3.76953" y2="36.1914"><stop offset="0" stop-color="#c9a899"/><stop offset=".515625" stop-color="#f4dec6"/><stop offset="1" stop-color="#e4b89c"/></linearGradient><path d="m25.3906 16.8984v-3.8437c0-2.9805-2.414-5.39454-5.3945-5.39454s-5.3945 2.41794-5.3945 5.39844v3.8437h10.789zm-14.957.043-.0039-.1211v-4.2226c0-2.3399.9297-4.58598 2.5859-6.24223 1.6563-1.65625 3.8985-2.58594 6.2422-2.58594h1.4805c4.875 0 8.8242 3.95313 8.8242 8.82417v4.3477c2.2734.3164 3.9648 2.2617 3.9648 4.5586v10.0898c0 2.543-2.0586 4.6016-4.6015 4.6016h-17.8594c-2.54296 0-4.60156-2.0586-4.60156-4.6016v-10.0859c0-2.2969 1.69141-4.2422 3.96876-4.5625zm8.5 10.3906v3.0078c0 .586.4766 1.0625 1.0625 1.0625s1.0625-.4765 1.0625-1.0625v-3.0078c1.3086-.5117 2.0703-1.8828 1.8086-3.2617-.2617-1.3828-1.4649-2.3828-2.8711-2.3828-1.4063 0-2.6133 1-2.8711 2.3828-.2617 1.3789.5 2.75 1.8086 3.2617z" fill="url(#a)"/></svg>