<svg fill="none" height="14" viewBox="0 0 14 14" width="14" xmlns="http://www.w3.org/2000/svg" xmlns:xlink="http://www.w3.org/1999/xlink"><linearGradient id="a" gradientUnits="userSpaceOnUse" x1="6.9999" x2="6.9999" y1="14" y2=".008789"><stop offset="0" stop-color="#ff8a15"/><stop offset="1" stop-color="#f9aa3a"/></linearGradient><clipPath id="b"><path d="m0 0h14v14h-14z"/></clipPath><g clip-path="url(#b)"><path d="m12.1449 1.96004c-1.89 0-3.675-.665-4.865-1.820001-.175-.1749999-.42-.1749999-.595 0-1.19 1.155001-2.975 1.820001-4.865 1.820001-.245 0-.42.175-.42.42v5.32c0 1.68.875 3.28996 2.345 4.23496l3.01 1.995c.07.035.14.07.245.07.07 0 .175-.035.245-.07l3.01-1.995c1.47-.98 2.345-2.55496 2.345-4.23496v-5.32c-.035-.245-.245-.42-.455-.42zm-3.395 5.495c.245 0 .42.21.42.42s-.21.42-.42.42h-1.33v1.33c0 .245-.21.41996-.42.41996-.245 0-.42-.20996-.42-.41996v-1.33h-1.33c-.245 0-.42-.21-.42-.42s.21-.42.42-.42h1.33v-.91h-1.33c-.245 0-.42-.21-.42-.42 0-.245.21-.42.42-.42h.84l-.84-1.05c-.14-.175-.105-.455.07-.63.175-.14.455-.14.595.07l1.05 1.33 1.05-1.33c.14-.175.42-.21.595-.07s.21.42.07.63l-.84 1.05h.91c.245 0 .42.21.42.42 0 .245-.21.42-.42.42h-1.33v.91z" fill="url(#a)"/></g></svg>