<svg fill="none" height="14" viewBox="0 0 14 14" width="14" xmlns="http://www.w3.org/2000/svg" xmlns:xlink="http://www.w3.org/1999/xlink"><linearGradient id="a" gradientUnits="userSpaceOnUse" x1="6.93769" x2="6.93769" y1="13" y2="1"><stop offset="0" stop-color="#ff8a15"/><stop offset="1" stop-color="#f9aa3a"/></linearGradient><path d="m11.4745 3.33947-3.63456-2.09863c-.55627-.321119-1.24752-.321119-1.8038 0l-3.63459 2.09863c-.55628.32112-.90155.92002-.90155 1.56225v4.19727c0 .64223.34527 1.24111.90155 1.56221l3.63459 2.098c.27778.1605.58967.2408.90155.2408s.62376-.0803.90154-.2408l3.63457-2.0987c.5563-.3211.9016-.91999.9016-1.56222v-4.19656c.0014-.64294-.3446-1.24113-.9009-1.56225zm-2.09788 4.59156c.06064 0 .12069.01194.17672.03515.05602.02321.10693.05722.14981.1001s.0769.09379.1001.14982c.02321.05602.03515.11607.03515.17671 0 .06065-.01194.12069-.03515.17672-.0232.05603-.05722.10693-.1001.14981s-.09379.0769-.14981.10011c-.05603.0232-.11608.03515-.17672.03515h-1.94802v1.1957c0 .0606-.01194.1207-.03515.1767s-.05722.1069-.1001.1498-.09379.0769-.14982.1001c-.05602.0232-.11607.0351-.17671.0351-.06065 0-.12069-.0119-.17672-.0351s-.10693-.0572-.14981-.1001c-.04289-.0429-.0769-.0938-.10011-.1498-.0232-.056-.03515-.1161-.03515-.1767v-1.1957h-1.94802c-.06064 0-.12069-.01195-.17671-.03515-.05603-.02321-.10694-.05723-.14982-.10011s-.07689-.09378-.1001-.14981-.03515-.11607-.03515-.17672c0-.06064.01194-.12069.03515-.17671.02321-.05603.05722-.10694.1001-.14982s.09379-.07689.14982-.1001c.05602-.02321.11607-.03515.17671-.03515h1.94802v-1.30721h-1.94802c-.12247 0-.23993-.04865-.32653-.13525s-.13525-.20406-.13525-.32653.04865-.23993.13525-.32653.20406-.13526.32653-.13526h1.27879l-1.09976-1.15659c-.17548-.18471-.16837-.47741.01634-.65289.18472-.17548.47742-.16837.65289.01634l1.54947 1.63045 1.5793-1.68942c.08371-.08941.19948-.14195.32189-.14608s.24146.04049.331.12406c.08942.08371.14196.19948.14609.32189s-.04049.24146-.12406.331l-1.14168 1.22124h1.30863c.12247 0 .23993.04866.32653.13526s.13525.20406.13525.32653-.04865.23993-.13525.32653-.20406.13525-.32653.13525h-1.94731v1.3065h1.94802z" fill="url(#a)"/></svg>