<svg fill="none" height="14" viewBox="0 0 14 14" width="14" xmlns="http://www.w3.org/2000/svg" xmlns:xlink="http://www.w3.org/1999/xlink"><linearGradient id="a" gradientUnits="userSpaceOnUse" x1="7.01367" x2="7.01367" y1="13.4805" y2="1.98242"><stop offset="0" stop-color="#ff8a15"/><stop offset="1" stop-color="#f9aa3a"/></linearGradient><clipPath id="b"><path d="m0 0h14v14h-14z"/></clipPath><g clip-path="url(#b)"><path d="m1.32796 5.11506c.38602-.02717.7215.26024.75483.64394l.00091.01165c.1618 2.29473 1.37564 3.77965 3.74889 4.55415l.07227.0232c.28999.092.48823.3586.49347.6616l.00011.0123v1.7379c0 .3904-.31687.707-.70775.707-.38697 0-.7014-.3102-.70766-.6953l-.00008-.0117-.00001-1.2349-.02511-.0094c-2.60586-.9887-4.062033-2.86902-4.279539-5.55845l-.00659-.08703c-.027467-.38951.266355-.72752.656259-.75496zm11.37144.01367c-.386-.02717-.7215.26024-.7548.64395l-.001.01164c-.1618 2.29473-1.3756 3.77965-3.74884 4.55408l-.07227.0233c-.28999.092-.48824.3586-.49347.6616l-.00011.0123v1.7378c0 .3905.31687.7071.70775.7071.38697 0 .70139-.3103.70766-.6954l.00008-.0117.00001-1.2348.0251-.0094c2.60589-.9888 4.06199-2.86905 4.27959-5.55847l.0065-.08704c.0275-.38951-.2663-.72752-.6562-.75496zm-3.9805-3.14631c1.18905 0 2.1092.90516 2.1092 2.07452 0 1.18966-.89807 2.18439-2.33279 3.50187l-.10465.09581-.10647.09698-.05393.04894-.10918.09881-.11095.10008-.16966.15263-.29116.26135-.22367.19723c-.1871.16501-.46619.16754-.65613.00762l-.00883-.00762-.22367-.19723-.34813-.31256-.11268-.10141-.16576-.14965c-.01813-.01641-.03626-.03282-.05437-.04925l-.1074-.09757c-.01774-.01616-.03541-.03228-.05302-.04835l-.10464-.09581c-1.4347-1.31746-2.33281-2.31221-2.33281-3.50187 0-1.16936.92018-2.07452 2.10923-2.07452.67113 0 1.30366.30171 1.72574.79214.42205-.49041 1.05462-.79214 1.72573-.79214z" fill="url(#a)"/></g></svg>