<svg fill="none" height="14" viewBox="0 0 14 14" width="14" xmlns="http://www.w3.org/2000/svg" xmlns:xlink="http://www.w3.org/1999/xlink"><linearGradient id="a" gradientUnits="userSpaceOnUse" x1="7.41999" x2="7.41999" y1="12.6001" y2="1.12012"><stop offset="0" stop-color="#ff8a15"/><stop offset="1" stop-color="#f9aa3a"/></linearGradient><clipPath id="b"><path d="m0 0h14v14h-14z"/></clipPath><g clip-path="url(#b)"><path d="m4.47999 1.96012v.84c-.00065.14531.05521.28519.15579.39008.10057.10489.23798.16658.38319.17203.14522.00545.28686-.04576.39502-.14281s.17435-.23235.1846-.3773l.0014-.042v-.84h2.8v.84c-.00004.14128.05331.27736.14938.38095.09606.1036.22774.16705.36862.17765l.042.0014c.14128.00004.27736-.05332.38095-.14938.1036-.09607.16705-.22774.17765-.36862l.0014-.042v-.84h.84001c.3608.00002.7076.13931.9682.38882.2605.24952.4147.58999.4304.95042l.0014.06076.0003 4.6354c-.1624-.7756-.7734-1.31936-1.6803-1.31936-1.11665-.00896-1.73209.82572-1.73209 1.51928 0 .8862.4284 1.29304.59976 1.31768l.01568.00112v.28728h-.805c-.45472.0252-.8512.55808-.87696 1.02148l-.0014.0476v1.1695c0 .2153.05992.4116.15848.56h-3.79848c-.36077 0-.7076-.1393-.96818-.3888-.26057-.2495-.41476-.59-.43042-.9504l-.0014-.0608v-7.83998c.00002-.36077.13931-.70761.38883-.96818.24951-.26057.58998-.41477.95041-.43042l.06076-.0014zm8.12001 10.07998c0 .1485-.059.291-.164.396-.1051.105-.2475.164-.396.164h-3.92001c-.14852 0-.29096-.059-.39598-.164s-.16402-.2475-.16402-.396zm-2.52-5.03998c.2939-.00012.5803.09225.8188.26401.2385.17177.4168.41422.5098.693.093.27879.0959.57976.0083.86029-.0876.28052-.2612.52637-.4963.7027l-.0006.55998h.84c.2142 0 .4204.0819.5763.2289.1559.1469.2497.3479.2623.5618l.0014.0493v.84h-5.04001v-.84c-.00001-.2142.08185-.4204.22884-.5763s.34799-.2497.56188-.2623l.04928-.0014h.84v-.55998c-.23507-.1763-.40871-.4221-.49632-.70257s-.08476-.5814.00816-.86015c.09292-.27876.27119-.52121.50957-.69302.23837-.17181.52476-.26426.8186-.26426zm-3.64001 1.96h-1.68c-.07137.00008-.14001.0274-.1919.07639-.0519.049-.08313.11595-.08731.1872-.00418.07124.019.14139.0648.19612.04581.05473.11078.0899.18165.09833l.03276.00196h1.68c.07426 0 .14548-.0295.19799-.08201s.08201-.12373.08201-.19799-.0295-.14548-.08201-.19799-.12373-.08201-.19799-.08201zm1.4-2.24h-3.08c-.07137.00008-.14001.0274-.1919.07639-.0519.049-.08313.11595-.08731.1872-.00418.07124.019.14139.0648.19612.04581.05473.11078.0899.18165.09833l.03276.00196h3.08c.07426 0 .14548-.0295.19799-.08201s.08201-.12373.08201-.19799-.0295-.14548-.08201-.19799-.12373-.08201-.19799-.08201zm1.4-2.24h-4.48c-.07137.00008-.14001.0274-.1919.07639-.0519.049-.08313.11595-.08731.1872-.00418.07124.019.14139.0648.19612.04581.05473.11078.0899.18165.09833l.03276.00196h4.48c.07426 0 .14548-.0295.19799-.08201s.08201-.12373.08201-.19799-.0295-.14548-.08201-.19799-.12373-.08201-.19799-.08201zm-.28-3.36c.07426 0 .14548.0295.19799.08201s.08201.12373.08201.19799v1.4c0 .07426-.0295.14548-.08201.19799s-.12373.08201-.19799.08201-.14548-.0295-.19799-.08201-.08201-.12373-.08201-.19799v-1.4c0-.07426.0295-.14548.08201-.19799s.12373-.08201.19799-.08201zm-3.92 0c.07426 0 .14548.0295.19799.08201s.08201.12373.08201.19799v1.4c0 .07426-.0295.14548-.08201.19799s-.12373.08201-.19799.08201-.14548-.0295-.19799-.08201-.08201-.12373-.08201-.19799v-1.4c0-.03677.00724-.07318.02131-.10715.01407-.03398.0347-.06484.0607-.09084s.05687-.04663.09084-.0607.07038-.02131.10715-.02131z" fill="url(#a)"/></g></svg>