<svg fill="none" height="14" viewBox="0 0 14 14" width="14" xmlns="http://www.w3.org/2000/svg" xmlns:xlink="http://www.w3.org/1999/xlink"><linearGradient id="a" gradientUnits="userSpaceOnUse" x1="7.14706" x2="7.14706" y1="13" y2="1"><stop offset="0" stop-color="#ff8a15"/><stop offset="1" stop-color="#f9aa3a"/></linearGradient><path d="m11.0847 8.59035c1.0054-.43129 1.7094-1.4287 1.7094-2.59035 0-1.33765-.9336-2.45765-2.1859-2.74588v-1.688c0-.15015-.0596-.29414-.1658-.40031-.1061-.10617-.2501-.16581-.4003-.16581h-.14304c-.15014 0-.29414.05964-.40031.16581-.10616.10617-.16581.25016-.16581.40031v1.68776c-1.24188.28612-2.17035 1.38988-2.18588 2.71294l-.008.00165c-.09318-1.24212-.99294-2.25976-2.17788-2.5327v-1.86965c0-.15015-.05965-.29414-.16581-.40031-.10617-.10617-.25017-.16581-.40031-.16581h-.14306c-.15014 0-.29414.05964-.40031.16581-.10616.10617-.16581.25016-.16581.40031v1.86965c-1.25223.28847-2.18588 1.40847-2.18588 2.74588 0 1.21059.76471 2.24282 1.83812 2.64188.38198 1.38487.27818 2.85877-.29412 4.17647h7.8755c-.2454-1.2191-.3402-2.1089-.284-2.6699.0612-.61175.2174-1.19786.4492-1.73975zm-3.39105 2.66615c0 .26-.15765.4706-.35318.4706-.19482 0-.35294-.2106-.35294-.4706s.15812-.4706.35294-.4706c.19529 0 .35318.2106.35318.4706z" fill="url(#a)"/></svg>