<svg fill="none" height="14" viewBox="0 0 14 14" width="14" xmlns="http://www.w3.org/2000/svg" xmlns:xlink="http://www.w3.org/1999/xlink"><linearGradient id="a" gradientUnits="userSpaceOnUse" x1="7.03228" x2="7.03228" y1="12.6401" y2="1"><stop offset="0" stop-color="#ff8a15"/><stop offset="1" stop-color="#f9aa3a"/></linearGradient><path d="m11.702 5.16776c.4762 0 .8626.38636.8626.86255v5.74729c0 .4762-.3864.8625-.8626.8625h-1.149c-.4762 0-.86267-.3863-.86267-.8625v-5.74838c0-.47619.38637-.8627.86267-.8627h1.149zm-8.04658 1.14898c.4762 0 .86256.38637.86256.86256v4.5972c0 .4762-.38636.8627-.86256.8627h-1.14898c-.47619 0-.86256-.3864-.86256-.8627v-4.5983c0-.47619.38637-.86269.86256-.86269h1.14898zm4.02323 1.14898c.47619 0 .86255.38637.86255.86256v3.44822c0 .4762-.38636.8627-.86255.8627h-1.14899c-.47619 0-.86269-.3864-.86269-.8627v-3.44822c0-.47619.38636-.86256.86269-.86256zm2.97545-5.59617-.67858.00451c-.23762.00123-.43189-.18976-.43408-.42847-.00232-.23639.18977-.43067.42738-.43299l1.72968-.01258c.1114-.001093.2228.04102.308.12619.0421.04211.0738.09092.0943.14205.0193.04539.0319.10227.0319.16256v1.73209c0 .23762-.1932.4308-.4307.4308s-.4308-.19318-.4308-.4308v-.69098l-3.86189 3.86176c-.12619.12619-.31705.16147-.47961.0886l-5.1733-2.29797c-.21711-.09666-.31596-.35123-.2193-.56944.09653-.21711.35123-.31595.56944-.21929l4.90178 2.17861z" fill="url(#a)"/></svg>