<svg fill="none" height="12" viewBox="0 0 12 12" width="12" xmlns="http://www.w3.org/2000/svg"><path d="m4.625 1.25h5.25c.2321 0 .4546.09219.6187.25628.1641.1641.2563.38666.2563.61872v5.25c0 .23206-.0922.45462-.2563.61872-.1641.16409-.3866.25628-.6187.25628h-5.25c-.23206 0-.45462-.09219-.61872-.25628-.16409-.1641-.25628-.38666-.25628-.61872v-5.25c0-.23206.09219-.45462.25628-.61872.1641-.16409.38666-.25628.61872-.25628zm0 .75c-.03315 0-.06495.01317-.08839.03661s-.03661.05524-.03661.08839v5.25c0 .01642.00323.03267.00952.04784.00628.01516.01548.02894.02709.04055s.02539.02081.04056.0271c.01516.00628.03142.00951.04783.00951h5.25c.03315 0 .06495-.01317.08839-.03661s.03661-.05524.03661-.08839v-5.25c0-.03315-.01317-.06495-.03661-.08839s-.05524-.03661-.08839-.03661zm2.875 7c0-.09946.03951-.19484.10983-.26516.07033-.07033.16571-.10984.26517-.10984s.19484.03951.26517.10984c.07032.07032.10983.1657.10983.26516v.875c0 .2321-.09219.4546-.25628.6187-.1641.1641-.38666.2563-.61872.2563h-5.25c-.23206 0-.45462-.0922-.61872-.2563-.16409-.1641-.25628-.3866-.25628-.6187v-5.25c0-.23206.09219-.45462.25628-.61872.1641-.16409.38666-.25628.61872-.25628h.875c.09946 0 .19484.03951.26517.10984.07032.07032.10983.1657.10983.26516s-.03951.19484-.10983.26517c-.07033.07032-.16571.10983-.26517.10983h-.875c-.03315 0-.06495.01317-.08839.03661s-.03661.05524-.03661.08839v5.25c0 .03315.01317.06495.03661.08839s.05524.03661.08839.03661h5.25c.03315 0 .06495-.01317.08839-.03661s.03661-.05524.03661-.08839z" fill="#b9b9b9"/></svg>