<svg fill="none" height="20" viewBox="0 0 20 20" width="20" xmlns="http://www.w3.org/2000/svg" xmlns:xlink="http://www.w3.org/1999/xlink"><clipPath id="a"><path d="m0 0h20v20h-20z"/></clipPath><g clip-path="url(#a)"><path d="m5.82049 11.2381-.00047-.0008c-.70741-1.1427-1.09077-2.39941-1.09077-3.73722 0-2.91434 2.35649-5.27083 5.27085-5.27083 2.9143 0 5.2708 2.35649 5.2708 5.27083 0 1.33765-.3832 2.59342-1.0976 3.73492h-.0001l-.0027.0045c-.3778.6164-.818 1.1915-1.2794 1.79-.0146.0189-.0292.0378-.0438.0567-.4423.5737-.9032 1.1714-1.307 1.8149l-.0002.0003c-.4128.6588-.7008 1.2713-1.01 1.9483l-.0004.0009c-.0421.0926-.0862.2049-.125.3035-.0152.0385-.0295.075-.0426.1074-.0534.1322-.1024.2415-.1556.3308-.1042.1748-.1614.1786-.2064.1786-.04508 0-.10258-.0038-.2083-.18-.054-.09-.10381-.1998-.15878-.3332-.01217-.0295-.02531-.0621-.03915-.0964-.04034-.1-.08664-.2147-.13227-.312-.30389-.6834-.599-1.2922-1.0095-1.9473-.41055-.6585-.87986-1.2672-1.32925-1.8501l-.02209-.0286c-.46196-.5992-.90226-1.1724-1.28027-1.7852zm1.53376-3.52969c0 1.46066 1.18517 2.64579 2.64585 2.64579 1.4606 0 2.6458-1.18513 2.6458-2.64579s-1.1852-2.64583-2.6458-2.64583c-1.46068 0-2.64585 1.18517-2.64585 2.64583z" stroke="#011f15" stroke-width="1.125"/></g></svg>