<svg fill="none" height="32" viewBox="0 0 32 32" width="32" xmlns="http://www.w3.org/2000/svg" xmlns:xlink="http://www.w3.org/1999/xlink"><linearGradient id="a" gradientUnits="userSpaceOnUse" x1="16" x2="16" y1="0" y2="31.9961"><stop offset="0" stop-color="#c9a899"/><stop offset=".515625" stop-color="#f4dec6"/><stop offset="1" stop-color="#e4b89c"/></linearGradient><linearGradient id="b" gradientUnits="userSpaceOnUse" x1="27.55" x2="1.29506" y1="30.1777" y2="25.6704"><stop offset="0" stop-color="#dab07e"/><stop offset=".552083" stop-color="#ebc9a0"/><stop offset="1" stop-color="#f9ddbc"/></linearGradient><path d="m15.9961 0c-8.83367 0-15.9961 7.16243-15.9961 15.9961 0 8.8336 7.16243 16 16 16 8.8376 0 16-7.1624 16-16 0-8.83759-7.1663-15.9961-16.0039-15.9961zm10.501 15.9452c0 .998-.818 1.82-1.82 1.82h-8.591c-.998 0-1.82-.818-1.82-1.82v-10.58317c0-.99804.818-1.81996 1.82-1.81996.998 0 1.82.81801 1.82 1.81996v7.41687c0 .7436.6027 1.3503 1.3503 1.3503h5.4246c.9981 0 1.8161.818 1.8161 1.816z" fill="url(#a)"/><path d="m15.9961 0c-8.83367 0-15.9961 7.16243-15.9961 15.9961 0 8.8336 7.16243 16 16 16 8.8376 0 16-7.1624 16-16 0-8.83759-7.1663-15.9961-16.0039-15.9961zm10.501 15.9452c0 .998-.818 1.82-1.82 1.82h-8.591c-.998 0-1.82-.818-1.82-1.82v-10.58317c0-.99804.818-1.81996 1.82-1.81996.998 0 1.82.81801 1.82 1.81996v7.41687c0 .7436.6027 1.3503 1.3503 1.3503h5.4246c.9981 0 1.8161.818 1.8161 1.816z" fill="url(#b)"/></svg>