<svg fill="none" height="14" viewBox="0 0 14 14" width="14" xmlns="http://www.w3.org/2000/svg" xmlns:xlink="http://www.w3.org/1999/xlink"><linearGradient id="a" gradientUnits="userSpaceOnUse" x1="7" x2="7" y1="1" y2="12.5024"><stop offset="0" stop-color="#ff8a15"/><stop offset="1" stop-color="#f29106"/></linearGradient><path d="m10.1183 12.5024c-.1439 0-.28783-.036-.44375-.12l-2.42283-1.2713c-.05997-.036-.14392-.06-.23987-.06-.08396 0-.17991.024-.23988.048l-2.41082 1.2833c-.14393.084-.28786.12-.45577.12-.28786 0-.56373-.132-.75565-.3478-.1919-.2159-.26385-.5038-.21589-.7917l.46778-2.68664c.02399-.16792-.03598-.33583-.15593-.45577l-1.94304-1.88309c-.27586-.26386-.371816-.64769-.25188-1.00751.11993-.35984.4198-.61171.79162-.67168l2.68668-.39581c.16792-.02399.32383-.13193.39579-.27586l1.19942-2.4468c.16791-.33584.50375-.53974.87557-.53974s.70765.2039.87557.53974l1.19941 2.4468c.08396.15593.22789.25187.39581.27586l2.68666.39582c.3719.05997.6717.31185.7916.65968.12.35982.024.74363-.2398 1.00751l-1.9311 1.89506c-.1319.11994-.1799.28786-.1559.45578l.4558 2.67465c.0479.2879-.024.5758-.2159.7917-.1799.2278-.4558.3598-.7437.3598z" fill="url(#a)"/></svg>