<svg fill="none" height="28" viewBox="0 0 84 28" width="84" xmlns="http://www.w3.org/2000/svg" xmlns:xlink="http://www.w3.org/1999/xlink"><filter id="a" color-interpolation-filters="sRGB" filterUnits="userSpaceOnUse" height="26.6667" width="26.6667" x="8.66667" y="4"><feFlood flood-opacity="0" result="BackgroundImageFix"/><feColorMatrix in="SourceAlpha" result="hardAlpha" type="matrix" values="0 0 0 0 0 0 0 0 0 0 0 0 0 0 0 0 0 0 127 0"/><feOffset dy="3.33333"/><feGaussianBlur stdDeviation="1.66667"/><feComposite in2="hardAlpha" operator="out"/><feColorMatrix type="matrix" values="0 0 0 0 0 0 0 0 0 0 0 0 0 0 0 0 0 0 0.5 0"/><feBlend in2="BackgroundImageFix" mode="normal" result="effect1_dropShadow_643_9331"/><feBlend in="SourceGraphic" in2="effect1_dropShadow_643_9331" mode="normal" result="shape"/></filter><linearGradient id="b" gradientUnits="userSpaceOnUse" x1="72.45" x2="19.9429" y1="28" y2="-21.2583"><stop offset=".328814" stop-color="#014c53"/><stop offset="1" stop-color="#027276"/></linearGradient><linearGradient id="c" gradientUnits="userSpaceOnUse" x1="24.6897" x2="26.5468" y1="8.94257" y2="22.9345"><stop offset="0" stop-color="#fff9ea"/><stop offset=".258111" stop-color="#f4e2b3"/><stop offset="1" stop-color="#dabb7e"/></linearGradient><linearGradient id="d" gradientUnits="userSpaceOnUse" x1="72.3187" x2="16.2396" y1="26.4087" y2="-2.46976"><stop offset="0" stop-color="#dab07e"/><stop offset=".552083" stop-color="#ebc9a0"/><stop offset="1" stop-color="#f9ddbc"/></linearGradient><clipPath id="e"><rect height="28" rx="14" width="84"/></clipPath><g clip-path="url(#e)"><rect fill="url(#b)" height="28" rx="14" width="84"/><g filter="url(#a)"><path clip-rule="evenodd" d="m22.0001 19.1114c3.7562 0 6.8011-3.0449 6.8011-6.8011 0-3.7561-3.0449-6.80104-6.8011-6.80104-3.7561 0-6.801 3.04494-6.801 6.80104 0 3.7562 3.0449 6.8011 6.801 6.8011zm7.477-6.8011c0 3.186-1.9927 5.9065-4.7996 6.9834.2196.1479.3641.3989.3641.6837 0 .057-.0058.1126-.0168.1663 1.3886.1604 2.4668 1.3402 2.4668 2.7718 0 .1387-.1125.2512-.2512.2512h-10.3118c-.1387 0-.2512-.1125-.2512-.2512 0-1.4033 1.036-2.5647 2.3848-2.7611-.0125-.057-.019-.1162-.019-.177 0-.2718.1316-.5129.3346-.6629-2.8359-1.0622-4.8546-3.7975-4.8546-7.0042 0-4.12938 3.3475-7.47693 7.4769-7.47693 4.1295 0 7.477 3.34755 7.477 7.47693zm-10.0093 8.533h5.2334c.9839 0 1.8076.6857 2.0194 1.6052h-9.2722c.2118-.9195 1.0355-1.6052 2.0194-1.6052zm6.672-8.533c0 2.2747-1.844 4.1187-4.1186 4.1187-2.2747 0-4.1187-1.844-4.1187-4.1187 0-2.2746 1.844-4.11862 4.1187-4.11862 2.2746 0 4.1186 1.84402 4.1186 4.11862zm.6337 0c0 2.6247-2.1277 4.7524-4.7523 4.7524-2.6247 0-4.7523-2.1277-4.7523-4.7524 0-2.62458 2.1276-4.75226 4.7523-4.75226 2.6246 0 4.7523 2.12768 4.7523 4.75226zm-4.7522 3.4005c1.8781 0 3.4006-1.5225 3.4006-3.4005 0-1.8781-1.5225-3.40056-3.4006-3.40056-1.878 0-3.4005 1.52246-3.4005 3.40056 0 1.878 1.5225 3.4005 3.4005 3.4005zm2.0699-2.7458c.3616 0 .6547-.2931.6547-.6547 0-.3617-.2931-.6548-.6547-.6548-.3617 0-.6548.2931-.6548.6548 0 .3616.2931.6547.6548.6547zm-2.07-6.01952c.1866 0 .3379-.15131.3379-.33795s-.1513-.33794-.3379-.33794c-.1867 0-.338.1513-.338.33794s.1513.33795.338.33795z" fill="url(#c)" fill-rule="evenodd"/></g><path d="m46.02 14.132h-7.536v3.54c0 .528.276.804.828.804h6.024c.288 0 .528-.072.708-.216.24-.216.396-.984.468-2.304l.84.264c-.12 1.488-.324 2.376-.612 2.688-.264.252-.66.384-1.164.408h-6.504c-.972 0-1.452-.504-1.452-1.488v-6.3h.864v1.776h6.66v-3.132h-8.004v-.84h8.88zm9.504-5.376h.888c0 1.008-.036 1.956-.108 2.82.636 3.072 1.74 5.52 3.312 7.32l-.624.72c-1.284-1.632-2.256-3.648-2.928-6.024-.06.336-.12.648-.18.96-.456 2.064-1.476 3.768-3.072 5.088l-.588-.708c1.392-1.176 2.328-2.652 2.784-4.44.336-1.5.516-3.408.516-5.736zm-5.58.06c.816.612 1.5 1.224 2.052 1.848l-.588.6c-.504-.588-1.2-1.212-2.064-1.86zm-1.404 3.552h2.592v5.244c.432-.36.9-.768 1.392-1.236l.216.888c-.744.708-1.536 1.344-2.376 1.896l-.336-.768c.18-.144.276-.324.276-.516v-4.68h-1.764zm19.428-2.256h-3.372v-.852h6.732v.852h-2.484v3.372h2.316v.804h-2.316v4.152h2.724v.852h-7.344v-.852h1.224v-6.348h.84v6.348h1.68zm-5.976-1.296c.78.624 1.44 1.236 1.98 1.848l-.588.6c-.492-.6-1.152-1.224-1.992-1.884zm-1.464 3.552h2.568v5.184c.384-.336.792-.72 1.236-1.152l.228.924c-.696.672-1.428 1.284-2.208 1.824l-.336-.78c.168-.144.252-.312.252-.504v-4.668h-1.74z" fill="#feebca"/></g><rect height="27.5" rx="13.75" stroke="url(#d)" stroke-width=".5" width="83.5" x=".25" y=".25"/></svg>