<svg width="13" height="13" viewBox="0 0 13 13" fill="none" xmlns="http://www.w3.org/2000/svg">
<path d="M5.53115 6.75L0.700656 1.91951C0.572178 1.79103 0.5 1.61678 0.5 1.43508C0.5 1.34512 0.51772 1.25603 0.552149 1.17291C0.586577 1.08979 0.63704 1.01427 0.700656 0.950656C0.764271 0.88704 0.839794 0.836577 0.922912 0.802149C1.00603 0.76772 1.09512 0.75 1.18508 0.75C1.36678 0.75 1.54103 0.822178 1.66951 0.950656L6.5 5.78115L11.3305 0.950656C11.3941 0.88704 11.4696 0.836577 11.5527 0.802149C11.6359 0.76772 11.725 0.75 11.8149 0.75C11.9049 0.75 11.994 0.76772 12.0771 0.802149C12.1602 0.836577 12.2357 0.88704 12.2993 0.950656C12.363 1.01427 12.4134 1.08979 12.4478 1.17291C12.4823 1.25603 12.5 1.34512 12.5 1.43508C12.5 1.52505 12.4823 1.61413 12.4478 1.69725C12.4134 1.78037 12.363 1.85589 12.2993 1.91951L7.46885 6.75L12.2993 11.5805C12.4278 11.709 12.5 11.8832 12.5 12.0649C12.5 12.2466 12.4278 12.4209 12.2993 12.5493C12.1709 12.6778 11.9966 12.75 11.8149 12.75C11.6332 12.75 11.459 12.6778 11.3305 12.5493L6.5 7.71885L1.66951 12.5493C1.54103 12.6778 1.36678 12.75 1.18508 12.75C1.00339 12.75 0.829133 12.6778 0.700656 12.5493C0.572178 12.4209 0.5 12.2466 0.5 12.0649C0.5 11.8832 0.572178 11.709 0.700656 11.5805L5.53115 6.75Z" fill="white"/>
</svg>
