<svg fill="none" height="22" viewBox="0 0 22 22" width="22" xmlns="http://www.w3.org/2000/svg"><path clip-rule="evenodd" d="m19.6278 7.118c1.3121.19107 1.8376 1.80406.887 2.73078l-2.9967 2.92022c-.3774.3679-.5494.8981-.4602 1.4172l.707 4.1209c.2245 1.3088-1.1481 2.3056-2.3216 1.6878l-3.7005-1.9458c-.4649-.2452-1.0222-.2452-1.4888 0l-3.70048 1.9458c-1.17353.6162-2.54608-.3806-2.32157-1.6878l.70698-4.1209c.08917-.5191-.0828-1.0493-.46017-1.4172l-2.99352-2.91863c-.950598-.92671-.42514-2.53971.88691-2.73078l4.13678-.60189c.25692-.03715.50092-.13631.71093-.28889.21001-.15259.37971-.35401.49444-.58687l1.85024-3.74986c.58756-1.189441 2.28336-1.189441 2.87096 0l.9092 1.8407-4.79285 6.38512c-.09236.1226-.15605.2659-.18471.4172l-.54297 2.8279c-.15127.7818.61781 1.4235 1.35982 1.1369l2.89481-1.1178c.1772-.0687.3317-.1856.4458-.3376l4.5906-6.11599c.0382-.05095.0701-.10509.0971-.16082zm-9.67493 3.3997 1.71493 1.2818 5.7943-7.74814c.0988-.13216.0717-.31846-.0605-.41718l-1.2372-.92513c-.1322-.09872-.3184-.07165-.4172.06051zm1.29453 1.7149-1.60503-1.2468-.46336 1.8725c-.05255.2166.17675.3949.3726.2882z" fill="#cfedff" fill-rule="evenodd"/></svg>