<svg fill="none" height="22" viewBox="0 0 22 22" width="22" xmlns="http://www.w3.org/2000/svg"><path d="m18.6322 2.67453h-6.6204v-.65856c0-.56094-.455-1.01597-1.0159-1.01597-.561 0-1.016.45503-1.016 1.01597v.65856h-7.25573c-.95309 0-1.72417.77273-1.72417 1.72416v9.90151c0 .9531.77273 1.7242 1.72417 1.7242h4.45602l-1.89956 3.4698c-.0642.1171-.10468.2458-.11914.3785-.01445.1328-.00259.2671.03491.3952.0375.1282.0999.2477.18363.3518.08373.104.18715.1905.30434.2545.15554.0844.32266.1258.48648.1258.35906 0 .70819-.1919.89352-.5295l2.43402-4.4461h3.26801l2.434 4.4461c.0876.1604.2169.2942.3741.3873.1572.0932.3366.1423.5194.1422.1655 0 .3326-.0397.4865-.1258.1172-.064.2206-.1505.3043-.2545.0837-.1041.1461-.2236.1836-.3518.0375-.1281.0494-.2624.035-.3952-.0145-.1327-.055-.2614-.1192-.3785l-1.8995-3.4698h3.5476c.9531 0 1.7241-.7727 1.7241-1.7242v-9.90151c0-.95309-.7727-1.72416-1.7241-1.72416zm-6.8702 9.99747h-6.03461c-.56093 0-1.01596-.455-1.01596-1.0159 0-.561.45503-1.016 1.01596-1.016h6.03461c.5609 0 1.0159.455 1.0159 1.016.0017.5609-.4533 1.0159-1.0159 1.0159zm3.7544-4.38318h-9.78901c-.56093 0-1.01596-.45503-1.01596-1.01597 0-.56093.45503-1.01596 1.01596-1.01596h9.79071c.5609 0 1.0159.45503 1.0159 1.01596 0 .56094-.455 1.01597-1.0176 1.01597z" fill="#fbedda"/></svg>