<svg fill="none" height="22" viewBox="0 0 22 22" width="22" xmlns="http://www.w3.org/2000/svg"><path clip-rule="evenodd" d="m10.5528 14.6068 1.7014 4.032c.1134.2843.2798.5384.4839.7592-.2087.0045-.4113-.0227-.5943-.0907-1.0036-.4133-1.9982-.8482-2.99248-1.283-.15191-.0664-.30381-.1328-.45574-.1992-.46552-.2029-.93296-.402-1.40043-.6012-1.13476-.4833-2.26961-.9667-3.37715-1.5055-3.244041-1.5774-3.92763282-5.92697-1.31879-8.4239 1.57438-1.50783 3.45123-1.85416 5.51713-1.13881.08198.02921.16279.06077.23181.08773.04176.01631.0792.03093.10998.04233.11097-.16408.21584-.3289.31946-.49176.22686-.35654.44773-.70368.71349-1.01305.94672-1.09949 2.17022-1.69083 3.62362-1.77098 1.8739-.10436 3.4014.61251 4.5039 2.10371 1.1342 1.53505 1.3339 3.21983.6957 4.98023-.1951 0-.3917.0106-.5914.0378-.0121-.0151-.0257-.0317-.0393-.0469-.7637-.88924-1.7906-1.39286-2.9718-1.4579-1.4882-.08166-2.7918.52782-3.672 1.7196-.9286 1.2552-1.10257 2.7646-.487 4.2603zm4.587 4.1063c-.5051.186-1.2689-.0893-1.4806-.6458l-1.709-4.0502c-.4038-.98-.3206-1.9176.3085-2.7691.5808-.7849 1.3838-1.1615 2.3699-1.1071.7638.0424 1.408.3524 1.9056.9317.1394.1622.2559.3452.3755.5332.0544.0854.1093.1718.1674.2577.0048-.0018.0098-.0038.0152-.0059.0424-.0168.103-.0406.1648-.0621 1.0859-.3766 2.0735-.1936 2.9022.5989 1.3718 1.3142 1.0118 3.6009-.6941 4.4312-.5831.2846-1.1814.5394-1.7798.7943-.2444.104-.4889.2081-.7323.3143l-.0937.0409c-.5708.2497-1.1432.4999-1.7196.738z" fill="#ffe6e4" fill-rule="evenodd"/></svg>