<svg width="11" height="11" viewBox="0 0 11 11" fill="none" xmlns="http://www.w3.org/2000/svg">
<path fill-rule="evenodd" clip-rule="evenodd" d="M8.21708 5.54402C8.19692 5.57225 8.17676 5.59644 8.15258 5.62466C8.14048 5.64078 8.12839 5.65288 8.11226 5.66094C8.1042 5.669 8.09714 5.67707 8.09009 5.68513C8.08303 5.69319 8.07597 5.70126 8.06791 5.70932L8.02356 5.75367C8.01147 5.76375 8.00038 5.77484 7.98929 5.78592C7.97821 5.79701 7.96712 5.8081 7.95502 5.81818L7.95501 5.81819C7.93889 5.83431 7.92277 5.85043 7.90664 5.86252C7.9006 5.86857 7.89354 5.87462 7.88648 5.88067C7.87943 5.88672 7.87237 5.89276 7.86633 5.89881C7.83811 5.91896 7.81392 5.93912 7.78974 5.95928L7.78973 5.95928C7.7736 5.97541 7.75747 5.98751 7.74135 5.9996C7.73127 6.00565 7.7222 6.0127 7.71312 6.01976C7.70405 6.02682 7.69498 6.03387 7.6849 6.03992L7.64862 6.06411C7.58814 6.10442 7.52767 6.14071 7.46316 6.17699C6.9713 6.45518 6.61651 6.94704 6.53185 7.5276C6.50766 7.68484 6.37058 7.79772 6.21335 7.79772C6.01983 7.79772 5.86662 7.62436 5.89484 7.43084C6.01176 6.64064 6.49959 5.97138 7.17288 5.6045C7.7615 5.26584 8.14451 4.61674 8.10016 3.88298C8.04372 2.96779 7.30593 2.2179 6.39074 2.14936C5.30622 2.06873 4.39507 2.93151 4.39507 3.9999V4.01602C4.39507 4.19745 4.25396 4.34662 4.07253 4.34662C3.89514 4.34662 3.75403 4.20551 3.75 4.02812V3.9999C3.75 2.60494 4.89096 1.48011 6.28995 1.50027C7.6204 1.52043 8.71701 2.60494 8.74926 3.93539C8.76136 4.43935 8.62428 4.91105 8.38238 5.30616C8.38238 5.30817 8.38137 5.30918 8.38036 5.31019C8.37936 5.3112 8.37835 5.3122 8.37835 5.31422C8.36827 5.33035 8.35819 5.34546 8.34811 5.36058C8.33803 5.3757 8.32795 5.39082 8.31787 5.40695C8.31384 5.41299 8.3088 5.42005 8.30376 5.42711C8.29872 5.43416 8.29368 5.44122 8.28965 5.44726C8.28159 5.45734 8.27453 5.46742 8.26748 5.4775C8.26042 5.48758 8.25337 5.49766 8.2453 5.50774C8.24127 5.51379 8.23623 5.51983 8.23119 5.52588C8.22615 5.53193 8.22111 5.53798 8.21708 5.54402ZM5.84764 9.12297C5.77203 9.04736 5.72956 8.94482 5.72956 8.83789C5.72956 8.78494 5.73999 8.73252 5.76025 8.6836C5.78051 8.63469 5.8102 8.59025 5.84764 8.55281C5.88508 8.51537 5.92952 8.48567 5.97844 8.46541C6.02735 8.44515 6.07978 8.43472 6.13272 8.43472C6.18567 8.43472 6.23809 8.44515 6.28701 8.46541C6.33592 8.48567 6.38037 8.51537 6.4178 8.55281C6.45524 8.59025 6.48494 8.63469 6.5052 8.6836C6.52546 8.73252 6.53589 8.78494 6.53589 8.83789C6.53589 8.94482 6.49341 9.04736 6.4178 9.12297C6.3422 9.19858 6.23965 9.24106 6.13272 9.24106C6.0258 9.24106 5.92325 9.19858 5.84764 9.12297Z" fill="white"/>
</svg>
