<svg fill="none" height="14" viewBox="0 0 14 14" width="14" xmlns="http://www.w3.org/2000/svg"><path d="m8.51591 14h-3.03282c-.33787-.1168-.4873-.3547-.52316-.6981-.04676-.4479-.12869-.8923-.19197-1.3388-.01125-.0787-.04254-.125-.11778-.1647-.25034-.1325-.4961-.2725-.73905-.4177-.07172-.0428-.12692-.0479-.20497-.0168-.45812.1835-.91835.3612-1.37823.54-.39343.1527-.68209.0589-.89304-.2941-.439489-.7362-.877218-1.473-1.313189-2.21087-.2102511-.3554-.1455586-.66184.185991-.91385.3871-.29445.773148-.59028 1.163058-.88166.06715-.05033.0879-.10134.08579-.18318-.00703-.27733-.00809-.55536 0-.83269.00246-.08766-.02039-.14073-.09142-.1938-.38991-.29103-.775602-.5872-1.162351-.882-.3252203-.24789-.3906159-.55536-.185639-.90221.438081-.74196.878271-1.4829 1.31952-2.22281.20216-.33897.50804-.4386.88495-.2924.46023.17839.92046.35643 1.37858.53927.08122.03252.14064.03013.21764-.01644.23767-.14414.48027-.28144.72638-.41155.07911-.04178.11391-.09005.12587-.17462.0668-.47833.14063-.95528.20779-1.433601.05309-.379713.29604-.59542024.68911-.59610503.88917-.00171196 1.7787-.00171196 2.66787 0 .39237.00068479.63356.21639203.68771.59816003.06856.482426.13993.964516.21833 1.445576.00879.05479.05942.11847.1097.1486.24224.14586.49398.27666.73552.4232.0781.04725.1371.04725.2176.01541.4539-.18079.9103-.35678 1.366-.53345.4008-.15545.688-.06095.9028.29959.4364.73238.8713 1.46544 1.3055 2.19919.2099.35506.1473.66424-.1821.91522-.3868.2948-.7728.59062-1.1624.88234-.0661.04931-.0921.09758-.09.18078.007.28179.007.56427 0 .84606-.0021.08251.0218.13182.0886.18146.3896.29138.7756.58721 1.1627.88201.3305.252.3938.55947.1839.91453-.4339.73374-.8688 1.46714-1.3047 2.19954-.2152.3612-.5053.4571-.9022.3027-.4599-.1788-.9205-.3561-1.3786-.5393-.0784-.0315-.1336-.0247-.205.0178-.24293.1448-.49327.2777-.73551.4235-.05028.0302-.10231.0932-.1111.1476-.07876.4855-.15084.9724-.21904 1.4593-.03938.2794-.18213.4715-.46129.5612-.01617.0051-.02988.0178-.045.027zm.87686-6.99747c.00211-1.28637-1.06321-2.32759-2.38694-2.33238-1.31952-.0048-2.39081 1.03163-2.39855 2.32108-.00808 1.2891 1.06778 2.33991 2.39398 2.33922 1.32162-.00068 2.3894-1.03984 2.39151-2.32792z" fill="#fff"/></svg>