<svg fill="none" height="20" viewBox="0 0 20 20" width="20" xmlns="http://www.w3.org/2000/svg" xmlns:xlink="http://www.w3.org/1999/xlink"><clipPath id="a"><path d="m0 0h20v20h-20z"/></clipPath><g clip-path="url(#a)"><path d="m6.01445 10.7575-.00047-.0007c-.67581-1.09173-1.04181-2.29184-1.04181-3.56923 0-2.77997 2.24781-5.02778 5.02778-5.02778 2.77995 0 5.02775 2.24781 5.02775 5.02778 0 1.27723-.3659 2.47641-1.0483 3.56683l-.0028.0045c-.3613.5895-.7824 1.1397-1.2247 1.7134-.014.0182-.0281.0364-.0421.0547-.4238.5495-.8661 1.1231-1.2537 1.7408l-.0002.0002c-.3965.6328-.673 1.221-.9693 1.8699l-.0005.0009c-.0405.0893-.0833.198-.1205.2926-.0145.0368-.0281.0715-.0405.1021-.051.1265-.0975.2298-.1475.3138-.0953.16-.1439.1598-.1753.1597-.0008 0-.0016 0-.00235 0-.00079 0-.00158 0-.00239 0-.03143.0001-.08026.0003-.17712-.1611-.05081-.0847-.09801-.1886-.15059-.3162-.01152-.0279-.02401-.0589-.03721-.0916-.03867-.0959-.08341-.2068-.12743-.3006-.29139-.6553-.57469-1.2398-.96888-1.8689-.39405-.632-.84442-1.2161-1.27488-1.7744l-.02146-.0279c-.44282-.5743-.86403-1.1227-1.22554-1.7088zm1.42647-3.37028c0 1.41274 1.14628 2.55903 2.55903 2.55903s2.55905-1.14629 2.55905-2.55903-1.1463-2.55903-2.55905-2.55903-2.55903 1.14629-2.55903 2.55903z" stroke="#feebca" stroke-width="1.125"/></g></svg>