<svg width="12" height="12" viewBox="0 0 12 12" fill="none" xmlns="http://www.w3.org/2000/svg">
<path fill-rule="evenodd" clip-rule="evenodd" d="M1 5.07217C1 2.26804 3.26804 0 6.03093 0C8.79381 0 11.0619 2.26804 10.9381 5.07217C10.9381 5.69072 10.7732 6.35052 10.4021 7.09278C10.0722 7.83505 9.53608 8.65979 8.87629 9.4433C8.42268 9.97938 7.96907 10.5155 7.47423 11.0103L7.02062 11.4639L6.85567 11.6289C6.40206 12.1237 5.57732 12.1237 5.08247 11.6289C5.08247 11.6034 5.05097 11.5779 5.00744 11.5427C4.98053 11.5209 4.94903 11.4954 4.91753 11.4639L4.46392 11.0103C4.42923 10.9725 4.3943 10.9344 4.35917 10.8961C3.93487 10.4335 3.48078 9.93839 3.06186 9.4433C2.4433 8.61856 1.90722 7.83505 1.53608 7.09278C1.20619 6.35052 1 5.69072 1 5.07217ZM8.46392 9.03093C9.12371 8.24742 9.61856 7.50515 9.94845 6.80412C10.2784 6.14433 10.4433 5.56701 10.4433 5.07217C10.4433 2.59794 8.46392 0.618557 6.03093 0.618557C3.59794 0.618557 1.61856 2.59794 1.61856 5.07217C1.61856 5.56701 1.78351 6.14433 2.1134 6.80412C2.48454 7.50515 2.97938 8.24742 3.59794 9.03093C3.90559 9.43087 4.25914 9.80787 4.60723 10.179C4.72572 10.3054 4.84357 10.431 4.95876 10.5567L5.41237 11.0103L5.57732 11.1753C5.82474 11.4227 6.23711 11.4227 6.48454 11.1753L6.64948 11.0103L7.10309 10.5567C7.5567 10.1031 8.0103 9.56702 8.4639 9.03094L8.46392 9.03093ZM3.84531 4.9895C3.84531 3.75239 4.79377 2.7627 6.03088 2.7627C7.26799 2.7627 8.21645 3.75239 8.21645 4.9895C8.21645 6.22661 7.22676 7.2163 6.03088 7.2163C4.835 7.2163 3.84531 6.22661 3.84531 4.9895ZM4.46387 4.94826C4.46387 5.85548 5.1649 6.55651 6.03088 6.55651C6.89686 6.55651 7.59789 5.85548 7.59789 4.94826C7.59789 4.04105 6.89686 3.34002 6.03088 3.34002C5.1649 3.34002 4.46387 4.04105 4.46387 4.94826Z" fill="white" fill-opacity="0.5"/>
</svg>
