<svg width="22" height="22" viewBox="0 0 22 22" fill="none" xmlns="http://www.w3.org/2000/svg">
<path fill-rule="evenodd" clip-rule="evenodd" d="M10.5528 14.6068L12.2542 18.6388C12.3676 18.9231 12.534 19.1772 12.7381 19.398C12.5294 19.4025 12.3268 19.3753 12.1438 19.3073C11.1402 18.894 10.1456 18.4591 9.15132 18.0243C8.99941 17.9579 8.84751 17.8915 8.69558 17.8251C8.23006 17.6222 7.76262 17.4231 7.29515 17.2239C6.16039 16.7406 5.02554 16.2572 3.918 15.7184C0.673959 14.141 -0.00963282 9.79143 2.59921 7.2945C4.17359 5.78667 6.05044 5.44034 8.11634 6.15569C8.19832 6.1849 8.27913 6.21646 8.34815 6.24342C8.38991 6.25973 8.42735 6.27435 8.45813 6.28575C8.5691 6.12167 8.67397 5.95685 8.77759 5.79399C9.00445 5.43745 9.22532 5.09031 9.49108 4.78094C10.4378 3.68145 11.6613 3.09011 13.1147 3.00996C14.9886 2.9056 16.5161 3.62247 17.6186 5.11367C18.7528 6.64872 18.9525 8.3335 18.3143 10.0939C18.1192 10.0939 17.9226 10.1045 17.7229 10.1317C17.7108 10.1166 17.6972 10.1 17.6836 10.0848C16.9199 9.19556 15.893 8.69194 14.7118 8.6269C13.2236 8.54524 11.92 9.15472 11.0398 10.3465C10.1112 11.6017 9.93723 13.1111 10.5528 14.6068ZM15.1398 18.7131C14.6347 18.8991 13.8709 18.6238 13.6592 18.0673L11.9502 14.0171C11.5464 13.0371 11.6296 12.0995 12.2587 11.248C12.8395 10.4631 13.6425 10.0865 14.6286 10.1409C15.3924 10.1833 16.0366 10.4933 16.5342 11.0726C16.6736 11.2348 16.7901 11.4178 16.9097 11.6058C16.9641 11.6912 17.019 11.7776 17.0771 11.8635C17.0819 11.8617 17.0869 11.8597 17.0923 11.8576C17.1347 11.8408 17.1953 11.817 17.2571 11.7955C18.343 11.4189 19.3306 11.6019 20.1593 12.3944C21.5311 13.7086 21.1711 15.9953 19.4652 16.8256C18.8821 17.1102 18.2838 17.365 17.6854 17.6199C17.441 17.7239 17.1965 17.828 16.9531 17.9342L16.8594 17.9751C16.2886 18.2248 15.7162 18.475 15.1398 18.7131Z" fill="#FFE6E4"/>
</svg>
