<svg fill="none" height="22" viewBox="0 0 22 22" width="22" xmlns="http://www.w3.org/2000/svg" xmlns:xlink="http://www.w3.org/1999/xlink"><clipPath id="a"><path d="m0 0h22v22h-22z"/></clipPath><g clip-path="url(#a)"><path clip-rule="evenodd" d="m1.375 11c0 2.5527 1.01406 5.0009 2.8191 6.8059 1.80503 1.805 4.25319 2.8191 6.8059 2.8191 2.5527 0 5.0009-1.0141 6.8059-2.8191s2.8191-4.2532 2.8191-6.8059c0-2.55271-1.0141-5.00087-2.8191-6.8059-1.805-1.80504-4.2532-2.8191-6.8059-2.8191-2.55271 0-5.00087 1.01406-6.8059 2.8191-1.80504 1.80503-2.8191 4.25319-2.8191 6.8059zm20.625 0c0 2.9174-1.1589 5.7153-3.2218 7.7782s-4.8608 3.2218-7.7782 3.2218c-2.91738 0-5.71527-1.1589-7.77817-3.2218s-3.22183-4.8608-3.22183-7.7782c0-2.91738 1.15893-5.71527 3.22183-7.77817s4.86079-3.22183 7.77817-3.22183c2.9174 0 5.7153 1.15893 7.7782 3.22183s3.2218 4.86079 3.2218 7.77817zm-10.3125 4.8125c0 .1823-.0724.3572-.2014.4861-.1289.129-.3038.2014-.4861.2014s-.3572-.0724-.4861-.2014c-.129-.1289-.2014-.3038-.2014-.4861v-7.96538l-2.95075 2.95218c-.12909.129-.30418.2016-.48675.2016s-.35766-.0726-.48675-.2016c-.12909-.1291-.20162-.3042-.20162-.4868s.07253-.35766.20162-.48675l4.12495-4.125c.0639-.06402.1398-.11482.2233-.14948s.1731-.0525.2635-.0525.18.01784.2635.0525.1594.08546.2233.14948l4.125 4.125c.129.12909.2016.30415.2016.48675s-.0726.3577-.2016.4868c-.1291.129-.3042.2016-.4868.2016s-.3577-.0726-.4868-.2016l-2.9507-2.95218z" fill="#d4d6d5" fill-rule="evenodd"/></g></svg>