<svg fill="none" height="22" viewBox="0 0 23 22" width="23" xmlns="http://www.w3.org/2000/svg" xmlns:xlink="http://www.w3.org/1999/xlink"><clipPath id="a"><path d="m.5 0h22v22h-22z"/></clipPath><mask id="b" height="22" maskUnits="userSpaceOnUse" width="23" x="0" y="0"><path d="m16.0412 1.5h-9.34179c-2.96162 0-5.3625 2.40087-5.3625 5.3625v8.25c0 2.9616 2.40088 5.3625 5.3625 5.3625h9.34179c2.9616 0 5.3625-2.4009 5.3625-5.3625v-8.25c0-2.96163-2.4009-5.3625-5.3625-5.3625z" fill="#fff" stroke="#fff" stroke-width="1.3"/></mask><g clip-path="url(#a)"><path d="m16.0412 1.5h-9.34179c-2.96162 0-5.3625 2.40087-5.3625 5.3625v8.25c0 2.9616 2.40088 5.3625 5.3625 5.3625h9.34179c2.9616 0 5.3625-2.4009 5.3625-5.3625v-8.25c0-2.96163-2.4009-5.3625-5.3625-5.3625z" stroke="#d4d6d5" stroke-width="1.3"/><g mask="url(#b)"><path d="m1.55957 17.855 4.43208-3.9627c.34218-.3059.78665-.4723 1.24558-.4664.45893.006.89894.1838 1.23309.4985l2.90948 2.7371c.197.1855.4475.304.7159.3386.2683.0346.5407-.0165.7783-.1461l2.2862-1.2503c.3142-.1718.6718-.2478 1.0287-.2186.3569.0291.6975.1622.9797.3827l3.1671 2.4741" stroke="#d4d6d5" stroke-width="1.3"/></g><path d="m16.5834 8.83859c.6986 0 1.265-.56636 1.265-1.265s-.5664-1.265-1.265-1.265c-.6987 0-1.265.56636-1.265 1.265s.5663 1.265 1.265 1.265z" fill="#d4d6d5"/></g></svg>