<svg fill="none" height="12" viewBox="0 0 12 12" width="12" xmlns="http://www.w3.org/2000/svg"><rect height="11.2" rx=".6" stroke="#fff" stroke-width=".8" width="11.2" x=".4" y=".4"/><g clip-rule="evenodd" fill-rule="evenodd"><path d="m1 0c-.552285 0-1 .447715-1 1v10c0 .5523.447715 1 1 1h10c.5523 0 1-.4477 1-1v-10c0-.552285-.4477-1-1-1zm9.2621 3.07367c.3618.36385.3618.95377 0 1.31762l-4.51042 4.5366c-.22689.2282-.54219.31328-.83499.25524-.18278-.03123-.35804-.11779-.49912-.25968l-2.67946-2.69498c-.36175-.36385-.36175-.95377 0-1.31762.36176-.36385.94828-.36385 1.31003 0l2.03869 2.05051 3.86529-3.88769c.36176-.36385.94828-.36385 1.30998 0z" fill="#ff8a15"/><path d="m1 0c-.552285 0-1 .447715-1 1v10c0 .5523.447715 1 1 1h10c.5523 0 1-.4477 1-1v-10c0-.552285-.4477-1-1-1zm9.2621 3.07367c.3618.36385.3618.95377 0 1.31762l-4.51042 4.5366c-.22689.2282-.54219.31328-.83499.25524-.18278-.03123-.35804-.11779-.49912-.25968l-2.67946-2.69498c-.36175-.36385-.36175-.95377 0-1.31762.36176-.36385.94828-.36385 1.31003 0l2.03869 2.05051 3.86529-3.88769c.36176-.36385.94828-.36385 1.30998 0z" fill="#fff"/></g></svg>