<svg fill="none" height="11" viewBox="0 0 11 11" width="11" xmlns="http://www.w3.org/2000/svg"><path clip-rule="evenodd" d="m8.21708 5.54402c-.02016.02823-.04032.05242-.0645.08064-.0121.01612-.02419.02822-.04032.03628-.00806.00806-.01512.01613-.02217.02419-.00706.00806-.01412.01613-.02218.02419l-.04435.04435c-.01209.01008-.02318.02117-.03427.03225-.01108.01109-.02217.02218-.03427.03226l-.00001.00001c-.01612.01612-.03224.03224-.04837.04433-.00604.00605-.0131.0121-.02016.01815-.00705.00605-.01411.01209-.02015.01814-.02822.02015-.05241.04031-.07659.06047h-.00001c-.01613.01613-.03226.02823-.04838.04032-.01008.00605-.01915.0131-.02823.02016-.00907.00706-.01814.01411-.02822.02016l-.03628.02419c-.06048.04031-.12095.0766-.18546.11288-.49186.27819-.84665.77005-.93131 1.35061-.02419.15724-.16127.27012-.3185.27012-.19352 0-.34673-.17336-.31851-.36688.11692-.7902.60475-1.45946 1.27804-1.82634.58862-.33866.97163-.98776.92728-1.72152-.05644-.91519-.79423-1.66508-1.70942-1.73362-1.08452-.08063-1.99567.78215-1.99567 1.85054v.01612c0 .18143-.14111.3306-.32254.3306-.17739 0-.3185-.14111-.32253-.3185v-.02822c0-1.39496 1.14096-2.51979 2.53995-2.49963 1.33045.02016 2.42706 1.10467 2.45931 2.43512.0121.50396-.12498.97566-.36688 1.37077 0 .00201-.00101.00302-.00202.00403-.001.00101-.00201.00201-.00201.00403-.01008.01613-.02016.03124-.03024.04636s-.02016.03024-.03024.04637c-.00403.00604-.00907.0131-.01411.02016-.00504.00705-.01008.01411-.01411.02015-.00806.01008-.01512.02016-.02217.03024-.00706.01008-.01411.02016-.02218.03024-.00403.00605-.00907.01209-.01411.01814s-.01008.0121-.01411.01814zm-2.36944 3.57895c-.07561-.07561-.11808-.17815-.11808-.28508 0-.05295.01043-.10537.03069-.15429.02026-.04891.04995-.09335.08739-.13079s.08188-.06714.1308-.0874c.04891-.02026.10134-.03069.15428-.03069.05295 0 .10537.01043.15429.03069.04891.02026.09336.04996.13079.0874.03744.03744.06714.08188.0874.13079.02026.04892.03069.10134.03069.15429 0 .10693-.04248.20947-.11809.28508-.0756.07561-.17815.11809-.28508.11809-.10692 0-.20947-.04248-.28508-.11809z" fill="#fff" fill-rule="evenodd"/></svg>