<svg fill="none" height="22" viewBox="0 0 22 22" width="22" xmlns="http://www.w3.org/2000/svg"><path d="m20.0704 2h-18.14076c-.51326 0-.92964.41638-.92964.92964s.41638.92964.92964.92964h.67811v9.73492c0 1.2831 1.04011 2.3232 2.32325 2.3232h2.46261l-2.64956 2.551c-.08795.0846-.15838.1856-.20727.2974-.04888.1118-.07526.2322-.07763.3542-.00236.122.01933.2432.06384.3569.04451.1136.11096.2173.19557.3052.08671.0902.1907.1619.30574.2109.11505.0491.2388.0745.36387.0746.23284 0 .46397-.0866.64412-.26l4.03981-3.8902h2.0598l3.9276 3.8817c.1756.173.4126.2694.6591.2681.2465-.0012.4825-.1001.6563-.2749.173-.1756.2694-.4126.2681-.6591-.0012-.2465-.1001-.4825-.2749-.6563l-2.5901-2.5595h2.1567c1.2832 0 2.3233-1.0401 2.3233-2.3232v-9.73492h.8124c.5132 0 .9296-.41638.9296-.92964s-.4147-.92964-.9296-.92964zm-7.8518 5.06628c0 .51326-.4164.92964-.9297.92964h-4.88271c-.51326 0-.92964-.41638-.92964-.92964 0-.51325.41638-.92964.92964-.92964h4.88271c.5133 0 .9297.41639.9297.92964zm3.139 5.06632h-8.95141c-.51326 0-.92964-.4164-.92964-.9297 0-.5132.41638-.9296.92964-.9296h8.95141c.5132 0 .9296.4164.9296.9296 0 .5133-.4164.9297-.9296.9297z" fill="#d8fff9"/></svg>