<svg width="22" height="22" viewBox="0 0 22 22" fill="none" xmlns="http://www.w3.org/2000/svg">
<path fill-rule="evenodd" clip-rule="evenodd" d="M19.6278 7.118C20.9399 7.30907 21.4654 8.92206 20.5148 9.84878L17.5181 12.769C17.1407 13.1369 16.9687 13.6671 17.0579 14.1862L17.7649 18.3071C17.9894 19.6159 16.6168 20.6127 15.4433 19.9949L11.7428 18.0491C11.2779 17.8039 10.7206 17.8039 10.254 18.0491L6.55352 19.9949C5.37999 20.6111 4.00744 19.6143 4.23195 18.3071L4.93893 14.1862C5.0281 13.6671 4.85613 13.1369 4.47876 12.769L1.48524 9.85037C0.534642 8.92366 1.0601 7.31066 2.37215 7.11959L6.50893 6.5177C6.76585 6.48055 7.00985 6.38139 7.21986 6.22881C7.42987 6.07622 7.59957 5.8748 7.7143 5.64194L9.56454 1.89208C10.1521 0.702639 11.8479 0.702639 12.4355 1.89208L13.3447 3.73278L8.55185 10.1179C8.45949 10.2405 8.3958 10.3838 8.36714 10.5351L7.82417 13.363C7.6729 14.1448 8.44198 14.7865 9.18399 14.4999L12.0788 13.3821C12.256 13.3134 12.4105 13.1965 12.5246 13.0445L17.1152 6.92851C17.1534 6.87756 17.1853 6.82342 17.2123 6.76769L19.6278 7.118ZM9.95287 10.5177L11.6678 11.7995L17.4621 4.05136C17.5609 3.9192 17.5338 3.7329 17.4016 3.63418L16.1644 2.70905C16.0322 2.61033 15.846 2.6374 15.7472 2.76956L9.95287 10.5177ZM11.2474 12.2326L9.64237 10.9858L9.17901 12.8583C9.12646 13.0749 9.35576 13.2532 9.55161 13.1465L11.2474 12.2326Z" fill="#CFEDFF"/>
</svg>
