<svg width="22" height="22" viewBox="0 0 22 22" fill="none" xmlns="http://www.w3.org/2000/svg">
<path d="M18.6322 2.67453H12.0118V2.01597C12.0118 1.45503 11.5568 1 10.9959 1C10.4349 1 9.9799 1.45503 9.9799 2.01597V2.67453H2.72417C1.77108 2.67453 1 3.44726 1 4.39869V14.3002C1 15.2533 1.77273 16.0244 2.72417 16.0244H7.18019L5.28063 19.4942C5.21643 19.6113 5.17595 19.74 5.16149 19.8727C5.14704 20.0055 5.1589 20.1398 5.1964 20.2679C5.2339 20.3961 5.2963 20.5156 5.38003 20.6197C5.46376 20.7237 5.56718 20.8102 5.68437 20.8742C5.83991 20.9586 6.00703 21 6.17085 21C6.52991 21 6.87904 20.8081 7.06437 20.4705L9.49839 16.0244H12.7664L15.2004 20.4705C15.288 20.6309 15.4173 20.7647 15.5745 20.8578C15.7317 20.951 15.9111 21.0001 16.0939 21C16.2594 21 16.4265 20.9603 16.5804 20.8742C16.6976 20.8102 16.801 20.7237 16.8847 20.6197C16.9684 20.5156 17.0308 20.3961 17.0683 20.2679C17.1058 20.1398 17.1177 20.0055 17.1033 19.8727C17.0888 19.74 17.0483 19.6113 16.9841 19.4942L15.0846 16.0244H18.6322C19.5853 16.0244 20.3563 15.2517 20.3563 14.3002V4.39869C20.3563 3.4456 19.5836 2.67453 18.6322 2.67453ZM11.762 12.672H5.72739C5.16646 12.672 4.71143 12.217 4.71143 11.6561C4.71143 11.0951 5.16646 10.6401 5.72739 10.6401H11.762C12.3229 10.6401 12.7779 11.0951 12.7779 11.6561C12.7796 12.217 12.3246 12.672 11.762 12.672ZM15.5164 8.28882H5.72739C5.16646 8.28882 4.71143 7.83379 4.71143 7.27285C4.71143 6.71192 5.16646 6.25689 5.72739 6.25689H15.5181C16.079 6.25689 16.534 6.71192 16.534 7.27285C16.534 7.83379 16.079 8.28882 15.5164 8.28882Z" fill="#FBEDDA"/>
</svg>
