<svg width="48" height="14" viewBox="0 0 48 14" fill="none" xmlns="http://www.w3.org/2000/svg">
<path d="M0 5C0 2.23858 2.23858 0 5 0H47C47.5523 0 48 0.447715 48 1V9C48 11.7614 45.7614 14 43 14H0.999999C0.447714 14 0 13.5523 0 13V5Z" fill="url(#paint0_linear_4520_6886)" fill-opacity="0.8"/>
<path d="M6.28979 4.64008V11.2901H7.03979V4.64008H6.28979ZM6.67979 4.64008V5.30008H10.9698V6.54008H6.67979V7.20008H11.7198V4.64008H6.67979ZM6.65979 8.16008V8.83008H11.5598V11.2501H12.2998V8.16008H6.65979ZM6.67979 10.1801V10.8501H11.9798V10.1801H6.67979ZM8.57979 2.12008V3.60008H9.36979V2.12008H8.57979ZM4.77979 2.98008V5.15008H5.50979V3.69008H12.4398V5.15008H13.1998V2.98008H4.77979Z" fill="white" fill-opacity="0.8"/>
<path d="M14.5198 3.83008V4.55008H23.4698V3.83008H14.5198ZM17.7898 6.20008V6.92008H21.7898V6.20008H17.7898ZM21.5198 6.20008L21.5098 6.33008C21.3398 9.07008 21.1398 10.1901 20.8198 10.4801C20.7098 10.5801 20.5698 10.5901 20.3498 10.5901C20.0898 10.5901 19.3798 10.5901 18.6598 10.5201C18.7998 10.7301 18.9098 11.0401 18.9198 11.2601C19.5998 11.2901 20.2598 11.3101 20.6098 11.2901C20.9898 11.2601 21.2398 11.1901 21.4698 10.9501C21.8598 10.5501 22.0598 9.44008 22.2598 6.56008C22.2798 6.45008 22.2898 6.20008 22.2898 6.20008H21.5198ZM17.6198 4.23008C17.5098 6.62008 17.3398 9.41008 14.4198 10.7301C14.6098 10.8801 14.8498 11.1501 14.9598 11.3401C18.0098 9.88008 18.2998 6.88008 18.4498 4.23008H17.6198ZM18.5698 2.08008V4.14008H19.3398V2.08008H18.5698Z" fill="white" fill-opacity="0.8"/>
<path d="M28.6398 6.02008V6.67008H33.1898V6.02008H28.6398ZM28.6398 8.03008V8.69008H33.1898V8.03008H28.6398ZM28.5698 10.0901V10.7801H33.5998V10.0901H28.5698ZM30.6798 4.33008V10.3401H31.3798V4.33008H30.6798ZM31.3698 2.13008C31.1798 2.80008 30.8198 3.77008 30.5098 4.36008L31.1398 4.54008C31.4498 3.98008 31.8498 3.08008 32.1598 2.31008L31.3698 2.13008ZM29.0698 2.09008C28.6598 3.54008 27.9598 4.93008 27.0798 5.81008C27.2298 5.96008 27.4798 6.29008 27.5898 6.43008C28.5198 5.43008 29.3098 3.88008 29.7898 2.27008L29.0698 2.09008ZM28.7398 4.00008L28.3298 4.41008V11.2901H29.0498V4.67008H33.4298V4.00008H28.7398ZM24.2698 7.42008L24.4398 8.16008C25.3298 7.89008 26.4798 7.53008 27.5698 7.19008L27.4798 6.52008C26.2998 6.86008 25.0798 7.22008 24.2698 7.42008ZM24.4398 4.12008V4.82008H27.4898V4.12008H24.4398ZM25.7998 2.11008V10.3901C25.7998 10.5401 25.7398 10.5801 25.6098 10.5801C25.4898 10.5901 25.0698 10.5901 24.6198 10.5701C24.7198 10.7801 24.8198 11.1101 24.8498 11.3001C25.4998 11.3001 25.9098 11.2801 26.1698 11.1501C26.4298 11.0301 26.5198 10.8201 26.5198 10.3901V2.11008H25.7998Z" fill="white" fill-opacity="0.8"/>
<path d="M34.5898 4.96008V5.63008H43.4098V4.96008H34.5898ZM38.0898 6.33008V6.95008H42.1998V6.33008H38.0898ZM37.3898 8.39008V9.04008H43.4998V8.39008H37.3898ZM37.7598 3.93008C37.0398 5.73008 35.7898 7.31008 34.2698 8.27008C34.4298 8.41008 34.6898 8.73008 34.7998 8.88008C36.3498 7.80008 37.6598 6.12008 38.4898 4.12008L37.7598 3.93008ZM40.1098 7.64008V10.5001C40.1098 10.6301 40.0598 10.6601 39.9098 10.6701C39.7698 10.6701 39.2598 10.6701 38.6998 10.6501C38.7998 10.8501 38.9098 11.1201 38.9398 11.3001C39.6898 11.3001 40.1598 11.3001 40.4598 11.1901C40.7498 11.0901 40.8298 10.9001 40.8298 10.5101V7.64008H40.1098ZM41.9498 6.33008V6.47008C41.5598 6.90008 40.8098 7.46008 40.1598 7.78008C40.2698 7.88008 40.4598 8.07008 40.5498 8.20008C41.2898 7.83008 42.1398 7.23008 42.7198 6.65008L42.2598 6.29008L42.1198 6.33008H41.9498ZM36.8698 2.11008V4.38008H37.6098V2.11008H36.8698ZM40.3198 2.11008V4.38008H41.0498V2.11008H40.3198ZM34.6098 2.84008V3.51008H43.4098V2.84008H34.6098ZM35.9998 7.08008V11.3001H36.7098V6.61008L36.5098 6.55008L35.9998 7.08008Z" fill="white" fill-opacity="0.8"/>
<defs>
<linearGradient id="paint0_linear_4520_6886" x1="30.6592" y1="-0.447222" x2="29.1697" y2="13.7473" gradientUnits="userSpaceOnUse">
<stop stop-color="#FEA96B"/>
<stop offset="1" stop-color="#FF6422"/>
<stop offset="1" stop-color="#F17922"/>
</linearGradient>
</defs>
</svg>
