<svg width="16" height="16" viewBox="0 0 16 16" fill="none" xmlns="http://www.w3.org/2000/svg">
<path d="M1.6001 0H14.4001V15.5489C14.4001 15.7453 14.1841 15.865 14.0176 15.7609L8.5301 12.3312C8.20583 12.1286 7.79437 12.1286 7.4701 12.3312L1.9826 15.7609C1.81609 15.865 1.6001 15.7453 1.6001 15.5489V0Z" fill="#BC0C20"/>
<path d="M9.77325 4.33484V4.05584H11.3033V3.29084H9.77325V3.01184H11.5013V2.20184H9.77325V1.64384L8.78325 1.58984V2.20184H7.35225V3.01184H8.78325V3.29084H7.39725V4.05584H8.78325V4.33484H7.06425V5.11784H11.8343V4.33484H9.77325ZM7.25325 6.85484C6.98325 6.48584 6.61425 6.01784 6.39825 5.75684L6.11025 6.01784V5.38784H6.90225V4.36184H6.11025V3.97484L6.71325 4.21784C6.88425 3.78584 7.15425 2.98484 7.32525 2.43584L6.54225 2.19284C6.43425 2.52584 6.26325 3.03884 6.11025 3.47984V1.67984L5.13825 1.62584V3.63284C4.99425 3.15584 4.77825 2.49884 4.67925 2.19284L3.88725 2.49884C4.03125 2.88584 4.28325 3.69584 4.42725 4.19984L5.13825 3.95684V4.36184H4.07625V5.38784H4.98525C4.67025 6.21584 4.17525 6.91784 3.63525 7.52984L4.40925 8.28584C4.69725 7.91684 4.93125 7.55684 5.13825 7.18784V9.59084H6.11025V6.92684C6.31725 7.20584 6.50625 7.47584 6.65925 7.71884L7.25325 7.19684V9.55484H8.20725V8.33084H10.3043C10.3043 8.57384 10.3043 8.65484 9.98925 8.69084L9.53025 8.74484L9.85425 9.62684L10.3313 9.57284C11.0603 9.50084 11.2763 9.30284 11.2763 8.60084V5.39684H7.25325V6.85484ZM10.3043 6.18884V6.46784H8.20725V6.18884H10.3043ZM8.20725 7.24184H10.3043V7.52084H8.20725V7.24184Z" fill="white"/>
</svg>
