<svg width="48" height="14" viewBox="0 0 48 14" fill="none" xmlns="http://www.w3.org/2000/svg">
<path opacity="0.8" d="M0 5C0 2.23858 2.23858 0 5 0H47C47.5523 0 48 0.447715 48 1V9C48 11.7614 45.7614 14 43 14H0.999999C0.447714 14 0 13.5523 0 13V5Z" fill="url(#paint0_linear_4520_6893)"/>
<path d="M5.76988 3.93984V4.65984H13.4099V3.93984H5.76988ZM5.41988 3.93984V6.65984C5.41988 8.07984 5.32988 9.99984 4.37988 11.3698C4.54988 11.4598 4.85988 11.7198 4.97988 11.8698C6.00988 10.3998 6.16988 8.18984 6.16988 6.66984V3.93984H5.41988ZM8.88988 2.60984V4.34984H9.65988V2.60984H8.88988Z" fill="white" fill-opacity="0.8"/>
<path d="M14.4999 5.04984V5.75984H17.5299V5.04984H14.4999ZM15.7199 2.71984V9.41984H16.4299V2.71984H15.7199ZM14.3499 9.70984L14.5999 10.4698C15.4699 10.1398 16.5999 9.68984 17.6499 9.25984L17.5099 8.57984C16.3499 9.00984 15.1499 9.45984 14.3499 9.70984ZM17.7499 3.07984V3.78984H21.9299V3.07984H17.7499ZM22.6499 5.82984V5.98984C22.4599 9.33984 22.2399 10.5998 21.9599 10.8998C21.8599 11.0298 21.7699 11.0498 21.6099 11.0498C21.4399 11.0498 21.0599 11.0398 20.6499 10.9998C20.7599 11.1998 20.8399 11.5098 20.8499 11.7198C21.2799 11.7398 21.6799 11.7398 21.9299 11.7098C22.2199 11.6898 22.4099 11.6098 22.6099 11.3698C22.9599 10.9498 23.1699 9.71984 23.3699 6.19984C23.3899 6.08984 23.3999 5.82984 23.3999 5.82984H22.6499ZM18.0999 6.65984C18.0999 6.50984 18.6299 6.29984 18.6299 6.29984V6.27984C19.8299 5.61984 21.1399 4.63984 22.4899 3.42984L21.9199 3.00984L21.5599 3.15984V3.20984C20.5899 4.23984 19.1999 5.20984 18.7899 5.45984C18.4099 5.70984 18.0399 5.91984 17.7799 5.95984C17.8899 6.13984 18.0499 6.49984 18.0999 6.65984ZM18.0999 6.65984C18.1899 6.57984 18.5099 6.53984 18.9699 6.53984H22.9099V5.82984H18.5299L18.0999 6.03984V6.65984ZM21.3299 6.22984C20.7199 8.51984 19.5599 10.2998 17.7899 11.3598C17.9599 11.4598 18.2399 11.6698 18.3599 11.7898C20.0899 10.6298 21.3099 8.80984 21.9899 6.35984L21.3299 6.22984ZM19.7899 6.23984C19.3999 7.47984 18.6099 8.51984 17.6099 9.15984C17.7699 9.25984 18.0499 9.47984 18.1699 9.58984C19.1699 8.86984 20.0099 7.74984 20.4499 6.37984L19.7899 6.23984Z" fill="white" fill-opacity="0.8"/>
<path d="M28.6399 6.51984V7.16984H33.1899V6.51984H28.6399ZM28.6399 8.52984V9.18984H33.1899V8.52984H28.6399ZM28.5699 10.5898V11.2798H33.5999V10.5898H28.5699ZM30.6799 4.82984V10.8398H31.3799V4.82984H30.6799ZM31.3699 2.62984C31.1799 3.29984 30.8199 4.26984 30.5099 4.85984L31.1399 5.03984C31.4499 4.47984 31.8499 3.57984 32.1599 2.80984L31.3699 2.62984ZM29.0699 2.58984C28.6599 4.03984 27.9599 5.42984 27.0799 6.30984C27.2299 6.45984 27.4799 6.78984 27.5899 6.92984C28.5199 5.92984 29.3099 4.37984 29.7899 2.76984L29.0699 2.58984ZM29.0499 4.49984H28.7399L28.3299 4.90984V11.7898H29.0499V5.16984H33.4299V4.49984H29.0499ZM24.2699 7.91984L24.4399 8.65984C25.3299 8.38984 26.4799 8.02984 27.5699 7.68984L27.4799 7.01984C26.2999 7.35984 25.0799 7.71984 24.2699 7.91984ZM24.4399 4.61984V5.31984H27.4899V4.61984H24.4399ZM25.7999 2.60984V10.8898C25.7999 11.0398 25.7399 11.0798 25.6099 11.0798C25.4899 11.0898 25.0699 11.0898 24.6199 11.0698C24.7199 11.2798 24.8199 11.6098 24.8499 11.7998C25.4999 11.7998 25.9099 11.7798 26.1699 11.6498C26.4299 11.5298 26.5199 11.3198 26.5199 10.8898V2.60984H25.7999Z" fill="white" fill-opacity="0.8"/>
<path d="M34.5899 5.45984V6.12984H43.4099V5.45984H34.5899ZM38.0899 6.82984V7.44984H42.1999V6.82984H38.0899ZM37.3899 8.88984V9.53984H43.4999V8.88984H37.3899ZM37.7599 4.42984C37.0399 6.22984 35.7899 7.80984 34.2699 8.76984C34.4299 8.90984 34.6899 9.22984 34.7999 9.37984C36.3499 8.29984 37.6599 6.61984 38.4899 4.61984L37.7599 4.42984ZM40.1099 8.13984V10.9998C40.1099 11.1298 40.0599 11.1598 39.9099 11.1698C39.7699 11.1698 39.2599 11.1698 38.6999 11.1498C38.7999 11.3498 38.9099 11.6198 38.9399 11.7998C39.6899 11.7998 40.1599 11.7998 40.4599 11.6898C40.7499 11.5898 40.8299 11.3998 40.8299 11.0098V8.13984H40.1099ZM41.9499 6.82984V6.96984C41.5599 7.39984 40.8099 7.95984 40.1599 8.27984C40.2699 8.37984 40.4599 8.56984 40.5499 8.69984C41.2899 8.32984 42.1399 7.72984 42.7199 7.14984L42.2599 6.78984L42.1199 6.82984H41.9499ZM36.8699 2.60984V4.87984H37.6099V2.60984H36.8699ZM40.3199 2.60984V4.87984H41.0499V2.60984H40.3199ZM34.6099 3.33984V4.00984H43.4099V3.33984H34.6099ZM35.9999 7.57984V11.7998H36.7099V7.10984L36.5099 7.04984L35.9999 7.57984Z" fill="white" fill-opacity="0.8"/>
<defs>
<linearGradient id="paint0_linear_4520_6893" x1="30" y1="8.63333" x2="27.8296" y2="1.30331" gradientUnits="userSpaceOnUse">
<stop stop-color="#3C4DFF"/>
<stop offset="1" stop-color="#5B69FF"/>
</linearGradient>
</defs>
</svg>
