<svg width="16" height="16" viewBox="0 0 16 16" fill="none" xmlns="http://www.w3.org/2000/svg">
<path d="M8.02635 4.21071C5.1319 4.21071 2.78561 6.59431 2.78561 9.53484C2.78561 12.4754 5.13217 14.859 8.02635 14.859C10.9213 14.859 13.2674 12.4754 13.2674 9.53484C13.2674 6.59431 10.9213 4.21071 8.02635 4.21071ZM10.7213 9.05966L9.68812 10.083L9.93202 11.528C10.0141 12.0131 9.74107 12.2252 9.30375 11.9917L8.02635 11.3094L6.7495 11.9917C6.32068 12.2208 6.03782 12.023 6.12123 11.528L6.3654 10.083L5.3319 9.05966C4.98484 8.71616 5.08279 8.382 5.57197 8.30985L6.99999 8.09887L7.63841 6.78471C7.85296 6.343 8.19645 6.33422 8.41484 6.78471L9.05381 8.09887L10.4816 8.30985C10.9609 8.38063 11.0753 8.70958 10.7213 9.05966ZM12.9258 1.14124H9.6851C9.51007 1.14124 9.36987 1.26552 9.32872 1.43013L8.33006 3.431C8.33006 3.431 10.4687 3.56214 11.7321 4.79783L13.2243 1.73933C13.2685 1.67678 13.3 1.60435 13.3 1.52149C13.3 1.31161 13.1324 1.14124 12.9258 1.14124ZM7.66996 3.43127L6.67131 1.43013C6.63016 1.26552 6.48969 1.14124 6.31492 1.14124H3.07451C2.86737 1.14124 2.70001 1.31133 2.70001 1.52149C2.70001 1.60435 2.73156 1.67678 2.77573 1.7396L4.26768 4.79783C5.53136 3.56214 7.66996 3.43127 7.66996 3.43127Z" fill="url(#paint0_linear_577_15013)"/>
<defs>
<linearGradient id="paint0_linear_577_15013" x1="8.04347" y1="1.18534" x2="8.04347" y2="14.9033" gradientUnits="userSpaceOnUse">
<stop stop-color="#FFFCF3"/>
<stop offset="1" stop-color="#FFE1B4"/>
</linearGradient>
</defs>
</svg>
