<svg fill="none" height="14" viewBox="0 0 13 14" width="13" xmlns="http://www.w3.org/2000/svg" xmlns:xlink="http://www.w3.org/1999/xlink"><linearGradient id="a" gradientUnits="userSpaceOnUse" x1="6.50001" x2="6.5" y1="-.000017" y2="14"><stop offset="0" stop-color="#8e8e8e"/><stop offset="1" stop-color="#4e4e4e"/></linearGradient><clipPath id="b"><path d="m.5 0h12v14h-12z"/></clipPath><g clip-path="url(#b)"><path d="m7.17373 8.33333c0 .36767-.30251.66667-.67375.66667-.37158 0-.67376-.299-.67376-.66667 0-.36766.30218-.66666.67376-.66666.37124 0 .67375.299.67375.66666zm5.05357 0c0 3.12467-2.56942 5.66667-5.72732 5.66667-3.15824 0-5.727275-2.542-5.727275-5.66667 0-3.12466 2.569035-5.66666 5.727275-5.66666 3.1579 0 5.72732 2.542 5.72732 5.66666zm-4.37981 0c0-.61933-.43087-1.13666-1.01063-1.286v-2.714c0-.0884-.0355-.17319-.09867-.2357-.06318-.06251-.14887-.09763-.23821-.09763-.08935 0-.17503.03512-.23821.09763s-.09867.1473-.09867.2357v2.714c-.57977.14934-1.01064.66667-1.01064 1.286 0 .73534.60436 1.33334 1.34752 1.33334.74315 0 1.34751-.598 1.34751-1.33334zm-2.35815-7.666663h.33688v1.000003c0 .36766.30218.66666.67376.66666.37124 0 .67375-.299.67375-.66666v-1.000003h.33688c.04424 0 .08805-.008622.12892-.025374.04087-.016751.07801-.041305.10929-.072257.03128-.030953.0561-.0677.07303-.108142.01693-.040441.02564-.083787.02564-.127561s-.00871-.087119-.02564-.127561-.04175-.077188-.07303-.1081409-.06842-.055506-.10929-.0722576c-.04087-.01675158-.08468-.0253735-.12892-.0253735h-2.02127c-.04424 0-.08804.00862192-.12892.0253735-.04087.0167516-.078.0413047-.10929.0722576-.03128.0309529-.05609.0676989-.07302.1081409s-.02565.083787-.02565.127561.00872.08712.02565.127561c.01693.040442.04174.077189.07302.108142.03129.030952.06842.055506.10929.072257.04088.016752.08468.025374.12892.025374zm5.72726 3.333333c.0443.00012.0881-.00845.129-.02522.0409-.01676.078-.04139.1092-.07245l.6737-.66666c.0614-.06287.0954-.14707.0946-.23447s-.0362-.171-.0987-.23281c-.0624-.0618-.1469-.09686-.2352-.09761-.0884-.00076-.1735.03283-.237.09355l-.6738.66667c-.0472.04655-.0794.10595-.0925.17066s-.0065.1318.019.19276c.0256.06097.0688.11306.1243.14966s.1207.05607.1874.05592z" fill="url(#a)"/></g></svg>