<svg fill="none" height="14" viewBox="0 0 14 14" width="14" xmlns="http://www.w3.org/2000/svg"><ellipse cx="7" cy="6.99928" fill="#47d0df" rx="7" ry="7.00001"/><path d="m7.12642 2.79992v-.00002l-.00108-.00002c-.83818-.01524-1.49401.19809-1.94395.64027l-.00002.00002c-.48831.48055-.73137 1.22749-.73137 2.20756v.00755h-.00023l.00046.00474c.0085.0893.05225.21296.147.31492.09616.10347.24327.18282.4533.18282.21055 0 .3545-.08169.44606-.18799.09003-.10452.12754-.23049.13178-.31966l.00014.00001-.00009-.00364c-.01492-.59681.11983-1.02507.38458-1.28265.2501-.24294.64085-.36232 1.16754-.3329.35724.04074.61935.15792.79615.34893.17625.19042.27366.46062.28913.81994-.02574.15517-.10632.33908-.24441.55173-.13918.21434-.33493.45507-.58621.72138-.69632.71908-1.06212 1.37968-1.06212 1.97268v.58069h-.00062l.00123.0078c.01273.08064.05645.19233.14655.2845.09139.09349.22869.16493.4232.16493.38604 0 .54449-.28946.56975-.44943l.00061.00009v-.00789-.40724c0-.20651.07669-.44259.23598-.70561.15909-.26268.39894-.5495.721-.85662.71213-.65161 1.07922-1.27484 1.07927-1.85402l-.0001-.00226c-.0343-.75845-.25197-1.3452-.65952-1.74983-.40753-.40462-.99805-.6203-1.76401-.65078zm-.15282 7.09641c-.37452 0-.68348.30897-.68348.68347v.1433c0 .3753.30975.6759.68348.6759.37374 0 .68349-.3006.68349-.6759v-.1433c0-.3745-.30896-.68347-.68349-.68347z" fill="#fff" stroke="#fff" stroke-width=".1"/></svg>