<svg fill="none" height="12" viewBox="0 0 12 12" width="12" xmlns="http://www.w3.org/2000/svg"><path clip-rule="evenodd" d="m1 5.07217c0-2.80413 2.26804-5.07217 5.03093-5.07217 2.76288 0 5.03097 2.26804 4.90717 5.07217 0 .61855-.1649 1.27835-.536 2.02061-.3299.74227-.86602 1.56701-1.52581 2.35052-.45361.53608-.90722 1.0722-1.40206 1.567l-.45361.4536-.16495.165c-.45361.4948-1.27835.4948-1.7732 0 0-.0255-.0315-.051-.07503-.0862-.02691-.0218-.05841-.0473-.08991-.0788l-.45361-.4536c-.03469-.0378-.06962-.0759-.10475-.1142-.4243-.4626-.87839-.95771-1.29731-1.4528-.61856-.82474-1.15464-1.60825-1.52578-2.35052-.32989-.74226-.53608-1.40206-.53608-2.02061zm7.46392 3.95876c.65979-.78351 1.15464-1.52578 1.48453-2.22681.32995-.65979.49485-1.23711.49485-1.73195 0-2.47423-1.97938-4.453613-4.41237-4.453613s-4.41237 1.979383-4.41237 4.453613c0 .49484.16495 1.07216.49484 1.73195.37114.70103.86598 1.4433 1.48454 2.22681.30765.39994.6612.77694 1.00929 1.14807.11849.1264.23634.252.35153.3777l.45361.4536.16495.165c.24742.2474.65979.2474.90722 0l.16494-.165.45361-.4536c.45361-.4536.90721-.98968 1.36081-1.52576zm-4.61861-4.04143c0-1.23711.94846-2.2268 2.18557-2.2268s2.18557.98969 2.18557 2.2268-.98969 2.2268-2.18557 2.2268-2.18557-.98969-2.18557-2.2268zm.61856-.04124c0 .90722.70103 1.60825 1.56701 1.60825s1.56701-.70103 1.56701-1.60825c0-.90721-.70103-1.60824-1.56701-1.60824s-1.56701.70103-1.56701 1.60824z" fill="#fff" fill-opacity=".5" fill-rule="evenodd"/></svg>