<svg width="12" height="12" viewBox="0 0 12 12" fill="none" xmlns="http://www.w3.org/2000/svg">
<path d="M8.92735 11C8.80222 11 8.67709 10.9687 8.54153 10.8957L6.43516 9.79042C6.38302 9.75914 6.31003 9.73828 6.22662 9.73828C6.15363 9.73828 6.07021 9.75914 6.01807 9.77999L3.92214 10.8957C3.79701 10.9687 3.67188 11 3.52589 11C3.27563 11 3.0358 10.8853 2.86895 10.6976C2.70211 10.5099 2.63955 10.2597 2.68125 10.0094L3.08794 7.67363C3.10879 7.52765 3.05665 7.38166 2.95237 7.27739L1.26312 5.64026C1.02329 5.41086 0.939868 5.07717 1.04414 4.76434C1.14841 4.45151 1.40911 4.23253 1.73236 4.18039L4.06812 3.83628C4.21411 3.81543 4.34966 3.72158 4.41222 3.59645L5.45497 1.46924C5.60096 1.17727 5.89293 1 6.21618 1C6.53943 1 6.83141 1.17727 6.97739 1.46924L8.02014 3.59645C8.09314 3.73202 8.21827 3.81543 8.36425 3.83628L10.7 4.1804C11.0233 4.23254 11.284 4.45152 11.3882 4.75392C11.4925 5.06674 11.4091 5.40042 11.1797 5.62984L9.50086 7.27738C9.38615 7.38165 9.34445 7.52764 9.36529 7.67362L9.76154 9.99896C9.80325 10.2492 9.74068 10.4995 9.57384 10.6872C9.41744 10.8853 9.17761 11 8.92735 11Z" fill="#515153"/>
</svg>
