<svg fill="none" height="12" viewBox="0 0 12 12" width="12" xmlns="http://www.w3.org/2000/svg"><path d="m8.2885 1.10205c1.7734 0 3.2115 1.43811 3.2115 3.21148 0 .64868-.2056 1.32497-.5886 2.023-.3296.60087-.7865 1.21042-1.3491 1.82357-.8533.92995-1.8672 1.78721-2.87286 2.5146-.20052.1453-.44181.2235-.68942.2235s-.4889-.0782-.68943-.2235c-.41972-.3037-.82854-.6223-1.22569-.95509-.13851-.11607-.1567-.32247-.04063-.461.11607-.13852.32248-.15669.46099-.04062.38524.32279.78181.63181 1.18894.92651.08893.0645.19598.0992.30584.0992.10985 0 .2169-.0347.30581-.0992.97294-.70378 1.9553-1.53436 2.77422-2.42687 1.12723-1.22845 1.76543-2.39189 1.76543-3.4041 0-1.41191-1.14507-2.55702-2.557-2.55702-.80473 0-1.54756.37431-2.02905 1.00066-.13107.17049-.38814.17037-.51905-.00021-.48053-.62616-1.2233-1.00045-2.02888-1.00045-1.41195 0-2.55706 1.14511-2.55706 2.55702 0 .95374.56746 2.04402 1.58204 3.19979.11923.1358.10578.34255-.03002.46178-.13582.11923-.3426.10579-.46182-.03003-1.10958-1.26397-1.74466-2.4842-1.74466-3.63154 0-1.77339 1.43812-3.21148 3.21152-3.21148.87576 0 1.69351.35296 2.28864.95813.59572-.60515 1.41331-.95813 2.28834-.95813z" fill="#fff" fill-opacity=".6"/></svg>