<svg fill="none" height="24" viewBox="0 0 24 24" width="24" xmlns="http://www.w3.org/2000/svg" xmlns:xlink="http://www.w3.org/1999/xlink"><mask id="a" fill="#000" height="17" maskUnits="userSpaceOnUse" width="17" x="3.5" y="3.5"><path d="m3.5 3.5h17v17h-17z" fill="#fff"/><path clip-rule="evenodd" d="m11.5248 4.66274c-.1042-.1042-.2456-.16274-.3929-.16274h-5.0844c-.41042 0-.80404.16304-1.09425.45325s-.45325.68383-.45325 1.09425v11.905c0 .4104.16304.804.45325 1.0942s.68383.4533 1.09425.4533h11.905c.4104 0 .804-.1631 1.0942-.4533s.4533-.6838.4533-1.0942v-5.0844c0-.1473-.0586-.2887-.1628-.3929s-.2455-.1627-.3928-.1627c-.1474 0-.2887.0585-.3929.1627s-.1628.2456-.1628.3929v5.0844c0 .1157-.0459.2267-.1277.3085s-.1928.1277-.3085.1277h-11.905c-.24125 0-.43625-.195-.43625-.4362v-11.905c0-.1157.04596-.22666.12777-.30848.08182-.08181.19278-.12777.30848-.12777h5.0844c.1473 0 .2887-.05854.3929-.16274s.1627-.24552.1627-.39289c0-.14736-.0585-.28868-.1627-.39288zm5.8508.94851h-3.1432c-.1473 0-.2887-.05854-.3929-.16274s-.1627-.24552-.1627-.39289c0-.14736.0585-.28868.1627-.39288s.2456-.16274.3929-.16274h3.72c.4104 0 .804.16304 1.0943.45325.2902.29021.4532.68383.4532 1.09425v3.72c0 .14736-.0585.2887-.1627.3929s-.2456.1627-.3929.1627c-.1474 0-.2887-.0585-.3929-.1627s-.1627-.24554-.1627-.3929v-3.60893l-8.55516 8.96263c-.05122.0533-.11253.0958-.18036.125-.06783.0293-.14082.0447-.21468.0454-.07387.0008-.14714-.0133-.21553-.0412-.06838-.0279-.13051-.0692-.18274-.1215-.05224-.0522-.09353-.1143-.12147-.1827s-.04196-.1417-.04124-.2155c.00071-.0739.01615-.1469.04541-.2147.02926-.0679.07175-.1292.12498-.1804z" fill="#000" fill-rule="evenodd"/></mask><g fill="#fff"><path clip-rule="evenodd" d="m11.5248 4.66274c-.1042-.1042-.2456-.16274-.3929-.16274h-5.0844c-.41042 0-.80404.16304-1.09425.45325s-.45325.68383-.45325 1.09425v11.905c0 .4104.16304.804.45325 1.0942s.68383.4533 1.09425.4533h11.905c.4104 0 .804-.1631 1.0942-.4533s.4533-.6838.4533-1.0942v-5.0844c0-.1473-.0586-.2887-.1628-.3929s-.2455-.1627-.3928-.1627c-.1474 0-.2887.0585-.3929.1627s-.1628.2456-.1628.3929v5.0844c0 .1157-.0459.2267-.1277.3085s-.1928.1277-.3085.1277h-11.905c-.24125 0-.43625-.195-.43625-.4362v-11.905c0-.1157.04596-.22666.12777-.30848.08182-.08181.19278-.12777.30848-.12777h5.0844c.1473 0 .2887-.05854.3929-.16274s.1627-.24552.1627-.39289c0-.14736-.0585-.28868-.1627-.39288zm5.8508.94851h-3.1432c-.1473 0-.2887-.05854-.3929-.16274s-.1627-.24552-.1627-.39289c0-.14736.0585-.28868.1627-.39288s.2456-.16274.3929-.16274h3.72c.4104 0 .804.16304 1.0943.45325.2902.29021.4532.68383.4532 1.09425v3.72c0 .14736-.0585.2887-.1627.3929s-.2456.1627-.3929.1627c-.1474 0-.2887-.0585-.3929-.1627s-.1627-.24554-.1627-.3929v-3.60893l-8.55516 8.96263c-.05122.0533-.11253.0958-.18036.125-.06783.0293-.14082.0447-.21468.0454-.07387.0008-.14714-.0133-.21553-.0412-.06838-.0279-.13051-.0692-.18274-.1215-.05224-.0522-.09353-.1143-.12147-.1827s-.04196-.1417-.04124-.2155c.00071-.0739.01615-.1469.04541-.2147.02926-.0679.07175-.1292.12498-.1804z" fill-rule="evenodd"/><path d="m11.5248 4.66274-.1061.10606zm-6.57155.29051.10607.10607zm0 14.09345-.10606.1061zm14.09345 0 .1061.1061zm.2905-6.5715-.106.1061zm-.7857 0-.1061-.106zm-.2905 5.7858.106.106zm-12.52198-12.52198-.10606-.10606zm5.78578-.29051-.1061-.10607zm5.8508.16274.1085.10357.242-.25357h-.3505zm-3.5361-.16274.1061-.10607zm0-.78577.1061.10607v-.00001zm5.2072.29051-.1061.10607zm.2905 5.20715-.1061-.1061zm-.7858 0 .1061-.1061zm-.1627-4.00183h.15v-.37439l-.2585.27082zm-8.55516 8.96263.1081.104.0004-.0004zm-.18036.125-.05941-.1377zm-.21468.0454.00145.15zm-.21553-.0412-.05673.1388.00001.0001zm-.30421-.3042-.13886.0567zm-.04124-.2155.14999.0014zm.04541-.2147.13773.0594zm.12498-.1804.10409.1082.00442-.0046zm2.08399-9.6856c.1075 0 .2107.04274.2868.1188l.2121-.21213c-.1323-.13233-.3118-.20667-.4989-.20667zm-5.0844 0h5.0844v-.3h-5.0844zm-.98818.40932c.26208-.26208.61754-.40932.98818-.40932v-.3c-.45021 0-.88197.17884-1.20031.49719zm-.40932.98818c0-.37064.14724-.7261.40932-.98818l-.21213-.21213c-.31835.31834-.49719.7501-.49719 1.20031zm0 11.905v-11.905h-.3v11.905zm.40932.9882c-.26208-.2621-.40932-.6176-.40932-.9882h-.3c0 .4502.17884.882.49719 1.2003zm.98818.4093c-.37064 0-.7261-.1472-.98818-.4093l-.21213.2121c.31834.3183.7501.4972 1.20031.4972zm11.905 0h-11.905v.3h11.905zm.9882-.4093c-.2621.2621-.6176.4093-.9882.4093v.3c.4502 0 .882-.1789 1.2003-.4972zm.4093-.9882c0 .3706-.1472.7261-.4093.9882l.2121.2121c.3183-.3183.4972-.7501.4972-1.2003zm0-5.0844v5.0844h.3v-5.0844zm-.1188-.2868c.0761.0761.1188.1792.1188.2868h.3c0-.1871-.0744-.3666-.2067-.4989zm-.2868-.1188c.1075 0 .2107.0427.2868.1188l.2121-.2121c-.1323-.1324-.3118-.2067-.4989-.2067zm-.2869.1188c.0761-.0761.1793-.1188.2869-.1188v-.3c-.1872 0-.3667.0743-.499.2067zm-.1188.2868c0-.1076.0428-.2107.1188-.2868l-.2121-.2121c-.1323.1323-.2067.3118-.2067.4989zm0 5.0844v-5.0844h-.3v5.0844zm-.1717.4145c.11-.1099.1717-.259.1717-.4145h-.3c0 .0759-.0301.1487-.0838.2024zm-.4145.1717c.1555 0 .3046-.0617.4145-.1717l-.2121-.2121c-.0537.0537-.1265.0838-.2024.0838zm-11.905 0h11.905v-.3h-11.905zm-.58625-.5862c0 .3241.26216.5862.58625.5862v-.3c-.15841 0-.28625-.1278-.28625-.2862zm0-11.905v11.905h.3v-11.905zm.17171-.41454c-.10995.10994-.17171.25906-.17171.41454h.3c0-.07592.03016-.14873.08384-.20241zm.41454-.17171c-.15548 0-.3046.06176-.41454.17171l.21213.21213c.05368-.05368.12649-.08384.20241-.08384zm5.0844 0h-5.0844v.3h5.0844zm.2868-.11881c-.0761.07607-.1793.11881-.2868.11881v.3c.1871 0 .3666-.07434.4989-.20667zm.1188-.28682c0 .10758-.0427.21075-.1188.28682l.2121.21214c.1324-.13233.2067-.31181.2067-.49896zm-.1188-.28682c.0761.07607.1188.17925.1188.28682h.3c0-.18714-.0743-.36662-.2067-.49895zm2.8137.99245h3.1432v-.3h-3.1432zm-.4989-.20667c.1323.13233.3118.20667.4989.20667v-.3c-.1076 0-.2107-.04274-.2868-.11881zm-.2067-.49896c0 .18715.0743.36663.2067.49896l.2121-.21214c-.0761-.07607-.1188-.17924-.1188-.28682zm.2067-.49895c-.1324.13233-.2067.31181-.2067.49895h.3c0-.10757.0427-.21075.1188-.28681zm.4989-.20667c-.1871 0-.3666.07434-.4989.20667l.2121.21213c.0761-.07606.1792-.1188.2868-.1188zm3.72 0h-3.72v.3h3.72zm1.2003.49719c-.3183-.31835-.7501-.49719-1.2003-.49719v.3c.3706 0 .7261.14724.9882.40932zm.4972 1.20031c0-.45021-.1788-.88197-.4972-1.20031l-.2121.21213c.2621.26208.4093.61754.4093.98818zm0 3.72v-3.72h-.3v3.72zm-.2067.4989c.1324-.1323.2067-.31176.2067-.4989h-.3c0 .10757-.0427.21075-.1188.2868zm-.4989.2067c.1871 0 .3666-.0743.4989-.2067l-.2121-.2121c-.0761.0761-.1792.1188-.2868.1188zm-.499-.2067c.1324.1324.3118.2067.499.2067v-.3c-.1076 0-.2108-.0427-.2868-.1188zm-.2066-.4989c0 .18714.0743.3666.2066.4989l.2122-.2121c-.0761-.07605-.1188-.17923-.1188-.2868zm0-3.60893v3.60893h.3v-3.60893zm.0415-.10357-8.55517 8.9627.21701.2071 8.55516-8.96266zm-8.55476 8.9622c-.03739.0389-.08215.0699-.13167.0913l.11882.2755c.08614-.0372.16401-.0912.22905-.1588zm-.13167.0913c-.04952.0214-.1028.0326-.15673.0331l.00291.3c.09381-.0009.1865-.0205.27264-.0576zm-.15673.0331c-.05392.0006-.10741-.0097-.15734-.0301l-.11345.2778c.08684.0354.17989.0532.2737.0523zm-.15733-.0301c-.04993-.0204-.09528-.0505-.13342-.0886l-.21213.2121c.06634.0663.14524.1188.23208.1542zm-.13342-.0886c-.03813-.0382-.06827-.0835-.08867-.1335l-.27772.1135c.03548.0869.08793.1658.15426.2321zm-.08867-.1335c-.0204-.0499-.03063-.1034-.03011-.1573l-.29999-.0029c-.00091.0938.0169.1869.05238.2737zm-.03011-.1573c.00052-.0539.01179-.1072.03315-.1567l-.27547-.1188c-.03715.0861-.05676.1788-.05767.2726zm.03315-.1567c.02136-.0495.05238-.0943.09124-.1317l-.20798-.2162c-.06761.0651-.12157.1429-.15873.2291zm.09576-.1362 8.32768-8.72438-.217-.20714-8.32769 8.72432z" mask="url(#a)"/></g></svg>