<svg fill="none" height="16" viewBox="0 0 16 16" width="16" xmlns="http://www.w3.org/2000/svg"><path clip-rule="evenodd" d="m7.99917 0c3.30483 0 5.99353 2.64059 5.99353 5.88665 0 2.54638-3.6916 7.67535-5.27832 9.76235-.16769.2202-.43571.351-.71523.351-.28012 0-.54753-.1308-.71468-.351-1.58729-2.087-5.27715-7.2166-5.27715-9.76235 0-3.24606 2.68759-5.88665 5.99185-5.88665zm0 14.8836.09451-.1256c2.99762-3.9815 4.85932-7.3806 4.85872-8.87135 0-2.68325-2.2218-4.86623-4.95323-4.86623-2.73194 0-4.95382 2.18298-4.95382 4.86623 0 1.49018 1.86281 4.88985 4.85929 8.87135zm-2.56069-9.37c0-1.38614 1.14867-2.51409 2.56076-2.51409 1.41206 0 2.56016 1.12793 2.56016 2.51409 0 1.38584-1.1481 2.51264-2.56016 2.51264-1.41209 0-2.56076-1.1268-2.56076-2.51264zm1.13714-.00059c0 .77203.63862 1.4 1.42362 1.4.78442 0 1.423-.62797 1.423-1.4 0-.77175-.63858-1.39997-1.423-1.39997-.78502 0-1.42362.62822-1.42362 1.39997z" fill="#fff" fill-opacity=".7" fill-rule="evenodd"/></svg>