<svg fill="none" height="16" viewBox="0 0 16 16" width="16" xmlns="http://www.w3.org/2000/svg"><path d="m10.28 7.52188c0 .2625-.2091.47531-.46875.47531-.12515-.00099-.2448-.0516-.33268-.14071s-.13682-.20945-.13607-.3346v-.49407c0-.33375.11625-.65625.32625-.91312l3.82965-4.66313h-11.1234l3.82969 4.66313c.21.25687.32531.57937.32531.91312v7.99689c0 .2625-.20906.4753-.46875.4753-.12515-.001-.2448-.0516-.33268-.1407s-.13682-.2095-.13607-.3346v-7.99689c.00015-.11065-.03794-.21795-.10781-.30375l-3.82969-4.66406c-.14083-.17184-.2177-.3872-.2175-.60937 0-.524067.42-.95063.9375-.95063h11.1234c.2194 0 .4313.077812.6.220312.3975.336568.4519.936568.12 1.340628l-3.8296 4.66312c-.0703.08567-.1087.19299-.1088.30375zm-.87375 2.01562h4.68755c.2587 0 .4687.21375.4687.4763 0 .2625-.21.4753-.4687.4753h-4.68755c-.12515-.001-.2448-.0516-.33268-.1407-.08788-.0892-.13682-.2095-.13607-.3346 0-.26255.21-.4763.46875-.4763zm0 1.9031h4.68755c.2587 0 .4687.2128.4687.4753s-.21.4763-.4687.4763h-4.68755c-.06205-.0005-.1234-.0132-.18053-.0374-.05714-.0242-.10896-.0594-.15248-.1037-.04353-.0442-.07792-.0965-.10121-.1541-.02329-.0575-.03502-.119-.03453-.1811 0-.2625.21-.4753.46875-.4753zm0 1.9032h4.68755c.2587 0 .4687.2128.4687.4753s-.21.4753-.4687.4753h-4.68755c-.12515-.001-.2448-.0516-.33268-.1407s-.13682-.2095-.13607-.3346c0-.2625.21-.4763.46875-.4763z" fill="#fff" fill-opacity=".7"/></svg>