<svg fill="none" height="13" viewBox="0 0 13 13" width="13" xmlns="http://www.w3.org/2000/svg"><path d="m4.32176 6.8332c-.00775.00986-.01549.02024-.01897.03274l-.59781 2.19175c-.03486.1276.00085.26511.09531.36204.07066.06902.16376.10696.26291.10696.03274 0 .06556-.00392.09785-.0125l2.17619-.59354c.00349 0 .00518.00305.00781.00305.025 0 .04956-.00909.06811-.02805l5.81924-5.81836c.1728-.17308.2676-.40884.2676-.66536 0-.29065-.1233-.58119-.3392-.7965l-.5495-.55045c-.2156-.215874-.5065-.339376-.797-.339376-.2565 0-.4922.094809-.6655.267448l-5.81838 5.819918c-.00604.00555-.00434.01377-.00866.02023zm7.34124-4.32574-.5781.57757-.937-.95189.5698-.56983c.0901-.09053.2647-.07733.3681.0265l.55.55045c.0574.05729.0901.13357.0901.209-.0004.06182-.0224.11792-.0629.1582zm-6.30634 4.41716 4.19906-4.19929.93748.95253-4.19125 4.19104zm-.76504 1.70249.30345-1.1138.80942.80951zm7.12108-3.81393c-.2203 0-.4142.17909-.415.40236v5.44456c0 .2845-.231.5051-.5159.5051h-8.95065c-.28448 0-.4965-.2206-.4965-.5051v-8.96029c0-.28469.21201-.49902.4965-.49902h6.14264c.22151 0 .40124-.19685.40124-.418423 0-.221139-.17974-.411273-.40124-.411273h-6.20385c-.69353 0-1.26994.573989-1.26994 1.267936v9.08237c0 .6939.57642 1.2776 1.26994 1.2776h9.07256c.694 0 1.2847-.5837 1.2847-1.2776v-5.5084c-.0008-.22073-.1943-.39982-.4145-.39982z" fill="#fff"/></svg>