<svg fill="none" height="24" viewBox="0 0 24 24" width="24" xmlns="http://www.w3.org/2000/svg"><path d="m16.7907 8h-6.364c-.2411 0-.47231-.10536-.64281-.29289-.17049-.18754-.26628-.44189-.26628-.70711 0-.26521.09579-.51957.26628-.7071.1705-.18754.40171-.2929.64281-.2929h6.364c.2411 0 .4723.10536.6428.2929.1705.18753.2663.44189.2663.7071 0 .26522-.0958.51957-.2663.70711-.1705.18753-.4017.29289-.6428.29289zm0 5h-6.364c-.2411 0-.47231-.1054-.64281-.2929-.17049-.1875-.26628-.4419-.26628-.7071s.09579-.5196.26628-.7071c.1705-.1875.40171-.2929.64281-.2929h6.364c.2411 0 .4723.1054.6428.2929s.2663.4419.2663.7071-.0958.5196-.2663.7071-.4017.2929-.6428.2929zm0 5h-6.364c-.2411 0-.47231-.1054-.64281-.2929-.17049-.1875-.26628-.4419-.26628-.7071s.09579-.5196.26628-.7071c.1705-.1875.40171-.2929.64281-.2929h6.364c.2411 0 .4723.1054.6428.2929s.2663.4419.2663.7071-.0958.5196-.2663.7071-.4017.2929-.6428.2929zm-9.33682-10c-.24111 0-.47235-.10536-.64285-.29289-.1705-.18754-.26628-.44189-.26628-.70711 0-.26521.09578-.51957.26628-.7071.1705-.18754.40174-.2929.64285-.2929.24112 0 .47236.10536.64286.2929.17049.18753.26628.44189.26628.7071 0 .26522-.09579.51957-.26628.70711-.1705.18753-.40174.29289-.64286.29289zm0 5c-.23408-.0115-.4551-.1219-.61705-.3082-.16194-.1863-.25232-.4341-.25232-.6918s.09038-.5055.25232-.6918c.16195-.1863.38297-.2967.61705-.3082.24112 0 .47236.1054.64286.2929.17049.1875.26628.4419.26628.7071s-.09579.5196-.26628.7071c-.1705.1875-.40174.2929-.64286.2929zm0 5c-.23408-.0115-.4551-.1219-.61705-.3082-.16194-.1863-.25232-.4341-.25232-.6918s.09038-.5055.25232-.6918c.16195-.1863.38297-.2967.61705-.3082.24112 0 .47236.1054.64286.2929.17049.1875.26628.4419.26628.7071s-.09579.5196-.26628.7071c-.1705.1875-.40174.2929-.64286.2929zm12.72512-17h-16.36983c-.47991.0008-.93994.21099-1.27912.58444-.33918.37346-.52981.87968-.53005 1.40756v18.016c0 1.098.81276 1.992 1.8119 1.992h16.3789c.4799-.0008.94-.211 1.2791-.5844.3392-.3735.5299-.8797.5301-1.4076v-18.016c-.0019-.52956-.1947-1.03667-.5361-1.4101s-.8034-.582696-1.2849-.5819z" fill="#fbedda"/></svg>