<svg fill="none" height="13" viewBox="0 0 13 13" width="13" xmlns="http://www.w3.org/2000/svg"><path d="m5.53115 6.75-4.830494-4.83049c-.128478-.12848-.200656-.30273-.200656-.48443 0-.08996.01772-.17905.052149-.26217.034428-.08312.084891-.15864.148507-.222254.063615-.063616.139138-.114079.222256-.148507.083118-.034429.172208-.052149.262168-.052149.1817 0 .35595.072178.48443.200656l4.83049 4.830494 4.8305-4.830494c.0636-.063616.1391-.114079.2222-.148507.0832-.034429.1723-.052149.2622-.052149.09 0 .1791.01772.2622.052149.0831.034428.1586.084891.2222.148507.0637.063614.1141.139134.1485.222254.0345.08312.0522.17221.0522.26217 0 .08997-.0177.17905-.0522.26217-.0344.08312-.0848.15864-.1485.22226l-4.83045 4.83049 4.83045 4.8305c.1285.1285.2007.3027.2007.4844s-.0722.356-.2007.4844c-.1284.1285-.3027.2007-.4844.2007s-.3559-.0722-.4844-.2007l-4.8305-4.83045-4.83049 4.83045c-.12848.1285-.30273.2007-.48443.2007-.18169 0-.355947-.0722-.484424-.2007-.128478-.1284-.200656-.3027-.200656-.4844s.072178-.3559.200656-.4844z" fill="#fff"/></svg>