<svg fill="none" height="10" viewBox="0 0 10 10" width="10" xmlns="http://www.w3.org/2000/svg"><path d="m5.23053.5c-1.78172 0-3.23053 1.47226-3.23053 3.28093 0 .60954.14652 1.27768.43605 1.9845.22975.56148.55093 1.14991.95298 1.75007.68221 1.01745 1.38435 1.7442 1.46171 1.82391.10081.10315.23561.16059.37979.16059s.27898-.05744.37979-.16059c.07853-.07971.7795-.80646 1.4617-1.82391.40206-.60016.72324-1.18859.95299-1.75007.28952-.70682.43605-1.37496.43605-1.9845 0-1.80867-1.44882-3.28093-3.23053-3.28093zm0 4.28315c-.7162 0-1.29878-.58258-1.29878-1.29878s.58258-1.2976 1.29878-1.2976 1.29877.58257 1.29877 1.29877c0 .71621-.58257 1.29761-1.29877 1.29761z" fill="#fff"/></svg>