<svg fill="none" height="29" viewBox="0 0 29 29" width="29" xmlns="http://www.w3.org/2000/svg"><path d="m10.4277 8.21025h-5.34795c-.595 0-1.07975.32375-1.07975.882 0 .5565.483.868 1.07975.868h1.3265v11.43625c0 2.121 1.4035 3.8535 3.30575 3.8535h9.688c1.897 0 3.2988-1.7237 3.2988-3.8535v-11.4275h1.2214c.5951 0 1.0798-.3115 1.0798-.86975 0-.55475-.483-.882-1.0798-.882h-5.0277c-.07-2.14025-1.9338-3.96725-4.228-3.96725-2.2943 0-4.1563 1.827-4.235 3.96025zm2.0248 0c.0787-1.09375 1.0307-2.21025 2.212-2.21025 1.1812 0 2.1385 1.12 2.2067 2.21025zm-4.29625 13.18625v-11.4275h12.79255v11.438c0 1.155-.8785 2.093-1.5523 2.093h-9.688c-.67375-.0105-1.55225-.945-1.55225-2.1035zm3.00305-.4603c.4935 0 .9012-.462.9012-1.0412v-5.9325c0-.5775-.4025-1.0395-.9012-1.0395-.4935 0-.8995.4603-.8995 1.0395v5.9325c0 .5775.3955 1.0412.8995 1.0412zm4.1597-1.0412v-5.9325c0-.5775-.4025-1.0395-.8995-1.0395-.4935 0-.9012.4603-.9012 1.0395v5.9325c0 .5775.4077 1.0412.9012 1.0412s.8995-.462.8995-1.0412zm2.5287 1.0412c.4936 0 .8995-.462.8995-1.0412v-5.9325c0-.5775-.4024-1.0395-.8995-1.0395-.4935 0-.9012.4603-.9012 1.0395v5.9325c0 .5775.3938 1.0412.9012 1.0412z" fill="#fff"/></svg>