<svg fill="none" height="14" viewBox="0 0 14 14" width="14" xmlns="http://www.w3.org/2000/svg"><path d="m13.0036 12.3156-2.1453-2.1453-.0009-.0009c.3676-.4352.6673-.92346.889-1.44825.2966-.70118.4469-1.44573.4469-2.21298s-.1503-1.51179-.4469-2.21298c-.2864-.67701-.6962-1.28493-1.2181-1.80686-.522-.52193-1.12988-.93178-1.8069-1.21813-.70118-.296582-1.44574-.446958-2.21298-.446958-.76726 0-1.5118.150376-2.21298.446958-.67702.28635-1.28494.69619-1.80687 1.21813-.52194.52193-.93178 1.12986-1.21813 1.80686-.296577.70119-.446954 1.44574-.446954 2.21298 0 .76725.150377 1.5118.446954 2.21298.28635.67704.69619 1.28495 1.21813 1.80685.52193.522 1.12987.9318 1.80687 1.2182.70118.2965 1.44574.4469 2.21298.4469s1.5118-.1504 2.21298-.4469c.51643-.2185.99248-.509 1.421-.866.001.001.0019.002.0029.003l2.1453 2.1453c.0985.0985.2275.1477.3565.1477s.2581-.0492.3565-.1477c.1968-.1968.1968-.5161 0-.7129zm-6.49518-1.0944c-1.25889 0-2.44243-.4903-3.3326-1.38042-.89018-.89018-1.38041-2.07371-1.38041-3.33261 0-1.25889.49023-2.44242 1.38041-3.3326.89015-.89017 2.07369-1.3804 3.3326-1.3804s2.44243.49023 3.3326 1.3804c.89018.89016 1.38038 2.0737 1.38038 3.3326 0 1.25891-.4902 2.44243-1.38038 3.33261-.89017.89012-2.07371 1.38042-3.3326 1.38042z" fill="#8d8d8d"/></svg>