<svg fill="none" height="50" viewBox="0 0 50 50" width="50" xmlns="http://www.w3.org/2000/svg" xmlns:xlink="http://www.w3.org/1999/xlink"><linearGradient id="a" gradientUnits="userSpaceOnUse" x1="25" x2="25" y1="50" y2="0"><stop offset="0" stop-color="#ff8a15"/><stop offset="1" stop-color="#f9aa3a"/></linearGradient><rect fill="url(#a)" height="50" rx="25" width="50"/><path d="m36.9254 12.5h-24.1067c-1.5572 0-2.8187 1.2615-2.8187 2.8187v16.9097c0 1.5572 1.2615 2.8187 2.8187 2.8187h3.3755l.0321 3.7254c.0049.5494.5913.8993 1.0767.6406l8.2121-4.366h11.4128c1.5572 0 2.8187-1.2615 2.8187-2.8187v-16.9097c-.0025-1.5572-1.264-2.8187-2.8212-2.8187zm-10.1414 16.0128h-9.4588c-.4058 0-.795-.1612-1.082-.4481-.2869-.287-.4481-.6761-.4481-1.0819s.1612-.795.4481-1.082c.287-.2869.6762-.4481 1.082-.4481h9.4588c.4058 0 .795.1612 1.082.4481.2869.287.4481.6762.4481 1.082s-.1612.7949-.4481 1.0819c-.287.2869-.6762.4481-1.082.4481zm5.9429-6.1967h-15.4017c-.4058 0-.795-.1612-1.082-.4481-.2869-.2869-.4481-.6761-.4481-1.0819s.1612-.795.4481-1.082c.287-.2869.6762-.4481 1.082-.4481h15.4017c.4058 0 .795.1612 1.082.4481.2869.287.4481.6762.4481 1.082s-.1612.795-.4481 1.0819c-.287.2869-.6762.4481-1.082.4481z" fill="#443e3d"/></svg>