<svg fill="none" height="20" viewBox="0 0 20 20" width="20" xmlns="http://www.w3.org/2000/svg" xmlns:xlink="http://www.w3.org/1999/xlink"><filter id="a" color-interpolation-filters="sRGB" filterUnits="userSpaceOnUse" height="15.486" width="15" x="2.5" y=".75"><feFlood flood-opacity="0" result="BackgroundImageFix"/><feBlend in="SourceGraphic" in2="BackgroundImageFix" mode="normal" result="shape"/><feColorMatrix in="SourceAlpha" result="hardAlpha" type="matrix" values="0 0 0 0 0 0 0 0 0 0 0 0 0 0 0 0 0 0 127 0"/><feOffset dy=".416667"/><feGaussianBlur stdDeviation=".208333"/><feComposite in2="hardAlpha" k2="-1" k3="1" operator="arithmetic"/><feColorMatrix type="matrix" values="0 0 0 0 1 0 0 0 0 1 0 0 0 0 1 0 0 0 0.25 0"/><feBlend in2="shape" mode="normal" result="effect1_innerShadow_221_19395"/></filter><linearGradient id="b" gradientUnits="userSpaceOnUse" x1="9.99919" x2="9.99919" y1="9.04102" y2="19.2506"><stop offset="0" stop-color="#c518ef"/><stop offset="1" stop-color="#f247d7"/></linearGradient><linearGradient id="c"><stop offset="0" stop-color="#fff"/><stop offset="1" stop-color="#fff" stop-opacity="0"/></linearGradient><linearGradient id="d" gradientUnits="userSpaceOnUse" x1="9.99919" x2="9.99919" xlink:href="#c" y1="9.04102" y2="19.2506"/><linearGradient id="e" gradientUnits="userSpaceOnUse" x1="9.99919" x2="9.99919" y1="9.03857" y2="19.2481"><stop offset="0" stop-color="#fedb71"/><stop offset="1" stop-color="#fedb71"/></linearGradient><linearGradient id="f" gradientUnits="userSpaceOnUse" x1="9.99919" x2="9.99919" xlink:href="#c" y1="9.03857" y2="19.2481"/><linearGradient id="g" gradientUnits="userSpaceOnUse" x1="10.0007" x2="10.0007" y1="10.7144" y2="19.5048"><stop offset="0" stop-color="#fff"/><stop offset="1" stop-color="#fff"/></linearGradient><linearGradient id="h" gradientUnits="userSpaceOnUse" x1="10" x2="10" y1=".75" y2="15.8193"><stop offset="0" stop-color="#feb169"/><stop offset=".921875" stop-color="#fea34e"/></linearGradient><linearGradient id="i" gradientUnits="userSpaceOnUse" x1="9.99902" x2="9.99902" y1="2.00586" y2="14.5636"><stop offset="0" stop-color="#7c17f1"/><stop offset="1" stop-color="#fe56d1"/></linearGradient><linearGradient id="j" gradientUnits="userSpaceOnUse" x1="9.99902" x2="9.99902" y1="19.3774" y2="-.505693"><stop offset="0" stop-color="#fd5456"/><stop offset="1" stop-color="#f66148"/></linearGradient><linearGradient id="k" gradientUnits="userSpaceOnUse" x1="10" x2="10" y1="4.77148" y2="12.547"><stop offset="0" stop-opacity=".25"/><stop offset="1" stop-opacity=".28"/></linearGradient><mask id="l" height="11" maskUnits="userSpaceOnUse" width="10" x="5" y="9"><path d="m6.04085 9.24691h7.91665v9.39839c0 .1405-.1422.2364-.2724.1837l-3.3031-1.3354c-.2456-.0993-.52008-.0993-.76564 0l-3.30306 1.3354c-.13027.0527-.27245-.0432-.27245-.1837z" fill="url(#e)" stroke="url(#f)" stroke-width=".416667"/></mask><path d="m6.04085 9.24935h7.91665v9.39845c0 .1405-.1422.2364-.2724.1837l-3.3031-1.3354c-.2456-.0993-.52008-.0993-.76564 0l-3.30306 1.3354c-.13027.0527-.27245-.0432-.27245-.1837z" fill="url(#b)" stroke="url(#d)" stroke-width=".416667"/><g mask="url(#l)"><path d="m8.33398 10.7144h3.33333v8.79044h-3.33333z" fill="url(#g)"/></g><g filter="url(#a)"><ellipse cx="10" cy="8.28466" fill="url(#h)" rx="7.5" ry="7.53466"/></g><path d="m16.0824 8.28474c0 3.37646-2.7244 6.11226-6.08338 6.11226-3.35901 0-6.08333-2.7358-6.08333-6.11226 0-3.37641 2.72432-6.11221 6.08333-6.11221 3.35898 0 6.08338 2.7358 6.08338 6.11221z" fill="url(#i)" stroke="url(#j)" stroke-width=".333333"/><path d="m12.4065 9.86811h1.496v-1.14348h-2.2114v-.58807h1.7561v-3.10371h-4.78051v3.10371h1.72361v.58807h-2.24393v1.14348h1.43088c-.41209.50129-.94311.93669-1.59349 1.30679v-4.44318c.19513-.52273.35773-1.06689.48779-1.63353l-1.2683-.32671c-.28201 1.30683-.68293 2.4503-1.20325 3.43042.06504.34865.1189.828.16261 1.4375.02133.17459.03251.30528.03251.392.06504-.10871.16261-.25012.29269-.42471.13008-.19604.22765-.33743.29269-.42474v3.36505h1.20326v-1.2088c.19513.3053.41159.5988.6504.8821.75863-.5012 1.34399-1.0561 1.75614-1.6662v1.9929h1.3007v-2.0256c.3252.5667.8781 1.1108 1.6586 1.6336.065-.0873.1514-.24.2601-.4574.1733-.3048.3034-.5227.3903-.6534-.6941-.3267-1.2251-.7188-1.5935-1.17616zm-2.50404-2.87502v-.81676h2.30894v.81676z" fill="url(#k)"/><path d="m12.4065 9.36421h1.496v-1.14349h-2.2114v-.58806h1.7561v-3.10372h-4.78051v3.10372h1.72361v.58806h-2.24393v1.14349h1.43088c-.41209.50127-.94311.93669-1.59349 1.30679v-4.44319c.19513-.52272.35773-1.06688.48779-1.63353l-1.2683-.3267c-.28201 1.30683-.68293 2.45029-1.20325 3.43042.06504.34865.1189.82799.16261 1.43749.02133.17459.03251.30529.03251.39203.06504-.10873.16261-.25015.29269-.42474.13008-.19603.22765-.33743.29269-.42473v3.36505h1.20326v-1.2088c.19513.3053.41159.5988.6504.8821.75863-.5013 1.34399-1.0561 1.75614-1.6662v1.9929h1.3007v-2.0256c.3252.5667.8781 1.1108 1.6586 1.6336.065-.0873.1514-.24.2601-.4574.1733-.3048.3034-.5227.3903-.6535-.6941-.3266-1.2251-.71868-1.5935-1.17607zm-2.50404-2.87502v-.81677h2.30894v.81677z" fill="#fff"/></svg>