<svg fill="none" height="19" viewBox="0 0 55 19" width="55" xmlns="http://www.w3.org/2000/svg" xmlns:xlink="http://www.w3.org/1999/xlink"><linearGradient id="a" gradientUnits="userSpaceOnUse" x1="58.25" x2="-.000001" y1="6.75" y2="7.25"><stop offset="0" stop-color="#fdcfa1"/><stop offset="1" stop-color="#ffdab4"/></linearGradient><path d="m0 0h55v12c0 3.866-3.134 7-7 7h-48z" fill="url(#a)"/><path d="m11.42 9.91h4.99v3.84h-.72v-3.15h-3.58v3.2h-.69zm4.62-5.27.59.59c-1.37.47-3.46.78-5.25.95-.03-.18-.13-.47-.22-.64 1.74-.19 3.77-.5 4.88-.9zm-2.46.87h.72v4.8h-.72zm-2.89 2.03h6.37v.72h-6.37zm1.2 5.14h4.13v.69h-4.13zm-3.49-7.42.42-.53c.61.3 1.46.75 1.89 1.04l-.44.61c-.42-.3-1.25-.79-1.87-1.12zm-.49 2.76.42-.55c.59.29 1.43.73 1.85 1.02l-.42.61c-.41-.28-1.24-.76-1.85-1.08zm.24 5.14c.54-.76 1.33-2.08 1.91-3.22l.54.49c-.53 1.06-1.23 2.31-1.82 3.24zm14.42-6.25h4.01v.72h-4.01zm3.64 0h.74s-.01.28-.01.38c-.13 4.13-.25 5.54-.6 5.98-.2.27-.4.35-.73.39-.31.03-.85.02-1.38-.01-.02-.22-.1-.53-.24-.74.57.05 1.09.05 1.31.05.17.01.28-.02.39-.14.27-.32.41-1.76.52-5.74zm-2.19-2.13h.74c-.02 3.48-.07 7.09-2.1 9.01-.13-.17-.39-.42-.58-.54 1.92-1.76 1.93-5.2 1.94-8.47zm-5.63.64h3.87v.68h-3.87zm-.36 2.39h4.41v.68h-4.41zm2.95 1.72.61-.17c.39.89.84 2.09 1.02 2.78l-.66.23c-.17-.71-.6-1.93-.97-2.84zm-2.59 3.04-.06-.63.38-.27 3.28-.69c.02.2.07.49.1.65-3.08.69-3.46.8-3.7.94zm0 0c-.04-.16-.16-.51-.24-.7.16-.05.29-.31.46-.7.15-.36.66-1.8.9-3.1l.73.23c-.31 1.34-.82 2.81-1.33 3.84v.01s-.52.26-.52.42zm9.67-4.94h8.73v.72h-8.73zm.81-1.91h7.2v.72h-7.2zm1.68 3.75h4.88v.71h-4.88zm4.66 0h.15l.13-.04.57.34c-.83.84-2.03 2.03-3.04 2.99l-.67-.4c1-.91 2.23-2.13 2.86-2.79zm-5.14 2.48.42-.55c1.49.41 3.5 1.17 4.54 1.77l-.46.64c-.98-.59-2.97-1.41-4.5-1.86zm1.68-7.37.76.11c-.51 1.77-1.26 4.14-1.77 5.49l-.79-.01c.56-1.42 1.33-3.83 1.8-5.59zm6.29 6.64h8.93v.66h-8.93zm4.04-6.62h.78v1.27h-.78zm-3.1 4.8h6.31v.61h-6.31zm3.11 1.23h.78v2.41c0 .42-.12.6-.47.7-.35.09-.93.09-1.83.09-.04-.19-.16-.44-.26-.62.68.02 1.37.01 1.54.01.18-.01.24-.05.24-.2zm3.03-1.23h.2l.17-.03.5.41c-.9.56-2.2 1.06-3.38 1.35-.09-.13-.27-.33-.38-.43 1.04-.26 2.26-.73 2.89-1.15zm-4.98-2.07v.9h4.73v-.9zm-.74-.56h6.25v2.02h-6.25zm-1.27-1.29h8.71v.65h-8.71z" fill="#fd8401"/></svg>