<svg fill="none" height="19" viewBox="0 0 55 19" width="55" xmlns="http://www.w3.org/2000/svg" xmlns:xlink="http://www.w3.org/1999/xlink"><clipPath id="a"><path d="m0 0h55v19h-55z"/></clipPath><g clip-path="url(#a)"><path d="m70 0h-60.5c-5.2467 0-9.5 4.2533-9.5 9.5s4.2533 9.5 9.5 9.5h60.5z" fill="#ffbc61"/><path d="m8.84 5.73h3.07v.58c-.3.9-.66 1.83-1.08 2.81.64.88.99 1.68 1.03 2.4 0 .43-.11.74-.31.93-.28.23-.78.35-1.5.36l-.24-.73c.16.02.29.04.39.04.37-.02.62-.07.75-.15.12-.09.19-.24.19-.45 0-.68-.35-1.45-1.05-2.29.47-1.04.84-1.98 1.1-2.81h-1.65v8.09h-.7zm4.25 2.5v1.13h2.95v-1.13zm2.95-.66v-1.15h-2.95v1.15zm-1.8 2.45h-1.15v3.42c.6-.18 1.2-.41 1.79-.68l.16.67c-.72.31-1.62.61-2.71.9l-.17-.62c.14-.05.22-.13.22-.23v-7.74h4.36v4.28h-1.85c.12.59.32 1.14.61 1.64.48-.27.95-.67 1.4-1.21l.47.47c-.46.54-.97.96-1.54 1.25.46.63 1.06 1.17 1.82 1.62l-.4.63c-1.66-1.06-2.67-2.53-3.01-4.4zm7.46-3.94v7.37h-.7v-.67h-1.48v.91h-.7v-7.61zm-2.18 6.03h1.48v-2.41h-1.48zm0-3.08h1.48v-2.29h-1.48zm3.62.03c.62.94 1.1 1.76 1.43 2.46l-.6.42c-.35-.75-.82-1.59-1.42-2.51zm2.28 5.34h-1.75l-.15-.7c.58.02 1.13.04 1.66.04.29 0 .44-.16.44-.47v-5.41h-3.46v-.69h3.46v-1.76h.73v1.76h1.23v.69h-1.23v5.59c0 .63-.31.95-.93.95zm10.29-5.59v-2.73h.72v3.43h-3.06v3.67h2.82v-2.73h.73v3.98h-.73v-.56h-6.38v.56h-.73v-3.98h.73v2.73h2.82v-3.67h-3.06v-3.43h.72v2.73h2.34v-3.49h.74v3.49zm10.82 2.81v2.92h-.71v-.49h-5.3v.49h-.71v-2.92zm-6.01 1.79h5.3v-1.17h-5.3zm-.71-5.48c-.36.42-.75.81-1.18 1.18l-.22-.71c1.04-.95 1.78-1.99 2.21-3.11l.7.14c-.12.3-.25.59-.4.88h2.48c-.15-.34-.31-.64-.49-.92l.74-.12c.16.31.31.66.45 1.04h2.91v.6h-3.04v.73h2.6v.57h-2.6v.7h2.62v.57h-2.62v.75h3.2v.61h-7.36zm3.45 2.3v-.75h-2.76v.75zm0-1.32v-.7h-2.76v.7zm0-1.27v-.73h-2.69c-.03.04-.05.07-.07.11v.62z" fill="#fff"/></g></svg>