<svg width="98" height="24" viewBox="0 0 98 24" fill="none" xmlns="http://www.w3.org/2000/svg">
<path d="M19.7574 16.3711C20.8324 17.5461 22.1074 18.6211 23.7074 19.7461L21.5574 23.4961C19.9824 22.0961 18.6824 20.8461 17.5824 19.5211C16.4074 20.9461 14.9324 22.3211 13.1824 23.6711L12.0324 22.2211C8.90742 22.4211 3.88242 22.7961 0.682422 23.0711L0.357422 19.0711L4.93242 18.8711V16.9961H1.55742V13.3211H4.93242V11.4461C4.83242 11.4461 4.73242 11.4711 4.63242 11.4711C3.55742 11.5461 2.68242 11.6961 1.88242 11.8711L1.05742 8.47109C1.55742 8.24609 1.70742 8.09609 2.23242 7.62109C2.63242 7.14609 3.45742 5.77109 3.90742 4.87109H1.18242V1.09609H12.4824V4.87109H7.85742C7.35742 5.77109 6.63242 6.92109 5.85742 7.99609C6.58242 8.02109 7.58242 7.97109 8.58242 7.89609C8.30742 7.42109 8.08242 7.02109 7.80742 6.62109L10.3324 5.17109C10.9324 5.99609 11.5824 6.92109 12.2074 7.89609C13.4824 5.82109 14.4324 2.99609 14.9574 0.471094L18.6824 0.796094C18.4574 1.67109 18.2324 2.49609 18.0074 3.27109H23.1324V7.39609H22.3074C21.9324 10.9211 21.2324 13.7711 19.7574 16.3711ZM18.8824 7.39609H16.4824L16.1074 8.22109C16.3824 10.1211 16.7824 11.6211 17.4574 13.0211C18.1574 11.3961 18.6074 9.57109 18.8824 7.39609ZM12.5574 18.3961V19.0711C13.6824 18.1961 14.6074 17.3461 15.4074 16.3711C14.7074 15.0961 14.1574 13.7461 13.6824 12.1461C13.4074 12.4711 13.1824 12.7961 12.9074 13.1211L12.3324 11.0211L10.8824 12.1461C10.7074 11.7711 10.5324 11.4461 10.3574 11.1211L8.75742 11.2211V13.3211H12.1824V16.9961H8.75742V18.6461C10.2324 18.5711 11.5574 18.4711 12.5574 18.3961Z" fill="url(#paint0_linear_143_21512)"/>
<path d="M39.3133 1.57109H47.4383V6.77109H43.4883V4.52109H29.8633V6.77109H26.1383V1.57109H34.6133L34.1633 0.371094H38.9383C39.0133 0.496094 39.1883 1.09609 39.3133 1.57109ZM30.2383 5.32109H43.1133V7.62109H30.2383V5.32109ZM28.7633 13.5961V8.42109H44.8133V13.5961H28.7633ZM32.3883 10.4461V11.4711H41.1633V10.4461H32.3883ZM27.3883 23.2711V14.4211H46.1883V23.2711H27.3883ZM34.9133 16.4461H31.3133V17.6961H34.9133V16.4461ZM42.0883 17.6961V16.4461H38.6633V17.6961H42.0883ZM31.3133 19.8961V21.0461H34.9133V19.8961H31.3133ZM38.6633 21.0461H42.0883V19.8961H38.6633V21.0461Z" fill="url(#paint1_linear_143_21512)"/>
<path d="M70.2441 18.1211C71.1691 19.0711 72.1941 19.9211 73.3191 20.6461L70.1941 23.5961C68.3941 21.9961 66.9691 20.4461 65.8941 18.6461L65.9941 22.2211C64.8441 22.4211 62.6941 22.9711 61.9441 23.1711C61.1691 23.3711 60.1691 23.6461 59.6441 23.8461L58.5441 21.0711L58.5941 21.7211C57.8191 21.9711 55.6691 22.9461 55.0691 23.1461C54.3441 23.5211 53.9191 23.6211 53.3441 23.9461L51.7691 20.8461C52.4941 20.3211 52.7691 19.9211 52.7691 18.6461V16.3461H50.5441V12.7711H52.7691V10.9961H51.1441V7.94609L49.9441 7.32109C50.9941 5.2711 52.2191 2.59609 52.7441 0.446094L56.5441 0.596094C56.4191 1.09609 56.2941 1.59609 56.1191 2.17109H58.6191V5.77109H54.7941C54.5691 6.34609 54.3441 6.89609 54.0691 7.44609H58.2691V10.9961H56.3441V12.7711H58.6191V16.3461H56.3441V19.1461L58.3691 18.2461L58.4941 20.1961C59.3441 19.6711 59.5441 19.2961 59.5441 17.8711V1.09609H71.6941V13.2211H67.3941C67.5941 14.0211 67.9191 14.7711 68.2941 15.4961C69.1691 14.8711 70.0691 14.1461 70.7441 13.5461L72.7441 16.2461C72.1691 16.7211 71.1691 17.4961 70.2441 18.1211ZM67.9191 4.44609H63.3441V5.94609H67.9191V4.44609ZM63.3441 9.94609H67.9191V8.49609H63.3441V9.94609ZM63.2191 13.2211V18.9711C63.8941 18.8961 65.1191 18.5461 65.7691 18.4211C64.8691 16.8461 64.2691 15.1961 63.9941 13.2211H63.2191Z" fill="url(#paint2_linear_143_21512)"/>
<path d="M97.5 12.7711H86.975V15.8961L88.8 13.2961C90.575 14.3461 94.675 17.0461 96.025 18.0461L94 21.5461C92.075 20.0961 88.95 17.8711 86.975 16.5461V23.5961H82.725V12.7711H75.125V8.67109H82.725V0.371094L86.975 0.471094V2.59609H95.05V6.47109H86.975V8.67109H97.5V12.7711Z" fill="url(#paint3_linear_143_21512)"/>
<defs>
<linearGradient id="paint0_linear_143_21512" x1="21.2134" y1="35.4161" x2="66.7353" y2="-22.2387" gradientUnits="userSpaceOnUse">
<stop stop-color="#C49890"/>
<stop offset="0.9986" stop-color="#F9ECCC"/>
</linearGradient>
<linearGradient id="paint1_linear_143_21512" x1="21.2134" y1="35.4161" x2="66.7353" y2="-22.2387" gradientUnits="userSpaceOnUse">
<stop stop-color="#C49890"/>
<stop offset="0.9986" stop-color="#F9ECCC"/>
</linearGradient>
<linearGradient id="paint2_linear_143_21512" x1="21.2134" y1="35.4161" x2="66.7353" y2="-22.2387" gradientUnits="userSpaceOnUse">
<stop stop-color="#C49890"/>
<stop offset="0.9986" stop-color="#F9ECCC"/>
</linearGradient>
<linearGradient id="paint3_linear_143_21512" x1="21.2134" y1="35.4161" x2="66.7353" y2="-22.2387" gradientUnits="userSpaceOnUse">
<stop stop-color="#C49890"/>
<stop offset="0.9986" stop-color="#F9ECCC"/>
</linearGradient>
</defs>
</svg>
