<svg fill="none" height="24" viewBox="0 0 24 24" width="24" xmlns="http://www.w3.org/2000/svg"><path clip-rule="evenodd" d="m8.41667 13.8333h7.33333c.2431 0 .4763-.0965.6482-.2685.1719-.1719.2685-.405.2685-.6481s-.0966-.4763-.2685-.6482-.4051-.2685-.6482-.2685h-7.33333c-.24312 0-.47627.0966-.64818.2685s-.26849.4051-.26849.6482.09658.4762.26849.6481c.17191.172.40506.2685.64818.2685zm0 4.5834h7.33333c.2431 0 .4763-.0966.6482-.2685s.2685-.4051.2685-.6482-.0966-.4763-.2685-.6482-.4051-.2685-.6482-.2685h-7.33333c-.24312 0-.47627.0966-.64818.2685s-.26849.4051-.26849.6482.09658.4763.26849.6482.40506.2685.64818.2685zm7.33513-9.1667h6.4094v-.00092c.0004.0069.0015.01397.0026.02106.0014.00894.0029.01792.0029.02661v11.86535c.0012.4857-.1904.9521-.5328 1.2967s-.8075.5393-1.2932.5412h-16.5147c-.48543-.0019-.95028-.1963-1.29259-.5405s-.53414-.8101-.53341-1.2956v-18.32873c-.00049-.4856.1917-.95155.53438-1.29561.34268-.34405.80786-.5381 1.29346-.53956h10.08886v6.413c0 .48689.1933.95386.5374 1.29831s.8109.5382 1.2977.53869zm.8892-7.27616 4.6951 5.10308h.0009c.088.09608.1669.21636.2449.33514l.0026.00403-5.7979-.00183v-6.05c.3273.16408.6325.36758.8544.60958z" fill="#fbedda" fill-rule="evenodd"/></svg>