<svg fill="none" height="20" viewBox="0 0 20 20" width="20" xmlns="http://www.w3.org/2000/svg" xmlns:xlink="http://www.w3.org/1999/xlink"><filter id="a" color-interpolation-filters="sRGB" filterUnits="userSpaceOnUse" height="28.3789" width="31.0039" x=".426758" y="1.09375"><feFlood flood-opacity="0" result="BackgroundImageFix"/><feBlend in="SourceGraphic" in2="BackgroundImageFix" mode="normal" result="shape"/><feGaussianBlur result="effect1_foregroundBlur_67_89953" stdDeviation="2.5"/></filter><linearGradient id="b" gradientUnits="userSpaceOnUse" x1="12.6366" x2="13.0598" y1="16.0576" y2="-2.12793"><stop offset="0" stop-color="#467b02"/><stop offset="1" stop-color="#369d06"/></linearGradient><linearGradient id="c" gradientUnits="userSpaceOnUse" x1="12.6366" x2="13.0598" y1="15.1396" y2="-3.0459"><stop offset="0" stop-color="#6fbf08"/><stop offset="1" stop-color="#42be07"/></linearGradient><linearGradient id="d" gradientUnits="userSpaceOnUse" x1="15.9287" x2="15.9287" y1="6.09375" y2="24.4721"><stop offset="0" stop-color="#28c60f"/><stop offset="1" stop-color="#10db3c"/></linearGradient><mask id="e" height="17" maskUnits="userSpaceOnUse" width="20" x="0" y="1"><path d="m16.6834 1.5c1.3956 0 2.527 1.13142 2.527 2.52703v3.21621c0 .18279-.0726.35809-.2018.48733-.1293.12925-.3046.20186-.4874.20186-.4265 0-.8355.16943-1.1371.47101s-.471.7106-.471 1.1371.1694.83556.471 1.13706c.3016.3016.7106.471 1.1371.471.1828 0 .3581.0727.4874.2019.1292.1293.2018.3046.2018.4873v3.2163c0 1.3956-1.1314 2.527-2.527 2.527h-13.32434c-1.39561 0-2.527029-1.1314-2.527029-2.527v-3.2163c0-.1827.072611-.358.201859-.4873.12925-.1292.30455-.2019.48733-.2019.4265 0 .83553-.1694 1.1371-.471.30158-.3015.47101-.71056.47101-1.13706s-.16943-.83552-.47101-1.1371c-.30157-.30158-.7106-.47101-1.1371-.47101-.18278 0-.35808-.07261-.48733-.20186-.129248-.12924-.201859-.30454-.201859-.48733v-3.21621c0-1.39561 1.131419-2.52703 2.527029-2.52703zm-8.4589 4.12066c-.12049-.12731-.28496-.20392-.45994-.21425-.17498-.01032-.34732.04641-.48195.15866l-.03262.02894c-.12731.12049-.20392.28496-.21425.45994-.01033.17499.04641.34733.15866.48196l1.54677 1.85598h-1.01725l-.04043.00115c-.17549.01031-.3404.0873-.461.2152s-.18777.29705-.18776.47284l.00115.04043c.01032.17549.0873.34041.2152.46101.1279.12059.29705.18776.47284.18775h1.72298v.91893h-1.72298l-.04043.0011c-.17549.0104-.3404.0873-.461.2152s-.18777.2971-.18776.4729l.00115.0404c.01032.1755.0873.3404.2152.461s.29705.1878.47284.1878h1.72298v.9189l.00114.0404c.01032.1755.0873.3404.2152.461s.29705.1878.47286.1878l.0404-.0012c.1755-.0103.3404-.0873.461-.2152s.1878-.297.1878-.4728v-.9189h1.4932l.0405-.0012c.1754-.0103.3404-.0873.461-.2152s.1877-.297.1877-.4728l-.0011-.0405c-.0104-.1754-.0873-.3404-.2152-.461s-.2971-.1877-.4729-.1877h-1.4932v-.91893h1.4932l.0405-.00115c.1754-.01031.3404-.08729.461-.21519.1206-.12791.1877-.29706.1877-.47285l-.0011-.04043c-.0104-.17549-.0873-.3404-.2152-.461s-.2971-.18777-.4729-.18776h-1.0177l1.5472-1.85621.0269-.03423c.1069-.14444.1531-.32489.1288-.50291-.0242-.17802-.117-.33954-.2586-.45013s-.3208-.16151-.4994-.14193c-.1786.01959-.3425.10815-.4567.2468l-1.7678 2.12156-1.76775-2.12156z" fill="url(#c)"/></mask><path d="m16.6834 2.41797c1.3956 0 2.527 1.13142 2.527 2.52703v3.21621c0 .18279-.0726.35808-.2018.48733-.1293.12925-.3046.20186-.4874.20186-.4265 0-.8355.16943-1.1371.47101-.3016.30157-.471.71059-.471 1.13709s.1694.8355.471 1.1371.7106.471 1.1371.471c.1828 0 .3581.0726.4874.2019.1292.1292.2018.3045.2018.4873v3.2162c0 1.3956-1.1314 2.5271-2.527 2.5271h-13.32434c-1.39561 0-2.527029-1.1315-2.527029-2.5271v-3.2162c0-.1828.072611-.3581.201859-.4873.12925-.1293.30455-.2019.48733-.2019.4265 0 .83553-.1694 1.1371-.471.30158-.3016.47101-.7106.47101-1.1371s-.16943-.83552-.47101-1.13709c-.30157-.30158-.7106-.47101-1.1371-.47101-.18278 0-.35808-.07261-.48733-.20186-.129248-.12925-.201859-.30454-.201859-.48733v-3.21621c0-1.39561 1.131419-2.52703 2.527029-2.52703zm-8.4589 4.12066c-.12049-.12731-.28496-.20392-.45994-.21425s-.34732.04641-.48195.15866l-.03262.02894c-.12731.12049-.20392.28496-.21425.45994s.04641.34733.15866.48195l1.54677 1.85599h-1.01725l-.04043.00115c-.17549.01031-.3404.0873-.461.2152s-.18777.29705-.18776.47284l.00115.04045c.01032.1755.0873.3404.2152.461s.29705.1877.47284.1877h1.72298v.919h-1.72298l-.04043.0011c-.17549.0103-.3404.0873-.461.2152s-.18777.2971-.18776.4728l.00115.0405c.01032.1755.0873.3404.2152.461s.29705.1877.47284.1877h1.72298v.919l.00114.0404c.01032.1755.0873.3404.2152.461s.29705.1878.47286.1877l.0404-.0011c.1755-.0103.3404-.0873.461-.2152s.1878-.2971.1878-.4728v-.919h1.4932l.0405-.0011c.1754-.0103.3404-.0873.461-.2152s.1877-.2971.1877-.4729l-.0011-.0404c-.0104-.1755-.0873-.3404-.2152-.461s-.2971-.1878-.4729-.1877h-1.4932v-.919h1.4932l.0405-.0011c.1754-.0103.3404-.0873.461-.2152s.1877-.2971.1877-.47285l-.0011-.04043c-.0104-.17549-.0873-.34041-.2152-.461-.1279-.1206-.2971-.18777-.4729-.18776h-1.0177l1.5472-1.85621.0269-.03424c.1069-.14443.1531-.32488.1288-.5029-.0242-.17802-.117-.33954-.2586-.45013s-.3208-.16152-.4994-.14193-.3425.10815-.4567.2468l-1.7678 2.12156-1.76775-2.12156z" fill="url(#b)"/><path d="m16.6834 1.5c1.3956 0 2.527 1.13142 2.527 2.52703v3.21621c0 .18279-.0726.35809-.2018.48733-.1293.12925-.3046.20186-.4874.20186-.4265 0-.8355.16943-1.1371.47101s-.471.7106-.471 1.1371.1694.83556.471 1.13706c.3016.3016.7106.471 1.1371.471.1828 0 .3581.0727.4874.2019.1292.1293.2018.3046.2018.4873v3.2163c0 1.3956-1.1314 2.527-2.527 2.527h-13.32434c-1.39561 0-2.527029-1.1314-2.527029-2.527v-3.2163c0-.1827.072611-.358.201859-.4873.12925-.1292.30455-.2019.48733-.2019.4265 0 .83553-.1694 1.1371-.471.30158-.3015.47101-.71056.47101-1.13706s-.16943-.83552-.47101-1.1371c-.30157-.30158-.7106-.47101-1.1371-.47101-.18278 0-.35808-.07261-.48733-.20186-.129248-.12924-.201859-.30454-.201859-.48733v-3.21621c0-1.39561 1.131419-2.52703 2.527029-2.52703zm-8.4589 4.12066c-.12049-.12731-.28496-.20392-.45994-.21425-.17498-.01032-.34732.04641-.48195.15866l-.03262.02894c-.12731.12049-.20392.28496-.21425.45994-.01033.17499.04641.34733.15866.48196l1.54677 1.85598h-1.01725l-.04043.00115c-.17549.01031-.3404.0873-.461.2152s-.18777.29705-.18776.47284l.00115.04043c.01032.17549.0873.34041.2152.46101.1279.12059.29705.18776.47284.18775h1.72298v.91893h-1.72298l-.04043.0011c-.17549.0104-.3404.0873-.461.2152s-.18777.2971-.18776.4729l.00115.0404c.01032.1755.0873.3404.2152.461s.29705.1878.47284.1878h1.72298v.9189l.00114.0404c.01032.1755.0873.3404.2152.461s.29705.1878.47286.1878l.0404-.0012c.1755-.0103.3404-.0873.461-.2152s.1878-.297.1878-.4728v-.9189h1.4932l.0405-.0012c.1754-.0103.3404-.0873.461-.2152s.1877-.297.1877-.4728l-.0011-.0405c-.0104-.1754-.0873-.3404-.2152-.461s-.2971-.1877-.4729-.1877h-1.4932v-.91893h1.4932l.0405-.00115c.1754-.01031.3404-.08729.461-.21519.1206-.12791.1877-.29706.1877-.47285l-.0011-.04043c-.0104-.17549-.0873-.3404-.2152-.461s-.2971-.18777-.4729-.18776h-1.0177l1.5472-1.85621.0269-.03423c.1069-.14444.1531-.32489.1288-.50291-.0242-.17802-.117-.33954-.2586-.45013s-.3208-.16151-.4994-.14193c-.1786.01959-.3425.10815-.4567.2468l-1.7678 2.12156-1.76775-2.12156z" fill="url(#c)"/><g mask="url(#e)"><g filter="url(#a)"><path d="m23.5426 6.09375c1.595 0 2.888 1.29305 2.888 2.88803v3.67572c0 .2089-.083.4092-.2307.5569s-.348.2307-.5569.2307c-.4874 0-.9549.1936-1.2996.5383-.3446.3447-.5383.8121-.5383 1.2995 0 .4875.1937.9549.5383 1.2996.3447.3446.8122.5383 1.2996.5383.2089 0 .4092.083.5569.2307s.2307.348.2307.5569v3.6757c0 1.595-1.293 2.888-2.888 2.888h-15.22781c-1.59498 0-2.88803-1.293-2.88803-2.888v-3.6757c0-.2089.08298-.4092.23069-.5569.14772-.1477.34806-.2307.55695-.2307.48743 0 .95489-.1937 1.29955-.5383.34466-.3447.53829-.8121.53829-1.2996 0-.4874-.19363-.9548-.53829-1.2995s-.81212-.5383-1.29955-.5383c-.20889 0-.40923-.083-.55695-.2307-.14771-.1477-.23069-.348-.23069-.5569v-3.67572c0-1.59498 1.29305-2.88803 2.88803-2.88803zm-9.6673 4.70935c-.1377-.1455-.3257-.2331-.5256-.2449-.2-.0118-.397.0531-.5508.1813l-.0373.0331c-.1455.1377-.2331.3257-.2449.5257-.0118.1999.053.3969.1813.5508l1.7678 2.1211h-1.1626l-.0462.0013c-.2006.0118-.389.0998-.5269.246-.1378.1461-.2145.3394-.2145.5403l.0013.0463c.0118.2005.0997.389.2459.5268s.3395.2146.5404.2146h1.9691v1.0502h-1.9691l-.0462.0013c-.2006.0118-.389.0998-.5269.2459-.1378.1462-.2145.3395-.2145.5404l.0013.0462c.0118.2006.0997.3891.2459.5269s.3395.2146.5404.2146h1.9691v1.0502l.0013.0462c.0118.2005.0998.389.246.5268.1461.1379.3395.2146.5404.2146l.0462-.0013c.2005-.0118.389-.0998.5268-.2459.1379-.1462.2146-.3395.2146-.5404v-1.0502h1.7066l.0462-.0013c.2005-.0118.389-.0998.5268-.246.1379-.1462.2146-.3395.2146-.5404l-.0013-.0462c-.0118-.2005-.0998-.389-.2459-.5268-.1462-.1379-.3395-.2146-.5404-.2146h-1.7066v-1.0502h1.7066l.0462-.0013c.2005-.0118.389-.0998.5268-.246.1379-.1461.2146-.3395.2146-.5404l-.0013-.0462c-.0118-.2005-.0998-.389-.2459-.5268-.1462-.1379-.3395-.2146-.5404-.2146h-1.1631l1.7682-2.1214.0308-.0391c.1221-.1651.1749-.3713.1472-.5748-.0277-.2034-.1338-.388-.2956-.5144s-.3666-.1846-.5707-.1622-.3914.1236-.522.2821l-2.0203 2.4246-2.0203-2.4246z" fill="url(#d)"/></g></g></svg>