<svg fill="none" height="12" viewBox="0 0 12 12" width="12" xmlns="http://www.w3.org/2000/svg"><path d="m9.66851 9.12783h-1.92157c-.6463.62668-1.63799 1.75097-1.63799 1.75097-.06007.0626-.15786.0626-.21774 0 0 0-1.35478-1.4023-1.68207-1.75097h-1.87747c-.69617 0-1.26026-.65061-1.26026-1.35651v-4.79287c0-.70588.55177-1.27825 1.23214-1.27825h7.39287c.68058 0 1.23218.57237 1.23218 1.27825v4.79287c0 .70579-.5641 1.35651-1.26009 1.35651zm-6.13281-4.24359c-.34019 0-.61607.28619-.61607.63918 0 .35289.27587.63908.61607.63908s.61607-.28619.61607-.63908c0-.35299-.27588-.63918-.61607-.63918zm2.46429 0c-.34019 0-.61608.28619-.61608.63918 0 .35289.27608.63908.61608.63908.34019 0 .61607-.28619.61607-.63908 0-.35299-.27588-.63918-.61607-.63918zm2.46429 0c-.34 0-.61608.28619-.61608.63918 0 .35289.27608.63908.61608.63908.34039 0 .61607-.28619.61607-.63908 0-.35299-.27568-.63918-.61607-.63918z" fill="#fff" fill-opacity=".2"/></svg>