<svg fill="none" height="12" viewBox="0 0 12 12" width="12" xmlns="http://www.w3.org/2000/svg"><path d="m8.52409 10.7883c-.84744 0-3.72898-.1403-5.53607-1.95538-3.391743-3.40644-2.278475-7.3389-2.229411-7.50491l.090107-.30407.315614-.01997c.18575-.011096 4.5692-.144251 7.58301 2.69976 1.79646 1.69432 2.70736 4.11401 2.70736 7.29627h-.9051c0-3.18225-.81325-5.11321-2.41706-6.62909-2.27227-2.1489-5.53512-2.40459-6.57851-2.41125-.17622.93928-.43613 3.73626 2.07386 6.25712 1.42315 1.42934 3.73051 1.64065 4.67113 1.67084-.04662-.91176-.53935-3.21113-4.12357-4.82692l.37043-.83276c5.12121 2.30825 4.66357 6.01036 4.64137 6.16656l-.05236.3724-.37426.0173c-.02041.0005-.10337.0041-.23654.0041z" fill="#ff6d6d"/></svg>