<svg fill="none" height="13" viewBox="0 0 13 13" width="13" xmlns="http://www.w3.org/2000/svg" xmlns:xlink="http://www.w3.org/1999/xlink"><clipPath id="a"><path d="m.5.5h12v12h-12z"/></clipPath><g clip-path="url(#a)"><path d="m6.5.5c1.5913 0 3.11742.63214 4.2426 1.75736 1.1253 1.12522 1.7574 2.65134 1.7574 4.24264s-.6321 3.11742-1.7574 4.2426c-1.12518 1.1253-2.6513 1.7574-4.2426 1.7574s-3.11742-.6321-4.24264-1.7574c-1.12522-1.12518-1.75736-2.6513-1.75736-4.2426s.63214-3.11742 1.75736-4.24264 2.65134-1.75736 4.24264-1.75736zm.03086 8.33486c-.13458 0-.26365.05346-.35881.14862s-.14862.22423-.14862.35881c0 .13457.05346.26364.14862.3588s.22423.14862.35881.14862.26364-.05346.3588-.14862.14863-.22423.14863-.3588c0-.13458-.05347-.26365-.14863-.35881s-.22422-.14862-.3588-.14862zm-.006-5.83715c-.27595-.00029-.54923.0541-.80404.16003-.25481.10592-.48611.26129-.68053.45712-.1955.19489-.35046.42658-.45594.68167-.10548.2551-.1594.52857-.15864.80461 0 .11196.04448.21934.12365.2985.07916.07917.18654.12365.2985.12365s.21933-.04448.2985-.12365c.07916-.07916.12364-.18654.12364-.2985 0-.69428.56486-1.25914 1.26-1.26.36 0 .70629.14743.95143.40543.21514.22629.324.51343.30857.81-.012.25457-.02571.49457-.78086 1.25057-.47228.47143-.90171.94457-.95914 1.52915-.02229.23142.14657.43971.37886.46114.05523.00556.11101.00016.16415-.01588.05314-.01605.10259-.04242.14551-.07762.04293-.0352.07848-.07853.10462-.12749.02614-.04897.04236-.10262.04772-.15787.02657-.27686.29228-.59314.71485-1.01486.83143-.83228.99858-1.26085 1.02772-1.80257.01334-.26356-.02771-.52704-.12062-.77404-.0929-.247-.23566-.47223-.41938-.66167-.20259-.21181-.44608-.38028-.7157-.4952-.26963-.11492-.55978-.1739-.85287-.17337z" fill="#fff"/></g></svg>