<svg fill="none" height="11" viewBox="0 0 11 11" width="11" xmlns="http://www.w3.org/2000/svg"><path d="m5.5 0c-3.03754 0-5.5 2.4622-5.5 5.5s2.46246 5.5 5.5 5.5 5.5-2.46272 5.5-5.5-2.46246-5.5-5.5-5.5zm0 8.44492c-.12655-.00026-.25019-.03802-.35529-.10852s-.18694-.17056-.23519-.28756c-.04825-.11699-.06074-.24566-.0359-.36975.02485-.12409.08592-.23803.1755-.32742.08958-.0894.20364-.15024.32778-.17483.12414-.0246.25278-.01184.36968.03665.11689.04848.21679.13053.28708.23578.07028.10524.10779.22895.10779.3555 0 .08418-.0166.16753-.04885.24528-.03226.07775-.07953.14838-.13911.20784s-.1303.10658-.20812.13867c-.07781.0321-.1612.04853-.24537.04836zm.64145-2.77247c-.00241.16852-.07104.32932-.19106.44764s-.28179.18465-.45032.18465c-.16854 0-.33031-.06633-.45033-.18465s-.18865-.27912-.19106-.44764v-2.98594c.00241-.16852.07104-.32932.19106-.44765.12002-.11832.28179-.18465.45033-.18465.16853 0 .3303.06633.45032.18465.12002.11833.18865.27913.19106.44765z" fill="#ff5c5c"/></svg>