<svg fill="none" height="14" viewBox="0 0 48 14" width="48" xmlns="http://www.w3.org/2000/svg" xmlns:xlink="http://www.w3.org/1999/xlink"><linearGradient id="a" gradientUnits="userSpaceOnUse" x1="30.6592" x2="29.1697" y1="-.447222" y2="13.7473"><stop offset="0" stop-color="#fea96b"/><stop offset="1" stop-color="#ff6422"/><stop offset="1" stop-color="#f17922"/></linearGradient><g fill-opacity=".8"><path d="m0 5c0-2.76142 2.23858-5 5-5h42c.5523 0 1 .447715 1 1v8c0 2.7614-2.2386 5-5 5h-42.000001c-.552285 0-.999999-.4477-.999999-1z" fill="url(#a)"/><g fill="#fff"><path d="m6.28979 4.64008v6.65002h.75v-6.65002zm.39 0v.66h4.29001v1.24h-4.29001v.66h5.04001v-2.56zm-.02 3.52v.67h4.90001v2.42002h.74v-3.09002zm.02 2.02002v.67h5.30001v-.67zm1.9-8.06002v1.48h.79v-1.48zm-3.8.86v2.17h.73v-1.46h6.93001v1.46h.76v-2.17z"/><path d="m14.5198 3.83008v.72h8.95v-.72zm3.27 2.37v.72h4v-.72zm3.73 0-.01.13c-.17 2.74-.37 3.86002-.69 4.15002-.11.1-.25.11-.47.11-.26 0-.97 0-1.69-.07.14.21.25.52.26.74.68.03 1.34.05 1.69.03.38-.03.63-.1.86-.34.39-.4.59-1.51002.79-4.39002.02-.11.03-.36.03-.36zm-3.9-1.97c-.11 2.39-.28 5.18-3.2 6.50002.19.15.43.42.54.61 3.05-1.46002 3.34-4.46002 3.49-7.11002zm.95-2.15v2.06h.77v-2.06z"/><path d="m28.6398 6.02008v.65h4.55v-.65zm0 2.01v.66h4.55v-.66zm-.07 2.06002v.69h5.03v-.69zm2.11-5.76002v6.01002h.7v-6.01002zm.69-2.2c-.19.67-.55 1.64-.86 2.23l.63.18c.31-.56.71-1.46 1.02-2.23zm-2.3-.04c-.41 1.45-1.11 2.84-1.99 3.72.15.15.4.48.51.62.93-1 1.72-2.55 2.2-4.16zm-.33 1.91-.41.41v6.88002h.72v-6.62002h4.38v-.67zm-4.47 3.42.17.74c.89-.27 2.04-.63 3.13-.97l-.09-.67c-1.18.34-2.4.7-3.21.9zm.17-3.3v.7h3.05v-.7zm1.36-2.01v8.28002c0 .15-.06.19-.19.19-.12.01-.54.01-.99-.01.1.21.2.54.23.73.65 0 1.06-.02 1.32-.15.26-.12.35-.33.35-.76v-8.28002z"/><path d="m34.5898 4.96008v.67h8.82v-.67zm3.5 1.37v.62h4.11v-.62zm-.7 2.06v.65h6.11v-.65zm.37-4.46c-.72 1.8-1.97 3.38-3.49 4.34.16.14.42.46.53.61 1.55-1.08 2.86-2.76 3.69-4.76zm2.35 3.71v2.86002c0 .13-.05.16-.2.17-.14 0-.65 0-1.21-.02.1.2.21.47.24.65.75 0 1.22 0 1.52-.11.29-.1.37-.29.37-.68v-2.87002zm1.84-1.31v.14c-.39.43-1.14.99-1.79 1.31.11.1.3.29.39.42.74-.37 1.59-.97 2.17-1.55l-.46-.36-.14.04zm-5.08-4.22v2.27h.74v-2.27zm3.45 0v2.27h.73v-2.27zm-5.71.73v.67h8.8v-.67zm1.39 4.24v4.22002h.71v-4.69002l-.2-.06z"/></g></g></svg>