<svg fill="none" height="40" viewBox="0 0 41 40" width="41" xmlns="http://www.w3.org/2000/svg" xmlns:xlink="http://www.w3.org/1999/xlink"><linearGradient id="a" gradientUnits="userSpaceOnUse" x1="36.4739" x2="20.3633" y1="14.6818" y2="39.5482"><stop offset="0" stop-color="#e1640c"/><stop offset="1" stop-color="#f18d34"/></linearGradient><linearGradient id="b" gradientUnits="userSpaceOnUse" x1="3.97709" x2="20.4205" y1="14.0037" y2="39.378"><stop offset="0" stop-color="#d76215"/><stop offset="1" stop-color="#f1882d"/></linearGradient><linearGradient id="c"><stop offset="0" stop-color="#f09c2b"/><stop offset="1" stop-color="#f4ac31"/></linearGradient><linearGradient id="d" gradientUnits="userSpaceOnUse" x1="8.03032" x2="4.14276" xlink:href="#c" y1="1.94206" y2="13.8674"/><linearGradient id="e" gradientUnits="userSpaceOnUse" x1="38.2996" x2="32.6991" y1="5.22749" y2="13.8716"><stop offset="0" stop-color="#ee8a1b"/><stop offset="1" stop-color="#f4ac30"/></linearGradient><linearGradient id="f" gradientUnits="userSpaceOnUse" x1="8.08749" x2="4.1999" xlink:href="#c" y1="1.96069" y2="13.8861"/><linearGradient id="g" gradientUnits="userSpaceOnUse" x1="26.6003" x2="26.6528" y1="-.12536" y2="13.7438"><stop offset="0" stop-color="#f5c224"/><stop offset="1" stop-color="#f5a91b"/></linearGradient><linearGradient id="h" gradientUnits="userSpaceOnUse" x1="20.3683" x2="20.6835" y1="14.8308" y2="39.0961"><stop offset="0" stop-color="#f4a41c"/><stop offset=".6964" stop-color="#f5c424"/><stop offset="1" stop-color="#f5d129"/></linearGradient><linearGradient id="i" gradientUnits="userSpaceOnUse" x1="13.8434" x2="14.2637" y1="13.9695" y2="1.51877"><stop offset="0" stop-color="#f5a91b"/><stop offset="1" stop-color="#f5c123"/></linearGradient><linearGradient id="j" gradientUnits="userSpaceOnUse" x1="20.5012" x2="20.3611" y1=".072931" y2="13.5919"><stop offset="0" stop-color="#f8e093"/><stop offset=".751" stop-color="#faebbc"/><stop offset="1" stop-color="#faefca"/></linearGradient><path d="m20.1221 39.716 12.9361-25.5319 7.3972.1182z" fill="url(#a)"/><path d="m20.5969 39.716-12.90778-25.5319h-7.18912z" fill="url(#b)"/><path d="m20.5969 39.716-12.90778-25.5319h-7.18912z" fill="url(#b)"/><path d="m8.29905 1.65527-.6383 12.17023-7.16075.4657z" fill="url(#d)"/><path d="m32.6157 1.54553.5485 12.62887 7.3357.1182z" fill="url(#e)"/><path d="m8.29905 1.65527-.66431 12.63593h-7.13474z" fill="url(#f)"/><path d="m32.6184 1.55083-12.26-1.55083 12.8132 14.1891z" fill="#f6d86a"/><path d="m32.6186 1.5509-12.2553-1.54845859 12.5272 13.87465859z" fill="url(#g)"/><path d="m8.21884 1.55083 12.14186-1.55083-12.8109 14.1844z" fill="#f6d86a"/><path d="m20.3607 39.716 12.8085-25.5319h-25.6194z" fill="#f5c525"/><path d="m20.3609 39.716 12.3381-25.5319h-24.67849z" fill="url(#h)"/><path d="m20.3607 0 12.8085 14.1844h-25.6194z" fill="#fff"/><path d="m8.2184 1.55083 12.1418-1.55083-12.51059 13.8605z" fill="url(#i)"/><path d="m20.3608 0 12.1041 13.7116h-12.4468-11.76126z" fill="url(#j)"/></svg>