<svg fill="none" height="24" viewBox="0 0 25 24" width="25" xmlns="http://www.w3.org/2000/svg"><path clip-rule="evenodd" d="m20.5594 2.13852c-.2206-.09137-.457-.1384-.6958-.1384h-14.54542c-.23877 0-.47519.04703-.69579.1384-.22059.09138-.42102.2253-.58986.39414-.16883.16883-.30276.36926-.39413.58986-.09137.22059-.1384.45702-.1384.69578v16.3636c0 .2388.04703.4752.1384.6958s.2253.4211.39413.5899c.16884.1688.36927.3027.58986.3941.2206.0914.45702.1384.69579.1384h14.54542c.2388 0 .4752-.047.6958-.1384s.4211-.2253.5899-.3941.3027-.3693.3941-.5899.1384-.457.1384-.6958v-16.3636c0-.23876-.047-.47519-.1384-.69578-.0914-.2206-.2253-.42103-.3941-.58986-.1688-.16884-.3693-.30276-.5899-.39414zm-15.24122 1.67978h14.54542v16.3636h-14.54542zm11.81832 2.72702h-9.09093c-.60607 0-.9091.30303-.9091.90909s.30303.90909.9091.90909h9.09093c.606 0 .9091-.30303.9091-.90909s-.3031-.90909-.9091-.90909zm-9.09093 3.63658h9.09093c.606 0 .9091.303.9091.909 0 .6061-.3031.9091-.9091.9091h-9.09093c-.60607 0-.9091-.303-.9091-.9091 0-.606.30303-.909.9091-.909zm5.45453 3.6365h-5.45453c-.60607 0-.9091.303-.9091.9091 0 .606.30303.9091.9091.9091h5.45453c.6061 0 .9091-.3031.9091-.9091 0-.6061-.303-.9091-.9091-.9091z" fill="#d9d9d9" fill-rule="evenodd"/></svg>