<svg fill="none" height="24" viewBox="0 0 25 24" width="25" xmlns="http://www.w3.org/2000/svg"><path d="m12.5 1.50012c5.7989 0 10.5 4.70114 10.5 10.49998 0 5.7989-4.7011 10.5-10.5 10.5-5.79886 0-10.5-4.7011-10.5-10.5 0-5.79884 4.70114-10.49998 10.5-10.49998zm0 1.90909c-1.1282 0-2.2453.22221-3.2876.65395-1.0423.43173-1.98935 1.06453-2.78709 1.86227s-1.43054 1.7448-1.86228 2.78709c-.43173 1.0423-.65394 2.15938-.65394 3.28758s.22221 2.2453.65394 3.2876c.43174 1.0423 1.06454 1.9894 1.86228 2.7871.79774.7978 1.74479 1.4306 2.78709 1.8623s2.1594.6539 3.2876.6539c2.2785 0 4.4636-.9051 6.0747-2.5162s2.5162-3.7962 2.5162-6.0747c0-2.27843-.9051-4.46356-2.5162-6.07467s-3.7962-2.51622-6.0747-2.51622zm-2.2785 3.54137.0897.07922 2.1888 2.18782 2.1888-2.18782c.1643-.16435.383-.26308.615-.27766.232-.01459.4613.05597.645.19844l.0897.07922c.1644.16437.2631.38306.2777.61504s-.056.46131-.1985.64496l-.0792.08973-1.7115 1.71147h1.0366c.2433.0003.4773.0935.6543.2605.1769.167.2833.3953.2976.6381.0142.2429-.0648.4821-.2209.6686-.1562.1866-.3777.3065-.6193.3352l-.1117.0067h-1.9052v.9546h1.9052c.2433.0002.4773.0934.6543.2604.1769.167.2833.3953.2976.6382.0142.2428-.0648.482-.2209.6686-.1562.1865-.3777.3064-.6193.3352l-.1117.0067h-1.9052v1.909c-.0003.2433-.0935.4774-.2605.6543s-.3953.2833-.6381.2976c-.2429.0143-.4821-.0648-.6686-.2209-.1866-.1562-.3065-.3777-.3352-.6193l-.0067-.1117v-1.909h-1.91294c-.24329-.0003-.4773-.0935-.65421-.2605s-.28337-.3953-.29763-.6381c-.01426-.2429.06476-.4821.22092-.6686.15615-.1866.37765-.3065.61924-.3353l.11168-.0066h1.91294v-.9546h-1.91294c-.24329-.0002-.4773-.0934-.65421-.2604s-.28337-.3953-.29763-.6382.06476-.482.22092-.6686c.15615-.1865.37765-.3065.61924-.3352l.11168-.0067h1.03564l-1.7105-1.71147c-.1712-.17178-.27059-.40228-.27799-.64468-.0074-.24241.07774-.47854.23814-.66045.16039-.1819.38401-.29593.62544-.31893s.48251.04676.67441.19511z" fill="#d9d9d9"/></svg>