<svg fill="none" height="40" viewBox="0 0 40 40" width="40" xmlns="http://www.w3.org/2000/svg" xmlns:xlink="http://www.w3.org/1999/xlink"><linearGradient id="a" gradientUnits="userSpaceOnUse" x1="20" x2="20" y1="0" y2="40"><stop offset="0" stop-color="#6b6865"/><stop offset="1" stop-color="#2c2d31"/></linearGradient><clipPath id="b"><rect height="40" rx="20" width="40"/></clipPath><clipPath id="c"><path d="m0 0h40v40h-40z"/></clipPath><g clip-path="url(#b)"><g clip-path="url(#c)"><path d="m0 0h40v40h-40z" fill="url(#a)"/><path clip-rule="evenodd" d="m14.8975 27.2919 10.369.0971v2.3577l4.5642 2.1766-10.2256 9.5946-8.7745-9.9994 4.0669-1.7313z" fill="#a2a2a2" fill-rule="evenodd"/><path d="m.693536 37.0893-.693536 5.5034 40-.0001-.6917-5.4885c-.2537-2.0133-1.6991-3.6736-3.6582-4.2022l-8.6066-2.3221c-.4679 2.0636-1.3474 4.0115-2.5858 5.7273-1.2385 1.7157-2.8104 3.1638-4.6217 4.2577-3.8726-2.5858-6.0629-7.1482-6.6332-10.105l-8.87086 2.4327c-1.94975.5347-3.385623 2.191-3.638404 4.1968z" fill="#cbcbcb"/><g clip-rule="evenodd" fill-rule="evenodd"><path d="m25.6766 29.9417c.4745.2261 1.2861.6049 1.3649.6512-1.3232 4.1509-10.2471 5.6711-12.8779-.4928z" fill="#000" opacity=".11"/><path d="m20.0302 7.57458c13.8721 0 8.4656 22.98822 0 22.98822-7.9956 0-13.87202-22.98822 0-22.98822z" fill="#a2a2a2"/><path d="m11.7101 17.752c-2.00121.8734-.2999 5.0107.9595 4.9918-.5223-1.6185-.8446-3.295-.9595-4.9918zm16.8014 0c2.0012.8728.2999 5.0107-.9588 4.9918.5219-1.6186.844-3.295.9588-4.9918z" fill="#a2a2a2"/><path d="m14.9896 12.1408c-.3859 1.8043-.2504 3.5982-1.9608 3.9294-.4068.0782-.676.629-.764 1.1147-.1984 1.0593-.2814 2.137-.2477 3.2142.0678.3709-.2581-.7118-.2581-.7118l-.0554-2.069s-.0241-.3963-.015-1.0006c.0195-1.2254.159-3.2123.7796-3.8198.9263-.9061 2.5214-.6571 2.5214-.6571zm10.2334 0c.3859 1.8043.2509 3.5982 1.9607 3.9294.4068.0782.6767.629.764 1.1147.1901 1.0636.2584 2.1455.2034 3.2247-.0685.3715.2575-.7119.2575-.7119l.1082-2.0715s.0163-.4042.0065-1.0085c-.0183-1.2254-.1578-3.2123-.779-3.8198-.9262-.9061-2.5213-.6571-2.5213-.6571z" fill="#4a4a4a"/><path d="m16.2723 32.3743c-.9843-.9497-1.7717-1.6863-2.4861-2.4236-.9159-.9458-1.2261-1.9047-1.4041-3.5839-.4039-2.9016-.6309-5.8251-.6799-8.7543 0 0 .674 4.1282 1.9308 6.1632.6453 1.045 3.2853-1.4112 4.3381-1.7847.3579-.1657.7613-.2054 1.1447-.1129s.7243.3119.9673.6226c.2385-.3112.5763-.5314.9573-.6241s.7822-.0524 1.1371.1144c1.0534.3735 3.6568 2.4718 4.3387 1.7847 1.6394-1.6531 1.9927-6.1574 1.9927-6.1574-.0685 2.9619-.3143 5.9171-.7359 8.8496-.2367 1.79-.3566 2.4835-.9687 3.1836-.8984 1.0091-1.8965 1.9248-2.979 2.7332-.5397.4277-1.4777.8292-3.8674.8149-2.2202-.0131-3.1308-.2901-3.6856-.8253zm9.2824-19.8684c.3457-.067.7036-.0261 1.0254.1169.3217.143.5918.3814.7737.6829 1.0143 1.7033 1.0984 1.923 1.0984 1.923s-.12-3.0468-.1923-3.4092c.0872-.0803.2023-.1234.3208-.12s.231.053.3134.1382c.0717.1447-.2894-3.06369-2.1739-3.67903-.689-1.95686-3.0989-3.40658-3.0989-3.40658l-.1088 1.08729c-.2427-.73814-.6978-1.38825-1.3083-1.86889-.6105-.48063-1.3493-.77041-2.1237-.83304.4347.48954.3304.84741.3304.84741-.6782-.28414-1.408-.42442-2.1432-.41197.0912.57949-.5795 1.19615-.5795 1.19615s-.4166-.63491-2.0658-.85197c-.29 1.05078-.8343 1.232-1.3591 1.72154-.4408.45149-.8464.93615-1.2131 1.44972 0 0 .0541-1.01494.4166-1.30501.1362-.08996-3.0742 1.17529-1.468 5.89018-.2877-.007-.5694.0832-.7995.2562-.2301.1729-.3951.4184-.4683.6968.906.2535.5312 1.6231 1.0384 2.5109.3565-1.0299.5925-3.0363 2.8212-2.5109 1.5957.3761 3.1275 1.1824 4.9671 1.247 2.5989.0906 3.5858-1.2738 5.997-1.3676z" fill="#373737"/><path d="m20.8686 27.2357c.2539.0426.5141.0304.763-.0357s.4808-.1846.6802-.3476c.4693-.541.8519-1.3096.1401-1.7228-.6948-.4935-1.4932-.8217-2.3343-.9596-.846.1356-1.6497.4634-2.3492.9583-.8735.5052-.339 1.1831.131 1.7241.1994.163.4313.2815.6802.3476s.509.0783.763.0357c-.5287-1.8408 2.0553-1.8408 1.526 0z" fill="#909090"/></g></g></g></svg>