<svg fill="none" height="18" viewBox="0 0 52 18" width="52" xmlns="http://www.w3.org/2000/svg" xmlns:xlink="http://www.w3.org/1999/xlink"><clipPath id="a"><path d="m3.7998 4.7998h7.8v7.80002h-7.8z"/></clipPath><path d="m13.8364 7.35254v-2.83739c-1.6929-.49714-3.1266-1.44815-4.09106-2.67628h-3.85021c-.96506 1.22753-2.39819 2.17854-4.09044 2.67628v2.83739c0 4.07996 2.52332 7.53356 6.01584 8.73396 3.49077-1.2004 6.01587-4.6546 6.01587-8.73396z" fill="#feebca"/><path d="m11.6303 1.22513h37.9626c.3161-.00008.6291.06325.9211.18639.2921.12313.5574.30364.781.53123.2235.2276.4008.4978.5218.79519.1209.29739.1832.61614.1832.93804v11.02912c0 .65-.2535 1.2734-.7048 1.7331-.4513.4596-1.0634.7178-1.7017.7178h-39.6938c-.66108.3571-1.35758.6402-2.07886.844-4.31356-1.2011-7.534568-5.1903-7.82084-10.03487v-4.95701c2.2524-.25068 4.12114-1.4205 4.94985-3.00812h5.73965c.2331.446649.5572.855425.9408 1.22513zm10.7845 10.17917v1.8304h.6375v-1.8304h1.9921v.5049h.6197v-4.34623h-2.6118v-.90171h-.6375v.90171h-2.5853v4.37333h.6198v-.532zm3.9665-5.78001h-3.3556c-.0885-.28855-.1682-.54103-.2567-.76646l-.6729.11722c.0974.19838.1859.41479.2744.64924h-3.3732v1.62308h.6197v-1.03697h6.1445v.99188h.6198zm3.0634 2.99368c.2656.38774.5755.90172.9385 1.53293l.3542-.55006c-.4427-.6312-.8677-1.19026-1.2927-1.6862v-.58612h1.0448v-.62218h-1.0448v-1.75834h-.6109v1.75834h-1.2218v.62218h1.1952c-.2656 1.19027-.7171 2.25429-1.3457 3.19208l.2656.6582c.4705-.7786.8424-1.61487 1.1067-2.48869v4.51759h.6109zm1.2661-2.6871v.58611h1.7176c-.5666.98287-1.0182 1.58702-1.3723 1.82146-.0354.01804-.0708.03607-.124.05411l.1328.53201c.6995-.02705 1.3635-.06312 1.9833-.09919-.726.82957-1.6202 1.43373-2.6916 1.82143l.3453.5411c1.7177-.6493 3.0103-1.87561 3.8957-3.661l-.5135-.27953c-.1771.36069-.3807.69432-.6109 1.01894-.549.04508-1.1067.08115-1.6734.11722.3719-.3697.7969-.99189 1.2838-1.86655h2.4259v-.58611h-1.9655c-.1239-.37872-.2568-.71235-.3896-1.0009l-.6551.1082c.1593.27052.301.56808.4249.8927zm2.8332 5.44633c.6552.6312 1.1776 1.2263 1.5671 1.7854l.4604-.4689c-.4427-.5681-.9916-1.1361-1.6291-1.7132.5755-.5952 1.0802-1.2985 1.5052-2.11005l-.5401-.28854c-1.0359 1.97479-2.5942 3.30929-4.6748 4.00359l.3453.5591c1.1333-.3968 2.116-.9919 2.966-1.7674zm6.5429-6.47428v1.62308h-3.1696v4.2381h.6375v-.5681h2.5321v3.0748h.6552v-3.0748h2.5411v.5681h.6374v-4.2381h-3.1785v-1.62308zm-19.6376 4.86925v1.03693h1.9655v-1.03693zm2.603 1.03693h1.9921v-1.03693h-1.9921zm1.9921-1.61403v-1.03697h-1.9921v1.03697zm-2.6296-1.03697h-1.9655v1.03697h1.9655zm15.14 1.40667h2.5321v-2.40757h-2.5321zm3.1873 0h2.5411v-2.40757h-2.5411zm-26.9054-2.2122v-2.83739c-1.6929-.49715-3.1266-1.44815-4.09105-2.67629h-3.85021c-.96507 1.22754-2.3982 2.17854-4.09045 2.67629v2.83739c0 4.07993 2.52333 7.53353 6.01585 8.73403 3.49076-1.2005 6.01586-4.6547 6.01586-8.73403z" fill="#c72a29"/><path d="m17 4.0738h30v10.1845h-30z" fill="#c72a29"/><g clip-path="url(#a)"><g fill="#c72a29"><path d="m10.5279 5.87144v-.00001c-.3674-.36721-.79546-.65569-1.27207-.85718l-.00001-.00001c-.49362-.20866-1.01799-.31444-1.55812-.31444-.54012 0-1.0643.10578-1.55754.31447-.47617.20147-.90377.48999-1.27063.85729-.36673.36716-.65479.79502-.85594 1.27143-.20824.49321-.31379 1.01715-.31379 1.55682 0 .53971.10556 1.06365.31379 1.55679.20116.4765.48922.9043.85594 1.2715.36685.3672.79443.6558 1.27063.8573.49323.2086 1.01741.3144 1.55754.3144.54014 0 1.06451-.1058 1.55813-.3144.47661-.2015.90467-.49 1.27207-.8572.3673-.3672.6559-.7951.8574-1.2714.2087-.4933.3145-1.0173.3145-1.55699 0-.53971-.1058-1.0637-.3145-1.55698-.2015-.47635-.4901-.9042-.8574-1.27139zm-.54524 5.11036c-.29643.2966-.64148.5293-1.02581.6919-.3978.1682-.82058.2536-1.25704.2536-.43588 0-.8583-.0854-1.25599-.2536-.38429-.1626-.7294-.3953-1.026-.6919s-.52929-.6417-.69189-1.026c-.16825-.39772-.2536-.82014-.2536-1.25599 0-.43586.08534-.85828.2536-1.25598l-.09209-.03896.09209.03896c.16259-.38428.39528-.72938.69188-1.026.29662-.29662.64173-.52931 1.026-.69188.39769-.16826.82012-.2536 1.25599-.2536s.85828.08534 1.25598.2536c.38427.16259.72938.39527 1.02598.69188.29664.29661.52934.64171.69194 1.026.1682.39771.2536.82013.2536 1.25599 0 .43596-.0853.85841-.2533 1.25606-.1625.38432-.395.72942-.69134 1.02592z" stroke="#c72a29" stroke-width=".2"/><path d="m7.41857 6.50549-.55371.00049.00223 2.47604.0004.05524.00037.02994 2.03876 1.4648.32736-.4466-1.81313-1.32902z"/><path clip-rule="evenodd" d="m7.4835 6.44043.00231 2.28297 1.83902 1.348-.40384.551-2.11772-1.52157-.00077-.06277-.0004-.05558-.0023-2.54144zm-.55358.13049.00217 2.41063.00038.05203 1.95979 1.40802.25087-.3422-1.78725-1.31005-.00225-2.21881z" fill-rule="evenodd"/></g><g stroke="#c72a29" stroke-width=".2"><path d="m7.41857 6.50549-.55371.00049.00223 2.47604.0004.05524.00037.02994 2.03876 1.4648.32736-.4466-1.81313-1.32902z"/><path clip-rule="evenodd" d="m7.4835 6.44043.00231 2.28297 1.83902 1.348-.40384.551-2.11772-1.52157-.00077-.06277-.0004-.05558-.0023-2.54144zm-.55358.13049.00217 2.41063.00038.05203 1.95979 1.40802.25087-.3422-1.78725-1.31005-.00225-2.21881z" fill-rule="evenodd"/></g></g></svg>