<svg fill="none" height="32" viewBox="0 0 32 32" width="32" xmlns="http://www.w3.org/2000/svg"><path d="m32 16c0 8.8366-7.1634 16-16 16-8.83656 0-16-7.1634-16-16 0-8.83656 7.16344-16 16-16 8.8366 0 16 7.16344 16 16z" fill="#feebca"/><path d="m8.53333 8.5332h14.9333v14.9333h-14.9333z" fill="#feebca"/><path d="m13.2 11.0225c-1.89 0-3.42223 1.5322-3.42223 3.4222 0 3.4222 4.04443 6.5333 6.22223 7.257 2.1778-.7237 6.2222-3.8348 6.2222-7.257 0-1.89-1.5322-3.4222-3.4222-3.4222-1.1574 0-2.1807.5746-2.8 1.454-.6193-.8794-1.6426-1.454-2.8-1.454z" fill="#fc4439" stroke="#fc4439" stroke-linecap="round" stroke-linejoin="round" stroke-width="1.06667"/></svg>