<svg fill="none" height="32" viewBox="0 0 32 32" width="32" xmlns="http://www.w3.org/2000/svg"><path clip-rule="evenodd" d="m16 32c8.8366 0 16-7.1634 16-16 0-8.83656-7.1634-16-16-16-8.83656 0-16 7.16344-16 16 0 8.8366 7.16344 16 16 16zm-7.99999-17.9994c0-2.43 1.96995-4.39999 4.39999-4.39999 1.4881 0 2.8037.73879 3.6 1.86949.7963-1.1307 2.1119-1.86949 3.6-1.86949 2.43 0 4.4 1.96999 4.4 4.39999 0 4.4-5.2 8.4-8 9.3305-2.8-.9305-7.99999-4.9305-7.99999-9.3305z" fill="#feebca" fill-rule="evenodd"/></svg>