<svg width="12" height="12" viewBox="0 0 12 12" fill="none" xmlns="http://www.w3.org/2000/svg">
<path d="M8.52409 10.7883C7.67665 10.7883 4.79511 10.648 2.98802 8.83292C-0.403723 5.42648 0.709545 1.49402 0.758609 1.32801L0.848716 1.02394L1.16433 1.00397C1.35008 0.992874 5.73353 0.859719 8.74734 3.70373C10.5438 5.39805 11.4547 7.81774 11.4547 11H10.5496C10.5496 7.81775 9.73635 5.88679 8.13254 4.37091C5.86027 2.22201 2.59742 1.96632 1.55403 1.95966C1.37781 2.89894 1.1179 5.69592 3.62789 8.21678C5.05104 9.64612 7.3584 9.85743 8.29902 9.88762C8.2524 8.97586 7.75967 6.67649 4.17545 5.0607L4.54588 4.22794C9.66709 6.53619 9.20945 10.2383 9.18725 10.3945L9.13489 10.7669L8.76063 10.7842C8.74022 10.7847 8.65726 10.7883 8.52409 10.7883V10.7883Z" fill="#FF6D6D"/>
</svg>
