<svg fill="none" height="14" viewBox="0 0 14 14" width="14" xmlns="http://www.w3.org/2000/svg"><path d="m7.17662 3.88316c.29001-.36911.60639-.69208.94914-.96891.29001-.23729.61299-.4548.96891-.65254.35593-.19774.72504-.28342 1.10733-.25706.5537.03955 1.0151.17138 1.3842.39548s.6624.50093.8799.8305c.2175.32956.3658.70526.4449 1.1271.0791.42185.1055.85028.0791 1.2853-.0264.43503-.112.85027-.257 1.24575-.1451.39548-.3197.76788-.5241 1.11722-.2043.34934-.4251.66902-.6624.95903-.2373.29002-.4745.55367-.7118.79095-.356.36912-.7317.72172-1.12714 1.05792-.39547.3361-.77118.6327-1.1271.8898-.35593.2571-.67561.4614-.95903.613-.28343.1516-.49105.2274-.62288.2274-.15819 0-.36581-.0791-.62287-.2373s-.54378-.3658-.86016-.6229c-.31638-.257-.65254-.5536-1.00847-.8898-.35593-.3361-.71185-.6756-1.06778-1.01834-.22411-.22411-.47457-.47787-.75141-.7613-.27683-.28342-.53718-.59321-.78106-.92936-.24388-.33616-.4515-.70527-.62288-1.10734-.17137-.40206-.26365-.83379-.27683-1.29518-.026365-.44821.01977-.87334.13842-1.27541.11864-.40207.29331-.76129.524-1.07767.2307-.31638.51412-.58333.85028-.80084.33615-.21751.71515-.37241 1.13699-.46469.42184-.09227.84039-.04943 1.25564.12853.41525.17797.79424.39218 1.13699.64265.39548.29002.77118.63936 1.12711 1.04801z" fill="#c72a29"/></svg>