<svg fill="none" height="12" viewBox="0 0 12 12" width="12" xmlns="http://www.w3.org/2000/svg"><path d="m11.9983 9.50048c-.0695 1.38862-1.2761 2.49952-2.7483 2.49952h-6.49826c-1.47223 0-2.6788234-1.1092-2.74826783-2.49952h-.00347217v-6.99931h.00347217c.06944443-1.39027 1.27603783-2.50117 2.74826783-2.50117h5.47222l-1.18577.95385h-4.28645c-.96355.003307-1.75.75382-1.75 1.67461v6.74473c0 .92081.78645 1.67131 1.75 1.67131h6.49826c.9653 0 1.75-.7505 1.75-1.67131v-4.71966l1-.93897v5.78592zm-3.4549-4.19396-.72569.72902c-.24132.23474-.84896.8216-1.04167 1.01667s-.35416.35542-.47916.48271c-.12674.12564-.20313.19838-.2257.21656-.06076.0529-.13021.11076-.20833.17027-.07813.05951-.15973.10746-.24479.14382-.08507.04299-.20834.09258-.37153.15374-.1632.05952-.33334.11738-.51215.17523-.17882.05786-.34723.1058-.50695.14878-.15972.04133-.27951.06944-.35764.08101-.16319.01818-.27083-.00661-.32639-.07274-.05382-.06612-.06944-.17854-.04514-.33228.01216-.0843.04167-.20664.08681-.36534s.09375-.32401.1441-.49593c.05208-.17027.10069-.32897.1493-.47279.04861-.14383.08681-.24301.11806-.29757.03646-.08265.07639-.16035.12326-.22978.04514-.06943.10938-.14547.19445-.22978.03645-.03637.12152-.12233.25347-.25624.13194-.13555.68923-.67447.88889-.87284l.66146-.65795.73437-.72902 1.875-1.86472 1.70837 1.64981zm3.0642-3.07481c-.0902.08927-.1701.16862-.243.23475-.0712.06777-.1337.12729-.1858.17853-.0607.05951-.1163.11241-.1684.15705l-1.69964-1.64982c.09028-.08265.19792-.181838.32118-.297557.12327-.115718.22743-.20664.31077-.274418.10589-.082656.21529-.140515.32809-.173577.1042-.03141.2049-.046288.3056-.044635h.0278c.0555.001653.1093.006613.1632.016531.2291.041328.4687.1587.6718.345503.1129.104146.2049.221518.2709.340543.0989.17688.1458.36203.1354.53065 0 .01984.0017.04133.0017.06282 0 .09753-.0191.19507-.0573.2926-.0382.09754-.0989.19176-.1823.28103z" fill="#fff" fill-opacity=".6"/></svg>