<svg fill="none" height="14" viewBox="0 0 14 14" width="14" xmlns="http://www.w3.org/2000/svg"><path d="m11.0444 6.08528h-6.19109v-1.64953c0-1.13967.96445-2.06941 2.14667-2.06941s2.14667.92974 2.14667 2.06941c0 .32991.28.59983.62222.59983.34223 0 .62223-.26992.62223-.59983 0-1.79948-1.52445-3.26906-3.39112-3.26906s-3.39111 1.46958-3.39111 3.26906v1.64953h-.65333c-.34223 0-.62223.26992-.62223.59983v5.54839c0 .3299.28.5999.62223.5999h8.08886c.3422 0 .6222-.27.6222-.5999v-5.54839c0-.32991-.28-.59983-.6222-.59983zm-3.54664 3.83891c-.03111 0-.06222.02999-.06222.05998v.56983c0 .5698-.18667.6598-.43556.6598s-.43556-.06-.43556-.6598v-.4799-.11992c0-.02999-.03111-.05999-.06222-.05999-.18666-.11996-.31111-.3299-.31111-.59983 0-.41988.37333-.77977.80889-.77977s.80889.3299.80889.77977c.03111.26993-.12445.47987-.31111.62983z" fill="#fff" fill-opacity=".2"/></svg>