<svg fill="none" height="12" viewBox="0 0 12 12" width="12" xmlns="http://www.w3.org/2000/svg"><path d="m8.92735 11c-.12513 0-.25026-.0313-.38582-.1043l-2.10637-1.10528c-.05214-.03128-.12513-.05214-.20854-.05214-.07299 0-.15641.02086-.20855.04171l-2.09593 1.11571c-.12513.073-.25026.1043-.39625.1043-.25026 0-.49009-.1147-.65694-.3024-.16684-.1877-.2294-.4379-.1877-.6882l.40669-2.33577c.02085-.14598-.03129-.29197-.13557-.39624l-1.68925-1.63713c-.23983-.2294-.323252-.56309-.21898-.87592.10427-.31283.36497-.53181.68822-.58395l2.33576-.34411c.14599-.02085.28154-.1147.3441-.23983l1.04275-2.12721c.14599-.29197.43796-.46924.76121-.46924s.61523.17727.76121.46924l1.04275 2.12721c.073.13557.19813.21898.34411.23983l2.33575.34412c.3233.05214.584.27112.6882.57352.1043.31282.0209.6465-.2085.87592l-1.67884 1.64754c-.11471.10427-.15641.25026-.13557.39624l.39625 2.32534c.04171.25024-.02086.50054-.1877.68824-.1564.1981-.39623.3128-.64649.3128z" fill="#515153"/></svg>