<svg width="12" height="12" viewBox="0 0 12 12" fill="none" xmlns="http://www.w3.org/2000/svg">
<path d="M8.2885 1.10205C10.0619 1.10205 11.5 2.54016 11.5 4.31353C11.5 4.96221 11.2944 5.6385 10.9114 6.33653C10.5818 6.9374 10.1249 7.54695 9.5623 8.1601C8.709 9.09005 7.6951 9.94731 6.68944 10.6747C6.48892 10.82 6.24763 10.8982 6.00002 10.8982C5.75241 10.8982 5.51112 10.82 5.31059 10.6747C4.89087 10.371 4.48205 10.0524 4.0849 9.71961C3.94639 9.60354 3.9282 9.39714 4.04427 9.25861C4.16034 9.12009 4.36675 9.10192 4.50526 9.21799C4.8905 9.54078 5.28707 9.8498 5.6942 10.1445C5.78313 10.209 5.89018 10.2437 6.00004 10.2437C6.10989 10.2437 6.21694 10.209 6.30585 10.1445C7.27879 9.44072 8.26115 8.61014 9.08007 7.71763C10.2073 6.48918 10.8455 5.32574 10.8455 4.31353C10.8455 2.90162 9.70043 1.75651 8.2885 1.75651C7.48377 1.75651 6.74094 2.13082 6.25945 2.75717C6.12838 2.92766 5.87131 2.92754 5.7404 2.75696C5.25987 2.1308 4.5171 1.75651 3.71152 1.75651C2.29957 1.75651 1.15446 2.90162 1.15446 4.31353C1.15446 5.26727 1.72192 6.35755 2.7365 7.51332C2.85573 7.64912 2.84228 7.85587 2.70648 7.9751C2.57066 8.09433 2.36388 8.08089 2.24466 7.94507C1.13508 6.6811 0.5 5.46087 0.5 4.31353C0.5 2.54014 1.93812 1.10205 3.71152 1.10205C4.58728 1.10205 5.40503 1.45501 6.00016 2.06018C6.59588 1.45503 7.41347 1.10205 8.2885 1.10205Z" fill="white" fill-opacity="0.6"/>
</svg>
