<svg width="12" height="12" viewBox="0 0 12 12" fill="none" xmlns="http://www.w3.org/2000/svg">
<path d="M6.15766 2.97437C6.4166 2.6448 6.69908 2.35644 7.00511 2.10926C7.26405 1.8974 7.55242 1.70319 7.87021 1.52664C8.18801 1.35009 8.51757 1.27358 8.8589 1.29712C9.35325 1.33243 9.7652 1.45013 10.0948 1.65023C10.4243 1.85032 10.6862 2.09749 10.8804 2.39175C11.0746 2.686 11.207 3.02145 11.2777 3.39809C11.3483 3.77474 11.3718 4.15727 11.3483 4.54568C11.3247 4.93409 11.2482 5.30485 11.1188 5.65796C10.9893 6.01106 10.8333 6.34357 10.6509 6.65548C10.4685 6.96739 10.2713 7.25281 10.0595 7.51175C9.84759 7.7707 9.63573 8.0061 9.42387 8.21796C9.10608 8.54753 8.77063 8.86238 8.41752 9.16252C8.06442 9.46265 7.72897 9.72748 7.41118 9.957C7.09338 10.1865 6.80796 10.369 6.5549 10.5043C6.30184 10.6397 6.11646 10.7073 5.99876 10.7073C5.85752 10.7073 5.67214 10.6367 5.44262 10.4955C5.21311 10.3542 4.95711 10.1689 4.67462 9.93934C4.39214 9.70983 4.092 9.445 3.77421 9.14486C3.45642 8.84472 3.13862 8.54164 2.82083 8.23562C2.62074 8.03553 2.39711 7.80895 2.14993 7.55589C1.90276 7.30283 1.6703 7.02624 1.45255 6.7261C1.23481 6.42596 1.04943 6.0964 0.896415 5.73741C0.743403 5.37842 0.661012 4.99295 0.649242 4.58099C0.625702 4.18081 0.666898 3.80122 0.772829 3.44223C0.87876 3.08324 1.03471 2.7625 1.24069 2.48002C1.44667 2.19754 1.69973 1.95919 1.99986 1.76499C2.3 1.57078 2.63839 1.43248 3.01504 1.35009C3.39168 1.2677 3.76538 1.30595 4.13614 1.46485C4.5069 1.62374 4.84529 1.81501 5.15131 2.03864C5.50442 2.29758 5.83987 2.60949 6.15766 2.97437Z" fill="white" fill-opacity="0.2"/>
</svg>
