<svg width="12" height="12" viewBox="0 0 12 12" fill="none" xmlns="http://www.w3.org/2000/svg">
<path d="M6.0004 2.27832C2.31896 2.27832 0.428833 6.00002 0.428833 6.00002C0.428833 6.00002 1.85515 9.72219 6.0004 9.72219C9.75432 9.72219 11.5717 6.01453 11.5717 6.01453C11.5717 6.01453 9.73983 2.27832 6.0004 2.27832ZM6.00877 8.32629C4.66269 8.32629 3.68966 7.30848 3.68966 5.99998C3.68966 4.69137 4.66277 3.67382 6.00877 3.67382C7.35478 3.67382 8.32777 4.69128 8.32777 5.99998C8.32779 7.30848 7.35479 8.32629 6.00877 8.32629ZM6.00877 4.6041C5.23944 4.60587 4.61734 5.2523 4.61734 5.99999C4.61734 6.74728 5.23945 7.39581 6.00877 7.39581C6.77806 7.39581 7.40012 6.74724 7.40012 5.99999C7.40017 5.25204 6.77807 4.60266 6.00877 4.6041Z" fill="white" fill-opacity="0.2"/>
</svg>
