<svg fill="none" height="16" viewBox="0 0 16 16" width="16" xmlns="http://www.w3.org/2000/svg" xmlns:xlink="http://www.w3.org/1999/xlink"><clipPath id="a"><path d="m0 0h16v16h-16z"/></clipPath><g clip-path="url(#a)"><path d="m12.1125 11.1223 2.5032 2.5026c.2736.2736.2737.7171.0001.9907-.2736.2735-.7171.2735-.9906-.0001l-2.5026-2.5032c-1.1155.8942-2.50297 1.3806-3.93261 1.3785-3.47819 0-6.301074-2.8229-6.301074-6.30106 0-3.47819 2.822884-6.301068 6.301074-6.301068 3.47821 0 6.30111 2.822878 6.30111 6.301068.002 1.42965-.4844 2.81706-1.3786 3.93256zm-1.4044-.5195c.8885-.91371 1.3847-2.13854 1.3827-3.41306 0-2.70806-2.19345-4.90083-4.90081-4.90083-2.70806 0-4.90084 2.19277-4.90084 4.90083 0 2.70737 2.19278 4.90086 4.90084 4.90086 1.27452.002 2.49934-.4942 3.41311-1.3828z" fill="#024d54" stroke="#024d54" stroke-width=".444444"/></g></svg>