<svg fill="none" height="32" viewBox="0 0 32 32" width="32" xmlns="http://www.w3.org/2000/svg"><path clip-rule="evenodd" d="m15.0009.888672c-4.2303 0-7.65961 3.429328-7.65961 7.659628v4.1497c-1.69599.5864-2.91398 2.1973-2.91398 4.0927v9.9908c0 2.3911 1.93832 4.3294 4.32935 4.3294h14.48664c2.3911 0 4.3294-1.9383 4.3294-4.3294v-9.9908c0-2.391-1.9383-4.3293-4.3294-4.3293h-13.0713v-3.9131c0-2.66693 2.162-4.8289 4.8289-4.8289h1.5819c1.7933 0 3.247 1.45374 3.247 3.24702 0 .78168.6337 1.41536 1.4154 1.41536s1.4153-.63368 1.4153-1.41536c0-3.35665-2.7211-6.077748-6.0777-6.077748zm2.4145 20.960928c.4105-.394.666-.9482.666-1.562 0-1.1956-.9691-2.1647-2.1647-2.1647-1.1955 0-2.1646.9691-2.1646 2.1647 0 .6138.2555 1.168.666 1.562v1.9347c0 .8277.671 1.4987 1.4986 1.4987.8277 0 1.4987-.671 1.4987-1.4987z" fill="#011f15" fill-rule="evenodd"/></svg>