<svg fill="none" height="32" viewBox="0 0 32 32" width="32" xmlns="http://www.w3.org/2000/svg"><path clip-rule="evenodd" d="m15.5889 3.91089h.6444c2.3749 0 4.3001 1.92519 4.3001 4.30001v3.3345h-9.2445v-3.3345c0-2.37483 1.9252-4.30001 4.3-4.30001zm-7.32221 7.63451v-3.3345c0-4.04396 3.27831-7.322228 7.32221-7.322228h.6444c4.044 0 7.3223 3.278278 7.3223 7.322228v3.3345h.1778c2.5527 0 4.6222 2.0695 4.6222 4.6222v10.3214c0 2.5528-2.0695 4.6222-4.6222 4.6222h-15.46671c-2.55278 0-4.62222-2.0694-4.62222-4.6222v-10.3214c0-2.5527 2.06944-4.6222 4.62222-4.6222zm9.24441 9.8494c.4383-.4133.7111-.9947.7111-1.6388 0-1.2542-1.0347-2.271-2.3111-2.271s-2.3111 1.0168-2.3111 2.271c0 .6441.2729 1.2255.7111 1.6388v2.0021c0 .8837.7164 1.6 1.6 1.6.8837 0 1.6-.7163 1.6-1.6z" fill="#011f15" fill-rule="evenodd"/></svg>