<svg fill="none" height="32" viewBox="0 0 32 32" width="32" xmlns="http://www.w3.org/2000/svg"><path d="m10.2929 10.2929c.3905-.39053 1.0237-.39053 1.4142 0l4.2929 4.2929 4.2929-4.2929c.3905-.39053 1.0237-.39053 1.4142 0 .3905.3905.3905 1.0237 0 1.4142l-4.2929 4.2929 4.2929 4.2929c.3905.3905.3905 1.0237 0 1.4142s-1.0237.3905-1.4142 0l-4.2929-4.2929-4.2929 4.2929c-.3905.3905-1.0237.3905-1.4142 0-.39053-.3905-.39053-1.0237 0-1.4142l4.2929-4.2929-4.2929-4.2929c-.39053-.3905-.39053-1.0237 0-1.4142z" style="fill-rule:evenodd;clip-rule:evenodd;fill:#fc4439;stroke:#fc4439;stroke-width:2;stroke-linecap:round;stroke-linejoin:round"/></svg>