<svg fill="none" height="28" viewBox="0 0 28 28" width="28" xmlns="http://www.w3.org/2000/svg" xmlns:xlink="http://www.w3.org/1999/xlink"><filter id="a" color-interpolation-filters="sRGB" filterUnits="userSpaceOnUse" height="34.4611" width="34.4616" x="-3.23079" y="-3.23054"><feFlood flood-opacity="0" result="BackgroundImageFix"/><feGaussianBlur in="BackgroundImageFix" stdDeviation="2.15385"/><feComposite in2="SourceAlpha" operator="in" result="effect1_backgroundBlur_799_13429"/><feBlend in="SourceGraphic" in2="effect1_backgroundBlur_799_13429" mode="normal" result="shape"/></filter><g filter="url(#a)"><circle cx="14" cy="14.0002" fill="#fff" fill-opacity=".2" r="12.9231"/></g><path d="m19.412 14.8581-7.3427 4.8462c-.1549.1021-.3346.1604-.52.1686-.1854.0083-.3696-.0338-.533-.1218s-.3-.2185-.3952-.3778-.1455-.3415-.1455-.527v-9.69143c0-.18564.0503-.36781.1455-.52718.0952-.15936.2318-.28997.3953-.37795.1634-.08798.3477-.13006.5331-.12176.1855.0083.3652.06667.5202.1689l7.3426 4.84612c.142.0937.2584.2211.339.3708.0806.1498.1228.3172.1228.4872 0 .1701-.0422.3375-.1228.4872s-.1974.2762-.3393.3699z" fill="#fff"/></svg>