<svg fill="none" height="14" viewBox="0 0 48 14" width="48" xmlns="http://www.w3.org/2000/svg" xmlns:xlink="http://www.w3.org/1999/xlink"><linearGradient id="a" gradientUnits="userSpaceOnUse" x1="30.6592" x2="29.1697" y1="-.447222" y2="13.7473"><stop offset="0" stop-color="#fea96b"/><stop offset="1" stop-color="#ff6422"/><stop offset="1" stop-color="#f17922"/></linearGradient><path d="m0 5c0-2.76142 2.23858-5 5-5h42c.5523 0 1 .447715 1 1v8c0 2.7614-2.2386 5-5 5h-42.000001c-.552285 0-.999999-.4477-.999999-1z" fill="url(#a)" fill-opacity=".8"/><path d="m6.29 5.14h.75v6.65h-.75zm.39 0h5.04v2.56h-5.04v-.66h4.29v-1.24h-4.29zm-.02 3.52h5.64v3.09h-.74v-2.42h-4.9zm.02 2.02h5.3v.67h-5.3zm1.9-8.06h.79v1.48h-.79zm-3.8.86h8.42v2.17h-.76v-1.46h-6.93v1.46h-.73zm9.74.85h8.95v.72h-8.95zm3.27 2.37h4v.72h-4zm3.73 0h.77s-.01.25-.03.36c-.2 2.88-.4 3.99-.79 4.39-.23.24-.48.31-.86.34-.35.02-1.01 0-1.69-.03-.01-.22-.12-.53-.26-.74.72.07 1.43.07 1.69.07.22 0 .36-.01.47-.11.32-.29.52-1.41.69-4.15zm-3.9-1.97h.83c-.15 2.65-.44 5.65-3.49 7.11-.11-.19-.35-.46-.54-.61 2.92-1.32 3.09-4.11 3.2-6.5zm.95-2.15h.77v2.06h-.77zm10.07 3.94h4.55v.65h-4.55zm0 2.01h4.55v.66h-4.55zm-.07 2.06h5.03v.69h-5.03zm2.11-5.76h.7v6.01h-.7zm.69-2.2.79.18c-.31.77-.71 1.67-1.02 2.23l-.63-.18c.31-.59.67-1.56.86-2.23zm-2.3-.04.72.18c-.48 1.61-1.27 3.16-2.2 4.16-.11-.14-.36-.47-.51-.62.88-.88 1.58-2.27 1.99-3.72zm-.02 1.91h4.38v.67h-4.38v6.62h-.72v-6.88l.41-.41zm-4.78 3.42c.81-.2 2.03-.56 3.21-.9l.09.67c-1.09.34-2.24.7-3.13.97zm.17-3.3h3.05v.7h-3.05zm1.36-2.01h.72v8.28c0 .43-.09.64-.35.76-.26.13-.67.15-1.32.15-.03-.19-.13-.52-.23-.73.45.02.87.02.99.01.13 0 .19-.04.19-.19zm8.79 2.85h8.82v.67h-8.82zm3.5 1.37h4.11v.62h-4.11zm-.7 2.06h6.11v.65h-6.11zm.37-4.46.73.19c-.83 2-2.14 3.68-3.69 4.76-.11-.15-.37-.47-.53-.61 1.52-.96 2.77-2.54 3.49-4.34zm2.35 3.71h.72v2.87c0 .39-.08.58-.37.68-.3.11-.77.11-1.52.11-.03-.18-.14-.45-.24-.65.56.02 1.07.02 1.21.02.15-.01.2-.04.2-.17zm1.84-1.31h.17l.14-.04.46.36c-.58.58-1.43 1.18-2.17 1.55-.09-.13-.28-.32-.39-.42.65-.32 1.4-.88 1.79-1.31zm-5.08-4.22h.74v2.27h-.74zm3.45 0h.73v2.27h-.73zm-5.71.73h8.8v.67h-8.8zm1.39 4.24.51-.53.2.06v4.69h-.71z" fill="#f7e4d9"/></svg>