<svg fill="none" height="16" viewBox="0 0 49 16" width="49" xmlns="http://www.w3.org/2000/svg" xmlns:xlink="http://www.w3.org/1999/xlink"><linearGradient id="a" gradientUnits="userSpaceOnUse" x1="41.9" x2="11.896" y1="16" y2="-12.1476"><stop offset=".328814" stop-color="#014c53"/><stop offset="1" stop-color="#027276"/></linearGradient><linearGradient id="b" gradientUnits="userSpaceOnUse" x1="41.825" x2="9.77974" y1="15.0907" y2="-1.41129"><stop offset="0" stop-color="#dab07e"/><stop offset=".552083" stop-color="#ebc9a0"/><stop offset="1" stop-color="#f9ddbc"/></linearGradient><path d="m5.5.25h42.75v10.75c0 2.6234-2.1266 4.75-4.75 4.75h-42.75v-10.75c0-2.62335 2.12665-4.75 4.75-4.75z" fill="url(#a)"/><path d="m13.66 4.75v2.05h-.74v-1.35h-6.84v1.34h-.74v-2.04h3.81c-.16-.33-.35-.64-.55-.92l.78-.12c.18.31.34.66.5 1.04zm-1.42 1.69v2.49h-4.8v1.04h5.26v3.03h-.72v-.4h-4.54v.41h-.72v-6.57zm-4.8 5.53h4.54v-1.37h-4.54zm0-3.67h4.09v-1.22h-4.09zm7.71-2.99h4.31c-.2-.44-.44-.87-.73-1.27l.68-.25c.28.42.54.93.78 1.52h3.74v.69h-5.27l-.09 1.78v.02h4.15c-.02 1.98-.1 3.25-.23 3.81-.2.85-.69 1.29-1.48 1.32-.32 0-.71-.02-1.15-.04l-.22-.65c.52.02.95.03 1.3.03.51-.02.82-.38.94-1.08.06-.42.09-1.33.11-2.71h-3.5c-.13.81-.38 1.54-.74 2.2-.49.86-1.17 1.64-2.05 2.35l-.52-.5c1.06-.9 1.77-1.73 2.12-2.5.34-.77.53-1.63.58-2.58.03-.63.05-1.11.06-1.45h-2.79zm14.47 2.99v1.35h1.78v-1.35zm0 2.02v1.49h1.78v-1.49zm0 2.18v.46h-.71v-5.86c-.24.38-.51.74-.79 1.08l-.24-.76c.82-1.08 1.39-2.27 1.73-3.57l.7.14c-.15.54-.34 1.06-.56 1.57h1.81c-.16-.53-.36-1.05-.59-1.55l.69-.19c.24.6.42 1.14.55 1.64l-.27.1h1.91v.7h-1.74v1.36h1.54v.68h-1.54v1.35h1.54v.67h-1.54v1.49h1.85v.69zm1.78-6.24h-1.78v1.36h1.78zm-3.41 1.69v.73c-.3.15-.61.29-.93.42v2.89c0 .56-.3.85-.89.85h-.92l-.15-.7c.28.03.56.05.82.05.27 0 .41-.13.41-.39v-2.41c-.41.14-.83.28-1.25.4l-.18-.72c.49-.11.97-.25 1.43-.41v-2.3h-1.28v-.7h1.28v-1.85h.73v1.85h1.01v.7h-1.01v2.02c.32-.14.63-.28.93-.43zm7.18-3.39h2.27v-.72h.74v.72h2.64v-.72h.74v.72h2.27v.66h-2.27v.73h-.74v-.73h-2.64v.72h-.74v-.72h-2.27zm.13 2.06h2.82c.12-.26.23-.51.33-.76l.7.12c-.08.22-.17.43-.25.64h4.88v.66h-5.21c-.3.53-.66 1.03-1.07 1.5v4.24h-.69v-3.54c-.42.38-.88.73-1.38 1.07l-.45-.58c1.19-.78 2.11-1.68 2.76-2.69h-2.44zm5.66 2.9c.36-.22.77-.49 1.25-.81h-3.29v-.66h4.31v.52c-.46.36-.98.75-1.55 1.15v.42h2.2v.68h-2.2v1.35c0 .54-.27.81-.8.81h-1.17l-.21-.7c.46.03.83.05 1.09.05.24 0 .37-.12.37-.36v-1.15h-2.76v-.68h2.76z" fill="#feebca"/><path d="m5.5.25h42.75v10.75c0 2.6234-2.1266 4.75-4.75 4.75h-42.75v-10.75c0-2.62335 2.12665-4.75 4.75-4.75z" stroke="url(#b)" stroke-width=".5"/></svg>