<svg fill="none" height="16" viewBox="0 0 16 16" width="16" xmlns="http://www.w3.org/2000/svg"><path d="m1.6001 0h12.8v15.5489c0 .1964-.216.3161-.3825.212l-5.4875-3.4297c-.32427-.2026-.73573-.2026-1.06 0l-5.4875 3.4297c-.16651.1041-.3825-.0156-.3825-.212z" fill="#bc0c20"/><path d="m9.77325 4.33484v-.279h1.53005v-.765h-1.53005v-.279h1.72805v-.81h-1.72805v-.558l-.99-.054v.612h-1.431v.81h1.431v.279h-1.386v.765h1.386v.279h-1.719v.783h4.77005v-.783zm-2.52 2.52c-.27-.369-.639-.837-.855-1.098l-.288.261v-.63h.792v-1.026h-.792v-.387l.603.243c.171-.432.441-1.233.612-1.782l-.783-.243c-.108.333-.279.846-.432 1.287v-1.8l-.972-.054v2.007c-.144-.477-.36-1.134-.459-1.44l-.792.306c.144.387.396 1.197.54 1.701l.711-.243v.405h-1.062v1.026h.909c-.315.828-.81 1.53-1.35 2.142l.774.756c.288-.369.522-.729.729-1.098v2.403h.972v-2.664c.207.279.396.549.549.792l.594-.522v2.358h.954v-1.224h2.09705c0 .243 0 .324-.31505.36l-.459.054.324.882.47705-.054c.729-.072.945-.27.945-.972v-3.204h-4.02305zm3.05105-.666v.279h-2.09705v-.279zm-2.09705 1.053h2.09705v.279h-2.09705z" fill="#fff"/></svg>