<svg fill="none" height="14" viewBox="0 0 48 14" width="48" xmlns="http://www.w3.org/2000/svg" xmlns:xlink="http://www.w3.org/1999/xlink"><linearGradient id="a" gradientUnits="userSpaceOnUse" x1="30" x2="27.8296" y1="8.63333" y2="1.30331"><stop offset="0" stop-color="#3c4dff"/><stop offset="1" stop-color="#5b69ff"/></linearGradient><path d="m0 5c0-2.76142 2.23858-5 5-5h42c.5523 0 1 .447715 1 1v8c0 2.7614-2.2386 5-5 5h-42.000001c-.552285 0-.999999-.4477-.999999-1z" fill="url(#a)" opacity=".8"/><g fill="#fff" fill-opacity=".8"><path d="m5.76988 3.93984v.72h7.64002v-.72zm-.35 0v2.72c0 1.42-.09 3.34-1.04 4.70996.17.09.48.35.6.5 1.03-1.47 1.19-3.67996 1.19-5.19996v-2.73zm3.47-1.33v1.74h.77v-1.74z"/><path d="m14.4999 5.04984v.71h3.03v-.71zm1.22-2.33v6.7h.71v-6.7zm-1.37 6.99.25.75996c.87-.33 2-.77996 3.05-1.20996l-.14-.68c-1.16.43-2.36.88-3.16 1.13zm3.4-6.63v.71h4.18v-.71zm4.9 2.75v.16c-.19 3.35-.41 4.60996-.69 4.90996-.1.13-.19.15-.35.15-.17 0-.55-.01-.96-.05.11.2.19.51.2.72.43.02.83.02 1.08-.01.29-.02.48-.1.68-.34.35-.42.56-1.64996.76-5.16996.02-.11.03-.37.03-.37zm-4.55.83c0-.15.53-.36.53-.36v-.02c1.2-.66 2.51-1.64 3.86-2.85l-.57-.42-.36.15v.05c-.97 1.03-2.36 2-2.77 2.25-.38.25-.75.46-1.01.5.11.18.27.54.32.7zm0 0c.09-.08.41-.12.87-.12h3.94v-.71h-4.38l-.43.21zm3.23-.43c-.61 2.29-1.77 4.06996-3.54 5.12996.17.1.45.31.57.43 1.73-1.16 2.95-2.97996 3.63-5.42996zm-1.54.01c-.39 1.24-1.18 2.28-2.18 2.92.16.1.44.32.56.43 1-.72 1.84-1.84 2.28-3.21z"/><path d="m28.6399 6.51984v.65h4.55v-.65zm0 2.01v.66h4.55v-.66zm-.07 2.05996v.69h5.03v-.69zm2.11-5.75996v6.00996h.7v-6.00996zm.69-2.2c-.19.67-.55 1.64-.86 2.23l.63.18c.31-.56.71-1.46 1.02-2.23zm-2.3-.04c-.41 1.45-1.11 2.84-1.99 3.72.15.15.4.48.51.62.93-1 1.72-2.55 2.2-4.16zm-.02 1.91h-.31l-.41.41v6.87996h.72v-6.61996h4.38v-.67zm-4.78 3.42.17.74c.89-.27 2.04-.63 3.13-.97l-.09-.67c-1.18.34-2.4.7-3.21.9zm.17-3.3v.7h3.05v-.7zm1.36-2.01v8.27996c0 .15-.06.19-.19.19-.12.01-.54.01-.99-.01.1.21.2.54.23.73.65 0 1.06-.02 1.32-.15.26-.12.35-.33.35-.76v-8.27996z"/><path d="m34.5899 5.45984v.67h8.82v-.67zm3.5 1.37v.62h4.11v-.62zm-.7 2.06v.65h6.11v-.65zm.37-4.46c-.72 1.8-1.97 3.38-3.49 4.34.16.14.42.46.53.61 1.55-1.08 2.86-2.76 3.69-4.76zm2.35 3.71v2.85996c0 .13-.05.16-.2.17-.14 0-.65 0-1.21-.02.1.2.21.47.24.65.75 0 1.22 0 1.52-.11.29-.1.37-.29.37-.68v-2.86996zm1.84-1.31v.14c-.39.43-1.14.99-1.79 1.31.11.1.3.29.39.42.74-.37 1.59-.97 2.17-1.55l-.46-.36-.14.04zm-5.08-4.22v2.27h.74v-2.27zm3.45 0v2.27h.73v-2.27zm-5.71.73v.67h8.8v-.67zm1.39 4.24v4.21996h.71v-4.68996l-.2-.06z"/></g></svg>