<svg fill="none" height="16" viewBox="0 0 16 16" width="16" xmlns="http://www.w3.org/2000/svg" xmlns:xlink="http://www.w3.org/1999/xlink"><linearGradient id="a" gradientUnits="userSpaceOnUse" x1="8.04715" x2="8.04715" y1="1.43095" y2="14.6543"><stop offset="0" stop-color="#b8b8b8"/><stop offset="1" stop-color="#a5a5a5"/></linearGradient><path d="m13.4041 2.53778h-2.5283v-.69181c0-.25314-.2563-.45754-.5723-.45754h-4.60539c-.31604 0-.57233.2044-.57233.45754v.69181h-2.5283c-.19182 0-.34748.15566-.34748.34749v.45596c0 .19183.15566.34748.34748.34748h10.80502c.1918 0 .3475-.15565.3475-.34748v-.45596c.0016-.1934-.1541-.34749-.3459-.34749zm-.8019 1.72483h-9.20283c-.33176 0-.59434.27987-.5739.61005l.57547 9.20114c.01887.3019.27044.5377.5739.5377h8.05186c.3035 0 .5535-.2358.5739-.5377l.5755-9.20114c.0189-.33175-.2437-.61005-.5739-.61005zm-5.75158 8.27979c0 .1902-.15408.3459-.34591.3459h-.45912c-.19025 0-.34591-.1541-.34591-.3459v-6.20906c0-.19025.15409-.34591.34591-.34591h.45912c.19025 0 .34591.15409.34591.34591zm3.44968 0c0 .1902-.1541.3459-.34591.3459h-.45754c-.19025 0-.34591-.1541-.34591-.3459v-6.20906c0-.19025.15408-.34591.34591-.34591h.45912c.19023 0 .34593.15409.34593.34591v6.20906z" fill="url(#a)"/></svg>