<svg fill="none" height="16" viewBox="0 0 16 16" width="16" xmlns="http://www.w3.org/2000/svg" xmlns:xlink="http://www.w3.org/1999/xlink"><linearGradient id="a" gradientUnits="userSpaceOnUse" x1="8.0492" x2="8.0492" y1="2.03859" y2="14.0388"><stop offset="0" stop-color="#fff0f5"/><stop offset="1" stop-color="#ffc4cb"/></linearGradient><path d="m8 2c-3.30857 0-6 2.69143-6 6 0 3.3086 2.69143 6 6 6 3.3086 0 6-2.6914 6-6 0-3.30857-2.6914-6-6-6zm2.133 6.85714h-2.55943c-.23657 0-.43071-.19371-.43071-.43071v-3.41186c0-.23657.192-.42857.42857-.42857s.42857.192.42857.42857v2.98543h2.133c.237 0 .4286.192.4286.42857 0 .237-.192.42857-.4286.42857z" fill="url(#a)"/></svg>