<svg fill="none" height="24" viewBox="0 0 24 24" width="24" xmlns="http://www.w3.org/2000/svg"><path d="m15.5179 8c.0345.00863.069.01726.1035.02588.3625.10354.4978.53492.259.82826-.0259.02876-.0518.05752-.0806.08628-.9983 1.00081-1.9996 1.99878-3.0008 2.99668-.023.023-.0518.0374-.0892.0604.0432.0374.0691.0546.0921.0776 1.007 1.0037 2.0111 2.0103 3.0152 3.014.1409.1409.21.302.1668.5004-.0776.3739-.5178.5349-.8228.302-.0317-.0259-.0633-.0547-.0921-.0834-1.0012-.998-1.9996-1.9988-2.9979-2.9996-.023-.023-.0403-.0489-.0633-.0805-.0317.0316-.0547.0517-.0748.0719-1.007 1.0065-2.01398 2.0131-3.02096 3.0197-.15536.1581-.3395.2099-.54953.1524-.16687-.0489-.27907-.1639-.33662-.3307-.00863-.023-.01726-.0489-.02589-.0719v-.1726c.03453-.1553.13522-.2703.24455-.3796.98685-.9836 1.97085-1.9671 2.95475-2.9507.0202-.0201.0518-.0345.0921-.0632-.046-.0374-.0748-.0547-.0949-.0748-.9811-.9778-1.96223-1.96138-2.94619-2.94207-.10933-.10928-.21003-.22432-.24743-.37962v-.17255c.04315-.14379.10933-.27321.24743-.34798.07192-.04027.15824-.05752.23592-.08628h.0633c.18988.02301.32223.13804.4517.27033.97821.98069 1.95927 1.95847 2.93747 2.93917.0202.0201.0403.0374.0806.0748.0201-.0288.0345-.0575.0547-.0805.9782-.9779 1.9564-1.95278 2.9317-2.93347.1295-.13229.259-.24732.4489-.27033z" fill="#fff"/><rect height="23" rx="11.5" stroke="#909090" width="23" x=".5" y=".5"/></svg>