<svg fill="none" height="16" viewBox="0 0 9 16" width="9" xmlns="http://www.w3.org/2000/svg"><path clip-rule="evenodd" d="m8.08896.240564c-.16638-.1566511-.37435-.23909916-.58232-.23909916s-.42425.08244806-.58231.24734416l-6.517155 6.523471c-.063639.03737-.122192.08543-.173017.14516-.158905.16336-.23681483.37641-.23408889.58848-.00278649.21424.07876679.42924.24427689.59194.029296.02845.060188.0543.092385.07756l6.607019 6.59008c.32186.3159.84179.3159 1.1554-.0084.31361-.3242.31361-.8396-.00825-1.1639l-6.1009-6.08517 6.10728-6.11319c.31611-.32155.31611-.832729-.00832-1.154276z" fill="#fff" fill-rule="evenodd"/></svg>