<svg fill="none" height="18" viewBox="0 0 18 18" width="18" xmlns="http://www.w3.org/2000/svg"><path d="m16.268 14.4542-5.3309-5.45427 5.3316-5.45506c.6097-.48941.6733-1.33246.1428-1.88467-.5297-.55141-1.4543-.60221-2.0638-.11361l-5.34769 5.47142-5.34768-5.47144c-.60954-.4886-1.53409-.4378-2.06381.11361-.53048.55221-.4669 1.39528.14277 1.88468l5.33163 5.45505-5.33092 5.45429c-.61039.489-.67396 1.3332-.14269 1.8843.52972.5526 1.45422.6034 2.06381.114l5.34689-5.4706 5.34689 5.4706c.6096.4894 1.5341.4386 2.0638-.114.5313-.5511.4669-1.3953-.1427-1.8843z" fill="#e5e5f1"/></svg>