<svg fill="none" height="14" viewBox="0 0 14 14" width="14" xmlns="http://www.w3.org/2000/svg" xmlns:xlink="http://www.w3.org/1999/xlink"><clipPath id="a"><path d="m3 3.99927h8.4v6h-8.4z"/></clipPath><circle cx="7" cy="6.99927" fill="#f49f3b" r="7"/><g clip-path="url(#a)" fill="#fff"><path d="m3 4.71159c.03818-.15468.09927-.30216.21-.42806.34364-.3813.97364-.3813 1.31727 0 .42382.47842.17564 1.18345-.46582 1.32734-.46963.10791-.9469-.18705-1.04618-.6331-.00382-.01798-.01145-.03237-.01527-.05036z"/><path d="m3 9.07133c.042-.15468.10309-.29856.21382-.42446.336-.3741.98127-.3741 1.30963.00719.24437.28058.28637.58993.11073.90648-.17563.31295-.46582.46046-.84382.43885-.37036-.02158-.70636-.30935-.77509-.65827 0-.01799-.01145-.03238-.01527-.05036v-.21583z"/><path d="m3.00003 6.89128c.042-.15107.09164-.29856.21-.42086.24819-.25899.54982-.35252.90109-.25539.34364.09712.55746.32014.61091.65827.05728.34532-.08018.6223-.38563.80935-.30164.18705-.61855.18705-.92782.01079-.21764-.1259-.35127-.30935-.39709-.55036 0-.01079-.00764-.02158-.01527-.03597v-.21583z"/><path d="m8.50583 5.36266c-.76364 0-1.52727 0-2.28709 0-.27109 0-.49255-.14389-.57273-.35972-.126-.33453.11455-.73381.58418-.73021h.966 3.55851c.1986 0 .3742.04676.504.19424.1451.16547.1795.35252.0993.55036-.0802.19425-.2329.30576-.4505.34173-.0497.00719-.0993.00719-.1489.00719-.7522 0-1.50441 0-2.25659 0z"/><path d="m8.5058 8.63592h2.2795c.3207 0 .5536.18345.6032.46043.0497.26979-.1527.6259-.5994.6295-.0802 0-.1642 0-.2444 0-1.42799 0-2.85981 0-4.28781 0-.20236 0-.378-.04676-.51164-.19784-.14127-.16187-.17563-.34892-.09927-.54317.07636-.19065.22909-.30575.43909-.34172.05346-.0108.10691-.0108.16418-.0108h2.25655z"/><path d="m8.50968 6.45614h2.26422c.2558 0 .4505.09353.5689.30935.1794.33454-.0726.74821-.4697.77339-.0305 0-.0611 0-.0916 0-1.51583 0-3.03546 0-4.55128 0-.252 0-.44291-.09353-.56127-.30576-.18327-.33094.06873-.7554.46582-.77698.19472-.01079.38945-.0036.58036-.0036h1.79455z"/></g></svg>