<svg fill="none" height="20" viewBox="0 0 20 20" width="20" xmlns="http://www.w3.org/2000/svg" xmlns:xlink="http://www.w3.org/1999/xlink"><mask id="a" height="18" maskUnits="userSpaceOnUse" width="20" x="0" y="1"><path d="m0 5.93478v8.86952c0 2.0411 1.64299 3.6957 3.66972 3.6957h.55046c.91743-.1232 2.89909-.887 3.48624-2.9565.13835-.3135.41359-.6562.75939-.9215.43281-.3321.98334-.4063 1.53419-.4222.5509.0159 1.1014.0901 1.5342.4222.3458.2653.621.608.7594.9215.5871 2.0695 2.5688 2.8333 3.4862 2.9565h.5505c2.0267 0 3.6697-1.6546 3.6697-3.6957v-8.86952c0-2.44926-1.9716-4.43478-4.4037-4.43478h-11.19263c-2.43208 0-4.40367 1.98552-4.40367 4.43478z" fill="#d9d9d9"/></mask><g mask="url(#a)"><path d="m.161133 9c2.732667 2.0754 6.250527 3.3243 10.089167 3.3243 3.6816 0 7.0682-1.1488 9.7499-3.07389v10.74959h-19.839067z" fill="#c8c8c8" fill-opacity=".3"/></g><g stroke="#c8c8c8" stroke-width="1.5"><path d="m7.02027 15.2407-.0211.0478-.01427.0503c-.46193 1.6281-2.03045 2.2885-2.81856 2.4112h-.49662c-1.60755 0-2.91972-1.3138-2.91972-2.9457v-8.86952c0-2.04003 1.64077-3.68478 3.65367-3.68478h11.19263c2.0129 0 3.6537 1.64475 3.6537 3.68478v8.86952c0 1.6319-1.3122 2.9457-2.9197 2.9457h-.4966c-.7881-.1227-2.3567-.7831-2.8186-2.4112l-.0143-.0503-.0211-.0478c-.1971-.4467-.5603-.8848-.9889-1.2137-.6328-.4855-1.3927-.5603-1.9692-.5769l-.0216-.0006-.02161.0006c-.5765.0166-1.33643.0914-1.96915.5769-.42867.3289-.79184.767-.98897 1.2137z"/><path d="m16.3876 8.08696c0 1.01951-.8193 1.83695-1.8188 1.83695s-1.8188-.81744-1.8188-1.83695.8193-1.83696 1.8188-1.83696 1.8188.81745 1.8188 1.83696z"/><path d="m5.25 6.25v3" stroke-linecap="round"/><path d="m3.75 7.75h3" stroke-linecap="round"/></g></svg>