<svg fill="none" height="20" viewBox="0 0 20 20" width="20" xmlns="http://www.w3.org/2000/svg" xmlns:xlink="http://www.w3.org/1999/xlink"><mask id="a" height="20" maskUnits="userSpaceOnUse" width="20" x="0" y="0"><path d="m0 7.02703v10.27027c0 1.4927 1.21004 2.7027 2.7027 2.7027h14.5946c1.4927 0 2.7027-1.21 2.7027-2.7027v-10.27027l-8.5626-6.01699c-.8625-.606028-2.01234-.606028-2.87476 0z" fill="#d9d9d9"/></mask><g mask="url(#a)"><path d="m.161133 9c2.732667 2.0754 6.250527 3.3243 10.089167 3.3243 3.6816 0 7.0682-1.1488 9.7499-3.07389v10.74959h-19.839067z" fill="#c8c8c8" fill-opacity=".3"/></g><g stroke="#c8c8c8" stroke-width="1.5"><path d="m.75 17.2973v-9.88064l8.24385-5.79298c.60369-.42422 1.40865-.42422 2.01235 0l8.2438 5.79298v9.88064c0 1.0784-.8743 1.9527-1.9527 1.9527h-14.5946c-1.07845 0-1.9527-.8743-1.9527-1.9527z"/><path d="m7.25 14.75h5.5" stroke-linecap="round"/></g></svg>