<svg width="21" height="21" viewBox="0 0 21 21" fill="none" xmlns="http://www.w3.org/2000/svg">
<mask id="mask0_612_13352" style="mask-type:alpha" maskUnits="userSpaceOnUse" x="0" y="0" width="21" height="21">
<path d="M0.517917 7.7441C0.296602 5.26713 2.15125 3.08489 4.66038 2.86994L7.40468 2.63484C9.91381 2.41989 12.1273 4.25362 12.3486 6.7306L12.8927 12.8204C13.114 15.2973 11.2594 17.4796 8.75024 17.6945L6.00595 17.9296C3.49681 18.1446 1.28335 16.3109 1.06203 13.8339L0.517917 7.7441Z" fill="#D9D9D9"/>
<path d="M5.21335 4.61288C5.43466 2.13591 7.64813 0.302172 10.1573 0.517123L16.3396 1.04675C18.8488 1.2617 20.7034 3.44394 20.4821 5.92091L19.5469 16.3871C19.3256 18.8641 17.1122 20.6978 14.603 20.4829L8.42067 19.9532C5.91154 19.7383 4.05689 17.5561 4.27821 15.0791L5.21335 4.61288Z" fill="#D9D9D9"/>
</mask>
<g mask="url(#mask0_612_13352)">
<path d="M0.397461 12.0559C3.26825 14.2085 6.96391 15.5039 10.9965 15.5039C14.8642 15.5039 18.422 14.3123 21.2393 12.3156V20.8722H0.397461L0.397461 12.0559Z" fill="#C8C8C8" fill-opacity="0.3"/>
<mask id="mask1_612_13352" style="mask-type:alpha" maskUnits="userSpaceOnUse" x="0" y="1" width="7" height="18">
<path d="M0.315276 4.8836C0.199277 3.48829 1.04905 2.19685 2.37558 1.75247C4.4398 1.06097 6.54999 2.69681 6.39566 4.86886L5.53845 16.9329C5.45385 18.1234 4.40041 19.0047 3.21195 18.879C2.19823 18.7718 1.40224 17.9582 1.31784 16.9431L0.315276 4.8836Z" fill="#D9D9D9"/>
</mask>
<g mask="url(#mask1_612_13352)">
<path d="M1.25076 7.51875C1.07427 5.54344 2.53301 3.80491 4.50896 3.63564L7.68959 3.36316C9.66553 3.19389 11.4104 4.65797 11.5869 6.63328L12.1599 13.0457C12.3363 15.021 10.8776 16.7595 8.90166 16.9288L5.72103 17.2013C3.74508 17.3706 2.0002 15.9065 1.8237 13.9312L1.25076 7.51875Z" stroke="#C8C8C8" stroke-width="1.5"/>
</g>
<path d="M5.97521 4.51571C6.1517 2.5404 7.89659 1.07632 9.87253 1.24559L16.4912 1.81259C18.4672 1.98187 19.9259 3.7204 19.7494 5.69571L18.7854 16.4846C18.609 18.4599 16.8641 19.9239 14.8881 19.7547L8.26943 19.1877C6.29349 19.0184 4.83475 17.2799 5.01124 15.3046L5.97521 4.51571Z" stroke="#C8C8C8" stroke-width="1.5"/>
<path d="M9.32715 6.18518L16.6075 6.56038" stroke="#C8C8C8" stroke-width="1.5" stroke-linecap="round"/>
<path d="M9.32715 12.939L15.458 13.3142" stroke="#C8C8C8" stroke-width="1.5" stroke-linecap="round"/>
<path d="M9.32715 9.56213L13.9253 9.93733" stroke="#C8C8C8" stroke-width="1.5" stroke-linecap="round"/>
</g>
</svg>
