<svg fill="none" height="20" viewBox="0 0 20 20" width="20" xmlns="http://www.w3.org/2000/svg" xmlns:xlink="http://www.w3.org/1999/xlink"><mask id="a" height="20" maskUnits="userSpaceOnUse" width="20" x="0" y="0"><path clip-rule="evenodd" d="m12.5242 4.88055 5.9862-.5639c.4129-.03758.7803.26387.8156.67733.016.16494-.0238.32894-.1106.46818l-2.1264 3.39304c1.7442 1.04949 2.911 2.9609 2.911 5.1448 0 3.3137-2.6863 6-6 6-1.8964 0-3.5873-.8798-4.68683-2.2535l-2.11733 1.8656c-.30935.2753-.78489.2437-1.0579-.0662-.10945-.1229-.17432-.2808-.18515-.4446l-.41035-5.9993-5.173941-3.0627c-.3577969-.21213-.474071-.67104-.264202-1.02828.083935-.14097.211431-.25151.365311-.313l5.577982-2.24455 1.31214-5.867799c.09252-.403506.49382-.6577185.89677-.5674732.16061.0357532.30496.1236892.4104.2500142z" fill="#d9d9d9" fill-rule="evenodd"/></mask><g mask="url(#a)"><path d="m0 9c2.75483 2.0754 6.30122 3.3243 10.1709 3.3243 3.7115 0 7.1256-1.1488 9.8291-3.07389v10.74959h-20z" fill="#c8c8c8" fill-opacity=".3"/></g><path clip-rule="evenodd" d="m14.75 11.5c0-.4142-.3358-.75-.75-.75s-.75.3358-.75.75v1.75h-1.75c-.4142 0-.75.3358-.75.75s.3358.75.75.75h1.75v1.75c0 .4142.3358.75.75.75s.75-.3358.75-.75v-1.75h1.75c.4142 0 .75-.3358.75-.75s-.3358-.75-.75-.75h-1.75z" fill="#c8c8c8" fill-rule="evenodd"/><path d="m19.25 14c0 2.8995-2.3505 5.25-5.25 5.25s-5.25-2.3505-5.25-5.25 2.3505-5.25 5.25-5.25 5.25 2.3505 5.25 5.25z" stroke="#c8c8c8" stroke-width="1.5"/><path clip-rule="evenodd" d="m9.31317 17.7465-2.11733 1.8656c-.30935.2753-.78489.2437-1.0579-.0662-.10945-.1229-.17432-.2808-.18515-.4446l-.41035-5.9993-5.173941-3.0627c-.3577969-.21213-.474071-.67104-.264202-1.02828.083935-.14097.211431-.25151.365311-.313l5.577982-2.24455 1.31214-5.867799c.09252-.403506.49382-.6577185.89677-.5674732.16061.0357532.30496.1236892.4104.2500142l3.8573 4.612338 5.9862-.5639c.4129-.03758.7803.26387.8156.67733.016.16494-.0238.32894-.1106.46818l-2.1264 3.39304c-.4304-.25894-.8958-.4654-1.3876-.61056l1.4365-2.29206-4.473.42136-.7853.07398-.506-.60507-2.88185-3.44592-.98031 4.38388-.17213.76976-.73176.29446-4.16795 1.67716 3.86692 2.28901.67861.4017.05381.7867.30653 4.4815 1.17428-1.0347c.20931.4682.47686.9046.79342 1.3001z" fill="#c8c8c8" fill-rule="evenodd"/></svg>