<svg fill="none" height="9" viewBox="0 0 12 9" width="12" xmlns="http://www.w3.org/2000/svg"><path d="m11.6667.249451h-11.333358c-.18335 0-.333342.149991-.333342.333342v7.833007c0 .18327.149992.33333.333342.33333h11.333358c.1834 0 .3333-.15006.3333-.33333v-7.832993c0-.183351-.1499-.333356-.3333-.333356zm-9.86459 7.333009c0 .09151-.07503.16667-.16668.16667h-.74996c-.091635 0-.166685-.07516-.166685-.16667v-.74997c0-.09184.075037-.16667.166685-.16667h.74996c.09163 0 .16668.07484.16668.16667zm0-1.8333c0 .09144-.07503.16667-.16668.16667h-.74996c-.091635 0-.166685-.07523-.166685-.16667v-.74997c0-.09184.075037-.16665.166685-.16665h.74996c.09163 0 .16668.07482.16668.16665zm0-1.74973c0 .09164-.07503.1667-.16668.1667h-.74996c-.091635 0-.166685-.07505-.166685-.1667v-.74997c0-.09163.075037-.16667.166685-.16667h.74996c.09163 0 .16668.07504.16668.16667zm0-1.83331c0 .09163-.07503.16667-.16668.16667h-.74996c-.091635 0-.166685-.07502-.166685-.16667v-.74999c0-.09163.075037-.16667.166685-.16667h.74996c.09163 0 .16668.07504.16668.16667zm7.61455 5.47205c0 .18327-.14987.33332-.33331.33332h-6.16667c-.18332 0-.33333-.15005-.33333-.33332v-6.28456c0-.18334.15001-.33334.33333-.33334h6.16667c.18346 0 .33331.15.33331.33334zm1.86454-.05571c0 .09151-.075.16667-.1667.16667h-.7499c-.0917 0-.1667-.07516-.1667-.16667v-.74997c0-.09184.075-.16667.1667-.16667h.7499c.0917 0 .1667.07484.1667.16667zm0-1.8333c0 .09144-.075.16667-.1667.16667h-.7499c-.0917 0-.1667-.07523-.1667-.16667v-.74997c0-.09184.075-.16665.1667-.16665h.7499c.0917 0 .1667.07482.1667.16665zm0-1.74973c0 .09164-.075.1667-.1667.1667h-.7499c-.0917 0-.1667-.07505-.1667-.1667v-.74997c0-.09163.075-.16667.1667-.16667h.7499c.0917 0 .1667.07504.1667.16667zm0-1.83331c0 .09163-.075.16667-.1667.16667h-.7499c-.0917 0-.1667-.07502-.1667-.16667v-.74999c0-.09163.075-.16667.1667-.16667h.7499c.0917 0 .1667.07504.1667.16667zm-6.61862 3.87451 3.08447-1.539-3.08447-1.54378z" fill="#fff"/></svg>