<svg fill="none" height="16" viewBox="0 0 16 16" width="16" xmlns="http://www.w3.org/2000/svg" xmlns:xlink="http://www.w3.org/1999/xlink"><linearGradient id="a" gradientUnits="userSpaceOnUse" x1="8.04347" x2="8.04347" y1="1.18522" y2="14.9032"><stop offset="0" stop-color="#b8b8b8"/><stop offset="1" stop-color="#a5a5a5"/></linearGradient><path d="m8.02635 4.21059c-2.89445 0-5.24074 2.38359-5.24074 5.32413 0 2.94048 2.34656 5.32408 5.24074 5.32408 2.89495 0 5.24105-2.3836 5.24105-5.32408 0-2.94054-2.3461-5.32413-5.24105-5.32413zm2.69495 4.84894-1.03318 1.02337.2439 1.445c.08208.4851-.19095.6971-.62827.4637l-1.2774-.6824-1.27685.6824c-.42882.229-.71168.0312-.62827-.4637l.24417-1.445-1.0335-1.02337c-.34706-.34349-.24911-.67765.24007-.74981l1.42802-.21098.63842-1.31415c.21455-.44171.55804-.45049.77643 0l.63897 1.31415 1.42779.21098c.4793.07079.5937.39974.2397.74981zm2.2045-7.91842h-3.2407c-.17503 0-.31523.12429-.35638.2889l-.99866 2.00087s2.13864.13114 3.40204 1.36683l1.4922-3.0585c.0442-.06256.0757-.13499.0757-.21784 0-.20988-.1676-.38026-.3742-.38026zm-5.25584 2.29004-.99865-2.00114c-.04115-.16461-.18162-.2889-.35639-.2889h-3.24041c-.20714 0-.3745.1701-.3745.38026 0 .08285.03155.15528.07572.21811l1.49195 3.05823c1.26368-1.23569 3.40228-1.36656 3.40228-1.36656z" fill="url(#a)"/></svg>