<svg fill="none" height="17" viewBox="0 0 16 17" width="16" xmlns="http://www.w3.org/2000/svg" xmlns:xlink="http://www.w3.org/1999/xlink"><clipPath id="a"><path d="m.307617.826904h15.3846v15.3846h-15.3846z"/></clipPath><g clip-path="url(#a)"><path d="m2.23058 5.6346v9.6154c0 .5288.43269.9615.96154.9615h8.65388c.5288 0 .9615-.4327.9615-.9615v-9.6154zm2.88462 8.6538h-.96154v-6.73073h.96154zm1.92307 0h-.96153v-6.73073h.96153zm1.92308 0h-.96154v-6.73073h.96154zm1.92305 0h-.96151v-6.73073h.96151zm2.1635-11.53842h-3.12501v-1.20192c0-.39664-.32452-.721156-.72115-.721156h-3.36539c-.39663 0-.72115.324516-.72115.721156v1.20192h-3.125c-.39664 0-.72116.32452-.72116.72115v1.20193h12.49996v-1.20193c0-.39663-.3245-.72115-.7211-.72115zm-4.08655 0h-2.88461v-.94952h2.88461z" fill="#2a2a2a"/></g></svg>