<svg fill="none" height="28" viewBox="0 0 168 28" width="168" xmlns="http://www.w3.org/2000/svg" xmlns:xlink="http://www.w3.org/1999/xlink"><linearGradient id="a"><stop offset="0" stop-color="#fff"/><stop offset="1" stop-color="#d8d8d8"/></linearGradient><linearGradient id="b" gradientUnits="userSpaceOnUse" x1="14" x2="14" xlink:href="#a" y1="9.8" y2="28"/><linearGradient id="c" gradientUnits="userSpaceOnUse" x1="42" x2="42" xlink:href="#a" y1="9.8" y2="28"/><linearGradient id="d" gradientUnits="userSpaceOnUse" x1="70" x2="70" xlink:href="#a" y1="9.8" y2="28"/><linearGradient id="e" gradientUnits="userSpaceOnUse" x1="98" x2="98" xlink:href="#a" y1="9.8" y2="28"/><linearGradient id="f" gradientUnits="userSpaceOnUse" x1="126" x2="126" xlink:href="#a" y1="9.8" y2="28"/><linearGradient id="g" gradientUnits="userSpaceOnUse" x1="154" x2="154" xlink:href="#a" y1="9.8" y2="28"/><clipPath id="h"><path d="m0 0h168v28h-168z"/></clipPath><g clip-path="url(#h)"><path d="m24.2168 0h-20.43368c-2.08936 0-3.78312 1.69376-3.78312 3.78312v20.43368c0 2.0895 1.69376 3.7832 3.78312 3.7832h20.43368c2.0895 0 3.7832-1.6937 3.7832-3.7832v-20.43368c0-2.08936-1.6937-3.78312-3.7832-3.78312z" fill="url(#b)"/><path d="m14.0001 17.8498c2.1261 0 3.8497-1.7235 3.8497-3.8497s-1.7236-3.8498-3.8497-3.8498c-2.1262 0-3.8498 1.7236-3.8498 3.8498s1.7236 3.8497 3.8498 3.8497z" fill="#ac3945"/><path d="m52.2168 0h-20.4336c-2.0895 0-3.7832 1.69376-3.7832 3.78312v20.43368c0 2.0895 1.6937 3.7832 3.7832 3.7832h20.4336c2.0895 0 3.7832-1.6937 3.7832-3.7832v-20.43368c0-2.08936-1.6937-3.78312-3.7832-3.78312z" fill="url(#c)"/><path d="m42.0001 11.0741c1.6158 0 2.9258-1.30995 2.9258-2.9258 0-1.61589-1.31-2.92583-2.9258-2.92583-1.616 0-2.9259 1.30994-2.9259 2.92583 0 1.61585 1.3099 2.9258 2.9259 2.9258z" fill="#000"/><path d="m42.0001 22.7775c1.6158 0 2.9258-1.31 2.9258-2.9258 0-1.616-1.31-2.9259-2.9258-2.9259-1.616 0-2.9259 1.3099-2.9259 2.9259 0 1.6158 1.3099 2.9258 2.9259 2.9258z" fill="#000"/><path d="m80.3351 0h-20.6702c-2.0241 0-3.6649 1.64083-3.6649 3.66488v20.67022c0 2.0241 1.6408 3.6649 3.6649 3.6649h20.6702c2.0241 0 3.6649-1.6408 3.6649-3.6649v-20.67022c0-2.02405-1.6408-3.66488-3.6649-3.66488z" fill="url(#d)"/><path d="m62.9783 8.73355c1.6159 0 2.9258-1.30994 2.9258-2.92583s-1.3099-2.92582-2.9258-2.92582c-1.616 0-2.9259 1.30993-2.9259 2.92582s1.3099 2.92583 2.9259 2.92583z" fill="#000"/><path d="m77.022 25.1182c1.6159 0 2.9259-1.3099 2.9259-2.9258s-1.31-2.9259-2.9259-2.9259c-1.6158 0-2.9258 1.31-2.9258 2.9259s1.31 2.9258 2.9258 2.9258z" fill="#000"/><path d="m70.0001 16.9259c1.6159 0 2.9258-1.31 2.9258-2.9258 0-1.616-1.3099-2.9259-2.9258-2.9259-1.616 0-2.9259 1.3099-2.9259 2.9259 0 1.6158 1.3099 2.9258 2.9259 2.9258z" fill="#000"/><path d="m108.217 0h-20.4335c-2.0898 0-3.7835 1.69376-3.7835 3.78312v20.43368c0 2.0895 1.6937 3.7832 3.7835 3.7832h20.4335c2.089 0 3.783-1.6937 3.783-3.7832v-20.43368c0-2.08936-1.694-3.78312-3.783-3.78312z" fill="url(#e)"/><path d="m103.852 11.0741c1.615 0 2.925-1.30995 2.925-2.9258 0-1.61589-1.31-2.92583-2.925-2.92583-1.616 0-2.926 1.30994-2.926 2.92583 0 1.61585 1.31 2.9258 2.926 2.9258z" fill="#ac3945"/><path d="m92.1489 11.0741c1.6152 0 2.9251-1.30995 2.9251-2.9258 0-1.61589-1.3099-2.92583-2.9251-2.92583-1.6161 0-2.926 1.30994-2.926 2.92583 0 1.61585 1.3099 2.9258 2.926 2.9258z" fill="#ac3945"/><path d="m103.852 22.7775c1.615 0 2.925-1.31 2.925-2.9258 0-1.616-1.31-2.9259-2.925-2.9259-1.616 0-2.926 1.3099-2.926 2.9259 0 1.6158 1.31 2.9258 2.926 2.9258z" fill="#ac3945"/><path d="m92.148 22.7775c1.6161 0 2.926-1.31 2.926-2.9258 0-1.616-1.3099-2.9259-2.926-2.9259-1.6153 0-2.9251 1.3099-2.9251 2.9259 0 1.6158 1.3098 2.9258 2.9251 2.9258z" fill="#ac3945"/><path d="m136.335 0h-20.67c-2.024 0-3.665 1.64083-3.665 3.66488v20.67022c0 2.0241 1.641 3.6649 3.665 3.6649h20.67c2.024 0 3.665-1.6408 3.665-3.6649v-20.67022c0-2.02405-1.641-3.66488-3.665-3.66488z" fill="url(#f)"/><path d="m118.686 9.61114c1.615 0 2.925-1.3099 2.925-2.92579s-1.31-2.92583-2.925-2.92583c-1.616 0-2.926 1.30994-2.926 2.92583s1.31 2.92579 2.926 2.92579z" fill="#000"/><path d="m133.315 24.2403c1.615 0 2.925-1.3099 2.925-2.9259 0-1.6158-1.31-2.9258-2.925-2.9258-1.616 0-2.926 1.31-2.926 2.9258 0 1.616 1.31 2.9259 2.926 2.9259z" fill="#000"/><path d="m133.315 9.61114c1.615 0 2.925-1.3099 2.925-2.92579s-1.31-2.92583-2.925-2.92583c-1.616 0-2.926 1.30994-2.926 2.92583s1.31 2.92579 2.926 2.92579z" fill="#000"/><path d="m118.685 24.2403c1.616 0 2.926-1.3099 2.926-2.9259 0-1.6158-1.31-2.9258-2.926-2.9258-1.615 0-2.925 1.31-2.925 2.9258 0 1.616 1.31 2.9259 2.925 2.9259z" fill="#000"/><path d="m126 16.9259c1.616 0 2.926-1.31 2.926-2.9258 0-1.616-1.31-2.9259-2.926-2.9259s-2.926 1.3099-2.926 2.9259c0 1.6158 1.31 2.9258 2.926 2.9258z" fill="#000"/><path d="m164.335 0h-20.67c-2.024 0-3.665 1.64083-3.665 3.66488v20.67022c0 2.0241 1.641 3.6649 3.665 3.6649h20.67c2.024 0 3.665-1.6408 3.665-3.6649v-20.67022c0-2.02405-1.641-3.66488-3.665-3.66488z" fill="url(#g)"/><g fill="#000"><path d="m149.611 8.87974c1.616 0 2.926-1.30994 2.926-2.92583 0-1.6159-1.31-2.92583-2.926-2.92583-1.615 0-2.925 1.30993-2.925 2.92583 0 1.61589 1.31 2.92583 2.925 2.92583z"/><path d="m158.389 24.9718c1.615 0 2.925-1.31 2.925-2.9259s-1.31-2.9258-2.925-2.9258c-1.616 0-2.926 1.3099-2.926 2.9258s1.31 2.9259 2.926 2.9259z"/><path d="m158.389 8.87974c1.615 0 2.925-1.30994 2.925-2.92583 0-1.6159-1.31-2.92583-2.925-2.92583-1.616 0-2.926 1.30993-2.926 2.92583 0 1.61589 1.31 2.92583 2.926 2.92583z"/><path d="m149.611 24.9718c1.616 0 2.926-1.31 2.926-2.9259s-1.31-2.9258-2.926-2.9258-2.926 1.3099-2.926 2.9258 1.31 2.9259 2.926 2.9259z"/><path d="m149.611 16.9259c1.616 0 2.926-1.31 2.926-2.9258 0-1.616-1.31-2.9259-2.926-2.9259s-2.926 1.3099-2.926 2.9259c0 1.6158 1.31 2.9258 2.926 2.9258z"/><path d="m158.389 16.9259c1.615 0 2.925-1.31 2.925-2.9258 0-1.616-1.31-2.9259-2.925-2.9259-1.616 0-2.926 1.3099-2.926 2.9259 0 1.6158 1.31 2.9258 2.926 2.9258z"/></g></g></svg>