<?xml version="1.0" encoding="UTF-8"?>
<svg width="16px" height="13px" viewBox="0 0 16 13" version="1.1" xmlns="http://www.w3.org/2000/svg" xmlns:xlink="http://www.w3.org/1999/xlink">
    <title>ic_Input_eye_close</title>
    <g id="Page-1" stroke="none" stroke-width="1" fill="none" fill-rule="evenodd">
        <g id="ic_Input_eye_close" fill="#666666">
            <path d="M8.004,2.737 C10.012,2.737 11.642,4.269 11.642,6.157 C11.642,6.603 11.547,7.02 11.38,7.41 L13.504,9.408 C14.604,8.546 15.469,7.431 16,6.158 C14.74,3.154 11.634,1.026 7.996,1.026 C6.978,1.026 6.003,1.196 5.1,1.506 L6.672,2.983 C7.087,2.826 7.532,2.737 8.004,2.737 Z M0.728,0.87 L2.388,2.43 L2.721,2.744 C1.514,3.626 0.57,4.804 0,6.158 C1.26,9.162 4.366,11.288 8.004,11.288 C9.131,11.288 10.208,11.084 11.191,10.715 L11.497,11.002 L13.628,13 L14.552,12.13 L1.652,0 L0.728,0.87 Z M4.75,4.652 L5.88,5.712 C5.843,5.856 5.82,6.006 5.82,6.157 C5.82,7.293 6.796,8.21 8.004,8.21 C8.164,8.21 8.324,8.19 8.477,8.156 L9.604,9.216 C9.117,9.442 8.578,9.579 8.004,9.579 C5.994,9.579 4.366,8.045 4.366,6.157 C4.366,5.617 4.511,5.11 4.751,4.652 L4.75,4.652 Z M7.887,4.118 L10.179,6.272 L10.193,6.162 C10.193,5.027 9.218,4.11 8.01,4.11 L7.887,4.117 L7.887,4.118 Z" id="a"></path>
        </g>
    </g>
</svg>