<svg height="18" viewBox="0 0 18 18" width="18" xmlns="http://www.w3.org/2000/svg" xmlns:xlink="http://www.w3.org/1999/xlink"><linearGradient id="a" x1="50%" x2="50%" y1="0%" y2="100%"><stop offset="0" stop-color="#d5d8e3"/><stop offset="1" stop-color="#d0d0d0"/></linearGradient><g fill="none" fill-rule="evenodd"><path d="m0 0h18v18h-18z"/><path d="m12.24947 6.00023077h-.8749117v-1.71484615c-.0011698-2.36627773-1.95904119-4.28423863-4.3745583-4.28538462-2.41551711.00114599-4.37338847 1.91910689-4.3745583 4.28538462v1.71484615h-.87632509c-.96499689.00304203-1.7464011.7688269-1.74911661 1.71415385v8.57076918c.00232936.9458666.78427548 1.7121824 1.74982332 1.7148462h10.49964668c.9655488-.0022819 1.7478108-.7682883 1.75053-1.7141538v-8.57146158c-.0027192-.94586553-.7849812-1.71187197-1.75053-1.71415385zm-5.24947 7.71438463c-.96554785-.0026638-1.74749396-.7689796-1.74982332-1.7148462.00271745-.9455961.78455043-1.7114918 1.74982332-1.7141538.96527289.002662 1.74710587.7685577 1.74982332 1.7141538-.00232936.9458666-.78427547 1.7121824-1.74982332 1.7148462zm2.71236749-7.71438463h-5.42473498v-1.71484615c.00116917-1.46698839 1.21485284-2.65593159 2.71236749-2.65707693 1.49751465.00114534 2.71119832 1.19008854 2.71236749 2.65707693z" fill="url(#a)" fill-rule="nonzero" transform="translate(2)"/></g></svg>