<svg fill="none" height="11" viewBox="0 0 11 11" width="11" xmlns="http://www.w3.org/2000/svg"><path d="m5.50567 10.8399 3.65481-3.66778c.17325-.17324.17325-.45395 0-.62812-.17324-.17325-.45303-.17325-.62627 0l-3.42321 3.43617-3.42413-3.43617c-.17324-.17325-.45303-.17325-.62627 0-.173247.17417-.173247.45488 0 .62812l3.65481 3.66778c.18251.1788.5466.2437.79026 0z" fill="#fff"/><path d="m4.71503.16009-3.65481 3.66779c-.173245.17324-.173245.45395 0 .62812.17324.17325.45303.17325.62627 0l3.42321-3.43617 3.42413 3.43617c.17325.17325.45303.17325.62628 0 .17324-.17417.17324-.45488 0-.62812l-3.65482-3.66779c-.18251-.1788029-.5466-.2436539-.79026 0z" fill="#ff8a15"/></svg>