<svg fill="none" height="11" viewBox="0 0 11 11" width="11" xmlns="http://www.w3.org/2000/svg"><path d="m5.61602 10.8399 3.65481-3.66778c.17325-.17324.17325-.45395 0-.62812-.17324-.17325-.45302-.17325-.62627 0l-3.4232 3.43617-3.42414-3.43617c-.17324-.17325-.45303-.17325-.62627 0-.173246.17417-.173246.45488 0 .62812l3.65481 3.66778c.18251.1788.54661.2437.79026 0z" fill="#ff8a15"/><path d="m4.82539.16009-3.65482 3.66779c-.173243.17324-.173243.45395 0 .62812.17325.17325.45303.17325.62628 0l3.4232-3.43617 3.42413 3.43617c.17325.17325.45303.17325.62628 0 .17324-.17417.17324-.45488 0-.62812l-3.65482-3.66779c-.18251-.1788029-.5466-.2436539-.79025 0z" fill="#fff"/></svg>