<svg fill="none" height="35" viewBox="0 0 38 35" width="38" xmlns="http://www.w3.org/2000/svg" xmlns:xlink="http://www.w3.org/1999/xlink"><clipPath id="a"><path d="m0 0h38v34.5455h-38z"/></clipPath><g clip-path="url(#a)" fill="#fb8d10"><path d="m0 27.2359c.188454-1.7179 1.1052-3.1285 1.95129-4.5702.71553-1.2204 1.42322-2.4456 2.13483-3.6689 2.98582-5.138 5.97658-10.27303 8.95548-15.4149 1.0866-1.87491 2.6531-3.055271 4.8105-3.473761 2.446-.474094 5.3297.637978 6.642 2.741161 1.4066 2.25438 2.713 4.57023 4.0498 6.86656 2.817 4.83754 5.6222 9.68184 8.4383 14.51934.9098 1.5638 1.2465 3.2124.8598 4.9966-.6743 3.1089-3.4324 5.2969-6.7412 5.3077-3.5885.0117-7.1769.0029-10.7644.0029-4.467 0-8.9339.0019-13.39992 0-2.16427-.001-3.97814-.7775-5.37192-2.4466-.824485-.9872-1.312306-2.1275-1.4987974-3.3967-.0137414-.0946-.0431874-.1873-.0657626-.2809v-1.1804zm18.9416 4.26c4.0076 0 8.0152-.001 12.0228 0 .9697 0 1.8619-.2244 2.6148-.8623 1.4556-1.2331 1.7628-3.1275.7754-4.8288-3.1242-5.3828-6.2504-10.7637-9.3785-16.14454-.9708-1.66909-1.9081-3.35963-2.9378-4.99165-.7675-1.21645-1.967-1.71981-3.4049-1.58714-1.3221.12291-2.2526.83503-2.9083 1.96564-3.1585 5.44819-6.3289 10.88859-9.49237 16.33379-.93246 1.6057-1.89927 3.1938-2.77185 4.8317-.65272 1.2242-.52119 2.4787.24048 3.6386.7705 1.1735 1.913 1.6457 3.29107 1.6447 3.98307-.0029 7.96607-.001 11.94917-.001z"/><path d="m20.9225 13.4105c-.1492 2.5538-.2993 5.1282-.4505 7.7035-.0216.3668-.0049.7404-.0726 1.0994-.1247.6653-.7352 1.1306-1.4124 1.1296-.7058 0-1.3261-.4653-1.4066-1.1667-.1128-.9872-.1492-1.9822-.211-2.9743-.1227-1.949-.2307-3.8981-.3632-5.8461-.0962-1.4116.9335-2.5003 2.2399-2.3403.8971.1103 1.6048.8458 1.6735 1.7501.0157.2078.002.4175.002.6458z"/><path d="m17.0645 26.202c.0069-1.0633.904-1.9364 1.9739-1.9198 1.061.0156 1.8786.8721 1.8776 1.9676 0 1.0399-.8598 1.8954-1.9071 1.8983-1.0718.0039-1.9522-.8769-1.9444-1.9461z"/></g></svg>