<svg fill="none" height="23" viewBox="0 0 23 23" width="23" xmlns="http://www.w3.org/2000/svg" xmlns:xlink="http://www.w3.org/1999/xlink"><clipPath id="a"><path d="m.5.5h22v22h-22z"/></clipPath><g clip-path="url(#a)"><rect fill="#1677ff" height="22" rx="2.5" width="22" x=".5" y=".5"/><path d="m6.44459 17.5626c-3.42261 0-4.43449-2.7189-2.74303-4.2065.56444-.5027 1.59586-.7481 2.14575-.8032 2.03311-.2026 3.91514.5796 6.13609 1.673-1.5611 2.0539-3.54955 3.3367-5.53881 3.3367zm12.16871-3.1306c-.8803-.2974-2.0615-.7521-3.3773-1.2321.7902-1.3854 1.4213-2.963 1.8361-4.67748h-4.3366v-1.57528h5.3124v-.87929h-5.3124v-2.62603h-2.1679c-.3804 0-.3804.37865-.3804.37865v2.24738h-5.37276v.87929h5.37276v1.57528h-4.4359v.87909h8.6034c-.3149 1.09399-.7376 2.12099-1.2393 3.05409-2.7916-.9289-5.77053-1.6818-7.64196-1.2184-1.19684.2974-1.96765.8282-2.42049 1.3843-2.078421 2.5504-.58772 6.4242 3.80167 6.4242 2.59527 0 5.09538-1.4594 7.03308-3.8643 2.8902 1.4012 8.6123 3.8069 8.6123 3.8069v-3.4286s-.7186-.0578-3.8867-1.1277z" fill="#fff"/></g></svg>