<svg width="24" height="24" viewBox="0 0 24 24" fill="none" xmlns="http://www.w3.org/2000/svg">
<path d="M8.26668 20.7538C7.50909 21.2366 6.5184 20.9869 6.05827 20.2009C5.84014 19.8277 5.77235 19.3821 5.86927 18.9585L6.84983 14.6697C6.86151 14.6198 6.85979 14.5675 6.84486 14.5185C6.82992 14.4695 6.80233 14.4256 6.76501 14.3914L3.55534 11.523C2.88865 10.9276 2.8117 9.88639 3.38164 9.19225C3.51725 9.02664 3.68351 8.89023 3.87081 8.79089C4.05811 8.69155 4.26275 8.63126 4.4729 8.61349L8.68518 8.26157C8.77698 8.25372 8.85911 8.19165 8.89668 8.09726L10.5196 4.02633C10.8578 3.17827 11.7983 2.77327 12.6189 3.12935C13.0103 3.29992 13.3199 3.62239 13.4802 4.02633L15.1032 8.09703C15.1407 8.19165 15.2229 8.25395 15.3147 8.26157L19.5274 8.61372C20.4108 8.68756 21.0648 9.48901 20.9949 10.3989C20.962 10.8331 20.7645 11.2369 20.4447 11.5234L17.2351 14.3919C17.1604 14.4585 17.1266 14.5665 17.1502 14.6699L18.1308 18.9587C18.3338 19.846 17.8068 20.74 16.9466 20.9539C16.7416 21.0049 16.5286 21.0136 16.3203 20.9792C16.1119 20.9449 15.9123 20.8684 15.7332 20.7541L12.1266 18.4556C12.0886 18.4312 12.0447 18.4182 11.9999 18.4182C11.9551 18.4182 11.9112 18.4312 11.8733 18.4556L8.26668 20.7538Z" fill="url(#paint0_linear_308_16462)"/>
<defs>
<linearGradient id="paint0_linear_308_16462" x1="12" y1="3" x2="12" y2="21" gradientUnits="userSpaceOnUse">
<stop stop-color="#FF8A15"/>
<stop offset="1" stop-color="#F29106"/>
</linearGradient>
</defs>
</svg>
