<svg fill="none" height="14" viewBox="0 0 14 14" width="14" xmlns="http://www.w3.org/2000/svg" xmlns:xlink="http://www.w3.org/1999/xlink"><linearGradient id="a" gradientUnits="userSpaceOnUse" x1="7" x2="7" y1="12.5" y2="1.5"><stop offset="0" stop-color="#ff8a15"/><stop offset="1" stop-color="#f9aa3a"/></linearGradient><path d="m6.66787 4.81368c0 1.02404-.83015 1.85419-1.85419 1.85419h-1.45949c-1.02404 0-1.85419-.83015-1.85419-1.85419v-1.45949c0-1.02404.83015-1.85419 1.85419-1.85419h1.45949c1.02404 0 1.85419.83015 1.85419 1.85419zm0 5.83212c0 1.024-.83015 1.8542-1.85419 1.8542h-1.45949c-1.02404 0-1.85419-.8302-1.85419-1.8542v-1.45948c0-1.02404.83015-1.85419 1.85419-1.85419h1.45949c1.02404 0 1.85419.83015 1.85419 1.85419zm5.83213-5.83212c0 1.02404-.8302 1.85419-1.8542 1.85419h-1.45948c-1.02404 0-1.85419-.83015-1.85419-1.85419v-1.45949c0-1.02404.83015-1.85419 1.85419-1.85419h1.45948c1.024 0 1.8542.83015 1.8542 1.85419zm-2.59457 2.47328c-1.43293 0-2.59456 1.16163-2.59456 2.59456 0 1.43298 1.16163 2.59458 2.59456 2.59458 1.43297 0 2.59457-1.1616 2.59457-2.59458 0-1.43293-1.1616-2.59456-2.59457-2.59456zm0 4.11484c-.83961 0-1.52027-.6807-1.52027-1.52028 0-.83961.68066-1.52027 1.52027-1.52027.83957 0 1.52027.68066 1.52027 1.52027 0 .83958-.6807 1.52028-1.52027 1.52028z" fill="url(#a)"/></svg>