<svg fill="none" height="14" viewBox="0 0 14 14" width="14" xmlns="http://www.w3.org/2000/svg" xmlns:xlink="http://www.w3.org/1999/xlink"><linearGradient id="a" gradientUnits="userSpaceOnUse" x1="7.05745" x2="7.05745" y1="14" y2="0"><stop offset="0" stop-color="#ff8a15"/><stop offset="1" stop-color="#f9aa3a"/></linearGradient><path d="m7.6309 5.43314c-.38839-.43275-.94352-.68123-1.52282-.68123h-1.15595c-.57931 0-1.13446.24848-1.52307.68123l-1.86202 2.07619c-.09298.10383-.08858.26264.00909.36101l.63405.63782c.0512.05127.11898.08139.19276.07641.07203-.00239.13979-.03455.18705-.08922l1.33624-1.5383v6.78075c0 .145.11643.2622.26007.2622h.89649c.14336 0 .26001-.1172.26001-.2622v-3.94982h.3759v3.94992c0 .1449.11637.2621.26001.2621h.89572c.14364 0 .25975-.1172.25923-.2621v-6.7806l1.33656 1.53807c.04778.05467.11587.08683.18779.08921.06964.00545.14158-.02537.19224-.07641l.63335-.63781c.09845-.09862.10184-.25718.0088-.36101zm4.693-5.43314h-1.3397c-.161 0-.2917.130647-.2917.29227 0 .160999.1304.291933.2917.291933h1.0477v2.769957h-.7121c-.1616 0-.2917.13098-.2917.29225 0 .16102.1301.292.2917.292h.7121v2.76964h-.7121c-.1616 0-.2917.13071-.2917.292 0 .16127.1301.29217.2917.29217h.7121v2.76948h-.7121c-.1616 0-.2917.13-.2917.2919s.1301.2922.2917.2922h.7121v2.77h-1.0478c-.1612 0-.2916.1306-.2916.2919 0 .1616.1304.2923.2916.2923h1.3395c.1609 0 .291-.1307.2913-.2923v-13.415767c0-.161287-.1301-.291933-.291-.291933zm-6.79356 4.37334c.80219 0 1.45527-.65772 1.45527-1.46561s-.65308-1.4653-1.45527-1.4653c-.80243 0-1.45521.65741-1.45521 1.4653 0 .80813.65278 1.46561 1.45521 1.46561z" fill="url(#a)"/></svg>