<svg fill="none" height="12" viewBox="0 0 12 12" width="12" xmlns="http://www.w3.org/2000/svg"><path clip-rule="evenodd" d="m9.97303.847656h-6.84931c-.20548 0-.34247.136986-.34247.342464 0 .20548.13699.34247.34247.34247h6.84931c.20547 0 .34247.13698.34247.34246v6.87671h-.41097v.00215h-.00054c-.04497 0-.08951.00885-.13106.02606-.04155.01722-.0793.04244-.1111.07424s-.05703.06956-.07424.11111-.02607.08608-.02607.13105.00886.08951.02607.13106.04244.0793.07424.1111.06955.05703.1111.07424.08609.02607.13106.02607c.01282 0 .0256-.00072.03828-.00215h1.05813v-7.56164c0-.58219-.4794-1.027394-1.02737-1.027394zm-.75386 10.461644h-7.19177c-.58219 0-1.0274-.4452-1.0274-1.0273v-7.56169h7.19178c.58219 0 1.02739.44521 1.02739 1.0274zm-7.53424-7.90406v6.87676c0 .2054.13699.3424.34247.3424h6.50684v-6.87669c0-.20548-.13699-.34247-.34246-.34247zm5.48001 2.79297h-4.10958c-.17124 0-.34247-.13698-.34247-.34246 0-.17124.13699-.34247.34247-.34247h4.10958c.17123 0 .34247.13699.34247.34247 0 .17123-.17124.34246-.34247.34246zm0 2.21233h-4.10958c-.17124 0-.34247-.13699-.34247-.34247 0-.17123.13699-.34246.34247-.34246h4.10958c.17123 0 .34247.13698.34247.34246 0 .17124-.17124.34247-.34247.34247z" fill="#fff" fill-rule="evenodd"/></svg>