<svg fill="none" height="14" viewBox="0 0 14 14" width="14" xmlns="http://www.w3.org/2000/svg"><path d="m7.00016 3c-4.29501 0-6.50016 4.34197-6.50016 4.34197s1.66403 4.34253 6.50016 4.34253c4.37954 0 6.49984-4.32559 6.49984-4.32559s-2.1372-4.35891-6.49984-4.35891zm.00977 7.056c-1.57043 0-2.70563-1.18749-2.70563-2.71407 0-1.52671 1.13529-2.71385 2.70563-2.71385 1.57033 0 2.7055 1.18704 2.7055 2.71385.00001 1.52658-1.13515 2.71407-2.7055 2.71407zm0-4.34259c-.89756.00206-1.62334.75623-1.62334 1.62853 0 .87184.72579 1.62845 1.62334 1.62845.8975 0 1.62323-.75666 1.62323-1.62845.00006-.8726-.72572-1.63021-1.62323-1.62853z" fill="#8a898d"/></svg>