<svg fill="none" height="40" viewBox="0 0 40 40" width="40" xmlns="http://www.w3.org/2000/svg" xmlns:xlink="http://www.w3.org/1999/xlink"><linearGradient id="a"><stop offset="0" stop-color="#fea96b"/><stop offset="1" stop-color="#ff6422"/><stop offset="1" stop-color="#f17922"/></linearGradient><linearGradient id="b" gradientUnits="userSpaceOnUse" x1="-7.34518" x2="21.4603" xlink:href="#a" y1="11.2599" y2="37.8325"/><linearGradient id="c" gradientUnits="userSpaceOnUse" x1="-7.34518" x2="21.4603" xlink:href="#a" y1="27.7599" y2="54.3325"/><path d="m16.444 10.431h-1.224v4.59c0 .816-.034 1.5923-.102 2.329s-.1813 1.3827-.34 1.938h-4.284c-.034-.3513-.0737-.7537-.119-1.207s-.0963-.9237-.153-1.411c-.0453-.4873-.102-.9747-.17-1.462-.05667-.4873-.11333-.9463-.17-1.377h1.751c.0567.408.1133.833.17 1.275.068.4307.1303.867.187 1.309.068.442.1247.8727.17 1.292.0567.4307.1077.8387.153 1.224.2153-.578.357-1.2127.425-1.904.0793-.7027.119-1.3657.119-1.989v-10.88l6.647-.374v2.346l-4.284.255v1.785h4.522v2.261h-1.003v8.857h-2.295zm-9.282-5.933c-.04533-.14733-.09067-.28333-.136-.408-.034-.136-.068-.24933-.102-.34h2.499c.04533.09067.09067.19833.136.323.05667.12467.11333.26633.17.425h2.499v2.04h-.612c-.0793.34-.1643.663-.255.969-.0793.29467-.1757.60067-.289.918h1.343v2.023h-2.822v.816h2.686v2.074h-2.686v2.312c0 .612-.034 1.241-.102 1.887-.05667.6573-.14733 1.241-.272 1.751h-2.839c.26067-.4873.46467-1.037.612-1.649.14733-.6007.221-1.2693.221-2.006v-2.295h-2.805v-2.074h2.805v-.816h-2.992v-2.023h1.394c-.068-.306-.14733-.62333-.238-.952s-.187-.64033-.289-.935h-.612v-2.04zm-3.162 14.79c.238-.85.43633-1.751.595-2.703.15867-.9633.28333-1.8813.374-2.754h1.887c-.04533.4307-.09633.8783-.153 1.343s-.12467.935-.204 1.411c-.068.476-.153.9407-.255 1.394-.09067.4647-.19267.901-.306 1.309zm4.828-10.863c.11333-.32867.21533-.646.306-.952.09067-.31733.17-.629.238-.935h-2.057c.102.306.19833.61767.289.935.09067.306.18133.62333.272.952z" fill="url(#b)"/><path d="m35.756 13.984v5.304h-13.583v-5.304zm-4.148-.442c-.3287-.1133-.7083-.255-1.139-.425s-.8897-.3627-1.377-.578c-.7707.3967-1.5243.731-2.261 1.003h-5.287c.884-.3173 1.7567-.6573 2.618-1.02.8727-.3627 1.7113-.7367 2.516-1.122l-1.632-.799c-.2493.2493-.4647.4477-.646.595h-3.196c.306-.2833.6403-.6063 1.003-.969.3627-.374.7197-.75367 1.071-1.139.3627-.38533.697-.75933 1.003-1.122.306-.374.544-.697.714-.969h3.145c-.068.11333-.1417.22667-.221.34-.0793.102-.1643.21533-.255.34h8.296c-.544.578-1.2127 1.173-2.006 1.785-.782.612-1.632 1.207-2.55 1.785.3967.17.7933.34 1.19.51s.8103.3457 1.241.527c.442.1813.918.3797 1.428.595.51.204 1.071.425 1.683.663zm2.023-6.953h-9.35v.884h-2.754v-2.958h5.678c-.1473-.34-.2663-.595-.357-.765h3.536c.0453.09067.0907.204.136.34.0567.12467.1133.26633.17.425h5.695v2.958h-2.754zm-8.602 10.727h7.871v-1.343h-7.871zm1.207-7.939-.391.408h1.564l1.36.561c.2947-.1587.578-.3173.85-.476.2833-.17.5497-.33433.799-.493z" fill="url(#b)"/><g fill="url(#c)"><path d="m12.449 24.177c-.1587-.7027-.3003-1.3713-.425-2.006-.1133-.6347-.2153-1.275-.306-1.921h2.601c.1133.9293.3173 2.0117.612 3.247.2833-.3853.5553-.7707.816-1.156.272-.3967.5383-.7933.799-1.19h3.23c-.6347.952-1.2467 1.8417-1.836 2.669-.578.8273-1.1503 1.6207-1.717 2.38h2.635c.0453.6913.0907 1.3657.136 2.023.0567.6573.119 1.326.187 2.006s.1417 1.3883.221 2.125c.0907.7253.187 1.5073.289 2.346h-2.771c-.0907-.7707-.17-1.5073-.238-2.21s-.1303-1.394-.187-2.074-.1133-1.36-.17-2.04c-.0453-.68-.0907-1.3883-.136-2.125-.7253.9747-1.4393 1.8927-2.142 2.754s-1.428 1.7057-2.176 2.533l.204 1.887h4.165v2.38h-6.664l-.187-1.683c-.272.2833-.55533.561-.85.833-.28333.2833-.57233.5667-.867.85h-3.672c.918-.884 1.79067-1.7453 2.618-2.584s1.632-1.6773 2.414-2.516l-1.02-9.554h2.754l.714 6.766c.5327-.6233 1.037-1.241 1.513-1.853.4873-.6233.969-1.2523 1.445-1.887zm-8.262 7.599c.22667-1.9833.40233-3.7287.527-5.236s.204-2.8617.238-4.063h2.635c-.02267.68-.05667 1.3713-.102 2.074-.034.7027-.07933 1.4337-.136 2.193-.05667.748-.12467 1.5413-.204 2.38-.07933.8273-.17567 1.7113-.289 2.652z"/><path d="m26.984 23.038.408-.68-4.947.153v-1.785l13.005-.408v1.785l-5.083.17-.442.765h5.933v1.683h-6.953c-.068.1133-.136.2267-.204.34-.068.102-.1417.204-.221.306h8.092v1.751h-9.282c-.068.1133-.1417.221-.221.323-.068.102-.1417.204-.221.306h8.84v8.041h-12.07v-4.811h-2.482c.578-.68 1.1163-1.3373 1.615-1.972.51-.646.9973-1.275 1.462-1.887h-2.839v-1.751h4.097l.442-.646h-3.825v-1.683zm-.748 6.409v.646h6.868v-.646zm6.868 4.522v-.646h-6.868v.646zm-6.868-1.938h6.868v-.646h-6.868z"/></g></svg>