<svg fill="none" height="24" viewBox="0 0 98 24" width="98" xmlns="http://www.w3.org/2000/svg" xmlns:xlink="http://www.w3.org/1999/xlink"><linearGradient id="a" gradientUnits="userSpaceOnUse" x1="21.2134" x2="66.7353" y1="35.4161" y2="-22.2387"><stop offset="0" stop-color="#c49890"/><stop offset=".9986" stop-color="#f9eccc"/></linearGradient><g fill="url(#a)"><path d="m19.7574 16.3711c1.075 1.175 2.35 2.25 3.95 3.375l-2.15 3.75c-1.575-1.4-2.875-2.65-3.975-3.975-1.175 1.425-2.65 2.8-4.4 4.15l-1.15-1.45c-3.12498.2-8.14998.575-11.349978.85l-.325-4 4.574998-.2v-1.875h-3.375v-3.675h3.375v-1.875c-.1 0-.2.025-.3.025-1.075.075-1.95.225-2.75.4l-.825-3.40001c.5-.225.65-.375 1.175-.85.4-.475 1.225-1.85 1.675-2.75h-2.725v-3.775h11.29998v3.775h-4.62498c-.5.9-1.225 2.05-2 3.125.725.025 1.725-.025 2.725-.1-.275-.475-.5-.875-.775-1.275l2.52498-1.45c.6.825 1.25 1.75 1.875 2.725 1.275-2.075 2.225-4.9 2.75-7.424996l3.725.325c-.225.874996-.45 1.699996-.675 2.474996h5.125v4.125h-.825c-.375 3.52501-1.075 6.37501-2.55 8.97501zm-.875-8.97501h-2.4l-.375.825c.275 1.90001.675 3.40001 1.35 4.80001.7-1.625 1.15-3.45001 1.425-5.62501zm-6.325 11.00001v.675c1.125-.875 2.05-1.725 2.85-2.7-.7-1.275-1.25-2.625-1.725-4.225-.275.325-.5.65-.775.975l-.575-2.1-1.45 1.125c-.175-.375-.35-.7-.525-1.025l-1.59998.1v2.1h3.42498v3.675h-3.42498v1.65c1.47498-.075 2.79998-.175 3.79998-.25z"/><path d="m39.3133 1.57109h8.125v5.2h-3.95v-2.25h-13.625v2.25h-3.725v-5.2h8.475l-.45-1.199996h4.775c.075.125.25.724996.375 1.199996zm-9.075 3.75h12.875v2.3h-12.875zm-1.475 8.27501v-5.17501h16.05v5.17501zm3.625-3.15v1.025h8.775v-1.025zm-5 12.825v-8.85h18.8v8.85zm7.525-6.825h-3.6v1.25h3.6zm7.175 1.25v-1.25h-3.425v1.25zm-10.775 2.2v1.15h3.6v-1.15zm7.35 1.15h3.425v-1.15h-3.425z"/><path d="m70.2441 18.1211c.925.95 1.95 1.8 3.075 2.525l-3.125 2.95c-1.8-1.6-3.225-3.15-4.3-4.95l.1 3.575c-1.15.2-3.3.75-4.05.95-.775.2-1.775.475-2.3.675l-1.1-2.775.05.65c-.775.25-2.925 1.225-3.525 1.425-.725.375-1.15.475-1.725.8l-1.575-3.1c.725-.525 1-.925 1-2.2v-2.3h-2.225v-3.575h2.225v-1.775h-1.625v-3.05001l-1.2-.625c1.05-2.04999 2.275-4.725 2.8-6.874996l3.8.15c-.125.499996-.25.999996-.425 1.574996h2.5v3.6h-3.825c-.225.575-.45 1.125-.725 1.675h4.2v3.55001h-1.925v1.775h2.275v3.575h-2.275v2.8l2.025-.9.125 1.95c.85-.525 1.05-.9 1.05-2.325v-16.77501h12.15v12.12501h-4.3c.2.8.525 1.55.9 2.275.875-.625 1.775-1.35 2.45-1.95l2 2.7c-.575.475-1.575 1.25-2.5 1.875zm-2.325-13.67501h-4.575v1.5h4.575zm-4.575 5.5h4.575v-1.45h-4.575zm-.125 3.27501v5.75c.675-.075 1.9-.425 2.55-.55-.9-1.575-1.5-3.225-1.775-5.2z"/><path d="m97.5 12.7711h-10.525v3.125l1.825-2.6c1.775 1.05 5.875 3.75 7.225 4.75l-2.025 3.5c-1.925-1.45-5.05-3.675-7.025-5v7.05h-4.25v-10.825h-7.6v-4.10001h7.6v-8.299996l4.25.1v2.124996h8.075v3.875h-8.075v2.2h10.525z"/></g></svg>