<svg fill="none" height="24" viewBox="0 0 98 24" width="98" xmlns="http://www.w3.org/2000/svg" xmlns:xlink="http://www.w3.org/1999/xlink"><linearGradient id="a" gradientUnits="userSpaceOnUse" x1="21.531" x2="67.0529" y1="35.6446" y2="-22.0102"><stop offset="0" stop-color="#fd7c01"/><stop offset=".9977" stop-color="#fcab00"/></linearGradient><g fill="url(#a)"><path d="m5.22501 6.72461c.475-.475.9-.95 1.375-1.475h-4.75v-3.95h20.99999v3.95h-4.25c1.425 1.425 2.975 3.175 4.25 4.79999l-3.125 3-1.3-1.8-10.29999.425c-2.275.125-3.175.275-4.725.475l-1.125-3.87499c1.2-.275 1.85-.45 2.95-1.55zm10.42499 1.025c-.525-.675-1.025-1.2-1.425-1.6l1.2-.9h-3.8c-.725.875-1.475 1.7-2.44999 2.775 1.52499 0 4.22499-.15 6.47499-.275zm-1.075 11.67499h9.175v3.825h-22.774994v-3.825h9.299994v-1.95h-7.44999v-3.75h7.44999v-1.6l4.3.1v1.5h7.325v3.75h-7.325z"/><path d="m48.4809 16.4746v2.9h-3.375v1.25c0 2.175-.65 2.775-3.675 3.05l-2.15.2-1.15-3.075 1.5-.125c.975-.075 1.375-.275 1.375-1.15v-.15h-7.725c.875.475 1.65.925 2.325 1.35l-1.95 2.825c-1.2-1-3.225-2.35-4.425-3.075l.95-1.1h-4.35v-2.9h15.175v-.925h-13.6v-9.84999l5.15.025v-1h-6.25v-3h4.3c-.2-.4-.375-.800001-.5-1.025001l4.55-.1c.125.275.325.700001.5 1.125001h3.925l.525-1.125001 4.725.15c-.075.175001-.3.550001-.525.975001h4.25v3h-6.6v1l5.525-.025v9.84999h-1.875v.925zm-10.575-11.74999h-1.775v1.175h1.775zm-5.15 3.075h-1.775v3.07499h1.975l-1.95-1.34999c.875-.475 1.575-.95 1.75-1.725zm5.025 0h-1.55c-.025 1.025-.775 2.2-1.65 3.07499h8.85v-.575h-3.825c-1.5 0-1.825-.44999-1.825-1.84999zm5.65.8v-.8h-2.225v.275c0 .375.3.525.775.525zm-12.45 4.09999v.75h12.45v-.75z"/><path d="m68.6617 15.1496 1.925 1.35c-.45.775-1.35 2.125-2.15 3.05h4.275v3.725h-21.6v-3.725h4.225c-.8-1.05-1.775-2.325-2.325-2.875l2.075-1.525h-2.925v-3.675h7.675v-1.45h-4.85v-1.19999c-.975.5-1.975 1-3.05 1.47499l-1.8-3.79999c4.8-1.675 7.725-3.525 9.775-5.85h4.05c2.1 2.475 5.15 4.325 9.675 5.85l-1.65 3.72499c-1.05-.37499-2.1-.84999-3.15-1.39999v1.19999h-4.85v1.45h7.675v3.675zm-6.725-11.04999c-.825.825-1.875 1.625-3.1 2.45h6.125c-1.125-.775-2.15-1.575-3.025-2.45zm-2.1 11.04999h-3.325c.775.775 1.75 1.95 2.425 2.875l-1.725 1.525h2.625zm7.175 0h-3.025v4.4h2.7l-2.05-1.35c.6-.6 1.625-2.025 2.375-3.05z"/><path d="m97.8176 12.9996h-10.525v3.125l1.825-2.6c1.775 1.05 5.875 3.75 7.225 4.75l-2.025 3.5c-1.925-1.45-5.05-3.675-7.025-5v7.05h-4.25v-10.825h-7.6v-4.09999h7.6v-8.300001l4.25.1v2.125001h8.075v3.875h-8.075v2.2h10.525z"/></g></svg>