<svg fill="none" height="19" viewBox="0 0 56 19" width="56" xmlns="http://www.w3.org/2000/svg" xmlns:xlink="http://www.w3.org/1999/xlink"><linearGradient id="a" gradientUnits="userSpaceOnUse" x1="58.75" x2=".499999" y1="6.75" y2="7.25"><stop offset="0" stop-color="#362e4c"/><stop offset="1" stop-color="#48455b"/></linearGradient><path d="m.5 0h55v12c0 3.866-3.134 7-7 7h-48z" fill="url(#a)"/><path d="m11.92 9.91v3.89h.69v-3.2h3.58v3.15h.72v-3.84zm4.62-5.27c-1.11.4-3.14.71-4.88.9.09.17.19.46.22.64 1.79-.17 3.88-.48 5.25-.95zm-2.46.87v4.8h.72v-4.8zm-2.89 2.03v.72h6.37v-.72zm1.2 5.14v.69h4.13v-.69zm-3.49-7.42c.62.33 1.45.82 1.87 1.12l.44-.61c-.43-.29-1.28-.74-1.89-1.04zm-.49 2.76c.61.32 1.44.8 1.85 1.08l.42-.61c-.42-.29-1.26-.73-1.85-1.02zm.24 5.14.63.51c.59-.93 1.29-2.18 1.82-3.24l-.54-.49c-.58 1.14-1.37 2.46-1.91 3.22zm14.42-6.25v.72h4.01v-.72zm3.64 0v.17c-.11 3.98-.25 5.42-.52 5.74-.11.12-.22.15-.39.14-.22 0-.74 0-1.31-.05.14.21.22.52.24.74.53.03 1.07.04 1.38.01.33-.04.53-.12.73-.39.35-.44.47-1.85.6-5.98 0-.1.01-.38.01-.38zm-2.19-2.13c-.01 3.27-.02 6.71-1.94 8.47.19.12.45.37.58.54 2.03-1.92 2.08-5.53 2.1-9.01zm-5.63.64v.68h3.87v-.68zm-.36 2.39v.68h4.41v-.68zm2.95 1.72c.37.91.8 2.13.97 2.84l.66-.23c-.18-.69-.63-1.89-1.02-2.78zm-2.59 3.04c.24-.14.62-.25 3.7-.94-.03-.16-.08-.45-.1-.65l-3.28.69-.38.27zm0 0c0-.16.52-.42.52-.42v-.01c.51-1.03 1.02-2.5 1.33-3.84l-.73-.23c-.24 1.3-.75 2.74-.9 3.1-.17.39-.3.65-.46.7.08.19.2.54.24.7zm9.67-4.94v.72h8.73v-.72zm.81-1.91v.72h7.2v-.72zm1.68 3.75v.71h4.88v-.71zm4.66 0v.1c-.63.66-1.86 1.88-2.86 2.79l.67.4c1.01-.96 2.21-2.15 3.04-2.99l-.57-.34-.13.04zm-5.14 2.48c1.53.45 3.52 1.27 4.5 1.86l.46-.64c-1.04-.6-3.05-1.36-4.54-1.77zm1.68-7.37c-.47 1.76-1.24 4.17-1.8 5.59l.79.01c.51-1.35 1.26-3.72 1.77-5.49zm6.29 6.64v.66h8.93v-.66zm4.04-6.62v1.27h.78v-1.27zm-3.1 4.8v.61h6.31v-.61zm3.11 1.23v2.39c0 .15-.06.19-.24.2-.17 0-.86.01-1.54-.01.1.18.22.43.26.62.9 0 1.48 0 1.83-.09.35-.1.47-.28.47-.7v-2.41zm3.03-1.23v.15c-.63.42-1.85.89-2.89 1.15.11.1.29.3.38.43 1.18-.29 2.48-.79 3.38-1.35l-.5-.41-.17.03zm-4.98-2.07h4.73v.9h-4.73zm-.74-.56v2.02h6.25v-2.02zm-1.27-1.29v.65h8.71v-.65z" fill="#dfc3af"/></svg>