<svg fill="none" height="20" viewBox="0 0 20 20" width="20" xmlns="http://www.w3.org/2000/svg"><g stroke="#feebca" stroke-linecap="round" stroke-linejoin="round" stroke-width="1.12551"><path d="m11.7408 15.3008c0 .4578-.3003 1.058-.6829 1.2906l-1.05793.6828c-.98295.6078-2.34859-.075-2.34859-1.2905v-4.0144c0-.5327-.30014-1.2155-.60778-1.5907l-2.88132-3.03139c-.38267-.38268-.68279-1.05798-.68279-1.51569v-1.7408c0-.90792.68283-1.59072 1.5157-1.59072h10.00951c.8328 0 1.5157.6828 1.5157 1.51569v1.66576c0 .60777-.3827 1.36563-.7578 1.7408" stroke-miterlimit="10"/><path d="m13.0538 13.3875c1.3261 0 2.4011-1.075 2.4011-2.4011 0-1.32606-1.075-2.40107-2.4011-2.40107s-2.4011 1.07501-2.4011 2.40107c0 1.3261 1.075 2.4011 2.4011 2.4011z"/><path d="m15.905 13.8377-.7503-.7503"/></g></svg>